<svg id="Cake_and_Bakery" height="512" viewBox="0 0 1200 1200" width="512" xmlns="http://www.w3.org/2000/svg"><g><path d="m1099.134 496.056c-4.613-78.746-38.83-139.006-96.271-187.264-12.508-35.561-71.58-95.059-118.869-96.494-13.555.004-25.91 5.162-34.783 14.527-1.779 1.877-3.393 3.889-4.848 6.035-22.975-5.854-47.346-10.777-73.617-14.883-23.996-23.564-54.168-53.195-91.125-54.324-26.633.002-46.908 17.436-50.318 42.781-8.965 4.328-17.527 3.41-27.055 3.111-28.216-.689-63.046-1.02-89.357 1.063-9.807-5.48-22.318-10.9-36.84-10.9-16.088-.25-32.365 7.441-41.16 20.719-184.384 29.526-306.389 123.457-328.222 253.733-13.104 53.422-15.707 108.404-7.578 159.5-16.315 98.125 7.099 190.186 64.929 253.404 175.842 167.512 412.517 160.676 595.019 136.338 36.346-8.42 90.313-10.803 107.02-48.848 9.977-27.088 12.648-57.307 8.27-85.725 31.473 12.68 65.021 23.744 99.615 29.748 16.99 3.221 35.549-.387 48.904-11.123 66.119-56.391 94.408-149.387 76.352-249.861 11.428-54.106 6.317-109.371-.066-161.537z" fill="#fff"/><g><path d="m1066.616 499.007c-2.279-39.689-13.164-79.26-36.436-112.313-14.924-22.004-33.438-41.279-54.266-57.752-2.488-3.725-3.219-9.049-5.549-13.096-9.096-27.916-106.936-115.49-102.994-42.576-36.842-11.506-74.828-19.25-113.002-24.752-2.756-1.979-4.73-5.838-7.393-8.098-15.365-15.447-32.555-31.891-52.854-40.654-12.633-6.223-31.244-5.201-32.614 12.316.196 13.744 4.181 21.047-12.89 23.158-8.068 1.195-15.662 4.586-23.078 7.361-40.156-.518-80.294-2.5-120.361 1.42-10.256-6.373-23.027-14.371-35.59-10.793-7.939 2.516-10.758 9.434-11.398 16.764-133.294 17.758-295.446 81.971-319.533 230.744-12.408 49.904-15.317 102.715-6.463 153.033-14.611 80.266-.866 168.746 55.357 230.686 134.723 140.268 383.977 156.98 566.142 126.744 21.102-5.42 70.49-9.221 81.736-27.926 12.432-33.752 11.295-74.924-5.275-107.098-.547-.91-3.82-4.689-5.668-7.117-.074-5.979.43-11.912.455-17.871 49.463 23.391 100.842 45.908 154.961 55.303 7.563 1.404 15.342.391 21.764-3.869 64.688-55.17 80.293-145.287 64.207-225.582 12.342-51.692 7.147-105.862.742-158.032z" fill="#68182b"/><g><path d="m1037.911 697.739c-4.756 8.59-10.168 16.861-16.125 24.691-6.164 8.104-5.146 5.754-4.475-2.254.654-7.789.58-15.811 5.555-21.617 11.848-15.453 21.688-32.357 29.779-50.076 2.191-4.803 4.549-4.867 3.492-.07-3.776 17.131-9.587 33.717-18.226 49.326z" fill="#db9f6e"/><path d="m604.271 871.458c-153.269-2.285-367.542-37.898-443.074-188.813-6.131-12.877-10.885-26.209-14.428-39.828-3.406-13.088-1.637-12.85 3.705-.277 9.789 23.021 22.967 44.57 39.605 63.922 64.406 73.457 161.699 107.217 254.84 126.762 117.561 23.613 242.273 20.146 357.716-8.229 12.998-3.195 11.07 1.561 10.848 8.787-.045 1.5-.104 3-.17 4.5-.332 7.557 1.719 5.998-6.529 8.158-65.99 17.272-134.357 25.045-202.513 25.018z" fill="#db9f6e"/><path d="m138.455 556.992c.625-11.779 3.808-12.264 7.513-1.064 33.296 100.558 139.627 157.341 237.381 181.97 134.071 36.76 278.853 39.445 413.664 10.189 1.908-.412 3.945.764 4.516 2.631 6.006 19.76 10.203 40.139 11.482 60.764.109 1.746-1.205 3.561-2.891 4.021-52.59 14.357-106.813 22.459-161.228 25.275-149.371 5.672-327.746-19.064-440.748-124.978-39.781-36.957-72.295-109.772-69.689-158.808z" fill="#ff5671"/><path d="m809.935 739.153c-.049-.131-.137-.34-.193-.467-6.211-13.838-17.498-24.734-26.99-36.373-7.986-9.205-16.111-18.293-24.242-27.373-.885-.984-1.273-2.822-.936-4.102.006-.023.014-.049.02-.074.713-2.723 3.434-4.027 6.014-2.898 61.83 27.07 122.803 56.283 185.914 80.305 13.912 4.957 28.229 10.693 43.1 11.723 2.121.146 4.004 1.891 4.197 4.006 2.236 24.678 6.143 49.107 4.387 73.959-.518 2.021.838 5.424-2.203 5.465-30.398-1.635-59.057-15.762-87.553-25.604-29.68-11.396-59.051-23.588-88.32-36.004-1.203-.51-2.369-1.982-2.604-3.27-2.451-13.455-5.904-26.752-10.591-39.293z" fill="#ff801d"/><path d="m616.757 501.472c-1.219-5.604 16.406-3.666 22.039-2.893.176.023.324.051.5.086 89.559 18.516 175.713 51.586 262.082 81.195 31.371 12.572 65.219 23.166 91.607 44.955 11.096 9.943 10.674 26.008 13.143 39.572.027.148.049.289.063.438.857 9.416 2.211 20.066 1.908 29.857-.273 8.865-2.377 12.244-12.688 10.033-50.521-10.836-97.885-33.723-145.73-52.758-35.906-15.139-71.605-30.768-107.291-46.418-.963-.422-1.803-1.07-2.459-1.891-17.791-22.183-40.207-42.824-66.061-54.984-6.926-3.006-15.766-5.24-22.934-3.025-2.611.811-5.41.207-7.142-1.906-10.644-12.985-23.196-26.964-27.037-42.261z" fill="#ff5671"/><path d="m1061.499 564.296c.404 7.361.654 14.74.668 22.098.031 16.261-.719 20.267-5.77 34.5-7.205 20.311-16.492 39.898-28.148 58.021-7.336 11.402-8.313 14.215-9.252-2.617-.76-13.609-2.721-27.398-6.443-40.217-.35-1.205-.084-2.477.723-3.439 17.41-20.734 31.586-44.173 40.803-69.416 6.427-17.603 7.23-2.41 7.419 1.07z" fill="#ff5671"/><path d="m1000.425 741.335c-1.783 5.205-7.361 7.225-10.619 6.885-10.227-1.064-20.525-5.426-30.133-8.596-16.957-5.955-33.605-12.793-50.15-19.793-49.967-21.143-99.209-43.961-148.887-65.764-.506-.223-1-.352-1.49-.438-.498-9.152-2.818-18.412-6.41-27.23-2.43-5.971.283-8.682 6.184-6.088 57.219 25.162 114.551 50.316 173.105 72.143 20.799 7.75 42.475 16.434 64.57 19.664.029.004.061.01.092.014 9.58 1.395 10.518.709 8.408 11.611-1.154 5.967-2.703 11.852-4.67 17.592z" fill="#db9f6e"/><path d="m567.269 655.921c.276-2.773 2.721-5.377 5.448-5.955 30.305-6.418 55.377-30.418 69.8-57.382 5.056-3.176 6.976-7.67 7.642-12.43 2.854-20.428 8.555-20.701 13.03-.566 9.636 43.351-3.251 96.349-45.413 114.837-12.002 4.582-25.125 5.148-37.128.92-1.115-.393-2.59-1.541-3.256-2.518-7.433-10.904-11.439-23.681-10.123-36.906z" fill="#d5d5d5"/><path d="m571.717 639.45c9.588-22.127 31.417-36.096 54.517-41.087 3.135-.676 4.271.877 2.439 3.505-13.258 19.031-32.167 35.23-54.375 40.807-2.482.623-3.599-.875-2.581-3.225z" fill="#afafaf"/><path d="m647.942 681.169c25.239-29.98 30.993-73.914 20.038-111.144-1.398-4.754.297-5.754 3.805-2.254 17.176 17.137 30.881 37.791 38.139 61.062 8.289 26.582 7.857 56.805-4.93 81.818-.191.379-.658.852-1.033 1.049-26.865 14.186-59.977 19.361-88.373 9.805-8.319-2.803-16.169-7.107-23.037-12.523-3.119-2.457-2.352-4.252 1.613-4.039 20.083 1.083 40.308-8.067 53.778-23.774z" fill="#afafaf"/><path d="m692.773 581.246c-4.932-6.512-10.342-12.602-16.1-18.354 4.674 2.676 9.152 5.756 13.399 8.883 27.29 20.715 56.55 47.978 57.581 84.691.381 13.949-6.5 25.551-15.92 35.047-8.119 8.184-13.127 5.338-11.086-6.006 6.497-36.08-5.831-75.137-27.874-104.261z" fill="#d5d5d5"/><path d="m1006.673 401.753c27.512 28.932 37.734 73.016.377 98.744-7.008 5.611-7.947 7.492-4.891-2.875 10.973-37.174.328-78.207-21.727-110.297-9.094-13.23-6.676-15.484 5.518-5.039 7.196 6.165 14.036 12.764 20.723 19.467z" fill="#d5d5d5"/><path d="m899.019 293.22c-.701-7.566-2.021-15.186-4.07-22.594-1.326-4.795.352-5.799 3.826-2.236 20.248 20.715 34.863 46.854 38.35 75.867.131 1.086-.68 2.061-1.736 2.342-7.002 1.861-12.096 9.551-12.355 17.059-.551 5.225 1.994 12.508-.057 17.447-.086.203-.271.521-.406.695-6.324 8.268-19.641 5.771-28.439 10.244-11.729 4.258-22.557 10.936-31.504 19.566-.455.438-1.322.729-1.943.627-11.871-1.93-24.068-6.707-34.32-13.932-3.475-2.445-2.764-4.268 1.484-4.131 48.789 1.591 76.539-56.967 71.17-100.954z" fill="#afafaf"/><path d="m892.679 404.96c5.645-2.51 11.537-3.682 17.404-5.027 3.311-.762 4.324.797 2.369 3.574-14.074 20.006-34.4 36.793-58.232 41.236.652-1.818 1.346-3.643 2.223-5.459 7.437-15.408 20.675-27.402 36.236-34.324z" fill="#afafaf"/><path d="m851.39 457.076c.275-2.775 2.721-5.379 5.447-5.957 30.307-6.42 55.379-30.418 69.801-57.383 7.883-4.955 8.143-13.109 7.906-20.484-.641-19.912 4.457-20.787 10.324-1.746 13.787 44.742 2.238 104.248-42.971 124.072-12.002 4.58-25.125 5.148-37.127.922-1.115-.395-2.592-1.543-3.26-2.521-7.431-10.905-11.437-23.681-10.12-36.903z" fill="#d5d5d5"/><path d="m932.062 482.324c25.238-29.98 30.996-73.918 20.041-111.143-1.398-4.754.297-5.754 3.805-2.256 17.174 17.135 30.879 37.789 38.135 61.063 8.291 26.582 7.859 56.801-4.93 81.818-.189.377-.656.848-1.031 1.047-26.865 14.191-59.975 19.359-88.373 9.803-8.322-2.799-16.17-7.104-23.039-12.523-3.117-2.457-2.35-4.252 1.611-4.039 20.087 1.085 40.312-8.061 53.781-23.77z" fill="#afafaf"/><path d="m955.599 312.49c5.26 8.85 9.807 19.338 11.352 29.984.93 6.391-3.164 9.826-9.1 7.285-2.963-1.268-6.01-2.32-9.193-3.012-2.463-.539-4.664-3.098-5.021-5.592-2.961-20.75-11.178-40.111-22.994-57.156-7.563-10.906-5.584-12.854 4.707-4.471 11.684 9.522 22.354 20.296 30.249 32.962z" fill="#d5d5d5"/><path d="m878.896 260.576c2.594-7.939 4.773-1.525 6.613 3.258 7.416 19.295 8.652 41.053 4.609 61.115-4.914 24.398-17.813 49.533-42.309 58.928-31.959 11.631-49.086-4.166-46.188-34.77.264-2.766 2.676-5.377 5.385-5.982 27.115-6.049 49.645-27.232 63.023-51.311.365-.652 1.168-1.529 1.756-1.988 3.641-2.824 6.123-6.719 6.82-11.645.82-5.81-1.483-11.933.291-17.605z" fill="#d5d5d5"/><path d="m806.197 332.484c8.912-19.125 27.943-32.07 48.396-36.613 3.365-.748 4.381.803 2.381 3.611-11.912 16.705-28.561 30.9-48.049 36.225-2.822.771-3.967-.571-2.728-3.223z" fill="#afafaf"/><path d="m738.835 248.562c24.23 25.199 34.096 64.654 3.656 88.207-9.508 7.357-8.512 6.096-5.91-5.143 4.383-18.939 3.234-39.268-2.324-57.799-1.982-6.605-4.498-13.004-7.479-19.176-16.045-33.203-15.576-33.859 10.633-7.521.477.481.952.957 1.424 1.432z" fill="#d5d5d5"/><path d="m693.437 244.078c-.699-7.566-2.02-15.184-4.07-22.588-1.322-4.781.352-5.781 3.828-2.242 15.273 15.557 27.449 34.164 33.99 55.076 7.639 24.42 7.289 52.129-4.326 75.166-.191.383-.66.857-1.037 1.057-31.172 16.51-72.611 20.092-101.262-1.412-3.254-2.441-2.553-4.256 1.514-4.111 48.949 1.733 76.726-56.907 71.363-100.946z" fill="#afafaf"/><path d="m673.221 211.781c1.171-3.967 2.856-6.68 6.144 1.482 7.916 19.643 9.316 41.982 5.174 62.543-4.916 24.396-17.814 49.533-42.311 58.928-32.258 11.672-47.97-4.264-45.994-34.639.174-2.678 2.396-5.498 5.019-6.074 27.696-6.107 50.633-28.016 63.939-52.699 10.489-6.428 6.946-19.002 8.029-29.541z" fill="#d5d5d5"/><path d="m651.236 250.56c-11.942 16.67-28.607 30.803-48.096 36.057-2.555.689-3.677-.826-2.584-3.236 8.758-19.328 27.928-31.842 48.299-36.434 3.379-.762 4.398.799 2.381 3.613z" fill="#afafaf"/><path d="m520.036 270.207c22.407 19.301 46.845 50.412 35.859 81.482-.104.293-.304.766-.441 1.043-2.413 4.895-5.65 9.387-9.388 13.473-8.416 9.199-13.294 6.648-11.398-5.674 2.58-16.744 1.08-34.225-3.753-50.346-5.296-17.654-14.423-33.861-26.03-48.096-7.145-8.762-5.955-9.178 3.117-2.059 4.183 3.288 8.191 6.761 12.034 10.177z" fill="#d5d5d5"/><path d="m429.183 383.382c-.484-1.379.276-2.676 1.709-2.965 46.332-9.295 64.596-65.16 58.271-107.555-.771-5.168-1.876-10.314-3.314-15.375-1.32-4.645.389-5.66 3.807-2.246 33.387 33.336 51.77 86.268 29.984 130.34-.191.389-.668.877-1.051 1.078-25.813 13.592-58.143 18.928-85.361 7.916-.623-.252-1.234-1.01-1.371-1.666-.688-3.249-1.588-6.423-2.674-9.527z" fill="#afafaf"/><path d="m470.413 246.486c.489-1.064 1.485-1.984 3.147-2.406 20.852 43.367 9.435 116.328-42.789 129.254-2.791.689-6.117-.789-7.527-3.295-6.453-11.445-15.174-22.104-24.912-31.473-2.789-2.68-2.182-7.635 2.862-8.99 25.735-6.922 47.067-27.41 59.928-50.572.358-.645 1.15-1.516 1.733-1.969 3.852-3.01 6.431-7.207 6.945-12.58.563-5.778-1.914-12.391.613-17.969z" fill="#d5d5d5"/><path d="m245.252 398.414c.348-1.699.886-3.328 1.524-4.912.292-.725 1.192-1.338 1.971-1.383 17.264-1.008 34.135-5.791 48.454-15.834 10.253-7.191 18.634-16.4 25.867-26.502.158-.223.504-.51.744-.639 15.558-8.143 5.568-25.688 10.418-32.602 1.209-1.723 3.105-1.434 3.949.492 14.408 32.977 11.154 73.971-9.539 103.471-.789 1.125-2.334 1.313-3.379.42-17.797-15.207-61.24-44.77-68.076-7.895-.021.104-.045.277-.055.381-.313 3.398.609 7.627.727 11.508.105 3.615-1.891 4.25-4.113 1.398-6.252-8.026-10.629-17.525-8.492-27.903z" fill="#afafaf"/><path d="m258.377 377.544c12.596-11.813 29.222-18.832 46.021-22.883 4.611-1.113 5.752.814 2.498 4.268-12.111 12.852-28.243 21.521-45.521 24.795-6.422 1.217-7.766-1.709-2.998-6.18z" fill="#d5d5d5"/><path d="m185.724 504.816c.248-1.814 2.045-3.5 3.842-3.848 30.928-5.967 56.547-30.283 71.189-57.662 9.35-5.875 7.977-16.258 7.768-24.5-.395-15.568 3.974-16.508 9.125-1.809 15.805 45.129 4.963 107.717-41.635 128.15-12.193 4.652-25.549 5.166-37.707.711-.791-.289-1.844-1.111-2.326-1.801-8.004-11.513-12.178-25.161-10.256-39.241z" fill="#d5d5d5"/><path d="m189.956 490.171c9.588-22.123 31.416-36.094 54.514-41.086 3.133-.676 4.273.875 2.44 3.506-13.259 19.033-32.167 35.232-54.373 40.805-2.481.623-3.599-.875-2.581-3.225z" fill="#afafaf"/><path d="m266.179 531.892c25.531-30.324 31.127-74.932 19.656-112.428-1.234-4.029.227-4.869 3.232-1.914 17.621 17.32 31.7 38.305 39.094 62.008 8.3 26.619 7.855 56.887-4.982 81.922-.164.32-.561.721-.877.887-26.883 14.234-60.043 19.428-88.477 9.859-8.663-2.916-16.813-7.461-23.881-13.197-2.621-2.127-1.988-3.674 1.381-3.43 20.436 1.475 41.145-7.719 54.854-23.707z" fill="#afafaf"/><path d="m311.011 431.97c-4.932-6.514-10.342-12.604-16.101-18.354 4.675 2.678 9.151 5.754 13.399 8.879 27.291 20.719 56.55 47.979 57.582 84.693.38 13.949-6.498 25.551-15.92 35.047-8.119 8.184-13.127 5.34-11.084-6.008 6.496-36.077-5.835-75.134-27.876-104.257z" fill="#d5d5d5"/><path d="m348.933 443.183c-3.963-3.984-8.053-8.02-12.27-11.994-2.242-2.113-2.822-5.986-1.074-8.527 17.809-25.893 22.58-61.223 14.598-92.023-1.443-5.568.963-6.881 4.922-2.711 14.391 15.152 25.834 33.08 32.104 53.123 7.455 23.842 7.294 50.813-3.524 73.516-.544 1.145-1.938 2.555-3.071 3.125-3.521 1.77-7.131 3.367-10.799 4.795-2.783 1.082-6.303-.266-7.908-2.779-3.884-6.078-8.28-11.673-12.978-16.525z" fill="#d5d5d5"/><path d="m394.284 380.556c-4.896-16.318-13.06-31.402-23.433-44.834-6.033-7.813-4.617-9.287 3.172-3.223 9.461 7.363 18.289 15.646 26.325 24.348 14.106 16.168 25.052 39.316 20.423 61.074-.024.113-.072.293-.105.398-3.723 11.439-12.461 20.496-21.9 27.885-3.021 2.365-4.648 1.24-3.57-2.443 5.974-20.435 5.179-42.898-.912-63.205z" fill="#afafaf"/><path d="m397.365 319.681c8.744-19.162 27.795-32.027 48.225-36.467 3.353-.725 4.365.826 2.369 3.619-11.886 16.617-28.463 30.727-47.855 36.053-2.8.77-3.944-.562-2.739-3.205z" fill="#afafaf"/><path d="m819.726 962.517c-187.279 61.975-572.828 39.652-662.699-167.969-5.117-11.824-7.002-19.305 3.843-.652 8.188 14.08 17.817 27.404 28.881 39.781 109.242 114.951 297.137 142.58 449.136 140.926 59.688-1.525 119.455-8.816 177.463-23.082 9.486-2.385 14.236-6.008 8.732 6.838-.837 2.39-2.137 2.587-5.356 4.158z" fill="#db9f6e"/><path d="m831.786 909.233c.287 6.541.184 12.977-.371 19.33-.979 11.189-3.91 12.965-13.25 15.314-50.887 12.803-103.104 20.154-155.486 22.891-171.107 7.451-437.388-29.213-510.783-207.094-12.307-29.826-13.457-39.201-13.549-66.535-.063-18.457.922-37.139 4.289-25.109 64.721 164.684 273.451 206.072 431.645 214.418 73.908 2.572 148.595-3.914 220.587-21.084 20.109-4.797 21.926-6.357 27.336 3.939 6.93 13.19 8.957 29.63 9.582 43.93z" fill="#ff801d"/><path d="m977.558 874.62c-44.986-8.771-88.109-26.473-129.744-45.248-8.188-5.668-25.045-6.148-23.24-18.412-.229-3.373-.523-6.766-.879-10.168-.971-9.313-2.203-12.336 9.365-7.463 22.432 9.445 44.934 18.732 67.607 27.586 32.309 11.291 64.742 27.852 99.334 29.266-1.861 8.195-2.008 20.816-10.096 25.285-2.869.846-8.843-.279-12.347-.846z" fill="#db9f6e"/><path d="m1010.63 857.804c2.184-7.484-.037-16.813 6.092-22.514 14.014-18.355 25.77-38.213 36.508-58.695-7.166 29.592-21.532 58.543-42.6 81.209z" fill="#db9f6e"/><path d="m1057.972 749.95c-10.129 23.592-22.375 46.061-36.658 67.387-4.105 6.131-7.779 5.158-8.111-2.213-.881-19.611-4.896-39.018-5.172-58.59-.012-1.012.568-2.43 1.271-3.152 18.623-19.121 35.619-40.467 46.098-65.205 1.408-3.328 3.004-3.076 3.344.521 1.889 19.953 1.932 40.129-.412 59.914-.046.381-.208.985-.36 1.338z" fill="#ff801d"/><path d="m979.304 351.072-.85 6.633c-.25 1.92.738 4.359 2.316 5.479 53.293 37.73 96.234 107.205 25.293 152.209-34.627 23.283-84.023 32.629-122.328 12.93-37.502-17.895-56.791-63.371-34.979-99.449 2.1-3.473.777-7.162-3.098-8.367-29.428-9.15-55.848-33.879-55.988-66.184-.088-33.633 28.035-61.734 59.682-68.945.275-.063.76-.129 1.041-.148 29.162-2.076-46.447-16.613-76.814-22.012-5.699-1.016-8.467 2.521-6.094 7.801 33.375 74.209-80.328 126.379-140.881 95.287-41.879-19.256-55.64-69.236-27.004-103.066 4.438-5.246 2.682-9.365-4.188-9.369-134.395-.111-48.151-12.24-27.055 69.066 13.461 63.045-75.427 99.229-128.209 85.826-3.582-.912-6.58 1.338-6.99 5.012-3.15 28.363-31.791 48.422-57.875 58.912-2.777 1.119-4.201 4.383-3.094 7.168 31.971 80.465-92.535 131.617-154.338 98.037-18.904-9.721-35.588-26.807-41.732-47.471-12.606-42.406 22.041-82.506 62.215-92.01 4.502-1.066 6.107-4.857 3.49-8.672-17.48-25.463-5.873-54.377 21.268-70.277 16.367-11.648 36.564-14.701 55.098-20.357 4.523-2.736 3.641-7.479 3.279-12.088-.422-5.338-.266-10.955 2.334-15.791 11.676-21.729 44.156 2.174 55.726 11.186 1.179.918 2.354 1.869 3.53 2.816 8.34-31.215 38.371-50.621 68.976-55.266 9.358-3.299 6.104-8.396-1.259-7.158-82.387 13.861-169.213 38.568-232.112 95.959-55.835 50.068-88.996 132.959-57.673 205.016 65.699 145.142 247.101 177.476 390.1 190.591 78.737 5.33 158.691.844 235.828-16.344 4.764-1.061 6.15-5.094 3.217-8.996-10.347-13.756-22.18-26.521-33.746-39.305-2.463-2.721-6.336-2.613-8.58.293-32.945 42.613-99.39 61.24-148.192 37.148-37.06-17.541-57.75-64.051-34.203-100.449 12.872-21.383 35.637-35.683 60.047-39.865 4.533-.906 11.02-1.871 13.232-6.535 2.344-4.941-.348-12.457.219-17.816 2.93-7.52-5.31-11.75-8.955-17.66-8.942-11.293-21.074-24.688-24.182-39.268-4.09-36.469 63.165-12.115 81.469-7.82 84.67 24.887 169.068 51.84 251.146 84.307 22.127 9.936 46.494 18.755 64.012 36.085 2.412 2.389 6.209 2.154 8.297-.523 13.441-17.246 24.643-36.378 32.209-56.869 29.402-74.922-1.299-159.652-60.086-211.035-1.646-1.437-3.242-.812-3.519 1.354zm-448.625 276.888c-.014.293-.07.773-.125 1.059-11.535 61.152-107.867 91.293-159.264 63.4-72.13-36.875-49.452-127.021 25.847-140.316 17.769-2.383 13.856-10.299 13.452-24.348.898-19.215 21.072-20.896 34.961-13.838 41.777 21.905 87.663 62.856 85.129 114.043z" fill="#ffb578"/><path d="m387.263 686.753c-3.787-1.275-7.477-2.859-11.021-4.723-10.36-5.439-9.501-10.701 2.066-12.453 15.726-2.383 30.638-10.709 41.308-23.156 19.235-22.432 27.542-55.609 24.924-84.728-.76-8.465-2.234-17-4.564-25.281-1.516-5.383.447-6.609 4.406-2.664 36.124 36.023 56.112 93.15 32.939 140.832-.537 1.105-1.889 2.486-2.986 3.049-26.624 13.671-59.131 18.528-87.072 9.124z" fill="#d5d5d5"/><path d="m494.23 565.853c27.51 28.93 37.734 73.013.377 98.742-2.495 1.996-5.131 3.865-7.826 5.674 16.904-42.934 2.818-92.58-25.662-128.093-6.547-8.162-5.203-9.648 3.117-3.305 10.693 8.154 20.498 17.462 29.994 26.982z" fill="#afafaf"/><path d="m422.556 525.958c.906-2.715 2.012-3.979 4.457-4.42 11.043 22.748 13.359 49.641 8.424 74.193-5.323 26.484-19.385 53.783-45.986 63.943-7.588 2.896-15.625 4.189-23.545 3.68-11.4-.736-17.752-5.525-21.605-13.506-4.795-9.926-6.803-20.945-4.879-32.195.15-.875 1.02-1.699 1.895-1.848 31.684-5.396 57.969-30.097 72.877-57.972 11.202-7.16 6.741-20.527 8.362-31.875z" fill="#afafaf"/><path d="m380.236 569.058c1.5-.668 3.02-1.24 4.551-1.746 12.685-4.199 15.835.664 7.037 10.723-11.202 12.801-25.143 23.287-40.924 28.464-8.74 2.867-7.758-1.34-6.9-3.117 7.437-15.408 20.676-27.402 36.236-34.324z" fill="#d5d5d5"/></g><path d="m1026.525 498.537c-5.367 5.895-12.096 11.549-20.461 16.855-34.627 23.283-84.023 32.629-122.328 12.93-37.502-17.895-56.791-63.371-34.979-99.449 2.1-3.473.777-7.162-3.098-8.367-29.428-9.15-55.848-33.879-55.988-66.184-.012-3.959.4-7.834 1.133-11.613-2.734 7.938-4.203 16.377-4.684 24.043-.637 10.123 2.309 19.66 7.58 28.227 7.281 11.836 20.754 18.248 27.723 30.209 6.695 11.492 2.715 28.135 3.721 40.822.82 10.328 3.893 20.32 8.221 29.688 8.689 18.803 24.795 33.266 42.816 42.893 40.346 21.549 87.654 13.811 123.779-12.152 10.469-7.525 19.94-16.93 26.565-27.902z" fill="#ff9750"/><path d="m626.605 366.304c-24.504-11.264-39.283-33.059-41.675-55.973-4.313 27.082 14.464 50.91 41 63.602 37.717 18.043 84.48 8.527 118.107-14.236 16.072-10.881 29.287-28.295 27.654-48.357-13.092 51.011-96.307 80.011-145.086 54.964z" fill="#ff9750"/><path d="m326.027 610.812c-8.383 20.869-5.092 44.596 6.119 63.674 13.699 23.305 38.756 31.441 63.916 35.875 27.611 4.861 54.732 1.475 79.771-11.031 20.984-10.479 39.766-27.344 47.487-49.936.128-.373.214-.744.331-1.117-25.629 47.877-106.701 68.924-152.361 44.143-51.818-26.49-54.705-80.475-24.303-113.705-9.94 7.91-16.727 21.562-20.96 32.097z" fill="#ff9750"/><path d="m559.623 379.455c11.563-12.896 19.922-31.412 9.929-47.379 3.492 57.346-79.231 89.426-129.403 76.688-3.582-.912-6.58 1.338-6.99 5.012-3.15 28.363-31.791 48.422-57.875 58.912-2.777 1.119-4.201 4.383-3.094 7.168 31.971 80.465-92.535 131.617-154.338 98.037-18.904-9.721-35.588-26.807-41.732-47.471-1.307-4.398-2.081-8.768-2.418-13.082.311 11.438 3.859 23.297 8.051 32.414 9.802 21.307 29.707 34.84 51.368 42.336 47.722 16.511 116.272-5.078 142.265-49.236 6.422-10.91 7.744-23.801 10.08-35.988 3.915-20.43 15.441-32.445 31.461-44.656 11.43-8.711 20.209-20.256 31.556-28.754 12.001-8.984 29.389-11.363 43.458-15.637 25.17-7.646 49.821-18.441 67.682-38.364z" fill="#ff9750"/><path d="m953.929 580.486c-22.912-8.396-45.031-18.82-67.723-27.783-24.42-9.648-49.498-17.824-74.436-26.01-45.486-14.932-90.764-33.541-138.137-41.566-14.537-2.461-39.998-7.094-54.959 1.744 19.656-4.705 55.875 7.906 68.568 10.883 84.67 24.887 169.068 51.84 251.146 84.307 22.127 9.936 46.494 18.755 64.012 36.085 2.412 2.389 6.209 2.154 8.297-.523 5.271-6.762 10.18-13.822 14.678-21.13-24.171-2.013-48.05-7.433-71.446-16.007z" fill="#ffc9a1"/><path d="m790.134 729.03c-1.516-2.018-3.121-3.971-4.695-5.947-4.9 2.023-9.846 3.949-14.93 5.639-22.281 7.408-45.537 11.766-68.785 14.752-50.145 6.439-101.223 5.471-151.513 1.434-48.92-3.926-97.645-11.381-145.52-22.15-32.738-7.365-66.852-15.637-96.842-31.141-59.369-30.688-116.314-73.76-148.518-131.929.545 1.363 1.069 2.734 1.659 4.092 65.699 145.142 247.101 177.476 390.1 190.591 78.737 5.33 158.691.844 235.828-16.344 4.763-1.061 6.15-5.094 3.216-8.997z" fill="#ffc9a1"/><g fill="#bebebe"><path d="m284.247 396.582c14.663 3.992 31.502 16.215 41.014 24.344 1.045.893 2.59.705 3.379-.42 10.219-14.568 16.166-31.943 17.853-49.768-4.546 12.184-13.071 22.389-25.911 26.35-9.625 2.97-24.143-.944-36.335-.506z"/><path d="m322.302 562.367c.316-.166.713-.566.877-.887 12.838-25.035 13.282-55.303 4.982-81.922-1.244-3.99-2.744-7.871-4.352-11.703 2.188 22.145-3.188 44.896-17.973 61.371-12.797 14.258-32.1 20.797-50.646 22.758-6.438.682-12.477.648-18.158-.123-8.253 2.953-16.988 4.367-25.707 3.738-3.369-.244-4.002 1.303-1.381 3.43 7.068 5.736 15.218 10.281 23.881 13.197 28.435 9.568 61.595 4.375 88.477-9.859z"/><path d="m514.26 288.556c8.715 23.684 12.578 48.703.102 72.766-13.828 26.666-52.373 34.764-74.621 16.635-2.828 1.01-5.771 1.846-8.848 2.461-1.433.289-2.193 1.586-1.709 2.965 1.086 3.104 1.985 6.277 2.674 9.527.137.656.748 1.414 1.371 1.666 27.219 11.012 59.549 5.676 85.361-7.916.383-.201.859-.689 1.051-1.078 15.46-31.282 10.628-66.995-5.381-97.026z"/><path d="m394.284 380.556c6.091 20.307 6.886 42.77.911 63.205-1.078 3.684.549 4.809 3.57 2.443.807-.631 1.602-1.295 2.395-1.951.533-1.141 1.008-2.23 1.348-3.139 5.219-13.98 4.67-28.795 2.48-43.348-3.016-20.016-14.156-46.053-32.113-59.309 9.398 12.738 16.842 26.871 21.409 42.099z"/><path d="m397.365 319.681c-1.205 2.643-.061 3.975 2.738 3.205 13.17-3.617 24.996-11.338 34.98-21.09-10.171 5.326-22.289 10.648-34.137 11.299-1.324 2.108-2.536 4.295-3.581 6.586z"/><path d="m725.622 269.865c2.592 26.434-2.445 53.629-23.406 69.404-16.682 12.555-40.605 12.334-58.331 2.242-6.698 2.506-13.979 3.787-21.812 3.512-4.066-.145-4.768 1.67-1.514 4.111 28.65 21.504 70.09 17.922 101.262 1.412.377-.199.846-.674 1.037-1.057 11.615-23.037 11.965-50.746 4.326-75.166-.472-1.505-1.034-2.974-1.562-4.458z"/><path d="m853.14 304.501c-12.236 9.791-26.896 17.018-42.016 19.578-1.838 2.666-3.543 5.432-4.928 8.404-1.238 2.652-.094 3.994 2.729 3.223 17.492-4.779 32.67-16.728 44.215-31.205z"/><path d="m192.538 493.396c20.655-5.184 38.391-19.598 51.448-36.896-13.85 11.352-32.887 23.199-47.701 22.514-2.461 3.453-4.6 7.168-6.329 11.158-1.018 2.349.1 3.847 2.582 3.224z"/><path d="m995.275 434.255c.801 22.229-3.498 43.4-21.918 61.455-17.672 17.32-59.701 25.643-82.492 9.652-4.162.639-8.369.959-12.584.73-3.961-.213-4.729 1.582-1.611 4.039 6.869 5.42 14.717 9.725 23.039 12.523 28.398 9.557 61.508 4.389 88.373-9.803.375-.199.842-.67 1.031-1.047 12.109-23.687 13.127-52.037 6.162-77.549z"/><path d="m494.23 565.853c-.531-.533-1.074-1.055-1.608-1.586 7.993 14.977 12.334 31.518 10.93 49.777-.945 12.338-5.008 23.889-10.947 34.568-1.177 7.334-3.043 14.59-5.824 21.656 2.695-1.809 5.331-3.678 7.826-5.674 37.358-25.728 27.133-69.811-.377-98.741z"/><path d="m405.118 638.038c-13.603 10.105-32.581 12.766-45.891.732-7.001-6.326-9.044-15.682-9.184-25.025-2.864.83-5.763 1.555-8.728 2.061-.875.148-1.744.973-1.895 1.848-1.924 11.25.084 22.27 4.879 32.195 3.854 7.98 10.205 12.77 21.605 13.506 7.92.51 15.957-.783 23.545-3.68 23.281-8.891 36.957-30.91 43.578-54.021-6.967 12.618-16.436 23.863-27.909 32.384z"/><path d="m574.299 642.675c18.484-4.641 34.626-16.688 47.185-31.553-4.402 2.91-9.012 5.566-13.898 7.949-7.544 3.676-19.169 8.637-29.797 9.604-2.347 3.348-4.406 6.93-6.072 10.775-1.018 2.35.099 3.848 2.582 3.225z"/><path d="m631.525 265.121c-7.563 4.035-16.879 8.146-26.218 9.982-1.78 2.617-3.421 5.34-4.751 8.277-1.093 2.41.029 3.926 2.584 3.236 18.59-5.012 34.559-18.133 46.362-33.797-5.477 4.63-11.37 8.772-17.977 12.302z"/><path d="m905.325 412.677c-2.799 1.604-5.604 3.148-8.35 4.6-9.932 5.24-22.51 10.646-34.896 12.563-2.109 2.99-4.031 6.121-5.637 9.445-.877 1.816-1.57 3.641-2.223 5.459 20.077-3.743 37.649-16.258 51.106-32.067z"/><path d="m862.626 411.611c8.947-8.631 19.775-15.309 31.504-19.566 8.799-4.473 22.115-1.977 28.439-10.244.135-.174.32-.492.406-.695 2.051-4.939-.494-12.223.057-17.447.26-7.508 5.354-15.197 12.355-17.059 1.057-.281 1.867-1.256 1.736-2.342-1.527-12.705-5.289-24.813-10.623-36.199 1.641 8.852 2.068 17.684-.684 27.402-2.008 7.086-6.764 13.229-9.463 20.078-4.619 11.736-1.639 20.391-16.432 26.27-11.348 4.506-23.121 3.666-33.576 10.795-6.117 4.172-12.291 10.264-15.979 17.23 3.43 1.023 6.883 1.846 10.314 2.404.624.101 1.491-.19 1.946-.627z"/><path d="m709.923 628.833c-2.896-9.283-6.854-18.129-11.611-26.521 8.465 23.719 12.215 49.088 3.691 72.795-7.254 20.176-24.678 30.791-44.459 36.021-13.605 3.596-32.215 1.273-43.877-8.383-6.363 1.709-12.93 2.553-19.504 2.197-3.964-.213-4.732 1.582-1.613 4.039 6.867 5.416 14.717 9.721 23.037 12.523 28.396 9.557 61.508 4.381 88.373-9.805.375-.197.842-.67 1.033-1.049 12.788-25.012 13.219-55.235 4.93-81.817z"/></g><path d="m285.836 419.464c10.62 34.719 6.574 75.514-14.348 105.447 11.466-9.533 20.58-21.82 25.941-36.178 6.35-17.008 7.234-41.475.967-61.184-2.99-3.441-6.076-6.805-9.328-10-3.006-2.954-4.467-2.114-3.232 1.915z" fill="#efefef"/><path d="m485.849 257.488c1.438 5.061 2.543 10.207 3.314 15.375 3.288 22.045-.089 47.723-10.591 68.613 3.859-4.148 7.17-8.875 10.014-14.17 11.16-20.766 12.898-45.223 5.75-67.078-1.533-1.693-3.072-3.383-4.68-4.986-3.418-3.414-5.127-2.399-3.807 2.246z" fill="#efefef"/><path d="m341.573 340.082c.896-1.32 1.783-2.895 2.638-4.617-1.451-6.324-3.445-12.508-6.031-18.43-.844-1.926-2.74-2.215-3.949-.492-4.85 6.914 5.14 24.459-10.418 32.602-.24.129-.586.416-.744.639-6.743 9.418-14.553 17.992-23.881 24.947 16.827-7.513 31.64-18.81 42.385-34.649z" fill="#efefef"/><path d="m492.822 613.915c2.18-24.587-8.169-52.318-24.13-71.464-1.481-1.199-2.94-2.424-4.456-3.58-8.32-6.344-9.664-4.857-3.117 3.305 16.465 20.531 28.068 45.79 31.703 71.739z" fill="#efefef"/><path d="m952.103 371.181c10.955 37.225 5.197 81.162-20.041 111.143-1.957 2.281-4.092 4.379-6.313 6.377.137-.076.291-.162.424-.236 14.125-7.756 23.674-20.637 30.301-35.018 11.863-25.752 11.5-53.85 3.645-80.098-1.391-1.486-2.77-2.986-4.211-4.424-3.508-3.498-5.204-2.498-3.805 2.256z" fill="#efefef"/><path d="m427.013 521.539c-2.445.441-3.551 1.705-4.457 4.42-1.621 11.348 2.84 24.715-8.363 31.875-11.295 21.117-29.127 40.393-50.878 50.855 17.803-.895 36.265-18.605 46.606-30.06 13.152-14.566 20.318-31.795 20.098-50.074-.935-2.37-1.894-4.727-3.006-7.016z" fill="#efefef"/><path d="m667.98 570.025c10.699 36.361 5.408 79.082-18.355 108.988 10.881-8.818 18.373-21.494 23.607-34.297 6.6-16.143 14.057-39.1 13.426-59.933-4.582-5.979-9.533-11.686-14.873-17.012-3.508-3.5-5.204-2.5-3.805 2.254z" fill="#efefef"/><path d="m689.366 221.49c2.051 7.404 3.371 15.021 4.07 22.588 2.486 20.42-2.164 43.971-12.732 63.193 5.092-6.635 9.258-14.023 12.32-21.672 7.229-18.045 10.863-40.953 5.465-60.68-1.723-1.93-3.482-3.826-5.295-5.672-3.476-3.539-5.15-2.539-3.828 2.243z" fill="#efefef"/><path d="m865.501 381.539c1.193-.623 2.354-1.248 3.477-1.854 13.77-7.406 23.609-19.449 29.869-33.596 9.057-20.467 10.506-50.264 3.256-74.053-1.111-1.211-2.176-2.469-3.328-3.646-3.475-3.563-5.152-2.559-3.826 2.236 2.049 7.408 3.369 15.027 4.07 22.594 3.771 30.887-8.809 68.932-33.518 88.319z" fill="#efefef"/><path d="m847.81 383.876c24.496-9.395 37.395-34.529 42.309-58.928 3.439-17.07 3.014-35.354-1.746-52.316.738 25.529-2.609 51.262-18.852 72.102-8.686 11.143-20.953 19.051-34.33 23.246-5.863 1.84-21.109 3.141-32.295.156 4.795 17.477 20.513 24.621 44.914 15.74z" fill="#d3d3c9"/><path d="m747.654 308.515c-1.242-21.654-11.326-49.908-27.496-67.834 1.723 3.775 3.914 8.373 6.621 13.971 2.98 6.172 5.496 12.57 7.479 19.176 5.559 18.531 6.707 38.859 2.324 57.799-2.602 11.238-3.598 12.5 5.91 5.143.938-.723 1.721-1.508 2.578-2.262 2.195-8.178 3.105-16.872 2.584-25.993z" fill="#d3d3c9"/><path d="m391.824 578.035c1.396-1.596 2.46-3.047 3.266-4.367-12.83 13.084-31.824 24.352-47.436 23.209-1.322 2.102-2.568 4.253-3.654 6.505-.857 1.777-1.84 5.984 6.9 3.117 15.781-5.178 29.722-15.664 40.924-28.464z" fill="#d3d3c9"/><path d="m920.212 283.341c.16.236.258.414.43.658 11.816 17.045 20.033 36.406 22.994 57.156.357 2.494 2.559 5.053 5.021 5.592 1.502.326 2.969.746 4.414 1.219-1.643-11.947-5.145-23.199-10.789-34.68-5.144-10.46-12.169-22.622-22.07-29.945z" fill="#d3d3c9"/><path d="m457.995 549.392c4.428 9.83 8.917 19.619 11.586 30.248 4.854 19.305 5.615 40.972-3.783 59.011-9.227 17.705-29.813 29.82-48.289 35.361-12.248 3.67-27.945 4.109-37.316-4.813-.629.117-1.25.283-1.884.377-11.567 1.752-12.427 7.014-2.066 12.453 3.544 1.863 7.233 3.447 11.021 4.723 27.941 9.404 60.447 4.547 87.072-9.125 1.098-.563 2.449-1.943 2.986-3.049 20.055-41.263 7.754-89.575-19.327-125.186z" fill="#d3d3c9"/><path d="m258.377 377.544c-4.768 4.471-3.424 7.396 2.998 6.18 13.363-2.533 26.02-8.324 36.68-16.75-11.969 5.506-25.705 8.713-38.174 9.279-.495.44-1.02.836-1.504 1.291z" fill="#d3d3c9"/><path d="m278.226 418.884c.637 12.75 1.336 25.412-.936 38.244-3.09 17.453-13.041 32.141-25.804 44.018-12.487 11.625-28.331 19.486-44.606 24.172-4.248 1.223-11.279 2.801-18.646 3.504 1.84 5.357 4.443 10.486 7.746 15.236.482.689 1.535 1.512 2.326 1.801 12.158 4.455 25.514 3.941 37.707-.711 45.961-20.154 57.086-81.291 42.213-126.264z" fill="#d3d3c9"/><path d="m338.888 536.228c-1.65 9.166 1.347 12.662 6.822 9.4 6.768-15.229 7.846-33.268 4.746-49.516-3.135-16.441-12.183-30.4-21.686-43.809-4.826-6.807-10.301-13.963-17.004-19.283 21.556 29.011 33.54 67.556 27.122 103.208z" fill="#d3d3c9"/><path d="m665.409 593.492c-.545 7.875-2.639 15.859-4.326 23.476-3.749 16.91-10.463 32.014-22.119 44.986-11.076 12.328-27.377 19.248-43.863 18.832-16.102-.41-24.244-11.58-27.836-24.781-1.291 13.195 2.709 25.941 10.127 36.822.666.977 2.141 2.125 3.256 2.518 12.004 4.229 25.126 3.662 37.128-.92 37.746-16.551 51.969-60.75 47.633-100.933z" fill="#d3d3c9"/><path d="m710.304 597.687c-7.492-10.393-16.268-20.574-27.014-27.756 3.301 3.643 6.504 7.381 9.482 11.314 22.043 29.125 34.371 68.181 27.875 104.261-2.041 11.344 2.967 14.189 11.086 6.006.877-.883 1.707-1.805 2.535-2.725 5.057-14.326 2.211-33.695-.752-45.941-4.007-16.552-13.374-31.515-23.212-45.159z" fill="#d3d3c9"/><path d="m543.156 318.662c-5.994-17.967-17.023-36.928-32.545-49.039 8.873 12.336 15.919 25.943 20.304 40.563 4.833 16.121 6.333 33.602 3.753 50.346-1.896 12.322 2.982 14.873 11.398 5.674 1.054-1.152 2.053-2.346 3.02-3.561 1.795-14.843-1.641-31.13-5.93-43.983z" fill="#d3d3c9"/><path d="m945.376 373.4c-.346 13.773-.258 27.434-3.807 41.09-4.117 15.844-11.783 30.801-21.912 43.615-10.029 12.688-23.648 21.848-39.527 25.135-9.939 2.061-18.607-.629-26.467-5.359 1.783 5.664 4.432 11.086 7.848 16.098.668.979 2.145 2.127 3.26 2.521 12.002 4.227 25.125 3.658 37.127-.922 44.58-19.551 56.379-77.661 43.478-122.178z" fill="#d3d3c9"/><path d="m352.519 447.107c3.353 3.865 6.515 8.098 9.391 12.6 1.605 2.514 5.125 3.861 7.908 2.779 3.668-1.428 7.277-3.025 10.799-4.795 1.133-.57 2.527-1.98 3.071-3.125 10.818-22.703 10.979-49.674 3.524-73.516-3.5-11.188-8.658-21.689-14.994-31.443 5.198 14.783 6.822 30.982 6.549 46.553-.341 19.607-5.131 45.787-26.248 50.947z" fill="#d3d3c9"/><path d="m1015.564 448.804c-3.357-14.012-10.529-26.777-17.873-39.023-4.23-7.051-9.225-14.135-15.447-19.684 20.797 31.66 30.578 71.404 19.916 107.525-3.057 10.367-2.117 8.486 4.891 2.875 3.219-2.219 6.059-4.576 8.59-7.043 4.259-14.228 3.265-30.704-.077-44.65z" fill="#d3d3c9"/><path d="m682.728 223.353c.612 23.355-1.859 46.578-14.83 66.984-9.199 14.473-24.113 22.715-40.973 24.32-9.191.877-20.541.229-30.478-2.943 2.465 22.58 17.949 33.09 45.781 23.02 24.496-9.395 37.395-34.531 42.311-58.928 3.449-17.119 2.988-35.453-1.811-52.453z" fill="#d3d3c9"/><path d="m403.535 343.894c7.613 8.02 14.439 16.799 19.709 26.145 1.41 2.506 4.736 3.984 7.527 3.295 48.27-11.947 61.656-75.166 46.943-118.916-.709 22.549-1.299 44.973-12.994 65.373-13.085 22.828-37.435 30.621-61.185 24.103z" fill="#d3d3c9"/><path d="m738.835 248.562c-.473-.475-.947-.951-1.424-1.432-3.332-3.348-6.238-6.248-8.756-8.713 3.318 5.34 6.914 10.523 10.295 15.814 6.557 10.262 10.785 21.695 13.799 33.439 2.539 9.896 3.814 21.771 3.166 33.58 12.533-23.006 2.389-52.442-17.08-72.688z" fill="#f7f7f5"/><path d="m839.091 335.363c10.609-8.41 20.748-21.266 25.871-35.252-13.65 20.52-34.008 37.67-57.955 43.014-2.709.605-5.121 3.217-5.385 5.982-.107 1.133-.131 2.199-.182 3.289 13.548-2.627 26.829-8.455 37.651-17.033z" fill="#f7f7f5"/><path d="m665.193 241.322c-13.307 24.684-36.243 46.592-63.939 52.699-2.501.551-4.585 3.143-4.929 5.703 24.022-4.461 46.173-16.879 61.023-36.797 4.055-5.438 7.516-13.771 8.938-22.375-.359.26-.697.528-1.093.77z" fill="#f7f7f5"/><path d="m897.386 430.38c-.012.014-.023.029-.035.043-8.223 8.838-18.693 15.885-28.746 22.455-5.545 3.631-11.4 6.703-17.451 9.381.002.662.064 1.318.094 1.98 1.508-.684 2.963-1.365 4.262-1.963 14.076-6.479 26.852-16.311 38.551-26.361 5.818-4.996 11.318-11.238 16.094-18.205-3.939 4.538-8.21 8.79-12.769 12.67z" fill="#f7f7f5"/><path d="m242.661 472.117c3.543-4.65 6.651-9.492 9.233-14.553-15.1 21.199-36.914 38.5-62.328 43.404-1.797.348-3.594 2.033-3.842 3.848-.139 1.027-.18 2.045-.256 3.066 22.483-3.617 43.93-18.359 57.193-35.765z" fill="#f7f7f5"/><path d="m439.976 536.412c2.33 8.281 3.805 16.816 4.564 25.281 2.264 25.17-3.676 53.339-17.738 75.013 4.904-5.766 9.207-12.16 12.861-18.965 11.338-21.109 17.606-51.656 11.467-76.794-2.182-2.479-4.428-4.885-6.748-7.199-3.958-3.946-5.921-2.719-4.406 2.664z" fill="#f7f7f5"/><path d="m357.937 376.722c4.154-16.578 2.393-32.777-2.479-48.408-.119-.125-.23-.26-.35-.387-3.959-4.17-6.365-2.857-4.922 2.711 7.041 27.17 4.145 57.854-8.857 82.484 9.628-8.085 14.255-27.015 16.608-36.4z" fill="#f7f7f5"/><path d="m1061.464 602.595c-.746 1.883-1.451 3.787-2.258 5.635-4.895 11.193-27.631 45.316-43.41 41.781 1.646 8.639 2.711 17.486 3.201 26.287.939 16.832 1.916 14.02 9.252 2.617 11.656-18.123 20.943-37.711 28.148-58.021 2.839-8 4.321-12.77 5.067-18.299z" fill="#df3f58"/><path d="m1008.099 694.683c.303-9.791-1.051-20.441-1.908-29.857-.014-.148-.035-.289-.063-.438-.924-5.072-1.443-10.494-2.311-15.814-9.41 37.209-60.99 26.955-89.99 17.971-40.457-12.531-80.672-28.906-118.105-48.678-17.574-9.283-34.232-19.265-48.576-33.144-12.041-11.652-22.678-24.613-35.391-35.586-22.883-19.746-50.355-24.363-77.775-17.406 3.258 4.094 6.615 8.1 9.815 12.004 1.731 2.113 4.53 2.717 7.142 1.906 7.168-2.215 16.008.02 22.934 3.025 25.854 12.16 48.27 32.801 66.061 54.984.656.82 1.496 1.469 2.459 1.891 35.686 15.65 71.385 31.279 107.291 46.418 47.846 19.035 95.209 41.922 145.73 52.758 10.31 2.21 12.413-1.169 12.687-10.034z" fill="#df3f58"/><path d="m560.704 819.521c-37.185-.42-73.982-2.992-110.626-9.518-67.563-12.033-132.627-34.947-192.561-68.387-41.387-23.092-74.932-64.537-98.48-104.738-4.172-7.129-7.964-14.455-11.445-21.924 12.092 37.855 34.76 76.883 60.553 100.846 113.002 105.914 291.377 130.65 440.749 124.979 54.415-2.816 108.638-10.918 161.228-25.275 1.686-.461 3-2.275 2.891-4.021-.803-12.932-2.754-25.768-5.576-38.414-38.166 29.518-88.217 39.623-137.125 43.811-36.408 3.117-73.097 3.053-109.608 2.641z" fill="#df3f58"/><path d="m992.986 624.815c-26.389-21.789-60.236-32.382-91.607-44.955-86.369-29.609-172.523-62.68-262.082-81.195-.176-.035-.324-.063-.5-.086-5.633-.773-23.258-2.711-22.039 2.893.773 3.082 1.977 6.098 3.371 9.074 18.271-2.035 37.438 2.107 55.344 5.564 25.695 4.967 50.539 13.533 75.432 21.434 27.688 8.785 55.652 16.688 83.383 25.344 34.15 10.664 68.18 21.934 101.271 35.576 20.316 8.375 46.635 18.236 63.664 34.55-1.542-3.007-3.546-5.786-6.237-8.199z" fill="#ff9780"/><path d="m1012.554 636.081c.365 1.262.641 2.57.973 3.85 17.758-13.178 27.326-35.051 34.057-55.582 2.309-7.043 4.475-14.008 6.432-20.957-9.221 25.178-23.367 48.562-40.738 69.25-.808.962-1.074 2.234-.724 3.439z" fill="#ff9780"/><path d="m732.685 772.005c22.799-2.645 47.477-7.582 70.277-16.361-.473-1.643-.938-3.287-1.434-4.926-.57-1.867-2.607-3.043-4.516-2.631-134.811 29.256-279.592 26.57-413.664-10.189-87.107-21.945-180.973-69.453-223.959-150.683 4.664 10.006 9.824 19.767 15.631 29.279 23.413 38.361 56.488 69.064 95.562 91.006 42.938 24.113 91.365 37.258 139.136 47.814 53.666 11.855 107.443 18.939 162.363 21.25 53.405 2.246 107.461 1.607 160.604-4.559z" fill="#ff9780"/><path d="m996.984 865.151c-8.963 3.438-20.537 1.436-29.645-.1-18.566-3.127-36.604-9.164-54.205-15.699-18.479-6.863-36.721-14.574-54.492-23.098-13.459-6.453-27.041-12.172-34.83-24.121.295 2.951.564 5.898.762 8.826-1.805 12.264 15.053 12.744 23.24 18.412 41.635 18.775 84.758 36.477 129.744 45.248 3.504.566 9.479 1.691 12.348.846 3.769-2.081 5.781-5.96 7.078-10.314z" fill="#c98450"/><path d="m503.951 979.12c-61.813-5.725-123.063-20.754-180.877-43.252-30.62-11.916-61.291-26.434-89.212-44.729 148.544 116.377 433.127 121.92 585.864 71.377 3.219-1.57 4.52-1.768 5.357-4.158.436-1.02.787-1.9 1.096-2.723-104.658 26.423-215.143 33.405-322.228 23.485z" fill="#c98450"/><path d="m1011.853 849.472c-.232 2.846-.455 5.705-1.223 8.332 10.887-11.711 19.941-25.117 27.18-39.402-6.692 10.921-15.41 23.187-25.957 31.07z" fill="#c98450"/><path d="m1051.968 664.235c-1.332 3.529-2.752 7.033-4.475 10.461-4.863 9.682-11.695 18.623-18.119 27.303-3.783 5.109-7.508 10.4-11.826 15.08-.074 1.033-.15 2.068-.236 3.098-.672 8.008-1.689 10.357 4.475 2.254 5.957-7.83 11.369-16.102 16.125-24.691 5.951-10.749 10.531-21.969 14.056-33.505z" fill="#c98450"/><path d="m604.271 871.458c68.156.027 136.523-7.746 202.514-25.018 8.248-2.16 6.197-.602 6.529-8.158.041-.961.074-1.922.109-2.883-25.391 7.965-50.543 14.582-77.178 18.508-32.928 4.855-66.434 7.4-99.664 9.002-68.114 3.283-136.839-2.494-203.648-15.955-98.764-19.898-211.848-68.143-267.691-156.842 78.809 144.559 288.35 179.1 439.029 181.346z" fill="#c98450"/><path d="m1000.425 741.335c.803-2.346 1.49-4.729 2.156-7.117-13.691 5.73-29.951 1.188-44.4-4.168-20.641-7.65-40.494-18.246-60.709-26.961-28.719-12.375-57.184-25.344-85.91-37.684-18.41-7.91-36.916-14.75-54.229-24.33.936 4.174 1.584 8.375 1.813 12.555.49.086.984.215 1.49.438 49.678 21.803 98.92 44.621 148.887 65.764 16.545 7 33.193 13.838 50.15 19.793 9.607 3.17 19.906 7.531 30.133 8.596 3.258.339 8.836-1.681 10.619-6.886z" fill="#c98450"/><path d="m1058.331 748.612c.883-7.445 1.324-14.957 1.559-22.48-4.783 15.811-10.992 30.953-19.637 46.174-3.965 6.98-17.311 32.004-26.49 17.875-1.654-2.545-2.816-5.318-3.807-8.172 1.26 11.016 2.75 22.035 3.246 33.115.332 7.371 4.006 8.344 8.111 2.213 14.283-21.326 26.529-43.795 36.658-67.387.153-.353.315-.957.36-1.338z" fill="#ef6200"/><path d="m831.415 928.563c.555-6.354.658-12.789.371-19.33-.061-1.393-.148-2.816-.238-4.248-10.9 14.568-25.342 25.098-44.307 31.617-21.141 7.268-44.029 9.975-66.15 12.475-48.738 5.51-98.063 6.311-147.022 3.994-61.733-2.924-123.304-11.883-182.933-28.238-59.285-16.262-117.541-40.207-165.584-79.225-36.977-30.033-65.527-68.152-82.895-111.373 2.008 7.08 4.93 14.994 9.238 25.439 73.395 177.881 339.676 214.545 510.783 207.094 52.383-2.736 104.6-10.088 155.486-22.891 9.341-2.349 12.273-4.124 13.251-15.314z" fill="#ef6200"/><path d="m999.001 843.323c3.041-.041 1.686-3.443 2.203-5.465.814-11.506.389-22.922-.496-34.314-4.428 14.396-13.996 22.93-31.023 21.887-15.547-.955-30.783-8.756-45.184-14.055-18.025-6.633-35.996-13.342-53.074-22.195-14.414-7.475-28.594-15.129-34.717-30.994-4.041-10.465-8.158-20.689-14.041-30.297-7.363-12.025-18.605-20.676-29.662-29.115-11.77-8.982-23.15-19.02-35.5-27.373-.125 1.215.236 2.688 1.002 3.539 8.131 9.08 16.256 18.168 24.242 27.373 9.492 11.639 20.779 22.535 26.99 36.373.057.127.145.336.193.467 4.688 12.541 8.141 25.838 10.59 39.293.234 1.287 1.4 2.76 2.604 3.27 29.27 12.416 58.641 24.607 88.32 36.004 28.497 9.841 57.155 23.967 87.553 25.602z" fill="#ef6200"/><path d="m822.204 865.304c-5.41-10.297-7.227-8.736-27.336-3.939-71.992 17.17-146.68 23.656-220.587 21.084-150.043-7.916-345.461-45.637-420.432-190.01 9.791 38.797 38.975 71.939 68.73 97.477 43.482 37.316 95.889 62.752 150.547 79.014 64.833 19.291 133.669 25.918 201.082 26.887 37.263.535 74.546-1.504 111.614-5.25 32.958-3.332 65.392-9.441 98.142-14.191 13.889-2.012 28.719-3.234 42.596-.576-1.18-3.649-2.612-7.174-4.356-10.496z" fill="#facb1a"/><path d="m996.818 763.899c-.193-2.115-2.076-3.859-4.197-4.006-14.871-1.029-29.188-6.766-43.1-11.723-49.268-18.752-97.234-40.662-145.322-62.254 26.953 17.543 56.6 31.279 86.127 43.398 22.623 9.283 44.703 19.785 67.23 29.24 16.568 6.953 31.033 13.18 41.363 25.982-.726-6.867-1.476-13.742-2.101-20.637z" fill="#facb1a"/><path d="m1059.622 701.095c-.229-4.137-.488-8.271-.879-12.396-.34-3.598-1.936-3.85-3.344-.521-10.479 24.738-27.475 46.084-46.098 65.205-.703.723-1.283 2.141-1.271 3.152.078 5.424.453 10.836.959 16.244.299-1.322.645-2.641 1.082-3.963 3.871-11.715 13.566-21.313 21.676-30.213 10.407-11.415 21.145-23.461 27.875-37.508z" fill="#facb1a"/></g></g></svg>