<svg id="Pool_Party" height="512" viewBox="0 0 1000 1000" width="512" xmlns="http://www.w3.org/2000/svg"><g><path d="m271.762 406.743c8.762 0 17.619-.657 26.434-1.957.176.146.352.29.523.437 12.633 10.515 25.415 20.901 38.203 31.292 27.012 21.949 54.941 44.647 80.851 68.213 35.093 31.92 67.795 67.939 69.44 114.955.754 21.418.869 43.365.98 64.588l.057 10.059c.097 15.916.133 31.832.166 47.743.01 4.104.203 8.415.408 12.817.622 13.436 1.268 27.328-4.711 33.86-14.309 15.628-36.75 20.636-60.508 25.937-26.234 5.855-55.971 12.488-78.344 35.063-9.674 9.762-14.137 21.374-12.564 32.703 1.535 11.07 8.68 20.723 20.113 27.182 18.914 10.679 40.955 13.213 60.399 15.448l5.905.69c35.475 4.266 71.253 5.008 98.459 5.178 8.172.051 16.468.1 24.832.1 51.985 0 106.889-2.053 156.215-16.957 34.969-10.564 40.207-28.914 38.443-42.448-5.414-41.492-57.828-51.789-92.514-58.603-7.01-1.376-13.63-2.678-17.697-3.863-10.142-2.961-20.814-7.818-32.626-14.85-9.171-5.46-11.835-9.769-11.823-27.777.018-29.98.08-65.466.416-101.361.047-5.104.026-10.256.004-15.43-.064-16.121-.133-32.791 2.109-47.971 3.418-23.117 19.932-45.327 33.938-62.094 36.828-44.082 84.344-80.531 130.296-115.781 39.116-30.004 79.564-61.03 114.518-97.306 6.333-6.571 12.265-13.634 17.628-20.989l1.668-2.262c7.924-10.701 19.9-26.874 15.127-45.938-3.012-12.026-11.885-21.604-26.373-28.473-38.016-18.021-83.497-22.239-123.627-25.96-5.381-.5-10.691-.992-15.904-1.51-53.655-5.336-111.32-7.877-186.977-8.234-3.679-.018-7.361-.027-11.041-.027-33.41 0-67.439.73-101.379 2.175-8.684-33.44-27.447-64.035-53.947-87.516-28.33-25.1-66.053-38.925-106.215-38.925-36.432 0-72.518 11.365-101.611 32.001-63.945 45.353-88.453 135.358-55.793 204.902 29.221 62.229 89.195 100.889 156.52 100.889z" fill="#fff"/><g><path d="m303.678 383.968c2.545 2.061 5.072 4.127 7.568 6.204 39.908 33.218 81.285 65.126 119.701 100.07 38.021 34.582 73.957 75.099 75.836 128.754.879 25.055.897 50.149 1.049 75.214.096 15.942.133 31.883.166 47.824.038 19.646 4.808 44.375-9.444 59.939-36.287 39.631-102.047 23.889-139.384 61.561-10.398 10.49-9.73 21.708 3.268 29.048 17.229 9.728 39.813 11.438 59.016 13.748 31.891 3.837 64.15 4.839 96.243 5.04 57.151.353 120.003.674 175.263-16.022 9.096-2.747 26.314-8.695 24.688-21.169-4.524-34.668-72.421-39.244-96.278-46.203-13.102-3.822-25.471-9.863-37.16-16.822-18.313-10.904-21.4-24.605-21.387-44.613.021-33.845.102-67.689.416-101.534.205-21.79-.87-44.458 2.325-66.079 4.005-27.104 21.167-51.299 38.279-71.784 69.704-83.435 170.61-136.151 245.743-214.122 5.736-5.952 11.052-12.282 15.908-18.943 9.846-13.489 27.108-33.567-2.146-47.436-39.705-18.822-89.787-21.375-133.083-25.68-61.476-6.113-123.384-7.846-185.13-8.137-42.725-.203-85.454.781-128.127 2.894-5.264-34.958-22.662-67.96-51.135-93.187-50.748-44.963-129.703-43.775-183.511-5.609-55.562 39.408-78.603 118.42-49.399 180.609 31.1 66.226 99.203 100.721 170.715 86.435z" fill="#68182b"/><path d="m522.489 478.021c5.624-4.01 11.514 3.891 7.43 8.795-6.044 5.74-14.294-3.9-7.43-8.795z" fill="#ffa0b9"/><path d="m507.906 418.152c5.623-4.009 11.513 3.89 7.43 8.794-6.043 5.742-14.293-3.898-7.43-8.794z" fill="#ffa0b9"/><path d="m712.717 378.335c-11.736 1.547-22.51 2.13-25.451 2.458-4.987.517-9.975 1.028-14.974 1.45-102.534 8.671-209.175 9.719-311.348-3.656-16.478-2.174-16.759.695-7.416 8.129 31.765 25.275 63.106 51.121 93.297 78.225 20.29 18.211 41.556 36.777 58.461 58.285 7.625 9.698 18.191 28.83 32.987 26.881 14.586-1.926 20.982-16.024 29.123-26.375 27.17-34.555 60.801-64.415 93.658-93.407 17.684-15.605 35.545-31.117 53.824-46.079 8.45-6.919 5.454-6.919-2.161-5.911zm-211.016 53.228c-5.148-5.177-3.941-13.703 1.23-18.273 5.1-4.508 13.047-3.643 17.542 1.195 2.034 2.189 3.04 4.798 3.188 7.458.443 7.98-6.178 13.501-12.372 13.634-3.42.076-6.848-1.26-9.588-4.014zm24.965 63.842c-3.681.316-7.43-1.003-10.382-3.974-5.149-5.177-3.942-13.703 1.229-18.272 5.101-4.509 13.047-3.643 17.543 1.193 1.979 2.128 2.983 4.65 3.177 7.234.556 7.577-3.569 13.126-11.567 13.819zm35.869-26.826c-5.422.121-10.85-2.021-15.222-6.42-8.217-8.265-5.938-21.629 2.199-28.819 8.046-7.108 20.526-5.382 27.513 2.136 2.75 2.957 4.283 6.425 4.787 10.014 2.114 15.097-9.142 22.851-19.277 23.089z" fill="#ff5671"/><path d="m555.108 437.759c12.759-9.099 25.709 9.032 16.579 19.994-13.6 12.926-32.14-8.898-16.579-19.994z" fill="#ffa0b9"/><path d="m711.655 311.278c-136.006 10.903-276.416 11.934-411.84-6.537-28.307-3.859-58.47-7.317-85.305-17.744 28.906 39.84 73.112 67.145 109.738 99.17 37.547 32.83 78.287 61.963 114.84 95.933 31.168 28.968 67.43 65.124 76.259 108.638 9.278 45.735 4.052 96.789 4.146 143.147.047 22.972 5.88 51.261-8.239 71.069-10.006 14.041-29.181 23.156-44.784 29.154-25.794 9.916-57.249 10.579-81.377 24.068-3.808 2.128-30.087 16.225-19.393 22.945 16.546 10.402 40.227 12.054 59.097 14.077 30.834 3.306 61.896 4.571 92.899 4.657 56.126.152 122.649 2.855 176.198-16.941 40.078-14.818-43.21-35.693-55.38-38.545-24.641-5.776-48.778-14.193-69.093-29.68-17.042-12.99-18.131-28.057-18.112-48.15.05-54.294-2.755-109.856 2.186-163.995 4.009-43.954 38.198-82.429 68.675-111.426 37.887-36.048 80.434-66.479 119.75-100.856 37.885-33.128 84.295-61.713 114.256-103.025-45.066 16.993-97.171 20.247-144.521 24.041zm25.873 63.596c-30.367 23.658-59.525 49.127-87.958 74.993-18.768 17.072-37.375 34.425-54.762 52.915-13.982 14.871-24.94 33.445-39.772 47.195-15.992 14.828-34.582 3.137-46.072-10.521-18.828-22.381-37.744-43.16-59.491-62.846-40.413-36.578-82.741-71.035-125.644-104.648-9.197-7.207-12.779-12.34 2.465-18.49 7.461-3.014 16.417-3.979 23.547-5.091 18.986-2.968 38.12-4.94 57.283-6.333 89.962-6.536 182.137-7.344 271.976 1.641 17.938 1.791 36.649 3.258 54.007 8.338 21.272 6.221 15.342 14.339 4.421 22.847z" fill="#d5d5d5"/><path d="m342.983 356.606c18.102-3.799 36.725-5.356 55.128-6.938 74.181-6.373 149.313-6.242 223.647-3.004 31.121 1.355 62.385 3.494 93.148 8.535 22.256 3.644 24.904 10.945 3.072 14.88-10.223 1.842-20.77 2.692-30.713 3.806-80.951 8.391-163.264 8.314-244.488 4.634-36.066-1.635-73.664-3.112-108.811-11.878-18.517-4.618.071-8.158 9.017-10.035z" fill="#ff5671"/><path d="m263.352 358.145c-6.008-.315-11.992-1.042-17.996-2.226-4.869-.961-10.698-.977-7.869-7.088 2.07-4.476 4.42-8.822 6.678-13.211 6.703 5.965 13.6 11.748 20.594 17.42 5.925 4.805 7.444 5.576-1.407 5.105z" fill="#ff801d"/><path d="m221.891 234.706c8.541 2.484 5.967 3.43-.646 5.422-18.637 5.597-34.852 14.328-31.891 28.063-10.07 5.242-30.625 15.553-34.547 4.375-3.676-10.479-13.574-51.203 6.744-50.656 19.647.53 41.499 7.595 60.34 12.796z" fill="#ff801d"/><path d="m266.867 242.599c7.306 16.459 14.799 32.833 22.34 49.184-15.117-2.313-30.163-5.018-45.072-8.312-6.17-1.362-53.148-12.597-39.65-22.452 16.442-12.008 42.293-15.016 62.382-18.42z" fill="#d5d5d5"/><path d="m366.852 300.394c-21.426-1.629-42.84-3.757-64.127-6.653-2.517-5.474-5.037-10.942-7.559-16.419-2.109-4.581-3.623-8.299 4.473-7.334 12.654 1.508 29.885 9.56 38.17 11.892 7.125 2.006 14.271 3.95 21.427 5.851 9.008 2.389 10.096 6.884 7.616 12.663z" fill="#ff801d"/><path d="m226.67 318.973c-3.796 4.735-7.563 9.487-11.158 14.382-6.346 8.646-13.6 4.645-25.059-5.402-4.49-3.936-25.014-21.075-13.834-27.322 8.003-4.47 16.588-8.246 24.85-12.26 7.412 10.978 15.934 21.097 25.201 30.602z" fill="#ff801d"/><path d="m736.094 233.056c40.932 4.07 87.398 7.389 124.974 25.201 21.112 10.008-8.421 18.307-18.217 21.326-25.776 7.953-53.153 11.537-79.825 14.947-116.439 14.883-235.93 14.812-352.973 8.611-1.785-.094-3.575-.209-5.361-.308 11.064-24.479 15.455-50.403 13.587-75.656 105.708-5.205 212.447-4.6 317.815 5.879z" fill="#d5d5d5"/><path d="m333.489 153.681c8.443-14.275 16.586-4.714 24.006 2.986 8.145 8.447 14.354 18.438 19.854 28.719 8.336 15.582-6.018 15.301-16.244 18.689-17.463 5.785-35.219 10.694-52.881 15.821-10.186 2.968-13.504 1.792-10.768-4.286 6.846-14.283 15.264-27.748 23.52-41.244 4.206-6.875 8.411-13.749 12.513-20.685z" fill="#ff801d"/><path d="m270.204 117.747c11.55-.241 22.978 1.697 34.118 4.551 17.596 4.506 7.471 16.811 2.321 27.52-8.042 16.721-15.948 33.507-24.067 50.191-6.215 12.672-11.264 18.734-17.494 1.489-6.492-17.841-13.295-35.565-19.82-53.392-2.572-7.027-5.287-14.057-7.367-21.248-2.732-9.462 28.154-9.026 32.309-9.111z" fill="#ff801d"/><path d="m170.041 171.589c7.363-11.475 17.352-21.576 28.129-29.854 7.896-6.063 43.639 57.073 47.063 64.277 10.697 19.011 1.963 16.326-11.889 11.096-19.598-7.477-38.969-15.367-57.947-24.314-11.348-5.35-12.014-10.83-5.356-21.205z" fill="#ff801d"/><path d="m349.358 124.178c-48.83-32.871-119.244-33.565-165.188 5.824-47.741 40.931-69.012 110.556-38.104 168.449 29.24 54.771 84.947 84.255 145.531 75.882-3.955-3.126-7.929-6.252-11.914-9.391-8.688.596-17.393.549-26.041-.659-6.957-.972-15.451-1.563-21.473-5.588-8.012-5.356 1.795-20.063 6.564-27.972-2.414-2.229-4.797-4.48-7.135-6.772-4.994 6.658-9.544 14.247-15.242 20.061-2.512 2.563-4.313 3.815-7.861 4.159-8.522.826-23.184-15.133-28.307-20.48-6.391-6.674-16.826-15.826-14.268-26.143 1.156-4.654 7.286-6.861 10.938-8.64 6.973-3.394 13.879-6.921 20.838-10.341-1.314-2.123-2.631-4.246-3.857-6.436-.549-.538-.998-1.134-1.469-1.721-10.904 5.75-31.863 16.658-39.891 8.631-10.277-10.277-12.67-42.802-9.123-55.867 3.615-13.33 14.912-13.136 26.779-10.955 17.962 3.301 35.98 6.965 53.59 11.826 4.014 1.167 8.027 2.471 11.853 4.166 1.866.828 3.675 1.714 4.915 3.209 8.434-1.69 16.154-2.857 21.525-3.676-2.801-6.701 3.857-7.875 8.07-1.822 9.21 13.236 13.021 21.16 18.735 33.625 7.925-2.75 15.097 1.347 24.016 3.965 14.843 4.355 29.712 8.637 44.663 12.607 6.204 1.648 16.703 2.235 20.337 8.441 1.942 3.314.128 8.086-2.397 12.441 5.629.396 11.255.779 16.879 1.121 29.562-60.137 14.631-139.173-42.963-177.944zm-94.869 100.897c-6.299 5.348-16.361 1.194-22.979-1.307-13.721-5.232-27.432-10.523-40.867-16.455-10.617-4.687-23.639-8.683-32.389-16.515-12.043-10.782 20.701-41.919 27.578-47.843 16.75-14.423 21.155-10.377 32.477 6.573 11.42 17.099 24.041 34.384 32.887 52.999 3 5.324 9.746 17.068 3.293 22.548zm8.005-12.066c-1.726-3.071-2.938-6.539-4.073-9.676-5.792-15.916-11.889-31.723-17.71-47.627-3.584-9.791-10.211-21.601-9.976-32.331.331-14.944 37.397-12.954 45.722-12.399 9.867.659 53.867 2.381 45.84 21.716-9.982 24.042-36.422 76.342-37.699 78.622-6.018 10.712-16.713 11.306-22.104 1.695zm28.998-.884c11.592-24.19 26.688-47.085 40.799-69.87 10.162-16.406 26.751 4.992 33.689 13.609 5.393 6.693 34.291 40.521 16.902 47.943-23.207 9.91-48.631 15.727-72.826 22.75-5.074 1.479-12.241 4.787-17.543 2.685-7.435-2.946-3.304-12.055-1.021-17.117zm87.851 65.546c-23.558-4.221-47.419-10.871-70.228-18.038-5.139-1.673-18.266-5.101-17.281-12.957 1.133-9.035 14.036-10.501 21.018-11.816 22.908-4.257 46.375-10.495 69.545-12.743 14.221-1.381 11.992 12.578 11.124 23.277-.646 7.949-.009 34.814-14.178 32.277z" fill="#fbf199"/><path d="m386.793 239.978c.033 8.857-1.329 17.681-3.211 26.307-1.74 7.967-15.348 1.66-19.674.637-17.78-4.212-35.516-8.469-52.959-13.949-14.699-4.782-16.26-7.674 3.738-11.452 13.098-2.433 26.205-4.801 39.309-7.206 8.467-1.555 16.93-3.135 25.387-4.74 9.508-1.806 7.383 3.011 7.41 10.403z" fill="#ff801d"/><path d="m265.082 201.498c6.23 17.245 11.279 11.183 17.494-1.489 5.703-11.717 11.309-23.482 16.922-35.242-10.97 10.627-23.398 19.484-32.543 12.108-11.986-9.665-19.092-25.669-25.828-40.146 1.346 3.807 2.752 7.596 4.135 11.377 6.525 17.827 13.328 35.551 19.82 53.392z" fill="#ef6200"/><path d="m263.352 358.145c8.852.472 7.332-.3 1.406-5.104-1.768-1.435-3.508-2.898-5.262-4.35-2.426.569-5.004.688-7.607.318-5.527-.79-8.945-3.776-10.576-7.889-1.319 2.55-2.621 5.106-3.826 7.711-2.829 6.111 3 6.127 7.869 7.088 6.004 1.184 11.988 1.91 17.996 2.226z" fill="#ef6200"/><path d="m297.455 215.61c-2.736 6.078.582 7.254 10.768 4.286 17.662-5.127 35.418-10.036 52.881-15.821 10.227-3.389 24.58-3.107 16.244-18.689-1.133-2.117-2.32-4.209-3.523-6.293-4.261 12.963-14.049 20.988-29.496 24.002-8.25 1.609-21.109 3.652-26.475-4.551-2.789-4.262-2.826-10.023-2.039-15.739-6.532 10.704-12.94 21.497-18.36 32.805z" fill="#ef6200"/><path d="m353.073 257.351c-6.549.402-37.6-4.932-38.438-15.82-19.938 3.771-18.371 6.664-3.686 11.441 17.443 5.48 35.179 9.737 52.959 13.949 4.326 1.023 17.934 7.33 19.674-.637 1.69-7.746 2.902-15.652 3.119-23.6-7.763 9.54-20.629 13.873-33.628 14.667z" fill="#ef6200"/><path d="m175.397 192.794c18.979 8.947 38.35 16.838 57.947 24.314 13.84 5.226 22.57 7.908 11.912-11.055-15.059 6.766-33.686-3.643-46.135-13.62-12.682-10.166-17.359-22.693-15.973-37.282-4.885 5.084-9.345 10.574-13.107 16.438-6.658 10.375-5.992 15.855 5.356 21.205z" fill="#ef6200"/><path d="m221.338 313.295c-5.967 7.112-14.877 10.829-24.617 6.429-8.413-3.803-12.337-14.398-11.299-23.593-2.963 1.462-5.945 2.903-8.803 4.499-11.18 6.247 9.344 23.387 13.834 27.322 11.459 10.047 18.713 14.049 25.059 5.402 3.596-4.895 7.362-9.646 11.158-14.382-1.814-1.862-3.576-3.768-5.332-5.677z" fill="#ef6200"/><path d="m215.231 242.091c-6.791-1.113-13.741.742-20.689 3.125-7.93 2.719-15.201 5.813-23.744 5.895-10.746.104-17.447-6.746-21.342-15.43-1.469 12.682 3.097 30.457 5.352 36.885 3.922 11.178 24.477.867 34.547-4.375-2.64-12.228 9.935-20.485 25.876-26.1z" fill="#ef6200"/><path d="m330.774 292.771c-13.434-2.603-28.041-9.692-33.223-22.903-5.631-.059-4.282 3.33-2.385 7.453 2.521 5.477 5.042 10.945 7.559 16.419 21.287 2.896 42.701 5.024 64.127 6.653 2.115-4.931 1.586-8.91-4.193-11.463-2.382 1.821-5.023 3.316-8.465 4.25-7.496 2.036-15.941 1.042-23.42-.409z" fill="#ef6200"/><path d="m198.71 173.333c1.622 2.04 6.218 6.311 10.987 10.185 16.431 13.349 17.213 9.071 8.911-7.271-2.141-4.213-4.759-8.58-7.513-12.223-11.905-15.736-23.095-4.16-12.385 9.309z" fill="#facb1a"/><path d="m293.442 147.304c8.318-12.732 3.34-16.646-10.218-19.701-7.837-1.764-21.868-3.273-27.22 4.542-4.609 6.733-.609 14.74 4.91 21.333 7.445 8.881 18.527 12.023 28.949-1.234 1.593-2.026 2.852-3.825 3.579-4.94z" fill="#facb1a"/><path d="m205.13 303.309c-10.81-10.048-17.394-2.909-7.644 8.574 2.746 3.233 8.41 4.185 11.186.503 2.269-3.008-1.523-7.199-3.542-9.077z" fill="#facb1a"/><path d="m181.199 230.022c-19.498-3.82-29.035 15.838-.789 11.059 28.623-4.854 23.353-6.617.789-11.059z" fill="#facb1a"/><path d="m345.926 191.089c6.429-1.234 16.963-4.137 15.326-12.77-1.452-7.666-12.077-21.752-21.234-15.689-2.875 1.904-6.021 5.217-8.529 9.066-15.063 23.168 5.71 21.067 14.437 19.393z" fill="#facb1a"/><path d="m353.551 247.724c24.227.934 28.868-16.783.213-7.955-12.167 3.744-9.873 7.588-.213 7.955z" fill="#facb1a"/><path d="m717.979 370.08c.467-.083.858-.177 1.301-.265-68.986-13.83-140.916-15.166-210.955-14.257-35.947.466-71.91 2.056-107.721 5.272-19.186 1.728-38.865 3.605-57.842 7.77 32.586 6.982 66.934 8.419 100.016 9.919 81.225 3.681 163.537 3.757 244.488-4.634 9.943-1.113 20.49-1.963 30.713-3.805z" fill="#df3f58"/><path d="m627.869 455.244c-16.516 11.067-32.402 22.868-48.17 34.96-15.404 11.813-29.19 25.578-50.064 24.895-17.542-.578-31.787-15.7-43.373-27.156-13.873-13.723-28.344-26.771-43.506-39.058-13.853-11.226-28.774-20.775-43.252-31.124-13.244-9.467-25.828-19.952-40.645-26.759 29.935 23.917 59.471 48.357 87.966 73.938 20.29 18.211 41.556 36.777 58.461 58.285 7.625 9.698 18.191 28.83 32.987 26.881 14.586-1.926 20.982-16.024 29.123-26.375 23.177-29.476 51.056-55.523 79.142-80.541-6.256 3.922-12.487 7.913-18.669 12.054z" fill="#df3f58"/><path d="m522.16 445.914c-4.148 0-6.254 3.167-6.321 6.38-.069 3.32 2.038 6.696 6.321 6.696 4.216 0 6.325-3.27 6.325-6.537.001-3.269-2.109-6.539-6.325-6.539z" fill="#ff9780"/><path d="m466.504 413.226c-2.611 0-3.936 1.992-3.979 4.014-.043 2.092 1.281 4.214 3.979 4.214 2.652 0 3.982-2.058 3.982-4.112.001-2.06-1.33-4.116-3.982-4.116z" fill="#ff9780"/><path d="m548.308 401.274c-2.61 0-3.936 1.992-3.978 4.014-.043 2.091 1.281 4.213 3.978 4.213 2.653 0 3.981-2.057 3.981-4.112 0-2.058-1.328-4.115-3.981-4.115z" fill="#ff9780"/><path d="m602.844 448.339c-2.61 0-3.935 1.992-3.978 4.014-.042 2.091 1.282 4.213 3.978 4.213 2.654 0 3.982-2.057 3.982-4.112 0-2.058-1.328-4.115-3.982-4.115z" fill="#ff9780"/><path d="m600.971 413.226c-6.235 0-9.396 4.371-9.5 8.811-.102 4.584 3.063 9.242 9.5 9.242 6.337 0 9.51-4.512 9.51-9.022 0-4.516-3.173-9.031-9.51-9.031z" fill="#ff9780"/><path d="m487.32 444.319c-5.928 0-8.932 4.156-9.03 8.375-.098 4.357 2.909 8.783 9.03 8.783 6.022 0 9.037-4.286 9.037-8.574 0-4.293-3.015-8.584-9.037-8.584z" fill="#ff9780"/><path d="m630.229 401.213c-2.885 0-4.347 2.021-4.395 4.075-.049 2.12 1.415 4.274 4.395 4.274 2.93 0 4.398-2.085 4.398-4.171 0-2.091-1.469-4.178-4.398-4.178z" fill="#ff9780"/><path d="m291.598 374.333c-2.334-1.844-4.686-3.695-7.031-5.543-2.384.375-4.761.784-7.172 1.036-14.323 1.489-29.272-1.126-43.105-4.646-27.992-7.124-51.569-23.42-68.756-46.438-29.285-39.221-34.873-89.944-21.152-135.816-16.461 36.189-18.197 78.279 1.686 115.524 29.239 54.772 84.946 84.256 145.53 75.883z" fill="#f3af79"/><path d="m693.895 882.915c9.689-3.582 12.125-7.518 10.142-11.469-62.647 31.744-242.41 16.48-268.157 13.324-71.278-8.75-34.513-19.874 44.901-49.507 15.067-5.624 28.673-14.122 37.993-27.632 7.868-11.405 9.42-31.121 9.211-45.477 1.359-50.332-.783-97.835-4.029-147.944-1.662-25.653-4.588-39.59-16.929-61.679-16.896-30.238-44.073-58.764-82.308-90.021-49.914-40.802-120.109-92.659-136.18-105.393 12.178 9.572 24.311 19.082 35.709 29.048 37.547 32.83 78.287 61.963 114.84 95.933 31.168 28.968 67.43 65.124 76.259 108.638 9.278 45.735 4.052 96.789 4.146 143.147.047 22.972 5.88 51.261-8.239 71.069-10.006 14.041-29.181 23.156-44.784 29.154-25.794 9.916-57.249 10.579-81.377 24.068-3.808 2.128-30.087 16.225-19.393 22.945 16.546 10.402 40.227 12.054 59.097 14.077 30.834 3.306 61.896 4.571 92.899 4.657 56.127.156 122.65 2.859 176.199-16.938z" fill="#bebebe"/><path d="m554.42 290.368c-48.016.469-96.145.033-144.207-1.676-1.626 4.754-3.414 9.48-5.521 14.142 1.786.099 3.576.214 5.361.308 117.043 6.2 236.533 6.271 352.973-8.611 26.672-3.41 54.049-6.994 79.825-14.947 9.197-2.836 35.792-10.324 21.526-19.514-37.914 11.119-77.713 16.406-116.76 20.548-64.109 6.799-128.759 9.117-193.197 9.75z" fill="#bebebe"/><path d="m244.135 283.471c14.909 3.294 29.955 5.999 45.072 8.312-1.641-3.563-3.268-7.131-4.904-10.695-26.997-2.244-54.557-5.41-80.375-12.797 7.512 7.462 35.537 14.147 40.207 15.18z" fill="#bebebe"/><path d="m625.749 855.972c-23.688-2.681-47.991-3.861-71.332-3.566-21.896.271-43.892 1.065-65.694 2.66-9.717.713-21.198 1.232-32.127 2.793-24.428 3.49-24.445 9.55-1.607 11.039 31.085 2.027 62.342 2.543 93.51 2.041 25.817-.418 52.39-1.027 78.195-4.228 24.33-3.013 23.341-7.982-.945-10.739z" fill="#efefef"/><path d="m563.742 445.275c6.53 3.38 7.036 9.339 4.942 14.7 1.017-.588 2.024-1.291 3.002-2.223 9.13-10.962-3.82-29.093-16.579-19.994-4.445 3.17-6.042 7.209-5.831 11.07 2.911-4.692 8.509-6.634 14.466-3.553z" fill="#ffe1dc"/><path d="m529.918 486.815c4.084-4.904-1.806-12.805-7.43-8.795-1.664 1.188-2.426 2.653-2.559 4.111 3.182-3.35 9.051-2.629 9.277 3.028.031.789-.047 1.576-.191 2.358.306-.207.608-.422.903-.702z" fill="#ffe1dc"/><path d="m515.85 426.196c2.971-4.909-2.597-11.855-7.943-8.044-3.588 2.56-3.029 6.397-.83 8.675.216-2.703 1.193-5.172 4.533-5.232 2.939-.054 4.043 2.161 4.24 4.601z" fill="#ffe1dc"/><g fill="#68182b"><path d="m382.172 332.976c1.219-1.41 2.16-2.893 2.961-4.426 3.176-6.076 3.828-9.092-3.42-2.568-9.232 8.318-6.998 15.621.459 6.994z"/><path d="m340.039 191.64c1.171-1.956-.297-5.21-2.827-4.927-3.386.38-6.118 2.917-6.812 5.979-.119.533.057 1.26.611 1.502 3.183 1.397 7.192.51 9.028-2.554z"/><path d="m362.985 239.151c-1.918.554-3.805 1.613-5.148 3.108-.598.665-2.219 2.698-1.281 3.629 2.368 2.348 6.654 1.521 9.146-.292 3.081-2.24 1.361-7.618-2.717-6.445z"/><path d="m285.844 159.248c4.188 1.214 7.973-4.234 7.141-7.917-.619-2.756-4.074-3.279-5.963-1.577-1.444 1.302-4.42 8.554-1.178 9.494z"/><path d="m217.52 186.376c2.869-2.254 1.035-6.238-.998-8.324-3.176-3.257-8.225 1.794-4.982 4.982 1.261 1.241 3.865 5.004 5.98 3.342z"/><path d="m177.944 243.523c8.572-1.966 8.584-6.089-.82-6.058-1.635.004-3.145 1.398-3.084 3.082.01.277.032.556.111.821.485 1.667 2.133 2.533 3.793 2.155z"/><path d="m203.291 318.408c1.123-1.828 1.568-4.236 1.049-6.325-.064-.264-.33-.373-.574-.328-1.935.359-3.635 1.799-4.971 3.186-2.89 2.997 2.311 7.015 4.496 3.467z"/><path d="m333.776 286.065c-2.412-1.432-4.729-1.178-7.271-1.418-.355-.034-.535.344-.486.639.455 2.721 1.813 5.117 4.518 6.32 3.698 1.647 6.873-3.379 3.239-5.541z"/><path d="m335.139 245.916c-.406.042-.787.396-.641.843.787 2.408 2.779 4.475 5.043 5.59 2.572 1.267 5.736-2.167 3.25-4.209-2.161-1.774-4.877-2.519-7.652-2.224z"/><path d="m346.218 174.957c1.253-1.084 2.856-2.774 2.618-4.571-.248-1.859-2.344-3.939-4.305-2.469-1.455 1.09-1.875 2.435-2.256 4.146-.312 1.401-.784 6.996 3.943 2.894z"/><path d="m359.93 193.925c3.461-1.431 1.386-6.359-1.992-4.727-1.725.836-2.729 2.017-3.803 3.512-.262.369.025.85.398.977 1.86.626 3.463 1.036 5.397.238z"/><path d="m268.145 153.122c.128.077.309.082.436 0 2.791-1.78 3.842-6.222 1.35-8.74-1.633-1.648-4.93-.998-5.426 1.433-.595 2.916 1.197 5.846 3.64 7.307z"/><path d="m193.514 186.263c.357-.195.609-.713.453-1.112-.938-2.393-3.258-5.199-6.046-5.275-1.778-.05-2.692 1.642-2.438 3.2.539 3.278 5.459 4.609 8.031 3.187z"/><path d="m198.204 168.95c.818.374 1.664.348 2.343-.301 2.301-2.194 1.598-7.709-1.673-8.673-.954-.281-2.044.021-2.739.724-2.176 2.204-.551 7.059 2.069 8.25z"/><path d="m166.571 261.481c2.088.066 4.607-.967 5.918-2.625.561-.708.711-2.048-.322-2.493-2.119-.913-4.908-.808-6.833.551-1.961 1.381-1.314 4.482 1.237 4.567z"/><path d="m323.592 205.318c1.912-1.203 1.072-3.998-1.117-4.124-1.363-.078-2.344.319-3.561.891-3.381 1.586-2.787 4.084.93 4.238 1.245.053 2.486-.213 3.748-1.005z"/><path d="m278.045 182.378c.596-1.06 1.006-2.235 1.277-3.668.646-3.414-4.578-4.871-5.227-1.439-.271 1.453-.432 2.813-.408 4.293.093 6.202 2.796 3.586 4.358.814z"/><path d="m279.676 136.734c1.879-.747 2.952-2.325 3.615-4.181 1.088-3.033-3.598-4.197-4.754-1.311-.588 1.473-.962 2.84-.732 4.43.107.761 1.166 1.343 1.871 1.062z"/><path d="m217.455 203.099c1.283 1.82 3.438 1.545 5.459 1.633.814.036 3.508.027 3.498-1.324-.025-3.045-7.035-4.207-8.699-2.305-.461.523-.701 1.369-.258 1.996z"/><path d="m248.535 348.909c.162-.963.146-1.79.184-2.738.025-.731-.707-1.189-1.367-1.042-1.584.358-2.231 1.19-2.782 2.688-.927 2.513 3.526 3.701 3.965 1.092z"/><path d="m194.026 306.544c2.242.225 4.952-1.738 6.5-3.235.57-.556.273-1.507-.457-1.728-2.562-.779-6.346-.787-7.875 1.77-.891 1.494.295 3.039 1.832 3.193z"/><path d="m375.403 254.566c-1.992-.573-3.682-.223-5.209 1.165-.352.321-.35.951 0 1.272 1.203 1.108 2.426 1.545 4.031 1.833 2.771.495 3.965-3.472 1.178-4.27z"/><path d="m305.362 283.754c-.162.212-.033.542.174.663 2.412 1.42 7.432 2.135 9.073-.689.423-.725.216-1.457-.268-2.071-2.253-2.865-7.268-.142-8.979 2.097z"/><path d="m349.848 290.484c-.977.202-1.879.447-2.729.976-.877.547-.877 1.801 0 2.348.85.529 1.752.773 2.729.977 3.596.741 3.596-5.043 0-4.301z"/><path d="m406.987 881.356c35.227 6.734 71.379 8.658 107.182 9.395 35.223.725 69.299-.854 103.789-8.018.713-.148.559-1.336-.17-1.273-70.303 6.047-140.398.326-210.691-.918-.46-.008-.577.725-.11.814z"/><path d="m629.365 882.396c1.342.333 2.766.43 4.145.425 6.5-.021 5.787-4.976-.551-4.063-1.203.172-2.42.405-3.594.725-3.654.988-4.209 1.873 0 2.913z"/><path d="m450.27 240.087c117.201 3.423 234.757 4.816 351.728 14.086.765.061.942-1.223.183-1.342-55.932-8.76-112.408-12.316-168.922-14.813-34.105-1.507-68.229-2.593-102.369-2.826-26.792-.188-54.25-.317-80.729 4.083-.477.079-.34.798.109.812z"/><path d="m815.168 256.952c5.846 1.205 8.486-2.563 1.002-3.643-2.66-.383-4.929.018-7.355 1-.233.098-.391.495-.082.625 2.135.913 4.132 1.544 6.435 2.018z"/></g></g></g></svg>