<?xml version="1.0" encoding="UTF-8"?>
<!-- Generator: Adobe Illustrator 26.0.1, SVG Export Plug-In . SVG Version: 6.00 Build 0)  -->
<svg xmlns="http://www.w3.org/2000/svg" xmlns:xlink="http://www.w3.org/1999/xlink" version="1.1" id="Capa_1" x="0px" y="0px" viewBox="0 0 512 512" style="enable-background:new 0 0 512 512;" xml:space="preserve" width="512" height="512">
<g>
	<path style="fill:#074785;" d="M144.866,497.863c50.747,0,93.747-14.655,108.501-34.91c-1.06-10.186-3.514-22.291-6.667-29.091   c-4.584-9.899-19.171-2.968-23.823-12.69c-1.164,0.814-1.712,1.225-1.947,1.415c0.313-0.112-0.465,0.381,0,0   c-0.188,0.063-0.783,0.353-2.318,1.185c-5.351,2.929-11.006,5.161-16.681,6.829c-26.543,7.8-53.421,9.163-80.47,6.108   c-22.513-2.54-39.971,10.092-58.95-7.427c-4.333,8.92-14.932-4.782-19.249,4.007c-3.921,7.973-5.43,20.197-5.9,30.973   C52.988,483.834,95.22,497.863,144.866,497.863z"/>
	<path style="fill-rule:evenodd;clip-rule:evenodd;fill:#5E80B4;" d="M263.392,157.15c0.01-8.539-3.248-23.486-7.873-30.772   c-4.986-7.855-20.863-2.355-25.922-10.071c-1.269,0.647-1.864,0.968-2.12,1.122c0.345-0.083-0.506,0.303,0,0   c-0.203,0.052-0.851,0.279-2.522,0.945c-5.822,2.318-11.977,4.093-18.143,5.419c-28.877,6.195-58.125,7.273-87.55,4.848   c-24.496-2.015-43.496,8.011-64.139-5.9c-4.715,7.085-16.242-3.79-20.947,3.182c-5.456,8.098-6.62,21.727-6.615,31.386   c0.026,92.745,0.214,185.489-0.225,278.236c-0.068,14.394,6.437,23.659,19.046,29.697c19.625,9.4,40.927,13.099,62.615,15.096   c24.46,2.258,48.941,2.284,73.401,0.016c18.842-1.746,37.382-4.827,54.966-11.912c21.019-8.476,26.01-15.522,25.99-37.048   l-0.078-59.728C263.303,300.162,263.313,228.653,263.392,157.15z"/>
	<path style="fill-rule:evenodd;clip-rule:evenodd;fill:#F1854F;" d="M263.392,157.15c0.01-8.539-3.248-23.486-7.873-30.772   c-4.986-7.855-20.863-2.355-25.922-10.071c-1.269,0.647-1.864,0.968-2.12,1.122c0.345-0.083-0.506,0.303,0,0   c-0.203,0.052-0.851,0.279-2.522,0.945c-5.822,2.318-11.977,4.093-18.143,5.419c-28.877,6.195-58.125,7.273-87.55,4.848   c-24.496-2.015-43.496,8.011-64.139-5.9c-4.715,7.085-16.242-3.79-20.947,3.182c-5.456,8.098-6.62,21.727-6.615,31.386   c0.026,92.745,0.214,185.489-0.225,278.236c-0.068,14.394,6.437,23.659,19.046,29.697c19.625,9.4,40.927,13.099,62.615,15.096   c24.46,2.258,48.941,2.284,73.401,0.016c18.842-1.746,37.382-4.827,54.966-11.912c21.019-8.476,26.01-15.522,25.99-37.048   l-0.078-59.728C263.303,300.162,263.313,228.653,263.392,157.15z"/>
	<path style="fill:#074785;" d="M255.519,126.378c-4.986-7.855-20.863-2.355-25.922-10.071c-1.269,0.647-1.864,0.968-2.12,1.122   c0.345-0.083-0.506,0.303,0,0c-0.203,0.052-0.851,0.279-2.522,0.945c-5.822,2.318-11.977,4.093-18.143,5.419   c-28.877,6.195-58.125,7.273-87.55,4.848c-22.184-1.827-39.862,6.226-58.328-2.571c-2.939-0.165-5.853-0.507-8.766-1.097   c-5.513,1.639-14.091-4.829-17.991,0.95c-5.456,8.098-6.62,21.727-6.615,31.386c0,3.365,0,6.735,0,10.108   c28.35,10.578,70.253,17.276,117.027,17.276c47.751,0,90.437-6.98,118.797-17.947c0-3.195,0-6.398,0.005-9.596   C263.402,148.611,260.144,133.664,255.519,126.378z"/>
	<ellipse style="fill:#FFA4AC;" cx="144.72" cy="132.552" rx="112.422" ry="36.231"/>
	<path style="fill:#074785;" d="M193.41,136.441c0,8.244-21.797,14.927-48.69,14.927c-26.888,0-48.685-6.683-48.685-14.927   c0-8.246,21.797-14.929,48.685-14.929C171.613,121.512,193.41,128.195,193.41,136.441z"/>
	<path style="fill-rule:evenodd;clip-rule:evenodd;fill:#F9D555;" d="M230.818,342.887c-7.669,7.771-13.366,16.984-17.406,27.279   c-2.736,6.965-4.996,14.125-7.555,21.163c-2.501,6.892-5.638,13.42-10.546,18.84c-4.453,4.929-9.726,8.724-15.391,11.909   c-7.837,4.401-15.798,8.549-23.625,12.977c-9.418,5.325-18.299,11.473-25.608,19.816c-6.876,7.845-12.228,16.488-16.028,25.927   c7.466,0.582,14.942,0.979,22.408,1.141c3.242-5.615,7.241-10.784,11.883-15.564c5.962-6.145,13.057-10.63,20.393-14.692   c7.826-4.333,15.772-8.434,23.526-12.917c7.946-4.597,15.099-10.327,20.785-17.884c4.699-6.244,7.92-13.326,10.703-20.659   c2.856-7.529,5.534-15.141,8.505-22.62c5.764-14.478,15.449-25.024,29.122-31.469c0.439-0.206,0.872-0.4,1.305-0.595   c0.005-7.646,0.005-15.289,0.01-22.938C251.122,326.927,240.153,333.437,230.818,342.887z"/>
	<path style="fill-rule:evenodd;clip-rule:evenodd;fill:#FD6085;" d="M245.761,354.875c-8.113,8.218-13.94,18.051-18.106,28.974   c-2.506,6.573-4.641,13.3-7.038,19.92c-2.459,6.787-5.618,13.167-10.442,18.482c-4.443,4.884-9.69,8.661-15.313,11.815   c-7.842,4.401-15.804,8.554-23.63,12.979c-9.413,5.325-18.299,11.475-25.603,19.816c-4.135,4.72-7.711,9.727-10.745,15.018   c8.635,0.235,17.271,0.188,25.906-0.144c1.002-1.141,2.026-2.266,3.096-3.37c5.962-6.148,13.052-10.633,20.393-14.692   c7.826-4.333,15.778-8.434,23.52-12.914c7.957-4.6,15.11-10.33,20.795-17.89c4.699-6.241,7.92-13.326,10.703-20.654   c2.851-7.534,5.529-15.146,8.505-22.625c3.613-9.077,8.766-16.61,15.475-22.552c0.005-8.541,0.01-17.083,0.01-25.624   C256.97,345.041,251.101,349.479,245.761,354.875z"/>
	<path style="fill-rule:evenodd;clip-rule:evenodd;fill:#7BEFE5;" d="M263.313,397.044l-0.037-25.376   c0-3.49,0.005-6.986,0.005-10.476c-0.867,0.806-1.734,1.634-2.579,2.485c-8.113,8.218-13.94,18.054-18.111,28.971   c-2.506,6.573-4.636,13.303-7.032,19.921c-2.459,6.79-5.612,13.17-10.447,18.485c-4.438,4.887-9.685,8.654-15.313,11.815   c-7.837,4.399-15.799,8.552-23.62,12.976c-9.418,5.328-18.299,11.476-25.609,19.819c-1.78,2.031-3.446,4.119-5.023,6.257   c8.949-0.214,17.903-0.736,26.851-1.566c1.665-0.154,3.326-0.324,4.986-0.499c3.769-2.728,7.758-5.13,11.836-7.383   c7.826-4.331,15.772-8.432,23.52-12.916c7.951-4.597,15.104-10.327,20.795-17.887c4.694-6.236,7.92-13.326,10.703-20.656   c2.851-7.531,5.529-15.143,8.505-22.62C262.922,397.937,263.12,397.495,263.313,397.044z"/>
	<path style="fill-rule:evenodd;clip-rule:evenodd;fill:#F1854F;" d="M250.679,426.098c-2.49,6.855-5.607,13.35-10.463,18.754   c-4.469,4.973-9.779,8.797-15.475,11.993c-7.837,4.406-15.799,8.555-23.625,12.977c-5.378,3.049-10.572,6.377-15.412,10.215   c17.709-1.799,35.111-4.923,51.661-11.593c21.019-8.476,26.01-15.522,25.99-37.048l-0.052-37.215   c-1.916,3.438-3.603,7.022-5.07,10.758C255.503,411.9,253.237,419.061,250.679,426.098z"/>
	<path style="fill-rule:evenodd;clip-rule:evenodd;fill:#074785;" d="M43.59,186.969c26.559,3.568,52.977,7.121,79.389,10.677   C100.342,205.6,62.297,199.862,43.59,186.969z"/>
	<g>
		<path style="fill-rule:evenodd;clip-rule:evenodd;fill:#29AEFD;" d="M145.602,138.655c-2.302-0.627-4.49-1.48-6.312-3.088    c-2.736-2.404-4.109-5.294-3.77-9.061c0.862-9.674,1.77-19.354,2.303-29.052c0.428-7.91,0.532-15.853,0.454-23.781    c-0.084-9.246-0.439-18.506-2.731-27.533c-2.496-9.847-9.888-12.783-18.889-15.271c-10.473-2.892-21.16-4.696-31.942-5.9    c-5.754-0.642-11.528-1.11-17.297-1.626c-5.242-0.467-9.465-4.018-10.75-9.082c-0.047-0.172-0.157-0.329-0.24-0.491    c0-1.318,0-2.642,0-3.968c0.715-1.611,1.263-3.32,2.177-4.816C60.235,2.334,62.803,0.841,65.764,0c1.561,0,3.112,0,4.673,0    c0.167,0.063,0.339,0.17,0.517,0.186c2.631,0.248,5.268,0.462,7.899,0.723c11.293,1.125,22.57,2.378,33.691,4.712    c8.85,1.856,17.464,4.451,25.692,8.228c4.636,2.125,8.891,4.806,12.05,8.943c3.764,4.923,6.255,10.468,7.685,16.462    c2.684,11.238,3.587,22.703,3.973,34.218c0.052,1.498,0.152,2.997,0.23,4.49c0,1.866,0,3.738,0,5.607    c-0.063,0.36-0.172,0.726-0.183,1.091c-0.042,1.553,0.016,3.117-0.078,4.665c-0.532,8.372-1.018,16.746-1.676,25.107    c-0.365,4.644-0.867,9.291-1.608,13.89c-0.7,4.323-2.903,7.756-7.127,9.552c-0.773,0.329-1.603,0.525-2.402,0.781    C147.936,138.655,146.767,138.655,145.602,138.655z"/>
		<path style="fill-rule:evenodd;clip-rule:evenodd;fill:#074785;" d="M159.887,118.39c0.13-1.316,0.245-2.636,0.35-3.958    c0.46-5.819,0.835-11.645,1.196-17.474l-23.724,2.258c-0.428,7.155-1.029,14.303-1.665,21.45L159.887,118.39z"/>
		<path style="fill-rule:evenodd;clip-rule:evenodd;fill:#074785;" d="M162.173,78.011c0-0.013,0-0.029,0-0.049    c-0.078-1.493-0.178-2.992-0.23-4.49c-0.188-5.662-0.506-11.309-1.096-16.921l-22.956,5.451c0.256,3.879,0.35,7.777,0.386,11.671    c0.031,3.341,0.021,6.68-0.021,10.024L162.173,78.011z"/>
		<path style="fill-rule:evenodd;clip-rule:evenodd;fill:#074785;" d="M150.285,22.792c-3.159-4.137-7.414-6.819-12.05-8.943    c-1.535-0.705-3.086-1.357-4.647-1.984L115.29,30.509c0.459,0.123,0.914,0.235,1.368,0.36c7.513,2.078,13.888,4.48,17.245,10.927    l17.344-17.673C150.933,23.68,150.62,23.228,150.285,22.792z"/>
		<path style="fill-rule:evenodd;clip-rule:evenodd;fill:#074785;" d="M75.804,24.084c2.976,0.269,5.947,0.556,8.912,0.885    c4.093,0.457,8.181,1.005,12.248,1.663l5.268-22.875c-7.012-1.102-14.07-1.903-21.14-2.621L75.804,24.084z"/>
	</g>
	<path style="fill:#FFFFFF;" d="M166.073,214.531c-0.861-0.914-2.589-13.705-4.156-13.603c-1.582,0.107-2.95,12.791-3.686,13.629   c-1.472,1.673-12.264,2.861-12.18,4.487c0.094,1.621,10.692,2.391,12.186,3.973c0.835,0.882,2.595,13.708,4.166,13.609   c1.572-0.105,2.918-12.755,3.681-13.616c1.425-1.619,12.295-2.869,12.212-4.5C178.207,216.878,167.52,216.06,166.073,214.531z"/>
	<path style="fill:#FFFFFF;" d="M298.79,436.136c-0.856-0.908-2.59-13.702-4.156-13.598c-1.577,0.107-2.95,12.789-3.681,13.626   c-1.477,1.673-12.269,2.861-12.18,4.49c0.089,1.621,10.687,2.389,12.186,3.971c0.835,0.88,2.589,13.71,4.166,13.608   c1.572-0.102,2.913-12.747,3.676-13.614c1.425-1.621,12.3-2.871,12.212-4.498C310.923,438.49,300.236,437.673,298.79,436.136z"/>
	<path style="fill:#074785;" d="M90.835,426.401c-0.861-0.916-2.589-13.71-4.161-13.603c-1.577,0.107-2.945,12.789-3.676,13.624   c-1.477,1.676-12.269,2.864-12.18,4.49c0.089,1.619,10.687,2.389,12.186,3.97c0.83,0.882,2.589,13.71,4.161,13.609   c1.572-0.099,2.919-12.75,3.681-13.614c1.425-1.621,12.3-2.866,12.207-4.5C102.968,428.746,92.276,427.928,90.835,426.401z"/>
	<g>
		<path style="fill-rule:evenodd;clip-rule:evenodd;fill:#074785;" d="M129.579,388.398c-5.425-3.947-9.131-10.58-9.857-17.143    c-0.621-5.639-1.102-12.496,2.198-17.44c3.299-4.955,8.901-7.92,14.859-7.108c3.472,0.467,6.74,1.53,9.601,3.553    c3.911,2.767,6.161,0.488,9.194-2.253c2.871-2.595,5.748-5.156,9.721-5.766c7.017-1.086,14.441,4.339,17.506,10.16    c3.388,6.451,2.825,13.674,1.175,20.547c-0.914,3.777-3.498,7.166-5.325,10.729C161.62,378.22,145.211,379.303,129.579,388.398z"/>
		<path style="fill-rule:evenodd;clip-rule:evenodd;fill:#FFA4AC;" d="M129.579,388.398c16.08-15.624,29.754-16.942,49.071-4.722    C165.035,400.725,146.652,402.494,129.579,388.398z"/>
		<g>
			<g>
				<g>
					<g>
						<path style="fill-rule:evenodd;clip-rule:evenodd;fill:#FFFFFF;" d="M139.729,300.454        c1.994,23.523-15.637,44.096-39.387,45.949c-23.745,1.848-44.618-15.717-46.602-39.232        c-1.989-23.52,15.642-44.091,39.387-45.936C116.877,259.376,137.745,276.939,139.729,300.454z"/>
						<path style="fill-rule:evenodd;clip-rule:evenodd;fill:#074785;" d="M111.661,263.806        c-13.026,2.457-24.523,11.392-29.55,24.588c-7.68,20.108,2.537,42.498,22.805,50.016c4.438,1.637,8.99,2.438,13.475,2.462        c13.966-7.965,22.779-23.424,21.338-40.418C138.282,283.376,126.89,269.458,111.661,263.806z"/>
					</g>
					<g>
						<path style="fill-rule:evenodd;clip-rule:evenodd;fill:#FFFFFF;" d="M242.832,288.159        c5.064,23.058-9.711,45.764-33.012,50.724c-23.296,4.949-46.289-9.716-51.348-32.775c-5.07-23.05,9.716-45.756,33.007-50.714        C214.779,250.435,237.773,265.103,242.832,288.159z"/>
						<path style="fill-rule:evenodd;clip-rule:evenodd;fill:#074785;" d="M210.19,255.517        c-12.593,4.151-22.81,14.512-26.068,28.253c-4.965,20.939,8.092,41.799,29.185,46.581c4.61,1.052,9.23,1.235,13.679,0.679        c12.797-9.734,19.5-26.209,15.846-42.872C239.156,271.421,226.02,259.115,210.19,255.517z"/>
					</g>
					<path style="fill-rule:evenodd;clip-rule:evenodd;fill:#074785;" d="M242.236,247.13c-6.704-9.001-16.801-13.621-27.984-12.227       c-5.607,0.702-4.078,9.314,1.504,8.622c8.176-1.023,14.921,2.725,19.725,9.171C238.858,257.235,245.588,251.633,242.236,247.13       z"/>
					<path style="fill-rule:evenodd;clip-rule:evenodd;fill:#074785;" d="M81.359,239.377c-11.215,0.496-20.701,6.262-25.823,16.294       c-2.569,5.041,5.419,8.609,7.977,3.597c3.743-7.338,10.63-10.818,18.665-11.175C87.827,247.84,86.966,239.134,81.359,239.377z"/>
				</g>
			</g>
			<path style="fill:#FFA4AC;" d="M104.211,362.81c0.13,6.706-7.497,12.285-17.036,12.473c-9.539,0.19-17.38-5.083-17.516-11.786     c-0.131-6.706,7.492-12.29,17.041-12.475C96.233,350.828,104.075,356.107,104.211,362.81z"/>
			<path style="fill:#FFA4AC;" d="M234.791,357.347c0.141,6.701-7.492,12.282-17.026,12.47c-9.544,0.193-17.386-5.082-17.516-11.786     c-0.136-6.704,7.492-12.29,17.031-12.478C226.819,345.365,234.666,350.643,234.791,357.347z"/>
			<g>
				<path style="fill:#FFFFFF;" d="M132.613,288.955c-2.741-5.636-6.417-10.497-11.914-13.673c-2.475-1.428-4.401,2.545-1.963,3.963      c4.422,2.55,7.508,6.657,9.706,11.183C129.673,292.952,133.861,291.521,132.613,288.955z"/>
				<path style="fill:#FFFFFF;" d="M114.261,271.347c-0.658-0.266-1.295-0.551-1.942-0.822c-1.117-0.457-2.402-0.133-2.96,1.002      c-0.506,1.018-0.115,2.503,0.997,2.958c0.653,0.269,1.295,0.559,1.942,0.82c1.117,0.46,2.402,0.136,2.966-1      C115.77,273.279,115.368,271.804,114.261,271.347z"/>
				<g>
					<path style="fill:#FFFFFF;" d="M134.346,297.087c-0.298-1.169-1.759-1.725-2.814-1.352c-1.206,0.431-1.645,1.647-1.347,2.811       c0-0.026,0.005-0.039,0.005-0.073c-0.162,1.19,0.517,2.349,1.754,2.582c1.128,0.219,2.422-0.559,2.584-1.749       C134.633,298.515,134.544,297.852,134.346,297.087z"/>
					<path style="fill:#FFFFFF;" d="M130.164,298.535c0,0.037,0,0.073,0,0.107c0.005-0.026,0.016-0.057,0.016-0.099       C130.028,297.935,130.148,298.387,130.164,298.535z"/>
					<path style="fill:#FFFFFF;" d="M130.164,298.643C130.128,298.966,130.164,298.815,130.164,298.643L130.164,298.643z"/>
					<path style="fill:#FFFFFF;" d="M130.185,298.551v-0.005c-0.005-0.003-0.005-0.003-0.005-0.003       C130.185,298.551,130.185,298.551,130.185,298.551z"/>
				</g>
			</g>
			<g>
				<path style="fill:#FFFFFF;" d="M234.186,281.16c-2.574-5.714-6.109-10.679-11.507-14.016c-2.422-1.501-4.474,2.412-2.073,3.9      c4.339,2.684,7.304,6.873,9.377,11.463C231.131,285.068,235.361,283.758,234.186,281.16z"/>
				<path style="fill:#FFFFFF;" d="M216.361,263.023c-0.642-0.287-1.274-0.595-1.916-0.882c-1.096-0.488-2.396-0.206-2.997,0.911      c-0.527,1.01-0.177,2.498,0.919,2.989c0.637,0.292,1.274,0.595,1.921,0.88c1.102,0.496,2.391,0.206,2.986-0.911      C217.808,264.999,217.463,263.514,216.361,263.023z"/>
				<g>
					<path style="fill:#FFFFFF;" d="M235.684,289.336c-0.256-1.175-1.712-1.773-2.777-1.433c-1.217,0.394-1.692,1.603-1.431,2.772       c0-0.021,0.01-0.042,0.01-0.068c-0.193,1.18,0.449,2.357,1.676,2.634c1.128,0.248,2.438-0.491,2.637-1.678       C235.924,290.777,235.862,290.114,235.684,289.336z"/>
					<path style="fill:#FFFFFF;" d="M231.461,290.67c0.005,0.031,0.005,0.068,0,0.102c0.01-0.026,0.01-0.057,0.015-0.096       C231.34,290.062,231.445,290.516,231.461,290.67z"/>
					<path style="fill:#FFFFFF;" d="M231.461,290.772C231.413,291.096,231.455,290.939,231.461,290.772L231.461,290.772z"/>
					<path style="fill:#FFFFFF;" d="M231.476,290.683v-0.008l0,0C231.476,290.683,231.476,290.683,231.476,290.683z"/>
				</g>
			</g>
		</g>
	</g>
	<path style="fill:#074785;" d="M325.829,508.059c43.543,8.39,82.861,2.921,98.869-12.013c0.773-8.917,0.668-19.709-0.914-26.066   c-2.302-9.251-15.96-5.717-18.346-14.827c-1.138,0.506-1.666,0.767-1.901,0.89c0.287-0.034-0.465,0.25,0,0   c-0.178,0.029-0.736,0.175-2.187,0.639c-5.075,1.624-10.301,2.608-15.438,3.101c-24.068,2.305-47.359-0.966-70.055-8.059   c-18.9-5.902-35.972,2.052-49.359-16.119c-5.19,6.941-12.019-6.565-17.177,0.261c-4.678,6.192-7.998,16.433-10.181,25.601   C249.316,480.84,283.226,499.857,325.829,508.059z"/>
	<path style="fill-rule:evenodd;clip-rule:evenodd;fill:#5E80B4;" d="M483.84,235.312c1.415-7.317,1.096-20.688-1.671-27.702   c-2.986-7.565-17.506-5.469-20.581-12.925c-1.19,0.347-1.759,0.522-1.999,0.611c0.308-0.016-0.486,0.175,0,0   c-0.188,0.01-0.783,0.099-2.323,0.392c-5.378,1.031-10.948,1.538-16.462,1.653c-25.802,0.54-51.082-3.365-75.923-10.309   c-20.68-5.78-38.64-0.316-54.058-15.663c-5.216,5.299-13.313-5.939-18.498-0.731c-6.015,6.043-9.272,17.545-10.865,25.831   c-15.303,79.585-30.469,159.194-46.179,238.698c-2.438,12.34,1.618,21.364,11.434,28.631   c15.287,11.309,32.949,18.002,51.233,23.301c20.617,5.981,41.616,10.05,62.975,12.149c16.462,1.613,32.876,2.033,49.129-1.144   c19.438-3.793,24.883-9.016,28.423-27.491l9.815-51.256C460.126,358.007,471.952,296.653,483.84,235.312z"/>
	<path style="fill-rule:evenodd;clip-rule:evenodd;fill:#29AEFD;" d="M483.84,235.312c1.415-7.317,1.096-20.688-1.671-27.702   c-2.986-7.565-17.506-5.469-20.581-12.925c-1.19,0.347-1.759,0.522-1.999,0.611c0.308-0.016-0.486,0.175,0,0   c-0.188,0.01-0.783,0.099-2.323,0.392c-5.378,1.031-10.948,1.538-16.462,1.653c-25.802,0.54-51.082-3.365-75.923-10.309   c-20.68-5.78-38.64-0.316-54.058-15.663c-5.216,5.299-13.313-5.939-18.498-0.731c-6.015,6.043-9.272,17.545-10.865,25.831   c-15.303,79.585-30.469,159.194-46.179,238.698c-2.438,12.34,1.618,21.364,11.434,28.631   c15.287,11.309,32.949,18.002,51.233,23.301c20.617,5.981,41.616,10.05,62.975,12.149c16.462,1.613,32.876,2.033,49.129-1.144   c19.438-3.793,24.883-9.016,28.423-27.491l9.815-51.256C460.126,358.007,471.952,296.653,483.84,235.312z"/>
	<path style="fill:#074785;" d="M482.169,207.61c-2.986-7.565-17.506-5.469-20.581-12.925c-1.19,0.347-1.759,0.522-1.999,0.611   c0.308-0.016-0.486,0.175,0,0c-0.188,0.01-0.783,0.099-2.323,0.392c-5.378,1.031-10.948,1.538-16.462,1.653   c-25.802,0.54-51.082-3.365-75.923-10.309c-18.733-5.237-35.226-1.248-49.62-11.849c-2.496-0.629-4.939-1.397-7.346-2.386   c-4.996,0.493-11.288-6.476-15.59-2.159c-6.015,6.043-9.272,17.545-10.865,25.831c-0.558,2.895-1.112,5.782-1.665,8.677   c22.575,13.76,57.42,26.434,97.553,34.166c40.974,7.892,78.753,8.957,104.899,4.237c0.532-2.744,1.055-5.49,1.592-8.236   C485.255,227.995,484.936,214.625,482.169,207.61z"/>
	<path style="fill:#7BEFE5;" d="M482.545,213.173c-3.305,17.166-49.176,22.766-102.45,12.509   c-53.28-10.267-93.778-32.5-90.473-49.669c3.305-17.172,49.176-22.769,102.45-12.507   C445.346,173.768,485.855,196.007,482.545,213.173z"/>
	<path style="fill:#074785;" d="M427.214,205.976c-1.368,7.074-21.171,9.205-44.247,4.764c-23.066-4.443-40.66-13.783-39.303-20.858   c1.362-7.072,21.171-9.204,44.242-4.756C410.977,189.569,428.571,198.904,427.214,205.976z"/>
	<path style="fill-rule:evenodd;clip-rule:evenodd;fill:#FFA4AC;" d="M425.199,389.299c-7.873,5.398-14.284,12.36-19.453,20.529   c-3.493,5.521-6.62,11.293-9.977,16.908c-3.289,5.5-7.064,10.583-12.16,14.42c-4.641,3.495-9.794,5.879-15.182,7.675   c-7.445,2.483-14.969,4.725-22.408,7.228c-8.969,3.015-17.6,6.821-25.253,12.776c-7.189,5.594-13.214,12.12-18.038,19.594   c6.317,1.733,12.661,3.307,19.041,4.686c3.712-4.281,7.993-8.058,12.765-11.395c6.129-4.286,12.964-6.962,19.928-9.233   c7.435-2.425,14.927-4.631,22.314-7.194c7.586-2.629,14.665-6.367,20.795-11.909c5.064-4.579,9.001-10.123,12.598-15.958   c3.691-5.991,7.247-12.081,11.037-18.002c7.341-11.473,17.386-18.921,30.193-22.186c0.402-0.107,0.809-0.203,1.217-0.298   c1.263-6.563,2.532-13.12,3.796-19.675C445.252,378.959,434.763,382.736,425.199,389.299z"/>
	<path style="fill-rule:evenodd;clip-rule:evenodd;fill:#FD6085;" d="M436.032,402.053c-8.317,5.709-14.948,13.183-20.325,21.868   c-3.237,5.218-6.182,10.645-9.33,15.926c-3.237,5.414-6.996,10.371-12.019,14.13c-4.62,3.456-9.742,5.829-15.094,7.607   c-7.45,2.483-14.968,4.73-22.413,7.234c-8.959,3.012-17.595,6.821-25.243,12.776c-4.328,3.36-8.228,7.066-11.7,11.105   c7.367,1.631,14.786,3.012,22.246,4.161c1.044-0.815,2.114-1.613,3.216-2.386c6.129-4.284,12.958-6.962,19.928-9.233   c7.429-2.422,14.922-4.631,22.319-7.189c7.576-2.637,14.66-6.37,20.795-11.917c5.059-4.574,8.996-10.121,12.593-15.955   c3.696-5.986,7.247-12.076,11.037-18.002c4.605-7.192,10.27-12.802,17.01-16.788c1.415-7.33,2.83-14.66,4.239-21.991   C447.273,395.465,441.503,398.302,436.032,402.053z"/>
	<path style="fill-rule:evenodd;clip-rule:evenodd;fill:#F9D555;" d="M444.119,441.135l4.171-21.777   c0.574-2.997,1.154-5.996,1.728-8.988c-0.877,0.546-1.754,1.112-2.621,1.705c-8.317,5.709-14.948,13.185-20.33,21.863   c-3.237,5.226-6.177,10.648-9.33,15.934c-3.232,5.414-6.991,10.369-12.013,14.13c-4.615,3.456-9.742,5.827-15.094,7.607   c-7.45,2.483-14.968,4.725-22.414,7.234c-8.959,3.01-17.594,6.818-25.248,12.768c-1.859,1.446-3.634,2.963-5.341,4.54   c7.722,1.292,15.48,2.329,23.296,3.099c1.457,0.138,2.908,0.269,4.365,0.391c3.686-1.717,7.503-3.117,11.377-4.375   c7.429-2.428,14.927-4.634,22.314-7.197c7.586-2.631,14.666-6.361,20.795-11.911c5.059-4.576,8.996-10.126,12.598-15.96   c3.696-5.986,7.247-12.071,11.037-17.999C443.639,441.837,443.879,441.49,444.119,441.135z"/>
	<path style="fill-rule:evenodd;clip-rule:evenodd;fill:#29AEFD;" d="M428.477,463.974c-3.263,5.471-7.017,10.53-12.076,14.363   c-4.657,3.532-9.841,5.934-15.261,7.737c-7.455,2.48-14.968,4.73-22.413,7.228c-5.122,1.723-10.129,3.72-14.911,6.21   c15.491,1.386,30.939,1.585,46.237-1.407c19.438-3.793,24.883-9.016,28.423-27.491l6.114-31.934   c-2.214,2.629-4.255,5.427-6.129,8.39C434.962,452.592,431.84,458.359,428.477,463.974z"/>
	<path style="fill-rule:evenodd;clip-rule:evenodd;fill:#074785;" d="M290.316,224.571c22.194,7.453,44.273,14.867,66.353,22.278   C335.931,249.936,304.235,238.724,290.316,224.571z"/>
	<path style="fill-rule:evenodd;clip-rule:evenodd;fill:#FFFFFF;" d="M384.152,293.087c0.376-1.733-0.757-3.495-2.48-3.871   c-1.665-0.363-3.524,0.864-3.869,2.548c-0.329,1.673,0.809,3.412,2.49,3.788C382.032,295.946,383.776,294.831,384.152,293.087z"/>
	<path style="fill-rule:evenodd;clip-rule:evenodd;fill:#FFFFFF;" d="M106.221,225.27c0.371-1.731-0.757-3.501-2.485-3.871   c-1.66-0.368-3.519,0.864-3.858,2.548c-0.334,1.673,0.804,3.407,2.485,3.782C104.101,228.121,105.845,227.011,106.221,225.27z"/>
	<path style="fill-rule:evenodd;clip-rule:evenodd;fill:#FFFFFF;" d="M364.083,274.391c-2.684-0.514-4.391-2.979-3.905-5.636   c0.486-2.678,3.054-4.43,5.743-3.91c2.662,0.514,4.375,3.013,3.884,5.662C369.298,273.23,366.813,274.916,364.083,274.391z"/>
	<path style="fill-rule:evenodd;clip-rule:evenodd;fill:#FFFFFF;" d="M135.134,422.94c-2.684-0.514-4.391-2.981-3.911-5.639   c0.486-2.676,3.06-4.433,5.743-3.91c2.668,0.517,4.38,3.013,3.889,5.66C140.35,421.778,137.865,423.462,135.134,422.94z"/>
	<path style="fill-rule:evenodd;clip-rule:evenodd;fill:#FFFFFF;" d="M294.863,450.258c-2.678-0.512-4.386-2.979-3.905-5.633   c0.48-2.676,3.059-4.43,5.743-3.908c2.668,0.514,4.38,3.01,3.89,5.662C300.084,449.099,297.599,450.786,294.863,450.258z"/>
	<path style="fill-rule:evenodd;clip-rule:evenodd;fill:#FFFFFF;" d="M138.972,252.612c-2.678-0.514-4.386-2.978-3.905-5.638   c0.486-2.678,3.06-4.427,5.743-3.908c2.668,0.52,4.38,3.01,3.889,5.66C144.193,251.451,141.707,253.137,138.972,252.612z"/>
	<g>
		<path style="fill-rule:evenodd;clip-rule:evenodd;fill:#FD6085;" d="M385.828,199.977c-1.869-0.916-3.608-2.013-4.902-3.694    c-1.947-2.516-2.652-5.226-1.739-8.398c2.339-8.158,4.715-16.313,6.777-24.544c1.676-6.719,3.07-13.52,4.318-20.333    c1.457-7.946,2.678-15.947,2.214-24.076c-0.517-8.86-6.375-12.601-13.689-16.221c-8.505-4.213-17.375-7.529-26.429-10.343    c-4.834-1.504-9.706-2.858-14.571-4.252c-4.422-1.271-7.461-5.015-7.727-9.572c-0.005-0.154-0.078-0.306-0.12-0.46    c0.214-1.133,0.439-2.271,0.658-3.404c0.872-1.263,1.629-2.644,2.658-3.769c1.843-2.013,4.291-2.861,6.97-3.101    c1.337,0.261,2.673,0.514,4.004,0.775c0.141,0.083,0.266,0.203,0.412,0.243c2.219,0.65,4.448,1.271,6.662,1.929    c9.502,2.83,18.973,5.769,28.131,9.609c7.283,3.054,14.243,6.704,20.68,11.301c3.629,2.595,6.834,5.597,8.865,9.669    c2.412,4.85,3.634,10.019,3.869,15.394c0.449,10.092-0.674,20.075-2.245,30.02c-0.204,1.292-0.365,2.592-0.548,3.892    c-0.308,1.6-0.616,3.203-0.924,4.809c-0.11,0.303-0.271,0.592-0.339,0.906c-0.292,1.326-0.496,2.671-0.841,3.986    c-1.832,7.098-3.639,14.204-5.581,21.27c-1.081,3.926-2.282,7.829-3.676,11.65c-1.31,3.597-3.775,6.176-7.696,7.02    c-0.71,0.154-1.457,0.188-2.187,0.274C387.827,200.364,386.825,200.171,385.828,199.977z"/>
		<path style="fill-rule:evenodd;clip-rule:evenodd;fill:#074785;" d="M401.433,184.952c0.329-1.109,0.647-2.222,0.955-3.339    c1.352-4.916,2.637-9.857,3.916-14.796l-20.732-1.981c-1.545,6.067-3.242,12.097-4.97,18.122L401.433,184.952z"/>
		<path style="fill-rule:evenodd;clip-rule:evenodd;fill:#074785;" d="M410.068,150.684c0-0.016,0.005-0.029,0.005-0.042    c0.183-1.3,0.345-2.6,0.548-3.892c0.773-4.889,1.436-9.789,1.859-14.705l-20.597,0.885c-0.423,3.373-0.987,6.732-1.603,10.079    c-0.522,2.871-1.081,5.738-1.671,8.596L410.068,150.684z"/>
		<path style="fill-rule:evenodd;clip-rule:evenodd;fill:#074785;" d="M408.998,101.336c-2.031-4.072-5.237-7.074-8.865-9.669    c-1.201-0.854-2.423-1.671-3.66-2.462l-18.78,12.972c0.371,0.18,0.747,0.352,1.112,0.535c6.103,3.02,11.178,6.14,12.989,12.227    l17.803-12.295C409.405,102.202,409.212,101.767,408.998,101.336z"/>
		<path style="fill-rule:evenodd;clip-rule:evenodd;fill:#074785;" d="M344.875,90.137c2.506,0.723,5.007,1.457,7.502,2.232    c3.441,1.068,6.855,2.211,10.233,3.449l8.301-18.754c-5.837-2.107-11.757-3.96-17.709-5.743L344.875,90.137z"/>
	</g>
	<g>
		<path style="fill-rule:evenodd;clip-rule:evenodd;fill:#074785;" d="M368.04,413.8c4.902-2.733,8.646-7.87,9.91-13.245    c1.086-4.618,2.167-10.267-0.068-14.702c-2.245-4.448-6.604-7.476-11.627-7.406c-2.934,0.042-5.754,0.595-8.333,1.989    c-3.529,1.903-5.164-0.214-7.414-2.796c-2.114-2.446-4.255-4.863-7.492-5.769c-5.712-1.608-12.426,2.148-15.558,6.677    c-3.461,5.015-3.723,11.071-3.044,16.942c0.376,3.232,2.188,6.31,3.341,9.45C342.452,402.121,355.969,404.677,368.04,413.8z"/>
		<path style="fill-rule:evenodd;clip-rule:evenodd;fill:#FFA4AC;" d="M368.04,413.8c-11.789-14.595-23.009-17.065-40.285-8.86    C337.346,420.473,352.434,423.788,368.04,413.8z"/>
		<g>
			<g>
				<g>
					<g>
						<path style="fill-rule:evenodd;clip-rule:evenodd;fill:#FFFFFF;" d="M368.458,339.744        c-4.025,19.333,8.546,38.191,28.089,42.122c19.531,3.929,38.63-8.56,42.65-27.893c4.02-19.336-8.557-38.191-28.089-42.112        C391.571,307.928,372.478,320.414,368.458,339.744z"/>
						<path style="fill-rule:evenodd;clip-rule:evenodd;fill:#074785;" d="M395.455,312.131        c10.578,3.352,19.223,11.927,22.074,23.395c4.349,17.469-6.385,35.04-23.985,39.243c-3.843,0.914-7.706,1.12-11.434,0.689        c-10.797-8.022-16.561-21.745-13.653-35.714C371.376,325.708,382.241,315.289,395.455,312.131z"/>
					</g>
					<g>
						<path style="fill-rule:evenodd;clip-rule:evenodd;fill:#FFFFFF;" d="M284.067,319.153        c-6.526,18.641,3.461,38.99,22.314,45.448c18.848,6.458,39.423-3.404,45.939-22.048c6.537-18.633-3.456-38.974-22.299-45.443        C311.168,290.652,290.598,300.519,284.067,319.153z"/>
						<path style="fill-rule:evenodd;clip-rule:evenodd;fill:#074785;" d="M314.463,295.327c10.04,4.717,17.49,14.352,18.806,26.092        c2.015,17.889-10.922,33.897-28.924,35.748c-3.937,0.407-7.795,0.097-11.429-0.814c-9.648-9.369-13.559-23.727-8.849-37.199        C288.807,305.623,300.956,296.724,314.463,295.327z"/>
					</g>
					<path style="fill-rule:evenodd;clip-rule:evenodd;fill:#074785;" d="M311.889,275.725c8.661-3.628,17.902-2.652,25.358,3.112       c3.743,2.892-1.029,8.445-4.756,5.568c-5.445-4.216-11.899-4.391-18.106-1.799C310.02,284.439,307.561,277.539,311.889,275.725       z"/>
					<path style="fill-rule:evenodd;clip-rule:evenodd;fill:#074785;" d="M423.084,294.891c9.262,1.543,16.561,7.286,19.803,16.138       c1.629,4.441-5.367,6.602-6.991,2.18c-2.37-6.471-7.737-10.05-14.378-11.157C416.855,301.271,418.448,294.129,423.084,294.891z       "/>
				</g>
			</g>
			<path style="fill:#7BEFE5;" d="M391.675,395.107c-0.778,5.55,4.997,10.956,12.896,12.071c7.905,1.117,14.948-2.475,15.736-8.027     c0.778-5.555-4.986-10.961-12.896-12.076C399.512,385.955,392.463,389.549,391.675,395.107z"/>
			<path style="fill:#7BEFE5;" d="M278.825,374.007c-0.783,5.555,4.986,10.961,12.885,12.076c7.91,1.12,14.953-2.472,15.741-8.027     c0.783-5.558-4.986-10.959-12.891-12.076C286.656,364.862,279.613,368.457,278.825,374.007z"/>
			<g>
				<path style="fill:#FFFFFF;" d="M375.527,330.908c2.846-4.404,6.385-8.072,11.267-10.152c2.198-0.942,3.404,2.553,1.232,3.485      c-3.926,1.679-6.902,4.772-9.184,8.312C377.563,334.523,374.237,332.91,375.527,330.908z"/>
				<path style="fill:#FFFFFF;" d="M392.537,318.132c0.574-0.157,1.128-0.332,1.697-0.486c0.971-0.271,2.01,0.128,2.365,1.125      c0.308,0.903-0.167,2.094-1.133,2.36c-0.569,0.159-1.128,0.337-1.697,0.486c-0.971,0.274-2.005-0.13-2.36-1.13      C391.09,319.586,391.571,318.401,392.537,318.132z"/>
				<g>
					<path style="fill:#FFFFFF;" d="M373.266,337.486c0.365-0.94,1.634-1.256,2.475-0.835c0.955,0.478,1.201,1.53,0.835,2.469       c0-0.026,0-0.036,0-0.063c0.016,1.005-0.663,1.898-1.712,1.971c-0.961,0.065-1.958-0.713-1.969-1.72       C372.885,338.645,373.026,338.102,373.266,337.486z"/>
					<path style="fill:#FFFFFF;" d="M376.597,339.11c-0.005,0.034-0.016,0.063-0.021,0.091c0-0.021,0-0.05,0-0.086       C376.775,338.627,376.623,338.987,376.597,339.11z"/>
					<path style="fill:#FFFFFF;" d="M376.576,339.201C376.576,339.473,376.566,339.342,376.576,339.201L376.576,339.201z"/>
					<path style="fill:#FFFFFF;" d="M376.576,339.126v-0.005c0-0.005,0-0.005,0-0.005       C376.576,339.126,376.576,339.126,376.576,339.126z"/>
				</g>
			</g>
			<g>
				<path style="fill:#FFFFFF;" d="M291.95,314.209c2.715-4.482,6.15-8.252,10.969-10.481c2.167-1,3.472,2.459,1.326,3.451      c-3.869,1.788-6.751,4.973-8.933,8.578C294.096,317.764,290.718,316.255,291.95,314.209z"/>
				<path style="fill:#FFFFFF;" d="M308.584,300.942c0.564-0.175,1.117-0.365,1.681-0.535c0.961-0.298,2.005,0.068,2.391,1.055      c0.339,0.896-0.099,2.094-1.06,2.389c-0.564,0.177-1.117,0.368-1.686,0.538c-0.96,0.303-2.005-0.071-2.386-1.057      C307.179,302.438,307.618,301.24,308.584,300.942z"/>
				<g>
					<path style="fill:#FFFFFF;" d="M289.888,320.85c0.329-0.948,1.603-1.298,2.449-0.906c0.976,0.449,1.248,1.496,0.909,2.444       c0-0.018,0-0.034,0-0.06c0.047,1.002-0.611,1.913-1.655,2.018c-0.961,0.094-1.979-0.65-2.02-1.655       C289.543,322.024,289.663,321.476,289.888,320.85z"/>
					<path style="fill:#FFFFFF;" d="M293.26,322.385c-0.01,0.021-0.01,0.06-0.01,0.086c-0.005-0.024,0-0.055-0.005-0.083       C293.422,321.891,293.292,322.259,293.26,322.385z"/>
					<path style="fill:#FFFFFF;" d="M293.25,322.471C293.255,322.742,293.234,322.607,293.25,322.471L293.25,322.471z"/>
					<path style="fill:#FFFFFF;" d="M293.245,322.392v-0.005c0,0.002,0,0,0,0C293.245,322.392,293.245,322.392,293.245,322.392z"/>
				</g>
			</g>
		</g>
	</g>
	<path style="fill-rule:evenodd;clip-rule:evenodd;fill:#FFFFFF;" d="M98.478,104.685c-12.697,1.543-24.799,6.429-36.123,12.23   c-6.182,3.169-0.731,12.465,5.44,9.304c9.486-4.861,20.012-9.465,30.683-10.76C105.286,114.628,105.37,103.847,98.478,104.685z"/>
	<path style="fill-rule:evenodd;clip-rule:evenodd;fill:#FFFFFF;" d="M113.927,102.531c-6.954,0-6.954,10.776,0,10.776   C120.871,113.307,120.871,102.531,113.927,102.531z"/>
	<path style="fill-rule:evenodd;clip-rule:evenodd;fill:#FFFFFF;" d="M50.352,123.003c-6.949,0-6.949,10.776,0,10.776   C57.301,133.778,57.301,123.003,50.352,123.003z"/>
	<path style="fill-rule:evenodd;clip-rule:evenodd;fill:#FFFFFF;" d="M349.093,164.835c-10.52-1.104-21.176,0.595-31.372,3.177   c-5.571,1.412-2.892,9.912,2.663,8.507c8.547-2.167,17.876-3.931,26.715-3.005C352.743,174.108,354.8,165.431,349.093,164.835z"/>
	<path style="fill-rule:evenodd;clip-rule:evenodd;fill:#FFFFFF;" d="M361.937,165.95c-5.597-1.284-7.591,7.401-1.989,8.685   C365.544,175.922,367.539,167.234,361.937,165.95z"/>
	<path style="fill-rule:evenodd;clip-rule:evenodd;fill:#FFFFFF;" d="M306.919,170.698c-5.597-1.282-7.591,7.406-1.989,8.688   C310.526,180.67,312.521,171.983,306.919,170.698z"/>
	<g>
		<path style="fill-rule:evenodd;clip-rule:evenodd;fill:#FFFFFF;" d="M48.702,323.481c0.58-7.294-10.729-8.197-11.314-0.903    C36.798,329.872,48.112,330.777,48.702,323.481z"/>
		<path style="fill-rule:evenodd;clip-rule:evenodd;fill:#FFFFFF;" d="M48.577,410.091c0.198-21.844-0.078-43.678,0.12-65.52    c0.063-7.142-11.022-7.249-11.084-0.105c-0.193,21.839,0.078,43.678-0.115,65.52C37.435,417.131,48.519,417.239,48.577,410.091z"/>
		<path style="fill-rule:evenodd;clip-rule:evenodd;fill:#FFFFFF;" d="M48.738,432.068c0.569-7.127-10.484-8.012-11.047-0.882    C37.122,438.307,48.169,439.193,48.738,432.068z"/>
	</g>
	<g>
		<path style="fill-rule:evenodd;clip-rule:evenodd;fill:#FFFFFF;" d="M278.428,328.694c2.099-7.009-8.771-10.264-10.875-3.255    C265.459,332.451,276.324,335.706,278.428,328.694z"/>
		<path style="fill-rule:evenodd;clip-rule:evenodd;fill:#FFFFFF;" d="M260.155,413.354c4.772-21.314,9.079-42.723,13.846-64.037    c1.561-6.973-9.251-9.398-10.812-2.428c-4.767,21.314-9.084,42.731-13.846,64.04C247.781,417.907,258.599,420.332,260.155,413.354    z"/>
		<path style="fill-rule:evenodd;clip-rule:evenodd;fill:#FFFFFF;" d="M255.706,434.877c2.047-6.85-8.568-10.027-10.625-3.182    C243.04,438.545,253.655,441.722,255.706,434.877z"/>
	</g>
	<g>
		<path style="fill-rule:evenodd;clip-rule:evenodd;fill:#FFFFFF;" d="M446.051,256.666c-13.052-0.222-26.047-0.574-38.765-3.775    c-6.657-1.676-9.664,8.547-3.002,10.22c13.648,3.441,27.582,3.965,41.585,4.203C452.739,267.429,452.917,256.778,446.051,256.666z    "/>
		<path style="fill-rule:evenodd;clip-rule:evenodd;fill:#FFFFFF;" d="M470.72,260.511c0.115-6.868-10.536-7.048-10.65-0.18    C459.954,267.2,470.605,267.374,470.72,260.511z"/>
	</g>
	<g>
		<path style="fill-rule:evenodd;clip-rule:evenodd;fill:#FFFFFF;" d="M227.059,189.107c-12.802,2.574-25.562,5.007-38.677,4.597    c-6.855-0.217-7.612,10.413-0.747,10.627c14.065,0.439,27.791-2.021,41.522-4.78C235.893,198.194,233.789,187.753,227.059,189.107    z"/>
		<path style="fill-rule:evenodd;clip-rule:evenodd;fill:#FFFFFF;" d="M251.984,187.593c-1.357-6.733-11.799-4.636-10.447,2.099    C242.894,196.43,253.336,194.326,251.984,187.593z"/>
	</g>
</g>















</svg>
