<?xml version="1.0" encoding="UTF-8"?>
<!-- Generator: Adobe Illustrator 16.0.0, SVG Export Plug-In . SVG Version: 6.00 Build 0)  -->
<svg xmlns="http://www.w3.org/2000/svg" xmlns:xlink="http://www.w3.org/1999/xlink" version="1.1" id="Cafe" x="0px" y="0px" width="512" height="512" viewBox="0 0 1200 1200" xml:space="preserve">
<g>
	<path fill="#FFFFFF" d="M1084.696,481.929c-0.949-15.41-5.152-29.48-12.348-41.598c-1.734-2.926-3.648-5.738-5.723-8.43   c0.117-2.68,0.277-5.383,0.438-8.168c0.891-14.945,1.898-31.883-4.043-51.262c-6.199-20.23-19.535-38.125-39.648-53.191   c-16.996-12.738-37.965-20.613-60.031-22.699c-28.258-81.363-120.137-123.777-202.695-123.777c-21.188,0-41.91,2.797-60.813,8.156   c-23.188-19.656-50.371-33.418-81.016-40.988c-14.27-3.527-30.082-5.313-47.004-5.313c-47.84,0-108.344,14.789-141.652,55.457   c-58.613,1.84-120.547,27-175.199,71.316c-66.348,53.801-149.809,174.203-104.926,277.875c-5.227,9.109-9.758,18.676-13.543,28.574   c-27.691,72.48-27.457,169.418,34.281,220.844c-0.125,2.777-0.184,5.539-0.184,8.281c-0.004,42.621,16.328,89.332,43.695,124.957   c30.035,39.109,69.605,61.488,112.02,63.555c18.141,33.711,52.281,57.5,96.465,67.133l9.922,2.191   c26.352,5.855,56.219,12.5,85.199,12.5c69.488,0,96.258-40.258,106.477-74.031c18.965-62.648-10.016-137.352-51.848-182.199   c3.285-11.949,2.742-23.914,1.563-34.094l-0.055-0.496c-1.352-11.664-2.496-21.48-2.652-31.121   c-0.184-11.41,1.402-11.625,9.207-16.781c12.742-8.43,23.555-20.359,31.586-34.973c38.426-6.203,69.063-28.602,88.238-64.559   c21.176-5.645,38.988-16.484,53.188-32.367c1.082,0.035,2.16,0.051,3.246,0.051c26.695,0,52.73-10.16,72.109-27.43   c5.168-4.609,8.152-4.766,14.996-5.34c10.648-0.883,21.09-3.547,31.219-7.945c7.707-3.355,13.273-4.688,21.375-0.801   c8.395,4.031,17.133,10.656,26.203,17.535c12.777,9.688,26.68,20.227,43.086,26.258c28.402,10.449,46.684,9.133,74.055-9.992   C1072.348,566.383,1087.172,522.211,1084.696,481.929z"/>
	<g>
		<path fill="#68182B" d="M1058.664,483.527c-1.035-16.867-7.324-30.645-16.879-40.52c-2.395-2.473-1.434,0.117-1.434-3.316    c0-21.07,4.145-38.672-2.266-59.582c-5.109-16.676-16.68-29.719-30.348-39.957c-18.34-13.742-41.73-19.547-64.363-17.723    c-20.523-103.895-160.711-146.078-249.918-111.91c-21.422-21.438-48.156-37.141-80.898-45.23    c-51.695-12.773-136.391,0.684-167.574,48.668c-0.5,0.766-0.781,1.527-0.891,2.258c-61.145-2.227-122.652,24.887-172.707,65.473    c-67.652,54.859-140.309,171.102-91.859,258.563c0.105,0.191,0.234,0.34,0.352,0.512c-7.516,11-13.941,23.125-19.027,36.43    c-24.145,63.195-26.5,158.207,37.09,199.18c-0.828,6.766-1.273,13.648-1.273,20.645c-0.008,77.406,62.004,170.598,146.969,162.031    c1.113,4.184,2.637,8.27,4.641,12.215c15.781,31.055,46.891,48.684,80.043,55.91c60.938,13.277,147.281,37.25,171.09-41.414    c16.828-55.602-13.668-131.055-58.676-169.004c8.758-10.285,9.035-23.004,7.445-36.727c-2.527-21.758-4.594-39.152-0.898-61.02    c0.246-1.477,0.477-2.949,0.703-4.418c0.594,0.023,1.215-0.016,1.883-0.203c21.977-6.188,36.992-24.156,44.883-45.156    c45.258-1.887,72.945-28.145,87.75-63.141c0.398,0.012,0.805-0.008,1.238-0.078c27.316-4.453,45.691-18.129,58.207-36.719    c30.199,5.789,63.105-6.613,81.027-32.148c18.727,3.148,34.449-0.625,48.461-8.273c7.094-3.879,8.316-4.035,15.008-3.395    c43.512,4.152,71.289,60.68,116.699,51.488C1044.594,568.578,1060.992,521.332,1058.664,483.527z"/>
		<path fill="#AA8053" d="M829.535,526.508c18.301-33.141,20.934-72.883,30.547-109.063c11.266-42.414,42.234-81.867,86.824-83.742    c-30.457,11.055-51.813,41.691-65.082,73.016c-8.363,19.754-12.254,40.012-16.191,60.934c-2.531,13.504-6.16,36.941-16.457,50.98    C842.828,527.273,838.977,527.562,829.535,526.508z M740.5,285.441c-6.551-17.023-14.609-32.742-24.176-46.969    c17.195,14.305,27.473,37.133,35.82,57.184c13.027,31.285,21.395,64.316,25.523,97.93c5.93,48.219,5.348,107.094-22.441,148.949    c6.828-18.863,10.352-39.941,12.496-60.555C774.531,416.386,764.102,346.836,740.5,285.441z M600.766,624.16    c-4.488-43.063-41.113-77.918-73.555-102.496c-57.504-43.566-138.633-61.582-209.566-55.988    c-47.719,3.762-90.082,22.141-120.695,54.102c38.191-84.035,153.539-92.844,234.871-73.262    c47.211,11.367,92.969,33.641,127.207,68.516c17.75,18.074,31.063,40.992,38.941,64.98c5.852,17.832,10.227,46.07,2.469,66.156    C601.367,638.715,601.512,631.269,600.766,624.16z M524.223,634.582c-59.863-44.152-139.852-39.141-205.109-10.348    c-57.652,25.441-103.859,74.02-117.965,134.242c-9.215-40.535,13.668-81.398,40.512-110.879    c32.961-36.207,81.184-55.91,129.063-61.434c40.563-4.68,85.781-0.453,123.145,16.668c28.227,12.926,53.445,36.043,53.938,65.609    C544.485,655.801,537.418,644.32,524.223,634.582z M335.039,944.867c-11.645-12.449-2.922-44.34,0.859-56.953    c8.25-27.484,23.223-52.113,43.992-71.867c23.191-22.055,54.008-33.129,85.57-35.199c18.984-1.246,52.938,4.105,63.809,23.465    c2.73,4.863,1.379,4.453-2.168,2.77c-2.719-1.301-6.73-2.742-13.027-3.945c-18.203-3.473-39.805-0.133-55.367,2.582    c-38.477,6.719-73.156,38.273-94.648,69.039c-13.141,18.801-23.426,44.066-22.703,68.141    C341.531,948.883,339.281,949.402,335.039,944.867z M694.821,502.808c-5.781-50.578-19.457-100.832-44.461-145.379    c-25.266-44.996-68.648-82.672-111.262-110.676c-8.172-5.375-16.48-9.973-24.891-13.863c24.359,6.938,48.539,21.176,67.395,33.281    c37.203,23.883,63.777,57.797,83.668,96.84c18.293,35.898,28.555,75.52,34.566,115.18c5.207,34.348,6.906,70.426-8.711,100.836    C696.817,554.226,697.625,527.402,694.821,502.808z M925.082,481.285c10.262-10.73,25.289-23.145,41.402-32.086    c-2.457,2.457-4.746,4.855-6.777,7.016c-15.281,16.215-24.613,42.055-42.105,56.57c-6.609,5.492-9.516,5.305-16.313,3.555    c-3.086-0.793-6.238-1.402-9.449-1.836C903.457,504.547,914.199,492.664,925.082,481.285z"/>
		<path fill="#DB9F6E" d="M1023.028,374.004c11.27,19.543,6.93,38.781,5.996,59.203c-15.043-8.367-34.156-9.867-53.594-2.418    c-22.422,8.594-41.766,25.605-58.477,42.367c-19.527,19.574-37.832,43.711-63.5,51.379c16.547-19.965,19.16-58.531,23.254-79.168    c7.523-37.957,30.066-86.039,66.656-102.938c21.844-10.09,33.777-6.438,49.477,2.238    C1005.219,351.508,1015.746,361.383,1023.028,374.004z M208.168,790.008c0.008-69.539,52.848-124.18,111.539-153.395    c54.723-27.25,122.895-32.836,178.367-5.063c16.395,8.207,31.832,19.988,38.887,37.406c5.906,14.586,1.785,32.199-0.773,46.996    c-2.332,13.488-3.98,26.809-3.344,40.527c0.59,12.754,6.668,27.707,4.578,40.594c-0.863,5.344-1.727,4.574-4.438,0.914    c-10.18-13.754-30.051-21.324-46.266-23.148c-39.199-4.414-77.598,7.93-107.836,32.895    c-27.609,22.797-44.996,56.891-53.078,91.285c-3.367,14.328-5.941,36.645,3.414,49    C254.196,945.109,208.16,859.101,208.168,790.008z M591.707,957.398c0.188,30.832-14.609,61.621-45.613,71.023    c-29.281,8.883-63.883-3.875-92.84-9.129c-28.211-5.121-52.906-9.586-75.766-28.543c-31.676-26.266-27.652-64.977-10.621-98.371    c15.207-29.809,42.242-52.668,71.805-67.32c18.832-9.328,62.34-19.27,84.371-7.289    C566.739,846.519,591.399,906.601,591.707,957.398z M549.977,697.156c0.094-1.484,0.164-2.965,0.211-4.434    c14.574-37.168-6.793-67.891-37.957-87.789c-40.582-25.918-94.832-29.988-141.508-25.668    c-50.305,4.652-98.883,26.961-133.941,63.457c-26.77,27.859-48.5,68.262-44.008,107.625c0.801,7.039-0.34,7.957-5.52,2.57    c-39.293-40.836-34.172-111.777-18.754-162.594c19.316-63.648,70.645-100.75,134.68-111.41    c61.992-10.324,129.371,4.52,184.957,32.387c31.313,15.695,59.254,38.504,80.379,66.457    c25.563,33.824,32.16,101.074-12.273,121.988C550.199,702.59,549.781,700.285,549.977,697.156z M605.762,651.125    c6.738-15.645,5.484-34.996,3.566-51.313c-3.18-27.02-16.109-52.262-32.027-73.914c-31.781-43.227-83.418-68.875-133.797-83.43    c-86.809-25.09-213.688-15.363-253.703,76.402c-2.941,6.742-4.184,8.438-6.832,1.633    c-30.855-79.332,34.672-176.191,91.246-226.191c70.063-61.922,168.563-90.863,252.91-41.469    c39.055,22.871,75.238,56.813,102.199,93.141c27.945,37.664,41.605,85.395,50.121,130.863    c12.043,64.297,6.941,163.023-67.938,178.828C606.071,656.82,603.559,656.238,605.762,651.125z M695.012,586.293    c15.641-27.371,17.164-59.242,13.809-91.672c-4.652-44.91-16.016-88.926-35.066-129.898    c-19.078-41.043-46.941-75.238-83.902-101.301c-27.723-19.551-70.648-43.328-106.652-41.543c-5.746-1.477-11.52-2.66-17.313-3.559    c-5.484-0.852-8.801-2.445-2.953-8.688c34.844-37.184,108.684-42.617,153.145-31.629c61.73,15.25,96.902,65.156,117.527,121.695    c19.031,52.184,26.051,109.164,23.875,164.484c-1.887,47.938-11.355,105.449-57.176,125.098    C694.239,591.886,692.133,591.344,695.012,586.293z M755.164,554.551c35.738-44.965,35.348-112.602,28.641-167.219    c-4.152-33.77-13.57-67.164-27.039-98.387c-10.281-23.832-23.477-50.848-47.352-63.52c-4.289-2.273-10.531-5.133-0.199-8.078    c83.34-23.754,203.273,14.496,222.742,106.688c-10.488,2.094-20.602,5.836-29.695,11.32    c-36.449,21.992-51.082,65.855-59.398,104.969c-10.148,47.734-24.922,121.414-84.734,119.434    C753.625,559.605,752.266,558.195,755.164,554.551z M983.797,564.504c-18.922-4.367-35.141-21.094-50.367-32.223    c-5.473-4-11.105-7.434-16.945-10.258c14.934-10.051,24.117-27.258,33.738-42.406c4.203-6.617,11.121-16.219,19.359-24.918    c12.02-12.676,17.738-16.367,32.234-17.484c18.555-1.434,34.938,7.109,43.164,34.066    C1056.664,509.547,1032.563,575.758,983.797,564.504z"/>
		<path fill="#F9C6A0" d="M357.746,270.738c-12.035,18.32,16.172,25.461,26.352,26.105c11.117,0.703,39.25-4.148,37.934-22.285    c-0.359-4.977-1.848-9.004-4.121-12.203C410.364,251.715,375.188,244.199,357.746,270.738z"/>
		<path fill="#F9C6A0" d="M446.297,268.168c-2.75-1.938-7.801-2.262-11.859-0.332c-3.125,1.484-5.656,4.305-6.105,8.762    c-0.281,2.801,0.895,5.613,2.961,7.496c3.453,3.133,8.785,3.953,13.195,2.809c4.273-1.109,7.258-5.145,7.496-9.445    C452.199,273.523,449.281,270.261,446.297,268.168z"/>
		<g>
			<path fill="#C98450" d="M731.512,244.027c10.938,13.242,18.699,29.719,25.254,44.918c13.469,31.223,22.887,64.617,27.039,98.387     c6.707,54.617,7.098,122.254-28.641,167.219c-2.898,3.645-1.539,5.055,2.965,5.207c7.688,0.254,14.625-0.762,20.914-2.793     c-0.414-10.488,1.641-21.402,4.012-31.156c4.59-18.871,11.238-36.891,14.398-56.141c5.664-34.5,3.367-69.73-2.695-103.992     C786.949,321.551,768.774,271.617,731.512,244.027z"/>
			<path fill="#C98450" d="M688.75,364.035c-18.105-41.199-46.477-76.496-83.348-102.293c-23.961-16.766-53.559-30.664-83.59-33.828     c25.059,8.047,49.828,22.668,68.039,35.508c36.961,26.063,64.824,60.258,83.902,101.301     c19.051,40.973,30.414,84.988,35.066,129.898c3.355,32.43,1.832,64.301-13.809,91.672c-2.879,5.051-0.773,5.594,5.293,2.988     c1.465-0.629,2.785-1.402,4.176-2.105c11.445-26.27,15.793-55.539,15.207-84.488C718.739,455.558,707.676,407.109,688.75,364.035     z"/>
			<path fill="#C98450" d="M959.035,539.429c-21.32-21.266,5.508-40.992,14.68-60.184c5.742-12.004,12.477-32.309,24.539-41.645     c-11.918,1.48-17.711,5.539-28.672,17.098c-8.238,8.699-15.156,18.301-19.359,24.918c-9.621,15.148-18.805,32.355-33.738,42.406     c5.84,2.824,11.473,6.258,16.945,10.258c15.227,11.129,31.445,27.855,50.367,32.223c14.922,3.445,27.527-0.387,37.508-8.434     C999.582,561.09,976.856,557.211,959.035,539.429z"/>
			<path fill="#C98450" d="M588.266,982.797c-3.492,5.555-7.637,10.758-12.742,15.422c-38.875,35.477-86.324,5.137-127.652-6.184     c-17.598-4.82-35.813-9.238-50.352-20.855c-16.207-12.941-20.66-36.547-20.281-56.137c0.441-22.863,8.891-44.578,21.789-63.449     c-13.055,11.59-24.227,25.234-32.16,40.785c-17.031,33.395-21.055,72.105,10.621,98.371     c22.859,18.957,47.555,23.422,75.766,28.543c28.957,5.254,63.559,18.012,92.84,9.129     C568.418,1021.652,582.293,1003.777,588.266,982.797z"/>
			<path fill="#C98450" d="M667.528,612.066c-17.434,14.238-40.621,21.266-46.465-4.367c-2.707-11.832-2.93-24.395-4.93-36.387     c-2.395-14.379-6.598-28.273-13.039-41.344c-12.988-26.363-36.828-47.77-59.512-65.645     c-21.504-16.949-44.43-29.508-70.781-37.098c-51.559-14.855-110.5-11.422-162.086,1.691     c-20.582,5.23-40.586,13.488-58.473,24.789c56.051-29.195,132.742-28.152,191.262-11.238     c50.379,14.555,102.016,40.203,133.797,83.43c15.918,21.652,28.848,46.895,32.027,73.914c1.918,16.316,3.172,35.668-3.566,51.313     c-2.203,5.113,0.309,5.695,5.746,4.551C638.356,650.008,656.199,633.652,667.528,612.066z"/>
			<path fill="#C98450" d="M192.774,750.347c-4.492-39.363,17.238-79.766,44.008-107.625     c35.059-36.496,83.637-58.805,133.941-63.457c46.676-4.32,100.926-0.25,141.508,25.668     c31.164,19.898,52.531,50.621,37.957,87.789c-0.047,1.469-0.117,2.949-0.211,4.434c-0.164,2.641,0.148,4.668,3.902,3.516     c7.051-12.766,10.875-27.473,8.344-41.777c-3.965-22.398-18.891-40.781-36.852-54.051     c-43.914-32.453-105.086-44.203-158.773-40.121c-49.695,3.773-102.977,24.039-140.863,56.813     c-9.813,8.492-19.453,17.961-31.793,22.633c-17.148,6.492-23.004-11.527-24.109-24.367c-1.402-16.262,1.363-33.191,6.234-49.441     c-2.867,6.355-5.441,12.969-7.566,19.965c-15.418,50.816-20.539,121.758,18.754,162.594     C192.434,758.304,193.574,757.386,192.774,750.347z"/>
			<path fill="#C98450" d="M893.828,491.562c6.109-25.824,2.938-52.68,10.359-78.27c7.219-24.918,22.199-48.836,44.238-63.059     c11.121-7.18,23.781-10.086,36.539-9.559c-12.246-5.52-23.531-6.59-41.602,1.754c-36.59,16.898-59.133,64.98-66.656,102.938     c-4.094,20.637-6.707,59.203-23.254,79.168c14.625-4.371,26.852-14.086,38.281-25.258     C892.516,496.703,893.215,494.125,893.828,491.562z"/>
			<path fill="#C98450" d="M329.219,948.019c-9.355-12.355-6.781-34.672-3.414-49c8.082-34.395,25.469-68.488,53.078-91.285     c3.262-2.691,6.637-5.207,10.078-7.605c-14.961,6.809-28.688,16.203-40.227,28.883c-12.996,14.285-20.234,32.344-30.488,48.461     c-5.496,8.637-12.48,16.945-22.703,19.758c-13.645,3.754-27.844-8.391-36.133-17.656c-16.977-18.98-22.594-47.031-24.484-71.613     c-1.953-25.328,1.484-50.867,9.004-75.063c10.34-33.254,29.492-62.375,54.992-84.684     c-49.816,30.945-90.746,80.594-90.754,141.793C208.16,859.101,254.196,945.109,329.219,948.019z"/>
		</g>
		<path fill="#F9C6A0" d="M550.309,874.832c-15.41-32.184-64.781-60.645-113.105-23.242c-14.879,11.512-27.879,32.906-23.965,52.398    c3.996,19.879,18.539,30.789,38.172,33.008c12.809,1.449,25.77,0.984,38.504,3.133c12.492,2.109,21.195,10.758,30.359,18.789    c11.332,9.938,26.543,20.691,40.867,9.715c11.586-8.875,8.953-28.547,6.863-40.836    C564.899,909.543,558.278,891.469,550.309,874.832z"/>
		<path fill="#F9C6A0" d="M512.41,677.336c-10.258-26.145-31.152-42.008-98.488-40.375c-30.18,0.73-59.875,9.758-85.629,25.355    c-21.453,12.992-42.301,29.766-54.309,52.191c-6.727,12.559-11.738,35.594,1.672,45.953c6.895,5.324,15.441,6.844,24.121,6.555    c7.277-0.238,7.973-4.082,6.969-10.941c-1.223-8.406,3.035-17.348,12.809-22.027c8.523-4.078,18.211-4.484,26.98-0.566    c5.047,2.254,8.809,4.871,12.246,9.172c5.441,6.813,12.168,5.672,23.246,3.195c9.734-2.188,19.727-3.578,30.254-3.488    c26.41,0.23,50.277,16.133,77.023,13.793c19.613-1.715,26.141-18.16,27.984-35.406C518.84,706.219,517.645,690.679,512.41,677.336    z"/>
		<path fill="#F9C6A0" d="M459.766,542.551c23.605,5.82,46.313,16.582,66.879,29.379c24.383,15.172,31.102,12.359,10.523-8.848    c-45.395-46.789-127.324-77.656-200.105-71.352c-29.563,2.559-58.828,10.371-85.105,24.258    c-17.539,9.27-47.609,26.059-48.652,48.707c-1.121,24.336,41.684,9.566,51.543,6.273c34.406-11.484,69.273-23.316,105.086-29.555    C391.883,535.851,428.074,534.746,459.766,542.551z"/>
		<path fill="#F9C6A0" d="M609.453,357.117c-23.328-32.883-51.703-60.625-87.578-79.605c-11.051-5.848-22.75-10.883-34.813-14.813    c-11.52-3.758-18.211-7.617-19.652,5.316c-0.789,7.09-3.895,13.453-9.266,18.258c-13.457,12.051-32.418,17.586-49.938,20.285    c-16.605,2.555-34.117,2.82-49.563-4.922c-3.738-1.871-6.84-4.012-9.273-6.367c-10.68-10.352-11.762-18.152-32.863-5.934    c-13.813,7.996-26.988,17.109-39.266,27.18c-18.234,14.957-34.973,40.949-42.398,61.664c-11.211,31.285-0.48,36.625,32.867,27.188    c12.832-3.629,25.688-7.141,38.555-10.652c28.523-7.789,57.113-15.152,86.699-17.348c29.223-2.164,60.359,1.059,88.895,7.328    c54.469,11.969,104.336,51.137,132.148,99.156c6.563,11.332,11.887,23.375,17.484,35.195    c18.734,39.527,23.926,45.422,33.898,14.969c1.414-4.328,2.039-9.266,1.922-13.773    C665.801,462.808,642.305,403.422,609.453,357.117z"/>
		<path fill="#F9C6A0" d="M732.074,371.722c-5.027-36.238-17.328-73.188-35.457-105.121c-13.664-24.063-32.145-48.043-56.438-61.98    c-22.523-12.918-49.109-10.832-74.617-7.371c-14.227,1.934-9.559,7.547,0.633,12.199c5.711,2.605,11.293,5.539,16.844,8.539    c13.211,7.145,26.641,13.922,39.27,22.074c25.598,16.516,45.965,39.137,61.93,64.898c16.113,26.012,26.398,55.367,33.586,84.973    c2.039,8.398,5.066,22.863,7.734,39.262c4.352,26.762,11.82,24.543,11.043-3.398C736.09,407.203,734.633,390.168,732.074,371.722z    "/>
		<path fill="#F9C6A0" d="M889.828,304.754c-3.602-23.949-31.391-41.586-49.969-53.832c-19.574-12.898-39.613-19.129-61.066-20.73    c-24.223-1.805-16.008,3.645-6.176,14.91c8.402,9.613,14.926,21.309,20.621,32.035c5.652,10.645,7.637,11.379,16.602,9.789    c6.848-1.215,14.375,1.148,19.875,7.188c11.852,13.012,15.219,33.578,10.699,50.379c-1.594,5.938-7.195,21.816-15.598,19.938    c-3.402-0.77-6.391-1.465-5.891,4.77c1.246,15.52,1.645,33,0.445,58.566c-1.406,30.012,1.891,42.754,13.215,6.234    c5.453-17.582,1.402-39.934,7.762-57.293c6.906-18.844,19.645-32.172,34.398-45.137    C882.399,324.844,891.535,316.078,889.828,304.754z"/>
		<path fill="#F9C6A0" d="M1013.645,392.211c1.379-8.762-4.34-14.75-9.59-19.867c-15.219-14.84-38.559-15.453-54.805-2.844    c-6.891,5.352-12.102,13.504-16.152,22.711c-8.832,20.047,2.336,24.574,20.145,19.262c13.367-3.992,27.582-2.879,41.129-5.914    C999.86,404.324,1012.313,400.668,1013.645,392.211z"/>
		<path fill="#F9C6A0" d="M1000.77,465.734c-6.855,12.563-19.109,23.191-19.715,37.801c-0.547,13.223,18.652,16.219,30.18,13.18    c15.57-4.102,22.273-22.543,23.512-34.754c1.016-9.941-3.699-18.32-11.648-23.645    C1014.473,452.539,1005.848,456.429,1000.77,465.734z"/>
		<path fill="#F9C6A0" d="M345.266,749.203c-3.047-5.598-9.965-8.828-16.273-8.117c-9.652,1.082-23.066,12.961-9.156,24.027    c5.961,4.746,15.777,5.895,22.254,1.629C348.031,762.828,348.406,754.988,345.266,749.203z"/>
		<path fill="#F9C6A0" d="M804.656,300.347c-7.227,6.684-6.184,16.57-3.332,24.613c2.668,7.516,9.047,15.758,19.477,15.902    c9.848,0.137,11.949-10.141,12.07-16.23C833.172,309.683,817.149,288.797,804.656,300.347z"/>
		<g>
			<path fill="#865725" d="M699.836,478.191c-2.496-16.477-5.789-32.93-10.027-49.129c-11.73-35.398-29.289-69.258-53.16-97.5     c-6.215-7.352-13.09-14.34-20.547-20.629c13.234,14.438,24.977,29.969,34.258,46.496c25.004,44.547,38.68,94.801,44.461,145.379     c2.805,24.594,1.996,51.418-3.695,76.219C706.742,548.617,705.043,512.539,699.836,478.191z"/>
			<path fill="#865725" d="M857.242,474.578c8.688-47.371,18.285-94.602,52.254-129.285c-24.508,15.082-41.645,42.906-49.414,72.152     c-9.613,36.18-12.246,75.922-30.547,109.063c5.309,0.594,8.836,0.699,12.043-0.801     C850.254,510.144,854.09,491.793,857.242,474.578z"/>
			<path fill="#865725" d="M932.293,477.633c2.223-3.168,4.445-6.262,6.691-9.301c-5.203,4.371-9.922,8.785-13.902,12.953     c-10.883,11.379-21.625,23.262-33.242,33.219c3.211,0.434,6.363,1.043,9.449,1.836c1.117,0.289,2.109,0.512,3.055,0.695     c2.129-2.012,3.984-3.895,5.359-5.375C918.91,501.789,924.571,488.636,932.293,477.633z"/>
			<path fill="#865725" d="M774.039,442.726c-0.773-26.305-4.23-51.516-10.844-77c-0.371-1.402-0.777-2.859-1.152-4.273     c7.574,39.844,9.793,80.902,5.68,120.527c-2.145,20.613-5.668,41.691-12.496,60.555c6.387-9.617,11.273-20.168,15.039-31.25     C774.766,488.406,774.664,463.879,774.039,442.726z"/>
			<path fill="#865725" d="M319.114,624.234c40.512-17.875,86.691-26.57,130.215-20.043c-6.602-1.531-13.207-2.824-19.625-3.949     c-22.684-3.957-45.699-3.379-68.262,0.957c-41.535,7.98-86.641,29.023-115.684,60.227     c-21.285,22.871-39.367,50.738-46.613,81.219c0.172,5.266,0.805,10.555,2.004,15.832     C215.254,698.254,261.461,649.676,319.114,624.234z"/>
			<path fill="#865725" d="M467.949,799.355c-31.477,4.848-60.832,17.004-84.844,38.047c-22.641,19.848-39.02,47.609-46.297,76.711     c-1.926,7.707-3.352,18.102-3.309,28.738c0.48,0.703,0.969,1.402,1.539,2.016c4.242,4.535,6.492,4.016,6.316-1.969     c-0.723-24.074,9.563-49.34,22.703-68.141c21.492-30.766,56.172-62.32,94.648-69.039c15.563-2.715,37.164-6.055,55.367-2.582     c6.297,1.203,10.309,2.645,13.027,3.945c1.441,0.684,2.496,1.133,3.082,1.125C514.84,793.91,485.774,796.609,467.949,799.355z"/>
			<path fill="#865725" d="M492.543,482.988c-57.035-24.727-126.027-30.957-188.219-15.82c4.395-0.613,8.824-1.137,13.32-1.492     c70.934-5.594,152.063,12.422,209.566,55.988c32.441,24.578,69.066,59.434,73.555,102.496c0.746,7.109,0.602,14.555-0.328,22.008     c7.758-20.086,3.383-48.324-2.469-66.156c-0.941-2.859-1.965-5.699-3.055-8.516c-1.773-3.449-3.633-6.832-5.637-10.082     C566.793,524.965,531.231,499.765,492.543,482.988z"/>
		</g>
		<g>
			<path fill="#C6956A" d="M966.485,449.199c-4.133,2.293-8.195,4.82-12.121,7.484c-3.727,5.781-6.738,12.09-9.586,18.281     c-0.918,2-1.816,4.02-2.723,6.031c5.535-8.93,11.035-17.758,17.652-24.781C961.739,454.054,964.028,451.656,966.485,449.199z"/>
			<path fill="#C6956A" d="M881.824,406.719c13.27-31.324,34.625-61.961,65.082-73.016c-6.629,0.277-12.918,1.477-18.922,3.301     c-3.414,2.344-6.609,4.836-9.484,7.438c-17.988,16.266-31.313,40.008-37.492,64.348     C881.285,408.101,881.531,407.406,881.824,406.719z"/>
			<path fill="#C6956A" d="M198.16,517.332c13.344-16.414,30.488-30.633,46.719-41.43c26.703-17.766,58.227-27.504,89.703-32.32     c22.145-3.395,44.996-4.215,67.773-2.633C325.668,430.129,232.887,445.176,198.16,517.332z"/>
			<path fill="#C6956A" d="M776.078,382.136c-4.52-29.652-12.391-58.754-23.934-86.48c-8.348-20.051-18.625-42.879-35.82-57.184     c9.566,14.227,17.625,29.945,24.176,46.969c0.051,0.133,0.094,0.27,0.145,0.402c7.391,13.563,13.719,27.77,19.012,42.598     C765.918,345.988,771.219,364.14,776.078,382.136z"/>
			<path fill="#C6956A" d="M581.602,266.172c-18.855-12.105-43.035-26.344-67.395-33.281c8.41,3.891,16.719,8.488,24.891,13.863     c4.703,3.09,9.414,6.316,14.105,9.641c18.355,8.875,35.957,19.34,52.953,31.086c4.574,3.16,8.992,6.477,13.332,9.871     C608.239,285.699,595.692,275.211,581.602,266.172z"/>
			<path fill="#C6956A" d="M493.77,606.09c7.648,2.746,14.992,6.043,22.184,9.633c-6.848-5.004-14.34-9.344-22.086-12.891     c-37.363-17.121-82.582-21.348-123.145-16.668c-28.363,3.273-56.824,11.566-82.188,25.277c28.234-11.922,58.676-18.957,89-21.102     C416.711,587.574,456.813,592.82,493.77,606.09z"/>
			<path fill="#C6956A" d="M443.965,793.648c24.008-4.949,49.363-5.828,73.477-1.301c-15.023-9.645-37.723-12.434-51.98-11.5     c-31.563,2.07-62.379,13.145-85.57,35.199c-4.746,4.512-9.145,9.309-13.273,14.305c3.91-3.477,7.926-6.844,12.176-9.973     C397.934,806.297,420.903,798.398,443.965,793.648z"/>
		</g>
	</g>
</g>
</svg>
