<?xml version="1.0" encoding="UTF-8"?>
<!-- Generator: Adobe Illustrator 25.2.1, SVG Export Plug-In . SVG Version: 6.00 Build 0)  -->
<svg xmlns="http://www.w3.org/2000/svg" xmlns:xlink="http://www.w3.org/1999/xlink" version="1.1" id="Capa_1" x="0px" y="0px" viewBox="0 0 512 512" style="enable-background:new 0 0 512 512;" xml:space="preserve" width="512" height="512">
<g>
	<g>
		<g>
			<path style="fill:#FFFFFF;" d="M427.846,358.574c-77.132,117.619-245.849,118.356-323.592-0.345     c-13.934-21.301-24.624-47.791-28.731-73.48c-1.192-7.524-2.696-18.637-2.571-26.223c0.22-12.445-0.329-13.402,0.941-25.33     c9.373-89.013,79.546-156.929,164.061-166.678C419.977,45.546,512.361,229.701,427.846,358.574z"/>
			<path style="opacity:0.25;fill:#000E3F;" d="M278.141,446.983c-19.917,1.987-44.695-1.691-64.188-7.291     c-51.239-14.72-94.264-51.371-117.463-94.421c-1.116-2.071-0.956-2.327,1.318-2.149c45.499,3.548,59.322,57.058,143.405,70.945     c9.903,1.635,30.105,1.541,38.492,0.549c90.956-10.759,147.643-91.185,139.538-180.864     c-5.592-61.872-38.265-91.354-31.89-127.302c0.135-0.762,0.678-0.914,1.296-0.43     C518.472,207.771,462.815,428.562,278.141,446.983z"/>
		</g>
		<path style="fill:#000E3F;" d="M458.426,218.162c-8.58-45.769-33.538-86.617-70.271-115.018    c-18.497-14.299-39.35-25.022-61.98-31.868c-23.623-7.145-48.609-9.877-74.283-8.112c-51.513,3.54-94.334,22.667-127.272,56.851    c-7.675,7.964-14.734,16.682-20.98,25.909c-20.056,29.633-31.695,64.821-32.775,99.078c-1.812,57.518,21.389,112.993,63.654,152.2    c20.201,18.739,43.467,32.747,69.153,41.637c20.223,6.998,41.135,10.516,62.407,10.516c6.926,0,13.897-0.373,20.889-1.121    c53.185-5.689,102.669-34.474,135.763-78.974c15.864-21.33,27.093-44.973,33.373-70.273    C462.713,272.382,463.492,245.188,458.426,218.162z M429.463,353.849c-12.908,21.143-31.338,40.896-51.898,55.62    c-53.147,38.056-117.863,46.956-177.567,24.42c-29.283-11.055-55.84-29.285-76.796-52.721    c-21.69-24.257-37.028-53.81-44.354-85.465c-6.268-27.075-6.589-54.387-0.959-81.177c5.399-25.682,15.946-49.554,31.352-70.951    c15.318-21.272,34.453-38.735,56.876-51.906c23.29-13.68,48.844-21.93,75.951-24.52c7.91-0.756,15.695-1.133,23.356-1.133    c32.34,0,62.407,6.722,89.647,20.071c30.807,15.097,56.694,38.432,74.865,67.482C467.956,214.35,467.775,291.093,429.463,353.849z    "/>
	</g>
	<g>
		<g>
			<g>
				<path style="fill:#FFCF00;" d="M184.166,178.144c3.108-1.359-3.756-4.257-5.094-13.329c-0.749-5.076,0.763-9.389,4.582-12.861      c8.133-7.394,22.028-8.164,33.098-6.63c0.942,0.13,1.878,0.322,2.824,0.412c0.796,0.076,1.327-0.599,1.029-1.357      c-2.223-5.658-2.905-5.864-3.569-10.259c-1.904-12.605,11.533-17.482,24.49-17.515c9.974-0.025,19.577,2.049,29.075,4.863      c5.929,1.757,17.728,6.591,20.286,7.938c0.659,0.347,0.877,1.251-0.251,1.718c-2.936,1.216-17.772,3.972-41.917,17.138      c-33.63,18.339-58.855,42.679-81.717,72.407c-1.925,2.503-2.377,3.601-4.418,1.509c-10.313-10.568-8.793-26.214,5.417-36.589      C175.242,180.302,180.945,179.552,184.166,178.144z"/>
				<path style="fill:#FFCF00;" d="M306.588,229.952c-2.41-2.788-2.73-5.581-4.004-3.725c-3.257,4.746-5.831,9.526-13.477,14.522      c-1.886,1.232-4.054,1.946-6.164,2.725c-2.892,1.068-6.541-0.153-7.319-3.763c-1.133-5.258,1.664-11.056,3.999-15.231      c0.39-0.697,1.342-1.436,0.374-2.239c-0.797-0.661-1.409,0.181-2.006,0.637c-7.167,5.473-19.049,13.56-28.037,13.713      c-6.164,0.105-8.463-3.486-7.342-7.898c3.963-15.592,49.835-36.974,85.255-37.196c3.153-0.02,3.058,0.396,2.921,2.275      c-0.784,10.739-5.373,30.083-13.831,36.564C313.365,233.088,309.49,233.308,306.588,229.952z"/>
				<path style="fill:#FFCF00;" d="M215.079,291.842c-5.601,0.264-8.707-2.458-10.173-7.347c-0.801-2.671-0.674-5.193-0.584-7.721      c0.028-0.792-0.635-1.207-1.404-0.607c-21.429,16.712-36.02,9.731-31.353-13.486c0.349-1.735,2.167-8.723,2.672-9.741      c0.762-1.536,1.772-0.679,4.926,1.011c10.987,5.887,25.687,11.145,41.674,13.83c15.77,2.648,20.151,1.888,25.026,2.338      c0.596,0.055,0.873,0.673,0.519,1.155c-3.212,4.371-11.121,11.908-18.674,16.263      C226.275,288.363,218.27,291.692,215.079,291.842z"/>
			</g>
			<path style="fill:#FFFFFF;" d="M404.186,155.853c-3.675,11.181-3.581,10.01-4.142,12.294c-0.398,1.59-1.469,2.474-3.013,2.903     c-5.704,1.592-11.121,1.064-16.166-2.234c-2.135-1.388-2.979-2.811-3.596-3.349c-0.511-0.452-0.975,0.119-0.68,0.728     c0.164,0.293,0.422,0.538,0.644,0.806c3.25,3.752,7.505,5.407,12.319,5.9c5.284,0.543,6.625-1.299,7.604-0.044     c0.733,0.913-0.004,1.84-0.405,2.656c-6.375,13.182-11.735,22.271-23.377,36.011c-1.502,1.781-1.689,1.839-3.751,0.986     c-14.671-5.97-28.25-17.551-37.66-33.973c-1.507-2.615-9.492-22.127-9.82-33.266c-0.193-6.97,0.749-11.946,2.273-16.904     c0.346-1.159,1.151-1.629,2.33-1.634c2.518,0.013,5.024-0.109,7.532-0.017c23.4,0.872,46.523,8.066,63.831,21.646     c1.707,1.335,3.394,2.692,5.099,4.027C404.37,153.316,404.643,154.47,404.186,155.853z"/>
			<g>
				<path style="fill:#FD8A02;" d="M190.837,258.224c-16.057-6.671-16.494-9.244-17.697-7.646c-2.356,3.128-10.86,19.2-30.104,35.1      c-6.139,5.073-15.884,11.894-23.835,13.091c-9.23,1.39-9.598-11.818-8.121-21.027c0.938-5.849,2.766-11.43,5.164-16.834      c1.371-3.09,1.81-3.549-0.514-4.248c-14.849-4.466-34.296-22.394-23.616-27.97c16.708-8.724,51.839-5.433,69.492-3.693      c6.219,0.614,1.367-0.31,23.601-24.805c35.52-39.133,81.668-67.639,134.864-73.104c2.2-0.226,3.695-0.305,3.061,1.812      c-8.54,28.51,9.774,68.972,45.724,84.359c2.315,0.991,1.716,1.484-1.797,5.074C320.047,266.371,247.129,281.614,190.837,258.224      z M244.002,223.597c-7.039,9.667,0.009,17.905,14.183,12.297c9.281-3.672,12.852-6.912,17.371-9.732      c0.878-0.548,1.847-0.123,1.357,1.101c-0.666,1.661-2.821,5.579-2.604,11.004c0.294,7.358,7.695,8.027,13.679,4.496      c12.978-7.659,13.775-16.953,16.217-14.068c1.717,2.03,3.273,4.762,7.483,4.912c2.754,0.098,4.785-1.295,6.661-3.005      c9.084-8.283,12.603-26.059,13.594-38.355c0.096-1.193-0.222-1.527-1.449-1.663      C309.586,188.261,258.835,203.228,244.002,223.597z"/>
				<path style="fill:#FD8A02;" d="M226.471,135.956c0.598-15.122,24.152-16.272,38.36-7.149c0.58,0.372,1.16,0.774,1.645,1.258      c2.552,2.548-0.107,6.787-3.3,5.998c-6.515-1.61-17.618-8.434-27.387-2.912c-1.721,0.973-2.481,2.627-2.491,4.558      c-0.031,5.646,4.659,10.28,2.483,12.011c-1.184,0.943-3.638-0.875-4.654-2.017C229.741,146.146,226.291,140.513,226.471,135.956      z"/>
				<path style="fill:#FD8A02;" d="M222.291,153.112c3.915,1.835,1.908,7.333-1.376,7.309c-6.943-0.05-16.033-2.001-21.974,2.822      c-5.265,4.273-0.503,9.27-0.929,14.393c-0.143,1.714-1.434,2.615-3.091,2.2c-5.229-1.31-11.997-13.799-2.126-22.553      C200.048,150.85,215.12,149.752,222.291,153.112z"/>
				<path style="fill:#FD8A02;" d="M180.198,195.833c-2.951,1.258-7.823,2.647-10.357,7.643c-1.258,2.48-1.467,8.98-2.149,10.607      c-0.468,1.116-1.623,1.374-2.546,0.569c-6.292-5.488-3.588-23.02,12.932-27.38c1.249-0.33,2.531-0.547,3.806-0.766      c5.547-0.955,6.985,5.546,3.311,7.171c-1.659,0.734-3.336,1.428-5.005,2.139C180.193,195.822,180.196,195.828,180.198,195.833z"/>
				<path style="fill:#FD8A02;" d="M196.666,267.886c2.932-2.067,6.457-1.348,3.882,2.903c-5.909,9.753-23.273,12.647-25.616,0.152      c-0.702-3.744,0.082-7.222,1.733-10.559c1.255-2.535,3.986-2.058,5.075-0.491c2.453,3.533-3.512,10.508,2.652,12.467      C187.637,273.389,194.058,269.724,196.666,267.886z"/>
				<path style="fill:#FD8A02;" d="M234.672,273.262c3.813-0.572,0.495,7.357-10.283,12.545      c-9.669,4.655-19.184-0.142-14.851-12.337c0.23-0.647,0.459-1.331,0.86-1.873c1.912-2.582,4.611-1.55,5.805,0.308      c1.558,2.427-4.549,10.166,2.781,9.491C224.554,280.883,232.353,273.61,234.672,273.262z"/>
				<path style="fill:#FD8A02;" d="M287.527,235.233c-1.495,0.773-4.073-0.11-3.869-2.62c0.25-3.079,5.951-15.062,15.942-24.766      c3.222-3.13,6.469-6.225,10.068-8.93c3.626-2.727,4.52-0.783,4.072,0.172c-2.168,4.616-12.598,14.15-21.18,29.671      C291.651,230.402,289.23,234.486,287.527,235.233z"/>
				<path style="fill:#FD8A02;" d="M252.452,223.065c11.609-8.362,18.222-11.603,31.41-17.439c5.515-2.441,6.921,0.637,3.813,2.559      c-5.095,3.15-10.335,6.056-15.409,9.242c-13.709,8.609-15.349,12.286-20.02,11.323      C249.974,228.282,249.325,225.317,252.452,223.065z"/>
				<path style="fill:#FD8A02;" d="M310.62,223.445c0.131-0.921,0.468-1.858,0.91-2.681c6.57-12.218,8.193-20.895,10.718-22.879      c0.472-0.37,1.293-0.079,1.517,0.479c1.09,2.707-3.152,16.182-4.788,19.982c-0.824,1.915-1.809,3.726-3.034,5.41      C313.047,227.736,310.335,225.456,310.62,223.445z"/>
			</g>
			<g>
				<path style="fill:#FFCF00;" d="M124.659,287.818c-1.886,0.615-3.158-0.776-2.234-2.576c1.116-2.175,1.515-2.371,13.332-15.53      c12.636-14.07,18.851-23.7,23.631-27.562c3.299-2.665,8.66,0.519,4.529,6.595c-7.732,11.374-24.969,30.895-36.984,37.841      C126.336,286.933,125.508,287.541,124.659,287.818z"/>
				<path style="fill:#FFCF00;" d="M151.132,240.603c-26.219,0.382-41.764,1.198-47.757-1.655c-1.519-0.723-1.464-2.55,0.099-3.161      c3.839-1.5,20.773-2.783,26.228-2.912c18.252-0.433,29.043-2.134,29.1,3.644C158.836,239.756,154.373,240.555,151.132,240.603z"/>
			</g>
			<path style="opacity:0.25;fill:#000E3F;" d="M190.684,258.161c-17.187-7.091-16.056-9.416-17.818-7.266     c-1.099,1.34-13.724,24.626-37.636,40.609c-5.012,3.35-10.28,6.496-16.164,7.281c-3.464,0.462-5.271-0.677-6.801-3.564     c-1.395-2.632-2.024-5.5-1.296-8.534c6.733-28.083,35.012-49.856,74.576-44.859c10.241,1.294,9.248,0.586,25.647,5.154     c107.069,29.824,100.299-26.384,131.65-50.404c0.814-0.624,1.46,0.044,2.193,0.765c21.583,21.237,30.403,12.417,22.046,20.966     C320.796,265.66,248.144,281.87,190.684,258.161z"/>
			<path style="opacity:0.5;fill:#FFFFFF;" d="M280.073,146.224c2.396-0.582,5.744-0.277,4.578,1.814     c-0.866,1.551-2.13,2.686-9.45,7.123c-48.438,29.357-69.735,61.615-73.824,62.333c-4.376,0.768-6.712-3.222-4.91-6.498     C206.918,191.992,257.511,151.711,280.073,146.224z"/>
			<path style="fill:#FC09B2;" d="M349.502,179.298c5.822-12.999,21.86-11.816,26.173-2.52c4.737,10.21-7.926,24.589-21.385,17.155     C349.326,191.191,347.156,184.536,349.502,179.298z"/>
		</g>
		<g>
			<path style="fill:#000E3F;" d="M272.722,268.989c-21.674,3.282-21.939,0.239-25.056,3.939c-6.424,7.625-15.977,16-25.247,19.44     c-11.081,4.113-18.421-0.915-19.583-7.865c-0.214-1.278-0.443-2.553-0.618-3.837c-0.409-3.001-7.011,5.734-18.696,6.699     c-9.354,0.773-16.896-6.513-14.135-23.638c1.649-10.23,2.337-3.329-15.311,14.537c-18.306,18.531-44.585,35.259-45.593,8.965     c-0.555-14.483,6.238-25.555,6.148-27.871c-0.11-2.826-11.839-3.184-23.057-16.425c-25.93-30.606,68.009-20.045,68.242-20.457     c0.487-0.86-7.015-7.28-5.739-18.519c1.458-12.841,12.328-21.605,24.374-26.131c2.232-0.839,4.196-0.379,3.008-2.355     c-2.326-3.866-5.08-8.037-4.52-14.305c1.378-15.45,22.081-20.163,37.503-18.082c3.153,0.425,3.458,0.286,2.956-0.955     c-1.56-3.852-3.057-7.256-2.212-12.586c1.843-11.625,15.194-15.092,27.02-14.931c14.811,0.202,31.265,5.021,43.699,10.324     c7.529,3.211,8.042,4.483,11.845,3.568c34.985-8.417,75.248-3.2,103.285,19.6c6.395,5.2,6.368,3.909,3.974,11.662     C387.568,216.26,332.833,259.887,272.722,268.989z M311.95,254.632c24.112-10.276,44.894-25.935,56.525-39.144     c1.304-1.481,0.292-1.048-5.185-3.782c-20.821-10.39-38.053-33.345-42.094-56.798c-2.836-16.46,0.993-25.385,1.126-26.462     c0.08-0.646-0.777-0.544-1.464-0.492c-46.673,3.531-102.559,30.516-149.43,90.156c-6.433,8.185-4.67,8.38-11.05,7.667     c-12.899-1.442-25.962-2.187-38.939-1.781c-6.055,0.19-12.15,0.624-18.1,1.803c-12.726,2.522-17.627,6.113-9.122,15.8     c4.416,5.03,10.241,9.409,16.299,12.263c7.467,3.518,9.348,1.572,6.811,6.967c-4.424,9.408-8.639,25.134-3.982,34.386     c1.843,3.662,6.034,3.025,9.913,1.578c10.521-3.926,21.055-12.737,28.872-20.74c34.066-34.872,5.906-30.443,45.789-16.17     C231.108,271.763,273.049,271.244,311.95,254.632z M370.109,211.76c1.287,0.559,1.343,0.522,2.222-0.497     c13.799-15.992,22.775-33.057,24.1-37.379c0.271-0.884-0.823-0.341-2.669-0.127c-8.735,1.014-15.963-3.493-18.202-7.585     c-0.729-1.332,1.009-2.753,2.153-1.678c0.661,0.622,2.553,3.946,7.877,5.665c3.932,1.269,7.829,1.189,11.694-0.321     c1.853-0.724,1.344-0.538,5.848-13.507c0.588-1.693,0.194-2.834-1.133-3.851c-14.586-11.172-27.344-18.753-49.593-22.973     c-12.098-2.295-25.472-1.819-25.601-1.822c-1.449-0.031-1.623,0.965-2.047,2.522C317.278,157.642,334.801,196.434,370.109,211.76     z M158.928,215.35c0.779,1.949,2.665,4.313,4.678,6.586c0.841,0.95,1.331,0.017,2.077-1.02     c25.813-35.919,65.035-67.243,97.327-80.819c21.133-8.884,23.261-8.215,26.501-9.728c1.233-0.576-2.324-1.627-8.865-4.342     c-14.872-6.172-41.24-12.436-55.006-5.472c-6.714,3.397-8.697,9.005-7.493,14.671c1.882,8.86,4.789,8.462,3.165,10.851     c-0.603,0.887-1.435,0.659-2.359,0.501c-10.187-1.742-22.403-1.645-31.31,3.586c-3.917,2.301-7.315,5.905-7.762,10.429     c-0.622,6.301,1.71,10.204,5.654,15.365c1.109,1.452,0.707,2.791-0.993,3.152c-3.342,0.709-6.336,2.293-9.466,3.537     c-6.767,2.688-13.861,8.896-16.729,16.156C156.255,204.104,156.389,209.259,158.928,215.35z M229.502,285.361     c3.887-2.504,7.471-5.517,10.792-8.726c0.603-0.582,4.973-4.203,4.623-5.233c-0.502-1.478-22.098,1.122-52.005-10.269     c-16.168-6.158-17.416-9.576-18.243-6.769c-0.561,1.906-1.153,3.806-1.62,5.735c-4.05,16.719,0.808,28.917,16.985,22.773     c5.861-2.226,11.88-7.144,12.635-7.556c1.312-0.716,2.495-0.112,2.603,1.348c0.146,1.967-0.898,4.993,1.614,10.094     C210.803,294.71,222.022,290.18,229.502,285.361z"/>
			<path style="fill:#000E3F;" d="M275.219,201.314c17.048-7.435,35.632-11.843,54.146-11.783c3.195,0.017,3.785,0.684,3.485,3.933     c-1.069,11.559-3.987,24.355-10.474,33.863c-2.441,3.578-6.215,7.173-10.541,7.181c-4.417,0.008-6.103-2.607-7.932-4.677     c-0.879-0.995-1.264,0.15-2.147,1.318c-14.647,19.361-28.308,17.28-28.411,6.588c-0.057-5.916,2.751-9.573,2.03-10.014     c-0.852-0.52-20.239,15.415-30.893,9.747c-5.32-2.831-4.952-8.293-1.856-13.494C248.525,214.063,264.619,205.937,275.219,201.314     z M252.523,217.605c-19.368,15.045-7.187,29.839,25.583,3.955c0.973-0.768,1.815-0.717,2.768,0.141     c1.953,1.758-2.876,4.682-4.326,12.542c-0.863,4.68,0.171,9.068,4.983,8.581c7.405-0.749,15.508-9.486,19.693-16.181     c0.839-1.342,1.557-2.611,2.907-1.66c1.529,1.077,1.38,2.48,3.156,4.387c8.177,8.781,19.866-9.146,22.633-35.471     c0.129-1.226-0.129-1.49-1.502-1.452c-9.107,0.25-18.05,1.185-26.924,3.316C284.794,199.774,266.194,206.985,252.523,217.605z"/>
			<path style="fill:#000E3F;" d="M373.32,155.243c0.94,2.41-0.572,5.944-2.989,6.662c-5.919,1.758-9.928-6.917-3.742-9.474     C369.056,151.411,372.366,152.794,373.32,155.243z"/>
		</g>
	</g>
	<g>
		<g>
			<path style="fill:#91D728;" d="M143.233,320.876c0.443-2.429,1.654-12.514,4.195-12.188c6.26,0.821,106.276,31.38,106.353,31.404     c1.064,0.319,1.701,0.783,1.188,2.544c-6.662,22.807-29.215,39.511-52.458,41.226     C166.972,386.798,136.712,356.764,143.233,320.876z"/>
			<g>
				<path style="fill:#FFFFFF;" d="M143.233,320.876c0.443-2.429,1.654-12.514,4.195-12.188c1.237,0.162,5.785,1.415,7.003,1.749      c-0.065,2.238-2.337,11.018,0.589,24.244c3.972,17.946,17.431,33.644,36.006,37.188c21.21,4.048,42.139-9.153,53.067-26.897      c1.333-2.171,2.44-4.428,3.593-6.688c9.049,2.766,3.953,1.146,6.095,1.808c1.064,0.319,1.701,0.783,1.188,2.544      c-6.632,22.704-29.128,39.505-52.458,41.226C166.972,386.798,136.712,356.764,143.233,320.876z"/>
				<path style="fill:#FFFFFF;" d="M188.104,327.246c-1.168-2.496-1.634-5.208-1.515-7.44c8.021,2.39,16.481,4.937,24.559,7.371      C205.411,336.71,192.619,336.865,188.104,327.246z"/>
			</g>
			<path style="fill:#91D728;" d="M143.233,320.876c0.443-2.429,1.654-12.514,4.195-12.188c0.452,0.059,1.346,0.258,2.632,0.585     c0.02,0.377-0.123,0.941-0.319,1.839c-8.702,39.829,18.465,70.588,52.525,67.295c20.476-1.982,39.747-15.772,49.554-34.281     c0.261-0.492,1.07-2.709,1.96-4.035c1.064,0.319,1.701,0.783,1.188,2.544c-7.088,24.265-31.923,41.684-58.226,41.49     c1.925,0.007,3.848-0.083,5.767-0.264C166.972,386.798,136.712,356.764,143.233,320.876z"/>
			<g style="opacity:0.45;">
				<path style="fill:#000E3F;" d="M221.782,362.516c-0.085-0.208-1.311-4.709-6.369-14.564c-2.503-4.695-5.023-9.256-8.319-13.469      c0-0.001-0.001-0.003-0.002-0.004l-0.001-0.001c-0.007-0.009-0.012-0.017-0.019-0.026c-0.006-0.008-0.019-0.007-0.025-0.015      c-0.112-0.133-0.257-0.221-0.417-0.256c-0.008-0.001-0.013-0.007-0.022-0.008c-0.158-0.029-0.322,0.003-0.473,0.077      c-0.016,0.008-0.034-0.001-0.05,0.008c-0.009,0.005-0.01,0.017-0.019,0.023c-0.014,0.009-0.031,0.01-0.045,0.02      c-0.119,0.085-0.195,0.204-0.249,0.33c-0.013,0.029-0.023,0.053-0.032,0.084c-0.042,0.148-0.042,0.301,0.007,0.451      c0.005,0.014-0.004,0.027,0.001,0.041l0.164,0.422c0.889,2.285,1.81,4.647,2.862,6.893c1.136,2.534,2.382,5.007,3.458,7.099      c0.793,1.499,7.666,14.558,9.176,13.776c0.001,0,0.001-0.002,0.002-0.002l0,0c0.156-0.082,0.262-0.216,0.331-0.365      c0.008-0.018,0.02-0.03,0.027-0.049C221.824,362.834,221.825,362.675,221.782,362.516z"/>
				<path style="fill:#000E3F;" d="M185.731,329.605c0.014-0.013,0.011-0.034,0.024-0.048c0.106-0.115,0.179-0.25,0.202-0.401      c0.004-0.025-0.001-0.047,0-0.073c0.009-0.156-0.019-0.313-0.109-0.455c-0.003-0.004-0.001-0.008-0.003-0.012      c-0.002-0.003-0.006-0.003-0.008-0.006c-0.094-0.138-0.23-0.226-0.377-0.279c-0.023-0.008-0.04-0.02-0.064-0.026      c-0.153-0.041-0.309-0.027-0.462,0.03c-0.014,0.005-0.029-0.003-0.044,0.003c-13.867,6.162-24.98,16.709-24.289,16.186      c-0.107,0.118-0.18,0.257-0.2,0.411c0.012,0.206-0.02,0.318,0.117,0.524c0.002,0.002,0.001,0.005,0.002,0.007      c0,0.001,0.001,0.001,0.002,0.002l0,0c0.015,0.022,0.04,0.031,0.057,0.051c0.066,0.078,0.136,0.152,0.224,0.198      c0.11,0.057,0.233,0.087,0.355,0.087c0.106,0,0.215-0.022,0.317-0.068C168.05,342.775,179.245,335.689,185.731,329.605z"/>
				<path style="fill:#000E3F;" d="M194.643,336.607c-0.01-0.014-0.023-0.023-0.034-0.038c-0.103-0.13-0.239-0.237-0.412-0.279      c-0.174-0.042-0.341-0.011-0.491,0.054c-0.021,0.009-0.041,0.012-0.061,0.023c-0.137,0.074-0.241,0.195-0.312,0.34      c-0.007,0.015-0.025,0.019-0.031,0.034c-3.474,8.316-6.734,21.653-7.516,30.604c0.028,0.207-0.002,0.287,0.135,0.493      c0.082,0.127,0.257,0.272,0.443,0.32c0.002,0,0.003,0.002,0.005,0.003c0.062,0.015,0.124,0.022,0.184,0.022c0,0,0,0,0.001,0      h0.001c0.206-0.04,0.236-0.005,0.442-0.151c0.012-0.009,0.246-0.275,0.266-0.323c3.385-8.117,6.729-21.487,7.516-30.604      c0.002-0.017-0.013-0.03-0.013-0.047C194.771,336.894,194.732,336.738,194.643,336.607z"/>
				<path style="fill:#000E3F;" d="M221.133,343.683c-1.281-1.887-2.896-4.06-5.168-5.883c-0.002-0.002-0.005-0.001-0.007-0.003      c-0.116-0.091-0.255-0.137-0.399-0.15c-0.027-0.003-0.05-0.005-0.078-0.004c-0.134,0-0.269,0.023-0.392,0.097      c-0.006,0.003-0.009,0.01-0.014,0.013c-0.005,0.003-0.01,0.001-0.014,0.004c-0.012,0.008-0.014,0.024-0.026,0.032      c-0.105,0.079-0.182,0.179-0.234,0.293c-0.014,0.029-0.029,0.052-0.039,0.083c-0.042,0.128-0.048,0.264-0.018,0.398      c0.003,0.014-0.006,0.027-0.002,0.04c0.749,2.744,2.134,5.107,3.4,7.075C224.426,354.9,227.128,353.043,221.133,343.683z"/>
				<path style="fill:#000E3F;" d="M231.614,343.379c-2.889-4.644-11.338-11.037-12.568-9.569c-0.097,0.116-0.141,0.253-0.16,0.393      c-0.005,0.03-0.009,0.056-0.01,0.087c-0.002,0.139,0.027,0.274,0.097,0.396c0.004,0.008,0.002,0.017,0.006,0.024      c2.814,4.551,11.316,11.054,12.572,9.569c0.001-0.001,0-0.002,0.001-0.003c0.001-0.001,0.002-0.001,0.003-0.002      C231.897,343.859,231.578,343.173,231.614,343.379z"/>
				<path style="fill:#000E3F;" d="M182.574,339.867c-0.087-0.607-0.732-0.73-1.036-0.603c-6.189,2.49-11.562,9.198-11.424,10.23      c0.063,0.423,0.397,0.658,0.748,0.658c1.349,0,5.548-3.189,6.66-4.115C178.151,345.483,182.68,340.638,182.574,339.867z"/>
				<path style="fill:#000E3F;" d="M162.202,330.448c-0.518,0.451-0.467,0.938-0.11,1.244c0.372,0.059-0.189,0.324,2.655,0.324      c5.34,0,12.15-2.353,12.708-3.433c0.158-0.316,0.121-0.611-0.128-0.869C177.197,327.578,168.234,326.952,162.202,330.448z"/>
				<path style="fill:#000E3F;" d="M186.376,344.453c-0.049-0.152-0.146-0.31-0.284-0.406c-0.002-0.001-0.004-0.001-0.006-0.002      c-0.002-0.002-0.002-0.005-0.004-0.006c-0.008-0.005-0.018-0.003-0.026-0.007c-1.995-1.239-9.142,9.956-8.488,11.997      c0.062,0.208,0.09,0.19,0.289,0.402c0.277,0.133,0.493,0.223,0.839,0.002c0.187-0.207,6.047-4.672,7.707-11.573      C186.404,344.856,186.439,344.66,186.376,344.453z"/>
				<path style="fill:#000E3F;" d="M207.471,352.587c-0.313-1.099-0.672-2.272-1.156-3.399c-0.438-1.043-1.003-2.252-1.88-3.322      c-0.004-0.005-0.01-0.005-0.014-0.009c-0.091-0.107-0.209-0.179-0.34-0.223c-0.029-0.01-0.055-0.014-0.085-0.02      c-0.126-0.027-0.257-0.029-0.389,0.012c-0.006,0.003-0.013-0.001-0.02,0.001c-0.002,0.001-0.002,0.003-0.004,0.003      c-0.004,0.002-0.008,0.001-0.012,0.002c-0.133,0.05-0.234,0.14-0.318,0.243c-0.02,0.024-0.035,0.046-0.052,0.073      c-0.074,0.116-0.125,0.246-0.128,0.385c-0.001,0.003-0.003,0.005-0.003,0.008C202.862,358.222,211.447,368.049,207.471,352.587z      "/>
				<path style="fill:#000E3F;" d="M176.998,322.626c-1.207-2.012-18.564-4.717-16.747-1.568      C161.34,322.904,178.841,325.821,176.998,322.626z"/>
				<path style="fill:#000E3F;" d="M199.898,346.25c-0.03-0.135-0.098-0.254-0.192-0.354c-0.021-0.023-0.042-0.04-0.067-0.061      c-0.104-0.088-0.226-0.16-0.371-0.182c-0.002-0.001-0.003-0.003-0.005-0.003h-0.001c-0.001,0-0.001,0-0.001,0      c-0.165-0.023-0.309,0.015-0.439,0.075c-0.011,0.005-0.02,0.01-0.03,0.015c-0.135,0.071-0.247,0.173-0.317,0.309      c-0.002,0.003-0.006,0.005-0.008,0.008c-3.529,6.795-2.119,15.296-2.156,14.555c0.058,0.295,0.343,0.56,0.617,0.608      c0.005,0.001,0.01,0.001,0.015,0.001c0.053,0.007,0.055,0.011,0.12,0.011c1.41,0,2.569-5.985,2.82-7.527      c0.295-2.161,0.53-4.733,0.028-7.434C199.907,346.263,199.899,346.258,199.898,346.25z"/>
			</g>
			<path style="opacity:0.25;fill:#000E3F;" d="M142.352,329.785c4.863-1.91,10.892-1.987,17.208,0.815     c13.017,5.786,21.731,23.36,37.18,25.907c6.63,1.094,11.693-3.27,14.957-8.59c2.91-4.755,6.455-14.082,10.753-17.317     c16.888,5.126,29.924,9.122,29.96,9.127c1.775,0.519,3.268,0.474,2.56,2.911c-5.702,19.512-22.999,34.52-42.494,39.537     C176.196,391.504,141.759,364.972,142.352,329.785z"/>
		</g>
		<g>
			<path style="fill:#000E3F;" d="M198.032,385.877c-13.506,0-26.393-4.398-36.703-12.605     c-24.998-19.899-22.742-50.703-17.733-62.504c0.769-1.808,2.025-4.18,4.072-3.914l0,0c6.459,0.846,105.668,31.165,106.657,31.47     c2.904,0.869,2.92,3.106,2.42,4.828c-6.673,22.838-29.423,40.734-54.098,42.555C201.103,385.821,199.563,385.877,198.032,385.877     z M147.801,310.635c-1.2,1.738-3.85,9.184-3.607,19.857c0.259,11.342,3.839,27.469,19.438,39.886     c10.752,8.557,24.514,12.694,38.742,11.64c23.192-1.712,44.565-18.492,50.819-39.9c0.03-0.097,0.05-0.181,0.066-0.251     c-0.004-0.001-0.006-0.001-0.008-0.002C234.028,335.979,156.946,312.568,147.801,310.635z M253.565,341.98h0.022H253.565z      M147.187,310.523c0.002,0,0.002,0,0.004,0C147.189,310.523,147.189,310.523,147.187,310.523L147.187,310.523z"/>
		</g>
	</g>
	<g>
		<g>
			<path style="fill:#915EFD;" d="M478.459,171.112l10.009-3.915c0.639-0.25,1.36-0.169,1.928,0.215l8.899,6.026     c1.431,0.969,3.351-0.124,3.25-1.848l-0.631-10.729c-0.04-0.685,0.259-1.346,0.801-1.767l8.481-6.602     c1.363-1.061,0.918-3.225-0.754-3.661l-10.399-2.716c-0.664-0.173-1.2-0.662-1.433-1.307l-3.658-10.106     c-0.588-1.624-2.784-1.869-3.715-0.415l-5.796,9.051c-0.37,0.578-1,0.936-1.686,0.959l-10.742,0.356     c-1.727,0.057-2.638,2.069-1.542,3.405l6.816,8.309c0.435,0.53,0.581,1.241,0.391,1.9l-2.981,10.326     C475.217,170.252,476.849,171.741,478.459,171.112z"/>
			<path style="fill:#915EFD;" d="M431.51,100.536l7.441-3.52c0.475-0.225,1.03-0.201,1.484,0.062l7.118,4.134     c1.144,0.664,2.554-0.271,2.385-1.584l-1.049-8.164c-0.067-0.521,0.127-1.042,0.518-1.393l6.131-5.492     c0.985-0.883,0.531-2.513-0.77-2.758l-8.089-1.526c-0.516-0.097-0.952-0.443-1.164-0.923l-3.329-7.528     c-0.535-1.21-2.226-1.281-2.861-0.12l-3.951,7.222c-0.252,0.461-0.715,0.769-1.238,0.822l-8.189,0.84     c-1.316,0.135-1.906,1.721-0.999,2.684l5.647,5.989c0.361,0.382,0.51,0.918,0.399,1.431l-1.732,8.047     C428.988,100.051,430.313,101.102,431.51,100.536z"/>
			<path style="fill:#915EFD;" d="M485.029,260.167l7.441-3.52c0.475-0.225,1.03-0.201,1.484,0.062l7.118,4.134     c1.144,0.664,2.554-0.272,2.385-1.584l-1.049-8.164c-0.067-0.521,0.127-1.042,0.518-1.393l6.131-5.493     c0.986-0.883,0.531-2.513-0.769-2.758l-8.089-1.525c-0.516-0.097-0.952-0.443-1.164-0.923l-3.329-7.528     c-0.535-1.21-2.226-1.281-2.86-0.12l-3.951,7.222c-0.252,0.461-0.715,0.768-1.238,0.822l-8.189,0.84     c-1.316,0.135-1.906,1.721-0.999,2.683l5.647,5.989c0.361,0.382,0.51,0.918,0.399,1.431l-1.732,8.047     C482.507,259.681,483.833,260.733,485.029,260.167z"/>
		</g>
		<g>
			<path style="fill:#915EFD;" d="M38.882,305.272l-10.746,0.18c-0.686,0.011-1.322,0.36-1.702,0.931l-5.943,8.954     c-0.955,1.439-3.147,1.158-3.708-0.475l-3.492-10.164c-0.223-0.649-0.751-1.146-1.412-1.331l-10.353-2.885     c-1.664-0.464-2.074-2.635-0.693-3.673l8.588-6.462c0.548-0.412,0.858-1.068,0.83-1.754l-0.455-10.738     c-0.073-1.726,1.865-2.787,3.279-1.795l8.8,6.17c0.562,0.394,1.281,0.486,1.924,0.247l10.072-3.751     c1.619-0.603,3.227,0.912,2.72,2.564l-3.149,10.276c-0.201,0.656-0.067,1.369,0.36,1.906l6.679,8.42     C41.553,303.245,40.609,305.243,38.882,305.272z"/>
			<path style="fill:#915EFD;" d="M55.503,222.152l-8.22-0.43c-0.525-0.027-1.029,0.205-1.349,0.622l-5.014,6.528     c-0.806,1.049-2.465,0.719-2.808-0.559l-2.131-7.951c-0.136-0.508-0.513-0.916-1.008-1.091l-7.758-2.752     c-1.247-0.442-1.446-2.123-0.336-2.844l6.903-4.484c0.441-0.286,0.712-0.771,0.726-1.296l0.22-8.229     c0.036-1.323,1.573-2.031,2.601-1.198l6.398,5.18c0.408,0.331,0.953,0.439,1.457,0.29l7.894-2.334     c1.269-0.375,2.417,0.868,1.943,2.103l-2.95,7.685c-0.188,0.491-0.123,1.042,0.175,1.475l4.659,6.786     C57.652,220.746,56.825,222.222,55.503,222.152z"/>
			<path style="fill:#915EFD;" d="M66.632,390.148l-8.22-0.43c-0.525-0.028-1.029,0.205-1.349,0.622l-5.015,6.528     c-0.806,1.049-2.466,0.719-2.808-0.559l-2.131-7.951c-0.136-0.507-0.513-0.915-1.008-1.091l-7.758-2.752     c-1.247-0.442-1.445-2.122-0.336-2.843l6.903-4.484c0.44-0.286,0.712-0.771,0.726-1.296l0.22-8.229     c0.035-1.323,1.572-2.031,2.6-1.198l6.397,5.18c0.408,0.331,0.953,0.439,1.457,0.29l7.894-2.334     c1.269-0.375,2.417,0.867,1.943,2.103l-2.949,7.685c-0.188,0.491-0.123,1.042,0.174,1.475l4.659,6.786     C68.78,388.741,67.953,390.217,66.632,390.148z"/>
		</g>
	</g>
	<g>
		<g>
			<g>
				<path style="fill:#FF8EDE;" d="M394.197,332.576c-18.846,2.141-38.292-9.027-45.94-26.371c-0.182-0.411-0.358-0.83-0.525-1.249      c-8.014-19.889,0.068-43.739,18.929-54.358c14.229-8.013,31.437-7.252,44.866,0.541c6.33,3.664,11.822,8.897,15.76,15.509      C443.519,293.872,426.677,328.889,394.197,332.576z"/>
				<path style="fill:#FC09B2;" d="M428.776,287.156c0.927,22.798-16.751,40.593-38.299,41.199c-35.541,1-53.538-41.34-29.53-66.387      C384.933,236.944,427.385,252.923,428.776,287.156z"/>
				<g>
					<path style="fill:#FF8EDE;" d="M364.637,272.269c-9.356-12.885,30.691-29.05,49.726-3.914       c3.227,4.262,1.817,9.566-2.587,12.272C397.729,289.26,374.53,285.893,364.637,272.269z"/>
					<path style="fill:#FF8EDE;" d="M416.105,288.359c2.302,0.383,4.287,1.438,6.034,2.878c9.838,8.106-13.64,31.583-27.744,33.49       c-12.699,1.717-13.125-13.447-6.188-24.153C394.233,291.275,407.648,286.95,416.105,288.359z"/>
					<path style="fill:#FF8EDE;" d="M365.738,315.987c-6.881-4.181-13.078-16.156-11.751-28.365c0.563-5.181,5.84-9.738,12.2-6.97       c7.02,3.056,14.561,9.145,16.093,16.578C382.966,300.555,374.887,321.546,365.738,315.987z"/>
				</g>
				<g>
					<g>
						<g>
							<path style="fill:#FC09B2;" d="M408.463,267.247c0.35-0.332,0.866-0.545,1.354-0.536c0.485,0.011,0.973,0.218,1.303,0.625         c0.675,0.821,0.393,2.053-0.441,2.62c-0.406,0.285-1.259,0.63-2.11,0.887c-0.844,0.247-1.627,0.377-1.882,0.062         c-0.256-0.315,0.04-1.044,0.464-1.807C407.571,268.344,408.103,267.588,408.463,267.247z"/>
						</g>
						<g>
							<path style="fill:#FC09B2;" d="M403.757,263.361c0.516-0.822,1.789-1.248,2.604-0.575c0.834,0.645,0.856,1.91,0.209,2.644         c-0.319,0.372-1.089,0.953-1.84,1.396c-0.754,0.441-1.48,0.75-1.802,0.498C402.329,266.811,403.239,264.207,403.757,263.361z         "/>
						</g>
						<g>
							<path style="fill:#FC09B2;" d="M398.3,260.657c0.167-0.46,0.522-0.854,0.965-1.084c0.441-0.226,0.984-0.318,1.444-0.078         c0.945,0.45,1.246,1.687,0.786,2.551c-0.474,0.857-2.393,2.99-3.106,2.645c-0.364-0.198-0.463-0.925-0.434-1.785         C397.985,262.055,398.133,261.117,398.3,260.657z"/>
						</g>
						<g>
							<path style="fill:#FC09B2;" d="M392.392,259.202c0.116-0.972,1.072-1.829,2.104-1.672c1.014,0.248,1.573,1.401,1.312,2.345         c-0.275,0.942-1.681,3.423-2.453,3.232C392.565,262.998,392.286,260.175,392.392,259.202z"/>
						</g>
						<g>
							<path style="fill:#FC09B2;" d="M386.303,259.062c-0.103-0.974,0.643-2.007,1.691-2.068c0.518-0.05,0.987,0.242,1.31,0.617         c0.324,0.382,0.504,0.88,0.485,1.369c-0.019,0.49-0.26,1.413-0.575,2.209c-0.318,0.799-0.7,1.45-1.11,1.496         C387.315,262.738,386.418,260.035,386.303,259.062z"/>
						</g>
						<g>
							<path style="fill:#FC09B2;" d="M380.328,260.321c-0.334-0.921,0.155-2.089,1.173-2.381c1.011-0.326,2.037,0.542,2.21,1.497         c0.094,0.48,0.069,1.431-0.054,2.272c-0.133,0.821-0.324,1.636-0.718,1.738C382.19,263.665,380.673,261.237,380.328,260.321z         "/>
						</g>
						<g>
							<path style="fill:#FC09B2;" d="M374.851,263.056c-0.576-0.828-0.398-2.084,0.533-2.605c0.458-0.261,0.989-0.279,1.445-0.115         c0.457,0.162,0.863,0.553,1.068,0.988c0.214,0.451,0.408,1.346,0.517,2.224c0.102,0.874,0.102,1.668-0.248,1.869         c-0.35,0.2-1.019-0.213-1.701-0.756C375.781,264.105,375.131,263.471,374.851,263.056z"/>
						</g>
					</g>
					<g>
						<g>
							<path style="fill:#FC09B2;" d="M414.695,302.616c-0.861-0.467-1.458-1.572-1.108-2.35c0.185-0.397,0.473-0.706,0.925-0.883         c0.436-0.179,0.966-0.244,1.441-0.122c0.474,0.122,1.317,0.56,1.986,1.161c0.653,0.586,1.198,1.385,0.938,1.939         c-0.242,0.562-1.092,0.781-1.965,0.754C416.035,303.093,415.13,302.84,414.695,302.616z"/>
						</g>
						<g>
							<path style="fill:#FC09B2;" d="M410.912,307.681c-0.676-0.708-0.865-1.957-0.249-2.612c0.569-0.683,1.783-0.716,2.599-0.155         c0.398,0.284,1.028,0.998,1.445,1.791c0.411,0.777,0.642,1.685,0.236,2.114c-0.4,0.435-1.262,0.351-2.08,0.041         C412.041,308.552,411.256,308.03,410.912,307.681z"/>
						</g>
						<g>
							<path style="fill:#FC09B2;" d="M405.823,311.547c-0.485-0.851-0.336-2.104,0.454-2.592c0.737-0.551,1.955-0.233,2.573,0.528         c0.303,0.384,0.706,1.247,0.894,2.117c0.19,0.866,0.162,1.754-0.311,2.089C408.426,314.322,406.298,312.404,405.823,311.547z         "/>
						</g>
						<g>
							<path style="fill:#FC09B2;" d="M399.964,314.151c-0.286-0.948,0.155-2.096,1.022-2.43c0.857-0.365,1.98,0.231,2.404,1.113         c0.437,0.876,0.704,3.752-0.39,4.211c-0.531,0.223-1.257-0.29-1.837-0.941C400.576,315.446,400.112,314.618,399.964,314.151z         "/>
						</g>
						<g>
							<path style="fill:#FC09B2;" d="M393.691,315.329c-0.025-0.489,0.148-0.993,0.428-1.381c0.282-0.397,0.668-0.634,1.127-0.729         c0.902-0.152,1.853,0.712,2.063,1.645c0.101,0.484,0.08,1.442-0.143,2.293c-0.218,0.855-0.645,1.621-1.221,1.711         c-0.572,0.11-1.171-0.578-1.575-1.35C393.958,316.735,393.717,315.817,393.691,315.329z"/>
						</g>
					</g>
					<g>
						<g>
							<path style="fill:#FC09B2;" d="M359.248,290.468c-0.981,0.023-1.974-0.867-1.956-1.945c0.02-1.068,1.022-1.877,2.001-1.858         c0.98,0.018,3.707,0.988,3.689,2C362.965,289.657,360.225,290.434,359.248,290.468z"/>
						</g>
						<g>
							<path style="fill:#FC09B2;" d="M360.185,297.226c-0.931,0.305-2.171-0.341-2.401-1.533c-0.239-1.188,0.655-2.232,1.63-2.321         c0.487-0.052,1.439,0.078,2.281,0.301c0.858,0.223,1.585,0.529,1.681,0.958c0.076,0.436-0.481,0.964-1.194,1.479         C361.483,296.615,360.655,297.083,360.185,297.226z"/>
						</g>
						<g>
							<path style="fill:#FC09B2;" d="M363.123,303.393c-0.809,0.551-2.159,0.311-2.726-0.724c-0.574-1.03-0.059-2.3,0.839-2.692         c0.447-0.204,1.386-0.378,2.261-0.432c0.881-0.052,1.677,0.014,1.903,0.411c0.215,0.403-0.157,1.092-0.684,1.793         C364.199,302.438,363.532,303.124,363.123,303.393z"/>
						</g>
						<g>
							<path style="fill:#FC09B2;" d="M367.622,308.525c-0.621,0.751-1.99,0.887-2.827,0.044c-0.837-0.842-0.681-2.209,0.077-2.825         c0.375-0.315,1.233-0.734,2.064-1.025c0.827-0.28,1.619-0.443,1.936-0.12c0.324,0.315,0.134,1.097-0.169,1.902         C368.393,307.308,367.941,308.153,367.622,308.525z"/>
						</g>
					</g>
					<path style="fill:#FC09B2;" d="M381.719,277.572c2.105-0.991,3.827-4.032,6.069-3.64c1.82,0.318,2.44,1.849,3.409,3.188       c2.041,2.819,8.264,5.483,10.831,1.886c4.713-6.604-10.597-17.333-21.138-12.293c-3.424,1.637-7.854,5.325-4.914,9.381       C377.23,277.823,379.772,278.488,381.719,277.572z"/>
					<path style="fill:#FC09B2;" d="M401.594,293.674c-0.55,1.801,0.338,4.486-1.115,5.618c-1.18,0.919-2.435,0.458-3.764,0.312       c-2.8-0.308-7.778,1.976-7.017,5.47c1.399,6.414,16.152,3.064,18.858-5.996c0.879-2.943,1.075-7.603-2.955-8.044       C403.883,290.845,402.102,292.009,401.594,293.674z"/>
					<path style="fill:#FC09B2;" d="M378.382,298.124c-1.283-0.75-3.507-0.557-4.113-1.88c-0.776-1.699,0.808-3.634,0.674-5.382       c-0.126-1.654-1.269-3.917-3.154-3.95c-5.182-0.093-5.293,11.85,1.174,15.578c2.101,1.211,5.645,2.209,6.717-0.806       C380.138,300.397,379.569,298.818,378.382,298.124z"/>
				</g>
				<path style="opacity:0.25;fill:#000E3F;" d="M394.197,332.576c-18.846,2.141-38.292-9.027-45.94-26.371      c-0.182-0.411-0.358-0.83-0.525-1.249c0.007-0.016,0.015-0.023,0.023-0.038c4.906-8.158,15.174-11.693,24.749-7.831      c8.707,3.519,17.847,8.501,23.476,0.876c6.787-9.187,1.63-18.632,2.415-28.009c0.739-8.943,4.73-16.073,13.133-18.815      c6.33,3.664,11.822,8.897,15.76,15.509C443.519,293.872,426.677,328.889,394.197,332.576z"/>
			</g>
			<path style="fill:#000E3F;" d="M389.582,334.629c-18.508,0-36.652-11.832-43.518-29.008     c-8.374-20.789,0.286-45.646,19.717-56.586c14.301-8.054,32.177-7.843,46.645,0.553c17.356,10.046,25.921,29.237,21.816,48.892     c-3.242,15.526-15.412,33.105-39.844,35.878l0,0C392.795,334.541,391.188,334.629,389.582,334.629z M388.479,246.724     c-7.268,0-14.498,1.809-20.939,5.436c-17.891,10.074-25.862,32.97-18.146,52.125c6.885,17.222,26.08,28.604,44.6,26.509l0,0     c22.533-2.558,33.751-18.748,36.738-33.048c3.781-18.112-4.11-35.797-20.104-45.055     C403.778,248.717,396.105,246.724,388.479,246.724z"/>
		</g>
		<g>
			<g>
				<path style="fill:#FF8EDE;" d="M364.321,358.961c-18.845,2.141-38.292-9.027-45.94-26.371c-0.182-0.411-0.358-0.83-0.525-1.249      c-8.013-19.889,0.068-43.739,18.929-54.358c14.229-8.013,31.437-7.252,44.866,0.541c6.33,3.664,11.822,8.897,15.76,15.509      C413.644,320.257,396.802,355.274,364.321,358.961z"/>
				<path style="fill:#FC09B2;" d="M398.9,313.541c0.927,22.798-16.751,40.593-38.299,41.199c-35.541,1-53.538-41.34-29.53-66.387      C355.058,263.328,397.509,279.308,398.9,313.541z"/>
				<g>
					<path style="fill:#FF8EDE;" d="M334.762,298.654c-9.355-12.885,30.691-29.05,49.726-3.914       c3.227,4.262,1.817,9.566-2.587,12.272C367.853,315.645,344.654,312.278,334.762,298.654z"/>
					<path style="fill:#FF8EDE;" d="M386.23,314.744c2.302,0.383,4.287,1.438,6.034,2.878c9.838,8.106-13.639,31.583-27.744,33.49       c-12.699,1.717-13.125-13.447-6.188-24.153C364.358,317.66,377.773,313.335,386.23,314.744z"/>
					<path style="fill:#FF8EDE;" d="M335.863,342.371c-6.881-4.181-13.078-16.156-11.751-28.365c0.563-5.181,5.841-9.738,12.2-6.97       c7.02,3.056,14.561,9.145,16.093,16.578C353.09,326.94,345.012,347.931,335.863,342.371z"/>
				</g>
				<g>
					<g>
						<g>
							<path style="fill:#FC09B2;" d="M378.588,293.632c0.35-0.332,0.865-0.545,1.354-0.536c0.485,0.011,0.973,0.218,1.303,0.625         c0.675,0.821,0.393,2.053-0.44,2.62c-0.407,0.284-1.259,0.63-2.11,0.887c-0.843,0.247-1.627,0.377-1.882,0.062         c-0.255-0.315,0.04-1.044,0.464-1.807C377.696,294.729,378.228,293.972,378.588,293.632z"/>
						</g>
						<g>
							<path style="fill:#FC09B2;" d="M373.881,289.746c0.516-0.821,1.789-1.248,2.604-0.575c0.834,0.645,0.856,1.91,0.209,2.644         c-0.319,0.372-1.089,0.953-1.84,1.396c-0.754,0.441-1.48,0.75-1.803,0.498C372.454,293.195,373.363,290.591,373.881,289.746z         "/>
						</g>
						<g>
							<path style="fill:#FC09B2;" d="M368.425,287.042c0.167-0.46,0.521-0.854,0.966-1.084c0.441-0.226,0.984-0.318,1.443-0.078         c0.945,0.45,1.246,1.687,0.786,2.551c-0.474,0.857-2.393,2.99-3.106,2.645c-0.364-0.199-0.463-0.925-0.434-1.785         C368.11,288.44,368.257,287.502,368.425,287.042z"/>
						</g>
						<g>
							<path style="fill:#FC09B2;" d="M362.517,285.586c0.117-0.972,1.072-1.828,2.105-1.672c1.013,0.248,1.572,1.401,1.312,2.345         c-0.275,0.942-1.681,3.423-2.453,3.232C362.69,289.382,362.411,286.56,362.517,285.586z"/>
						</g>
						<g>
							<path style="fill:#FC09B2;" d="M356.427,285.447c-0.103-0.974,0.643-2.007,1.691-2.068c0.518-0.05,0.987,0.242,1.31,0.618         c0.324,0.381,0.504,0.88,0.485,1.369c-0.019,0.49-0.26,1.413-0.575,2.209c-0.318,0.799-0.7,1.45-1.11,1.496         C357.44,289.123,356.542,286.419,356.427,285.447z"/>
						</g>
						<g>
							<path style="fill:#FC09B2;" d="M350.453,286.706c-0.334-0.921,0.155-2.089,1.173-2.381c1.011-0.326,2.037,0.542,2.21,1.497         c0.094,0.48,0.069,1.431-0.054,2.272c-0.132,0.821-0.324,1.637-0.718,1.738C352.315,290.05,350.798,287.622,350.453,286.706z         "/>
						</g>
						<g>
							<path style="fill:#FC09B2;" d="M344.976,289.441c-0.575-0.828-0.398-2.084,0.534-2.605c0.457-0.261,0.989-0.279,1.445-0.114         c0.457,0.162,0.863,0.553,1.068,0.988c0.214,0.451,0.408,1.346,0.517,2.224c0.102,0.874,0.102,1.668-0.248,1.869         c-0.35,0.2-1.019-0.213-1.701-0.756C345.906,290.49,345.256,289.856,344.976,289.441z"/>
						</g>
					</g>
					<g>
						<g>
							<path style="fill:#FC09B2;" d="M384.819,329.001c-0.861-0.467-1.458-1.572-1.108-2.349c0.185-0.397,0.473-0.706,0.925-0.883         c0.436-0.179,0.966-0.244,1.441-0.122c0.474,0.122,1.317,0.56,1.986,1.161c0.653,0.586,1.198,1.385,0.938,1.939         c-0.242,0.562-1.092,0.782-1.965,0.754C386.16,329.478,385.254,329.225,384.819,329.001z"/>
						</g>
						<g>
							<path style="fill:#FC09B2;" d="M381.036,334.066c-0.676-0.708-0.864-1.957-0.249-2.612c0.569-0.683,1.782-0.716,2.599-0.155         c0.398,0.284,1.028,0.998,1.445,1.79c0.411,0.777,0.642,1.685,0.235,2.114c-0.4,0.435-1.262,0.351-2.079,0.041         C382.166,334.937,381.38,334.414,381.036,334.066z"/>
						</g>
						<g>
							<path style="fill:#FC09B2;" d="M375.948,337.932c-0.485-0.851-0.335-2.104,0.454-2.592c0.737-0.551,1.955-0.233,2.573,0.528         c0.303,0.384,0.706,1.247,0.894,2.117c0.19,0.866,0.162,1.754-0.311,2.089C378.551,340.707,376.422,338.789,375.948,337.932z         "/>
						</g>
						<g>
							<path style="fill:#FC09B2;" d="M370.089,340.536c-0.286-0.948,0.154-2.095,1.022-2.43c0.857-0.365,1.98,0.231,2.404,1.113         c0.437,0.876,0.704,3.752-0.39,4.211c-0.531,0.223-1.257-0.29-1.837-0.941C370.701,341.831,370.236,341.003,370.089,340.536z         "/>
						</g>
						<g>
							<path style="fill:#FC09B2;" d="M363.815,341.713c-0.025-0.489,0.148-0.993,0.428-1.381c0.282-0.397,0.668-0.634,1.127-0.729         c0.902-0.152,1.853,0.712,2.064,1.645c0.101,0.484,0.08,1.442-0.143,2.293c-0.218,0.855-0.645,1.621-1.221,1.711         c-0.572,0.111-1.171-0.578-1.575-1.35C364.083,343.12,363.842,342.202,363.815,341.713z"/>
						</g>
					</g>
					<g>
						<g>
							<path style="fill:#FC09B2;" d="M329.372,316.853c-0.981,0.023-1.974-0.867-1.956-1.945c0.02-1.068,1.022-1.877,2.001-1.858         c0.979,0.018,3.707,0.988,3.689,1.999C333.09,316.041,330.35,316.818,329.372,316.853z"/>
						</g>
						<g>
							<path style="fill:#FC09B2;" d="M330.31,323.611c-0.931,0.305-2.171-0.341-2.401-1.533c-0.239-1.188,0.655-2.232,1.63-2.321         c0.487-0.052,1.439,0.078,2.281,0.301c0.858,0.223,1.585,0.528,1.681,0.958c0.076,0.436-0.481,0.964-1.194,1.479         C331.608,323,330.78,323.468,330.31,323.611z"/>
						</g>
						<g>
							<path style="fill:#FC09B2;" d="M333.247,329.777c-0.809,0.551-2.159,0.311-2.726-0.724c-0.574-1.03-0.058-2.3,0.839-2.692         c0.447-0.204,1.386-0.378,2.261-0.432c0.881-0.052,1.677,0.014,1.903,0.411c0.215,0.403-0.157,1.092-0.684,1.793         C334.323,328.823,333.656,329.508,333.247,329.777z"/>
						</g>
						<g>
							<path style="fill:#FC09B2;" d="M337.747,334.91c-0.622,0.751-1.99,0.887-2.827,0.044c-0.837-0.842-0.681-2.209,0.077-2.825         c0.375-0.316,1.233-0.734,2.064-1.025c0.827-0.28,1.619-0.443,1.936-0.12c0.324,0.315,0.133,1.097-0.17,1.902         C338.518,333.693,338.066,334.538,337.747,334.91z"/>
						</g>
					</g>
					<path style="fill:#FC09B2;" d="M351.844,303.956c2.105-0.99,3.827-4.032,6.069-3.64c1.82,0.318,2.44,1.85,3.409,3.188       c2.041,2.819,8.264,5.483,10.831,1.886c4.713-6.604-10.598-17.333-21.138-12.293c-3.424,1.637-7.854,5.325-4.914,9.381       C347.354,304.208,349.897,304.872,351.844,303.956z"/>
					<path style="fill:#FC09B2;" d="M371.718,320.059c-0.55,1.801,0.338,4.486-1.115,5.618c-1.18,0.919-2.435,0.458-3.764,0.312       c-2.8-0.308-7.778,1.976-7.017,5.47c1.399,6.414,16.152,3.064,18.858-5.996c0.879-2.943,1.075-7.603-2.955-8.044       C374.008,317.23,372.227,318.394,371.718,320.059z"/>
					<path style="fill:#FC09B2;" d="M348.507,324.508c-1.283-0.75-3.508-0.557-4.113-1.88c-0.776-1.699,0.808-3.634,0.674-5.382       c-0.126-1.654-1.269-3.917-3.154-3.95c-5.182-0.093-5.293,11.851,1.174,15.578c2.101,1.211,5.645,2.209,6.717-0.806       C350.263,326.782,349.693,325.202,348.507,324.508z"/>
				</g>
				<path style="opacity:0.25;fill:#000E3F;" d="M364.321,358.961c-18.845,2.141-38.292-9.027-45.94-26.371      c-0.182-0.411-0.358-0.83-0.525-1.249c0.007-0.016,0.015-0.023,0.023-0.038c4.905-8.158,15.174-11.693,24.749-7.831      c8.707,3.519,17.848,8.501,23.476,0.876c6.787-9.187,1.63-18.632,2.415-28.009c0.739-8.943,4.73-16.073,13.133-18.815      c6.33,3.664,11.822,8.897,15.76,15.509C413.644,320.257,396.802,355.274,364.321,358.961z"/>
			</g>
			<path style="fill:#000E3F;" d="M359.707,361.014c-18.508,0-36.652-11.832-43.518-29.008     c-8.374-20.789,0.286-45.646,19.717-56.586c14.301-8.054,32.177-7.843,46.645,0.553c17.356,10.046,25.92,29.237,21.816,48.892     c-3.242,15.526-15.412,33.105-39.844,35.878l0,0C362.92,360.925,361.312,361.014,359.707,361.014z M358.604,273.109     c-7.268,0-14.498,1.809-20.939,5.436c-17.891,10.074-25.862,32.97-18.146,52.125c6.885,17.222,26.08,28.604,44.6,26.509l0,0     c22.532-2.558,33.751-18.749,36.738-33.049c3.781-18.112-4.11-35.797-20.104-45.055     C373.903,275.102,366.23,273.109,358.604,273.109z"/>
		</g>
		<g>
			<g>
				<path style="fill:#FF8EDE;" d="M323.171,383.345c-18.845,2.141-38.292-9.027-45.94-26.371c-0.182-0.411-0.358-0.83-0.526-1.249      c-8.013-19.889,0.069-43.739,18.929-54.358c14.229-8.013,31.437-7.252,44.866,0.541c6.33,3.664,11.822,8.897,15.76,15.509      C372.493,344.641,355.651,379.658,323.171,383.345z"/>
				<path style="fill:#FC09B2;" d="M357.75,337.925c0.926,22.798-16.752,40.593-38.299,41.199c-35.541,1-53.538-41.34-29.53-66.387      C313.908,287.713,356.359,303.692,357.75,337.925z"/>
				<g>
					<path style="fill:#FF8EDE;" d="M293.612,323.038c-9.355-12.885,30.69-29.05,49.726-3.914c3.227,4.262,1.817,9.566-2.586,12.272       C326.703,340.029,303.504,336.662,293.612,323.038z"/>
					<path style="fill:#FF8EDE;" d="M345.079,339.128c2.302,0.383,4.287,1.438,6.034,2.878c9.838,8.106-13.639,31.583-27.744,33.49       c-12.699,1.717-13.126-13.447-6.188-24.153C323.207,342.044,336.622,337.719,345.079,339.128z"/>
					<path style="fill:#FF8EDE;" d="M294.712,366.756c-6.881-4.181-13.078-16.156-11.751-28.365c0.563-5.181,5.841-9.738,12.2-6.97       c7.02,3.056,14.56,9.145,16.093,16.578C311.94,351.324,303.862,372.315,294.712,366.756z"/>
				</g>
				<g>
					<g>
						<g>
							<path style="fill:#FC09B2;" d="M337.438,318.016c0.35-0.332,0.865-0.545,1.354-0.536c0.485,0.011,0.973,0.219,1.303,0.625         c0.676,0.821,0.393,2.053-0.44,2.62c-0.406,0.285-1.259,0.63-2.11,0.887c-0.844,0.246-1.627,0.377-1.882,0.062         c-0.256-0.315,0.04-1.044,0.464-1.806C336.546,319.113,337.078,318.357,337.438,318.016z"/>
						</g>
						<g>
							<path style="fill:#FC09B2;" d="M332.731,314.13c0.516-0.822,1.789-1.248,2.604-0.575c0.834,0.645,0.856,1.91,0.209,2.644         c-0.319,0.372-1.089,0.953-1.84,1.396c-0.754,0.441-1.48,0.75-1.802,0.498C331.304,317.58,332.213,314.976,332.731,314.13z"/>
						</g>
						<g>
							<path style="fill:#FC09B2;" d="M327.275,311.426c0.167-0.46,0.521-0.854,0.966-1.084c0.441-0.226,0.984-0.318,1.443-0.078         c0.945,0.45,1.246,1.687,0.786,2.551c-0.474,0.857-2.393,2.99-3.106,2.644c-0.364-0.199-0.463-0.925-0.433-1.785         C326.96,312.824,327.107,311.886,327.275,311.426z"/>
						</g>
						<g>
							<path style="fill:#FC09B2;" d="M321.366,309.971c0.117-0.972,1.073-1.829,2.105-1.672c1.013,0.248,1.573,1.402,1.312,2.345         c-0.275,0.942-1.681,3.423-2.453,3.232C321.539,313.767,321.261,310.944,321.366,309.971z"/>
						</g>
						<g>
							<path style="fill:#FC09B2;" d="M315.277,309.831c-0.103-0.974,0.643-2.007,1.691-2.068c0.518-0.05,0.987,0.242,1.31,0.617         c0.324,0.382,0.504,0.88,0.485,1.369c-0.019,0.49-0.26,1.413-0.575,2.209c-0.318,0.799-0.7,1.45-1.11,1.496         C316.289,313.507,315.392,310.804,315.277,309.831z"/>
						</g>
						<g>
							<path style="fill:#FC09B2;" d="M309.302,311.09c-0.334-0.921,0.155-2.089,1.173-2.381c1.011-0.326,2.037,0.542,2.21,1.497         c0.094,0.48,0.068,1.431-0.054,2.272c-0.132,0.821-0.324,1.636-0.718,1.738C311.164,314.434,309.648,312.007,309.302,311.09z         "/>
						</g>
						<g>
							<path style="fill:#FC09B2;" d="M303.826,313.825c-0.575-0.828-0.398-2.084,0.533-2.605c0.458-0.261,0.989-0.279,1.445-0.114         c0.457,0.162,0.863,0.553,1.068,0.988c0.214,0.451,0.408,1.346,0.517,2.223c0.102,0.874,0.102,1.669-0.248,1.869         c-0.35,0.2-1.019-0.213-1.701-0.756C304.756,314.874,304.105,314.24,303.826,313.825z"/>
						</g>
					</g>
					<g>
						<g>
							<path style="fill:#FC09B2;" d="M343.669,353.385c-0.861-0.467-1.458-1.572-1.108-2.35c0.185-0.397,0.473-0.706,0.925-0.883         c0.436-0.179,0.966-0.244,1.441-0.122c0.474,0.122,1.317,0.56,1.986,1.161c0.653,0.586,1.198,1.385,0.938,1.939         c-0.243,0.562-1.092,0.781-1.965,0.754C345.009,353.862,344.104,353.609,343.669,353.385z"/>
						</g>
						<g>
							<path style="fill:#FC09B2;" d="M339.886,358.45c-0.676-0.708-0.864-1.957-0.249-2.612c0.569-0.683,1.782-0.716,2.599-0.155         c0.398,0.284,1.028,0.998,1.445,1.79c0.411,0.777,0.642,1.685,0.235,2.114c-0.4,0.435-1.262,0.351-2.079,0.041         C341.015,359.322,340.23,358.799,339.886,358.45z"/>
						</g>
						<g>
							<path style="fill:#FC09B2;" d="M334.798,362.316c-0.485-0.851-0.335-2.104,0.454-2.592c0.737-0.551,1.955-0.233,2.573,0.528         c0.303,0.384,0.706,1.247,0.894,2.117c0.19,0.866,0.162,1.754-0.311,2.089C337.4,365.091,335.272,363.173,334.798,362.316z"/>
						</g>
						<g>
							<path style="fill:#FC09B2;" d="M328.938,364.92c-0.286-0.948,0.155-2.095,1.022-2.43c0.857-0.365,1.98,0.231,2.404,1.113         c0.437,0.876,0.704,3.753-0.39,4.211c-0.531,0.223-1.257-0.29-1.837-0.941C329.551,366.215,329.086,365.387,328.938,364.92z"/>
						</g>
						<g>
							<path style="fill:#FC09B2;" d="M322.665,366.098c-0.025-0.489,0.148-0.993,0.428-1.381c0.282-0.397,0.668-0.634,1.126-0.729         c0.902-0.152,1.853,0.712,2.064,1.645c0.101,0.484,0.08,1.442-0.143,2.293c-0.218,0.856-0.645,1.621-1.221,1.711         c-0.572,0.11-1.171-0.578-1.575-1.35C322.933,367.504,322.691,366.586,322.665,366.098z"/>
						</g>
					</g>
					<g>
						<g>
							<path style="fill:#FC09B2;" d="M288.222,341.237c-0.981,0.023-1.974-0.867-1.956-1.945c0.02-1.068,1.023-1.877,2.001-1.859         c0.979,0.018,3.707,0.988,3.689,2C291.939,340.426,289.2,341.203,288.222,341.237z"/>
						</g>
						<g>
							<path style="fill:#FC09B2;" d="M289.159,347.995c-0.931,0.305-2.171-0.341-2.401-1.533c-0.239-1.188,0.655-2.232,1.63-2.32         c0.487-0.052,1.439,0.078,2.281,0.301c0.858,0.223,1.585,0.529,1.681,0.958c0.076,0.436-0.481,0.964-1.194,1.479         C290.457,347.384,289.629,347.852,289.159,347.995z"/>
						</g>
						<g>
							<path style="fill:#FC09B2;" d="M292.097,354.162c-0.809,0.551-2.159,0.311-2.726-0.724c-0.574-1.03-0.058-2.301,0.839-2.693         c0.447-0.204,1.387-0.378,2.261-0.432c0.881-0.052,1.677,0.014,1.903,0.411c0.215,0.403-0.157,1.092-0.684,1.793         C293.173,353.208,292.506,353.893,292.097,354.162z"/>
						</g>
						<g>
							<path style="fill:#FC09B2;" d="M296.597,359.294c-0.622,0.751-1.99,0.887-2.827,0.044c-0.837-0.842-0.681-2.209,0.077-2.825         c0.375-0.316,1.233-0.734,2.064-1.025c0.827-0.28,1.619-0.443,1.936-0.12c0.324,0.315,0.133,1.097-0.17,1.903         C297.367,358.077,296.915,358.922,296.597,359.294z"/>
						</g>
					</g>
					<path style="fill:#FC09B2;" d="M310.694,328.341c2.105-0.991,3.827-4.032,6.069-3.64c1.82,0.318,2.44,1.85,3.409,3.188       c2.041,2.819,8.264,5.483,10.831,1.886c4.713-6.604-10.598-17.333-21.138-12.293c-3.424,1.637-7.854,5.325-4.914,9.381       C306.204,328.592,308.747,329.257,310.694,328.341z"/>
					<path style="fill:#FC09B2;" d="M330.568,344.443c-0.55,1.801,0.338,4.486-1.115,5.618c-1.18,0.919-2.435,0.458-3.764,0.312       c-2.8-0.308-7.778,1.976-7.016,5.47c1.399,6.415,16.152,3.064,18.858-5.996c0.879-2.943,1.075-7.603-2.955-8.044       C332.857,341.615,331.077,342.778,330.568,344.443z"/>
					<path style="fill:#FC09B2;" d="M307.356,348.893c-1.283-0.75-3.508-0.557-4.113-1.88c-0.776-1.699,0.808-3.634,0.675-5.382       c-0.126-1.654-1.269-3.917-3.154-3.95c-5.182-0.093-5.293,11.851,1.174,15.578c2.101,1.211,5.645,2.209,6.717-0.806       C309.113,351.166,308.543,349.587,307.356,348.893z"/>
				</g>
				<path style="opacity:0.25;fill:#000E3F;" d="M323.171,383.345c-18.845,2.141-38.292-9.027-45.94-26.371      c-0.182-0.411-0.358-0.83-0.526-1.249c0.007-0.016,0.015-0.023,0.023-0.038c4.905-8.158,15.174-11.693,24.749-7.83      c8.707,3.519,17.848,8.501,23.476,0.876c6.787-9.186,1.63-18.632,2.415-28.009c0.739-8.943,4.73-16.073,13.133-18.815      c6.33,3.664,11.822,8.897,15.76,15.509C372.493,344.641,355.651,379.658,323.171,383.345z"/>
			</g>
			<path style="fill:#000E3F;" d="M318.557,385.398c-18.508,0-36.652-11.832-43.518-29.008     c-8.374-20.789,0.286-45.646,19.717-56.586c14.301-8.054,32.177-7.843,46.645,0.553c17.356,10.046,25.92,29.238,21.816,48.892     c-3.242,15.526-15.412,33.105-39.844,35.878l0,0C321.769,385.31,320.162,385.398,318.557,385.398z M317.453,297.494     c-7.268,0-14.498,1.809-20.939,5.436c-17.891,10.074-25.862,32.97-18.146,52.125c6.885,17.222,26.08,28.604,44.6,26.509l0,0     c22.533-2.558,33.751-18.748,36.738-33.048c3.781-18.112-4.11-35.797-20.104-45.055     C332.753,299.486,325.079,297.494,317.453,297.494z"/>
		</g>
	</g>
</g>















</svg>
