<svg id="Vegetables" height="512" viewBox="0 0 1000 1000" width="512" xmlns="http://www.w3.org/2000/svg"><g><path d="m925.841 482.354c-19.625-16.163-43.998-25.609-71.295-27.625-10.438-13.03-26.833-20.378-46.646-20.581 4.979-16.157 14.234-33.394 21.652-47.207 1.696-3.16 3.313-6.173 4.803-9.016 7.986-15.271 24.604-47.044-8.309-69.913-8.123-5.648-20.767-12.379-34.851-12.379-5.336 0-10.426.977-15.008 2.854-9.1 3.414-15.906 10.371-22.762 23.276-3.674 6.917-7.758 15.714-11.756 24.76-22.123-44.045-57.464-78.082-100.773-96.038-27.861-11.554-55.477-18.212-80.252-19.388-16.406-9.328-34.996-14.419-52.931-14.419-1.441 0-2.875.032-4.307.097-3.989-17.544-9.128-33.388-15.569-48.045-17.313-39.383-46.95-76.173-85.568-106.283-.187-.144-.999-.775-1.217-.938-18.154-13.467-37.229-20.296-56.695-20.296-14.74 0-29.596 3.95-44.149 11.74-14.605 7.816-22.363 17.89-23.062 29.943-1.11 19.198 15.599 30.802 29.023 40.125l2.444 1.699c37.07 26.722 63.234 57.397 78.109 91.515-5.437-.58-11.172-.87-17.205-.87-4.45 0-9.063.161-13.705.483-33.059 2.282-66.502 16.453-90.377 38.123-26.479 8.619-51.112 22.246-73.283 40.551-71.442 58.993-106.297 161.793-87.782 254.839-30.183 16.488-54.808 42.38-71.81 75.697-22.269 43.652-27.711 96.463-15.316 148.703 12.467 52.54 40.465 89.723 79.164 105.413 2.834 3.416 5.639 6.563 8.498 9.543 24.034 25.025 68.959 51.962 110.793 51.962 8.802 0 17.163-1.211 24.916-3.602 11.782 7.234 25.155 12.793 40.692 16.926 11.758 3.129 24.654 4.783 37.295 4.783 24.787 0 47.277-6.313 64.123-17.994 6.35 1.295 12.932 1.949 19.642 1.949 24.975 0 52.122-9.15 76.45-25.766 1.781-1.217 2.707-1.78 3.164-2.037.127-.007.263-.012.4-.019 40.778-1.592 78.565-26.964 109.272-73.372 8.664-13.101 15.301-27.023 19.842-41.608 15.656 6.346 31.101 9.458 46.72 9.458.764 0 1.528-.007 2.299-.022 2.065 1.514 4.153 2.938 6.297 4.291 15.52 9.812 33.623 14.998 52.354 14.998 9.63 0 19.002-1.374 27.961-4.09 12.794 3.717 26.056 5.599 39.507 5.599 25.268 0 49.477-6.586 70.396-19.103 51.006-2.59 86.217-50.747 99.217-71.777 25.304-40.95 36.658-89.798 31.972-137.541-4.615-47.034-27.353-90.556-62.377-119.398z" fill="#fff"/><g><path d="m913.396 497.469c-20.377-16.778-44.955-23.634-69.975-23.565-.045-.13-.031-.254-.095-.388-10.15-21.52-38.349-23.208-58.497-15.842-1.521-29.902 19.945-65.456 32.175-88.824 8.828-16.881 16.086-32.1-2.134-44.76-9.901-6.883-21.924-11.309-31.377-7.434-1.795.735-5.981 1.506-12.772 14.288-9.443 17.789-22.463 50.372-28.076 63.171-.576 1.312-1.094 2.645-1.654 3.963-.928-2.37-1.926-4.716-2.985-7.034-.015-.276.018-.537-.072-.841-15.908-53.712-52.246-99.953-104.531-121.631-23.863-9.894-51.535-17.663-78.469-18.067-19.613-12.496-44.438-17.965-67.083-11.533-3.66-21.455-9.232-42.561-17.936-62.362-17.095-38.889-46.492-72.844-79.826-98.834-.122-.097-.258-.114-.384-.193-.116-.109-.18-.245-.313-.346-25.244-18.727-51.953-21.997-79.939-7.019-26.911 14.403-5.356 27.409 10.617 38.619 46.174 33.282 82.49 76.434 95.672 132.878.307 1.3.559 2.606.811 3.912-16.389-10.638-41.326-11.492-59.383-10.244-29.543 2.039-60.104 15.039-81.313 35.67-.071.07-.09.15-.151.223-25.853 7.785-49.729 20.72-71.076 38.347-71.359 58.924-101.356 161.566-77.795 249.933.063.229.192.373.283.568-33.718 14.122-60.05 40.406-77.107 73.837-21.271 41.69-24.379 90.3-13.707 135.282 9.439 39.783 31.697 79.606 71.993 93.48 3.398 4.322 6.962 8.495 10.739 12.432 25.676 26.733 80.021 56.457 118.559 42.282 4.354-1.601 5.969-1.862 9.278.376 11.513 7.8 24.814 13.366 39.478 17.27 27.385 7.285 64.688 5.951 88.021-12.443 3.352-2.633 4.971-2.854 7.865-2.073 28.771 7.771 60.71-2.797 85.54-19.756 6.157-4.208 8.626-5.247 13.847-5.453 40.705-1.59 72.15-32.031 93.707-64.608 12.484-18.875 19.752-38.933 22.568-59.549 21.029 12.657 43.695 20.436 68.691 18.255.071-.007.116-.045.184-.055 3.275 2.75 6.756 5.344 10.512 7.718 20.644 13.052 47.316 15.619 69.812 6.755.221.131.393.293.662.383 34.282 11.54 73.241 7.33 103.497-12.674 37.786.908 70.104-33.073 88.342-62.58 23.008-37.233 33.406-81.907 29.143-125.334-4.037-41.041-23.438-79.923-55.346-106.2z" fill="#68182b"/><path d="m835.752 474.132c-11.246.657-22.505 2.651-33.441 5.734-8.355 2.354-8.807 4.077-12.287-2.475-2.135-4.026-3.557-8.285-4.381-12.71 16.123-6.746 40.057-6.51 50.109 9.451z" fill="#ff801d"/><path d="m739.37 420.047c10.572-27.499 23.976-53.747 35.728-80.735 3.129-7.198 7.959-16.04 13.861-17.029 7.153-1.203 15.567 3.6 22.422 7.773 7.094 4.313 10.694 10.314.172 8.84-7.691-1.073-14.877-2.638-22.435-4.317-.395-.088-.764.418-.422.722 4.861 4.279 11.49 5.725 17.688 7.117 2.028.454 4.608 1.18 7.174 1.511 7.02.904 6.729 1.041 4.416 7.756-2.42 7.016-7.088 13.964-9.799 19.149-9.791 18.716-18.427 37.893-24.785 58.049-4.916 15.581-8.51 30.896-2.096 46.361 3.286 7.933 18.698 25.558-4.371 26.916-11.002.646-22.486-5.673-33.547-6.494-11.019-.818-22.121-.349-33.086-1.871-10.31-1.43-8.339-8.257-3.563-15.029 1.678-1.806 3.271-3.72 5.078-5.365 3.963-3.599 8.572-6.489 12.856-9.677 6.197-4.603 13.789-12.136 13.285-20.505-.01-.188-.229-.235-.332-.091-2.889 3.98-4.809 8.165-8.393 11.689-1.623 1.594-3.4 3.044-5.228 4.438 7.863-11.322 10.548-26.643 15.377-39.208z" fill="#a98053"/><path d="m515.538 428.331c-2.686-30.973-6.89-66.452-24.128-93.309.424-.074.863-.112 1.281-.193 9.999-1.929 21.857-5.326 27.08-14.326 31.502 6.011 53.525 21.437 75.055 44.609 21.156 22.768 34.113 50.658 40.931 80.64 1.521 6.655 2.012 7.045-6.224 8.029-10.602 1.267-21.069 4.075-30.889 7.687-37.826 13.908-64.91 44.496-80.254 80.813-2.488-1.626-5.029-3.181-7.602-4.678 7.285-36.754 7.98-72.007 4.75-109.272z" fill="#ff801d"/><path d="m278.696 563.469c-3.237-4.805-3-3.46-2.59 1.291.629 7.191-4.336 5.444-6.054 1.621-5.198-11.606-11.247-22.811-16.001-34.638-5.811-14.479-7.326-30.627-11.963-45.533-7.673-24.659-21.664-51.259-38.476-70.732-1.934-1.982-3.706-4.104-5.393-6.301 4.771.167 9.943-1.813 14.139-3.351 4.629-1.697 10.331-3.962 12.765-8.506.112-.212-.08-.562-.347-.45-6.245 2.572-11.563 5.505-18.411 6.384-5.052.647-8.729-1.119-9.939-3.715-2.55-5.441 21.93-24.101 39.783-10.09 1.412 1.111 2.843 2.429 4.317 3.97 14.923 15.578 27.965 33.019 40.242 50.709 23.498 33.84 46.627 73.453 52.924 114.945.347 2.28.797 7.898 2.703 15.823 1.529 6.342 2.883 6.783 2.779-.024-.019-1.191-.081-2.388-.068-3.472 7.881 2.667 10.119 7.088 8.834 11.408-3.018 10.153-16.397 12.822-27.188 13.725-3.984.335-7.99.435-11.904.506-8.086.148-16.193-.798-24.154-2.108-10.133-1.671-26.8-7.309-13.235-18.476 2.393-1.599 4.844-3.016 6.772-5.222 2.488-2.846 2.043-5.419.465-7.764z" fill="#a98053"/><path d="m244.727 524.098c.015 0 .023-.007.037-.007 1.322 5.021 2.833 10.004 4.813 14.929 3.643 9.064 8.307 17.663 12.498 26.487 2.579 5.438 3.614 7.773-3.193 2.771-24.785-18.25-55.07-22.709-85.271-19.522 19.286-18.254 44.304-25.448 71.116-24.658z" fill="#ff801d"/><path d="m199.292 524.479c.283-27.248 2.485-54.184 8.68-80.633 2.793-11.974 4.269-5.367 8.445 1.852 9.828 16.978 17.455 35.878 22.281 53.55 1.637 5.993 2.944 11.979 4.356 17.929-15.313-.267-30.159 2.016-43.762 7.302z" fill="#ff801d"/><path d="m233.835 380.754c17.778-27.996 40.635-51.841 70.793-66.475 20.521-9.96 61.006-19.525 82.854-6.735.095.825.278 1.673.67 2.566.927 2.109 2.149 4.007 3.58 5.747-23.61 15.935-39.167 46.077-52.295 70.348-12.736 23.559-23.886 50.567-29.866 77.426-1.746 7.803-1.947 7.659-5.653 1.597-15.557-25.464-34.099-49.129-52.33-69.832-6.302-7.152-11.897-11.966-17.753-14.642z" fill="#ff801d"/><path d="m321.244 497.174c18.418-9.748 48.077-8.405 66.282 3.176-17.45 6.156-32.479 18.245-44.011 32.792-5.006 6.314-5.959 8.979-8.9-1.017-3.484-11.842-8.013-23.519-13.371-34.951z" fill="#ff801d"/><path d="m340.882 550.51c.735-2.41 2.141-5.067 4.537-8.428 11.858-16.622 27.563-29.07 47.465-36.017 20.746-7.243 54.593-5.52 70.311 12.694-5.373-1.202-10.766-2.131-16.148-2.725-37.801-4.165-72.083 15.046-100.764 37.854-5.015 3.993-7.966 5.028-5.401-3.378z" fill="#ff801d"/><path d="m400.902 496.877c-1.704.274-3.386.621-5.055 1.008-20-15.743-55.102-18.688-77.655-6.896-1.597-3.209-3.248-6.395-4.961-9.561 4.16-31.551 17.738-63.682 32.174-91.736 12.144-23.6 28.612-54.408 51.44-68.974 9.926 7.574 24.7 10.659 35.628 12.353 15.84 2.458 34.57 4.566 51.337 2.971 18.732 27.327 22.429 64.691 25.208 96.732 2.985 34.47 1.97 67.324-4.592 101.298-9.937-5.234-20.356-9.484-30.983-12.624-.041-.083-.031-.162-.076-.245-13.205-24.281-48.017-28.267-72.465-24.326z" fill="#ff801d"/><path d="m600.481 468.128c17.08-7.159 36.293-9.755 54.578-6.886 7.291 1.143 14.387 3.913 21.287 6.411 3.363 1.217 8.576 2.544 13.42 4.336 10.647 3.945 7.848 5.869 6.521 12.657-25.289-8.64-57.301-.685-80.639 9.938-33.154 15.086-52.555 40.701-66.869 73.207-7.332-7.931-15.639-15.158-24.623-21.566 14.639-35.892 40.319-63.001 76.325-78.097z" fill="#ff801d"/><path d="m662.309 455.813c-1.82-.521-3.656-.957-5.5-1.314-4.83-.947-8.793-1.84-1.016-4.802 18.227-6.955 38.522-8.272 56.202-.188 9.115 4.162 6.367 6.82 1.285 11.942-1.483 1.493-3.026 2.94-4.547 4.397-4.006 3.834-4.412 5.183-10.924 1.47-10.449-5.959-26.285-8.866-35.5-11.505z" fill="#ff801d"/><path d="m728.694 428.79c-2.063 5.507-3.729 12.429-6.143 18.597-23.976-15.341-54.525-12.256-79.297.337-13.103-62.052-56.722-121.219-121.154-133.809.5-3.198-.197-6.105-1.689-8.743 45.902-15.808 92.771-11.333 135.795 11.131 35.009 18.281 68.824 53.188 80.818 91.25-2.869 7.044-5.662 14.115-8.33 21.237z" fill="#ff801d"/><path d="m631.565 275.233c39.236 15.556 69.025 47.53 87.289 84.999-16.221-20.48-37.328-37.622-59.162-49.893-42.432-23.848-92.33-27.771-138.162-12.863-4.457 1.453-5.393 2.096-8.903-.409-6.135-4.394-13.916-7.573-19.389-9.685-.403-6.663-.059-12.127 4.764-15.32 39.362-26.135 92.532-13.093 133.563 3.171z" fill="#ff801d"/><path d="m541.34 250.93c-14.888 1.275-29.273 5.234-42.382 12.736-5.515 3.162-7.15 5.151-7.749-.427-.612-5.817-1.322-11.631-2.199-17.428 17.413-5.124 36.059-2.487 52.33 5.119z" fill="#ff801d"/><path d="m323.557 102.873c-1.381-.967-2.779-1.911-4.184-2.84-4.357-2.878-5.41-3.452-.095-4.877 10.039-2.699 20.377-7.799 24.813-17.286.094-.197-.142-.4-.312-.238-6.418 6.13-14.188 9.604-22.717 11.685-11.661 2.847-23.224-2.197-9.713-11.768 5.004-3.544 11.729-6.273 15.561-7.67 21.3-7.756 41.56.477 58.677 13.098 31.364 24.538 59.116 55.983 76.172 92.14 15.371 32.59 21.527 69.592 24.108 105.455.463 6.287-.854 5.771-2.852 2.896-2.612-3.737-2.869-9.182-4.34-13.688-.076-.236-.408-.243-.485 0-2.734 8.826-.288 18.849 8.434 22.918 3.144 1.469 6.327 2.411 9.452 3.637 11.259 5.814 26.014 16.824 11.601 26.512-7.247 4.87-17.549 5.592-25.906 6.251-12.399.98-25.455-.843-37.827-1.711-4.713-.328-63.442-12.341-45.261-24.758 5.671-3.875 13.015-5.691 19.811-7.471-.603 3.138-1.134 6.294-.882 9.422.027.333.378.484.645.268 6.313-5.155 7.011-22.468 7.209-26.705 3.369-72.412-45.418-134.551-101.909-175.27z" fill="#a98053"/><path d="m349.835 243.199c20.03-3.538 52.86-2.684 68.188 12.417.957 9.235.903 18.554.278 27.841-.473 6.943-3.478 4.578-5.419 2.814-26.603-24.08-65.58-26.034-99.706-22.493-7.533.783-14.938 1.968-22.198 3.542 17.143-12.865 37.643-20.375 58.857-24.121z" fill="#ff801d"/><path d="m202.053 321.129c27.396-26.116 61.641-41.891 98.594-48.637 35.03-6.393 79.279-6.391 107.271 18.727-.572.178-1.14.342-1.75.573-4.201 1.583-12.252 4.522-16.309 9.097-23.085-12.838-60.979-3.668-83.245 5.043-34.247 13.397-60.553 42.131-79.661 72.706-7.476-1.264-14.116-1.567-25.095 3.036-19.456 8.156-14.469 26.608-3.131 38.688 2.123 2.455 4.164 5.055 6.162 7.724-9.463 32.464-12.368 65.711-12.557 99.43-10.687 5.153-20.474 12.308-28.914 21.771-.26.292-.392.605-.535.917-3.373.549-6.736 1.153-10.078 1.866-6.679 1.426-13.104 3.333-19.325 5.595-22.589-84.783 5.367-176.293 68.573-236.536z" fill="#ff801d"/><path d="m42.96 767.405c-11.146-41.431-6.314-85.504 10.528-124.662 16.923-39.36 49.064-68.111 89.707-80.983 36.865-11.67 80.457-11.229 112.082 12.418 7.232 5.407 2.824 3.582-1.069 2.781-40.713-8.355-85.07 8.785-116.332 34.104-38.138 30.888-61.168 76.765-66.861 125.062-4.713 39.977 6.854 82.152 29.439 115.84-32.133-15.955-48.352-50.576-57.494-84.56z" fill="#ff801d"/><path d="m231.1 912.396c-39.112 11.422-91.259-23.703-114.807-50.408-29.765-33.755-42.01-81.838-38.371-125.864 3.553-43.026 25.68-83.269 56.463-112.767 29.646-28.402 76.109-48.04 117.781-39.735 4.951.983 4.434 1.47 5.606 4.362.541 1.338 1.463 2.566 2.695 3.698 3.035 2.774 3.256 2.641-.567 5.182-21.38 14.209-35.564 42.354-45.801 64.103-16.658 35.391-22.797 76.594-22.896 115.429-.09 35.044 7.889 70.733 22.644 102.475 5.091 10.944 11.621 20.08 19.36 27.724 3.503 3.461 2.936 4.324-2.107 5.801z" fill="#ff801d"/><path d="m288.18 928.42c-69.591-15-88.727-89.715-90.066-152.023-.737-34.262 5.773-69.389 17.589-101.473 8.239-22.388 24.331-55.865 46.151-71.277 8.985-6.347 11.369-5.271 19.297-3.611 15.761 3.297 34.715 3.808 41.678 3.119 1.094-.107 2.208-.233 3.332-.383 12.603-1.659 9.17-2.239 16.349 5.828 19.344 21.726 29.836 54.763 37.603 81.109 9.477 32.146 10.321 67.694 12.003 100.972 1.701 33.611 2.941 67.653-6.35 100.362-12.009 42.268-61.022 45.258-97.586 37.377z" fill="#ff801d"/><path d="m391.228 915.271c-5.733-.867-7.286-1.849-4.538-6.284 15.961-25.693 14.146-67.843 13.285-94.673-1.285-40.105-2.963-81.111-11.639-120.416-4.236-19.194-12.498-37.499-20.525-55.35-5.479-12.189-11.055-23.62-19.262-33.465-4.197-5.025-5.15-6.146-.207-9.855 2.973-2.232 5.414-5.098 6.983-8.818 2.576-6.119 3.08-7.466 9.075-8.075 45.819-4.67 77.786 26.979 102.507 63.484 25.304 37.36 45.434 77.296 50.496 122.681 4.521 40.51-6.979 84.605-34.705 115.005-21.213 23.254-58.977 40.677-91.47 35.766z" fill="#ff801d"/><path d="m571.885 823.232c-17.502 29.426-45.355 57.759-79.769 64.002-6.589 1.192-7.718.605-3.499-3.782 29.484-30.746 38.916-77.869 35.695-118.952-4.096-52.295-31.706-99.285-61.699-140.859-22.747-31.537-54.391-53.581-92.379-52.544-8.734.236-8.001-.263-3.867-1.946 88.185-35.913 186.089 45.577 215.971 125.313 16.389 43.733 13.397 88.686-10.453 128.768z" fill="#ff801d"/><path d="m588.997 692.628c-29.569-86.394-138.589-169.604-230.591-127.609-5.131 2.351-9.098 3.799-12.094 2.097-1.803-1.018-2.293-2.543.887-5.144 27.461-22.478 58.002-39.901 94.668-39.352 40.927.613 81.623 26.932 107.833 56.697 21.662 24.603 40.054 54.263 47.658 86.34 5.221 22.03 10.596 54.834 1.713 78.283-.768-17.02-4.227-34.229-10.074-51.312z" fill="#ff801d"/><path d="m598.758 763.596c.143-1.725.196-3.458.276-5.188.279-.221.56-.438.787-.771 16.654-24.396 10.313-62.815 5.051-89.838-6.916-35.534-27.782-65.815-50.288-93.367-.261-.32-.55-.627-.818-.945 12.412-28.938 28.481-53.377 56.729-68.82 20.013-10.942 48.58-19.51 72.793-16.002 15.902 2.303 10.33 2.829 17.521 8.457-49.732 24.891-65.881 83.687-72.613 135.309-6.459 49.479-5.112 112.661 31.453 150.368-22.125.267-42.039-7.418-60.891-19.203z" fill="#ff801d"/><path d="m668.768 782.448c-42.883-35.787-40.266-108.524-32.426-158.098 6.908-43.721 20.535-91.202 58.551-115.985 11.998-7.825 14.691-6.308 26.443-6.118 5.748.092 11.514-.269 16.28-.104 24.797.856 32.941 7.842 38.935 18.446 28.77 50.898 24.149 121.014 18.153 176.083-3.372 30.994-9.926 65.68-32.077 89.074-25.248 26.661-68.527 17.847-93.859-3.298z" fill="#ff801d"/><path d="m854.935 780.294c-25.411 23.548-66.228 28.057-98.843 19.263.252-.142.512-.264.764-.408 26.045-15.242 35.336-49.399 40.891-76.698 8.136-39.945 9.574-82.727 6.216-123.237-2.5-30.187-9.205-63.786-26.07-89.744 1.588-.129 3.143-.367 4.645-.801 15.826-4.558 11.586-7.868 25.037-5.001 75.528 16.089 105.989 111.745 95.825 180.729-5.08 34.437-22.768 72.086-48.465 95.897z" fill="#ff801d"/><path d="m939.24 715.404c-14.274 28.521-43.494 63.213-77.785 68.506 28.05-24.402 44.195-67.779 49.354-102.798 10.941-74.201-27.516-173.218-109.228-185.411-6.408-.96-11.937-4.963 1.235-8.802 34.922-10.183 70.614-8.355 102.016 12.731 34.012 22.844 52.043 64.694 56.993 104.034 4.905 38.963-5.232 77.077-22.585 111.74z" fill="#ff801d"/><path d="m363.74 505.078c-1.293 1.462-2.631 2.878-4.016 4.255-2.109 2.16-4.184 4.25-5.957 6.71-3.502 4.861-6.627 9.902-8.813 15.387 11.337-13.769 25.821-25.171 42.571-31.08-6.667-4.24-14.877-7.095-23.503-8.548 4.38 4.659 4.358 9.089-.282 13.276z" fill="#ee6200"/><path d="m398.86 515.793c-19.201 5.754-38.08 17.877-48.841 35.191 27.906-21.497 60.849-38.937 97.025-34.948 5.384.594 10.775 1.521 16.148 2.725-2.543-2.946-5.599-5.419-8.958-7.535-17.828-4.448-38.807-.398-55.374 4.567z" fill="#ee6200"/><path d="m216.417 445.697c-4.179-7.219-5.652-13.824-8.445-1.852-6.193 26.449-8.396 53.385-8.68 80.633 5.221-2.027 10.629-3.605 16.174-4.775-.564-16.127 3.979-34.513 13.526-48.516-3.644-8.706-7.849-17.322-12.575-25.49z" fill="#ee6200"/><path d="m338.244 315.505c14.999-4.313 34.914-10.661 50.309-4.644-.126-.257-.286-.488-.4-.751-.392-.894-.575-1.741-.67-2.566-21.849-12.79-62.333-3.225-82.854 6.735-30.158 14.634-53.015 38.479-70.793 66.475 5.855 2.676 11.451 7.49 17.752 14.642 2.942 3.344 5.894 6.79 8.84 10.282 2.408-22.088 10.22-43.453 24.506-60.788 13.22-16.048 33.946-23.816 53.31-29.385z" fill="#ee6200"/><path d="m586.37 487.657c29.404-18.977 64.109-21.825 97.785-17.534-2.951-.916-5.742-1.721-7.811-2.47-6.9-2.498-13.996-5.27-21.287-6.411-18.285-2.869-37.498-.273-54.578 6.886-36.006 15.096-61.686 42.205-76.324 78.099 5.3 3.78 10.328 7.877 15.095 12.203 3.112-30.622 21.004-53.916 47.12-70.773z" fill="#ee6200"/><path d="m258.882 568.276c.123.093.201.138.32.226-8.859-12.232-22.951-20.238-37.275-24.459-9.579-2.824-24.104-6.256-36.006-4.839-4.293 2.795-8.443 5.892-12.31 9.55 30.2-3.187 60.485 1.272 85.271 19.522z" fill="#ee6200"/><path d="m494.82 275.517c-1.745 3.126-1.866 7.188-1.583 11.866 5.474 2.111 13.254 5.291 19.389 9.685 3.512 2.505 4.446 1.862 8.903.409 45.832-14.908 95.73-10.984 138.162 12.863 18.246 10.254 35.943 23.948 50.748 40.111-8.258-12.543-20.4-23.926-30.725-33.047-15.892-14.04-34.806-24.294-54.836-31.038-22.783-7.67-47-8.842-70.771-6.631-12.702 1.183-53.002 13.353-59.287-4.218z" fill="#ee6200"/><path d="m518.391 542.28c8.731-20.668 21.279-39.467 37.43-54.404-9.646 1.813-17.151-5.726-19.924-14.36-2.42-7.536-2.02-16.16-1.975-23.99.088-15.926-1.771-31.708-5.306-47.235-3.442-15.122-9.491-29.248-16.846-42.83-4.358-8.059-9.954-17.123-18.472-21.29 15.635 26.444 19.658 60.377 22.239 90.162 3.229 37.265 2.535 72.518-4.749 109.271 2.574 1.497 5.115 3.05 7.603 4.676z" fill="#ee6200"/><path d="m481.615 628.091c-15.793-19.709-35.668-32.853-57.971-41.969 14.873 9.275 27.969 22.269 38.969 37.519 29.993 41.574 57.604 88.564 61.699 140.859 3.221 41.083-6.211 88.206-35.695 118.952-4.219 4.389-3.09 4.976 3.499 3.782 13.275-2.409 25.56-8.127 36.663-15.903 6.176-13.847 7.865-29.806 9.57-44.679 4.33-37.831-.234-76.112-11.787-112.289-9.761-30.568-24.848-61.188-44.947-86.272z" fill="#ee6200"/><path d="m880.06 536.294c-10.383-11.473-22.853-20.51-36.19-28.207-9.731-5.615-20.764-11.108-32.198-10.33 74.755 18.509 109.62 112.286 99.14 183.355-5.158 35.019-21.305 78.396-49.354 102.798 10.12-1.563 19.782-5.731 28.766-11.502 9.119-11.949 15.484-26.339 20.561-40.344 12.646-34.889 14.515-75.08 9.769-111.676-4.088-31.492-19.332-60.708-40.494-84.094z" fill="#ee6200"/><path d="m482.699 879.505c7.396-8.107 13.601-17.213 18.691-26.942-7.011 7.202-16.251 12.438-25.147 16.845-14.351 7.104-36.128 17.464-49.822 4.352-12.076-11.556-8.031-39.179-8.385-54.168-.489-20.663-1.394-41.304-3.158-61.898-2.893-33.729-10.912-67.841-25.638-98.391-8.899-18.469-21.718-44.785-41.237-54.879.186.228.344.42.547.663 8.207 9.845 13.782 21.274 19.262 33.465 8.027 17.851 16.289 36.154 20.525 55.35 8.676 39.305 10.354 80.311 11.639 120.416.859 26.83 2.676 68.979-13.285 94.673-2.748 4.437-1.195 5.417 4.538 6.284 32.492 4.907 70.256-12.516 91.47-35.77z" fill="#ee6200"/><path d="m231.1 912.396c5.043-1.479 5.609-2.342 2.109-5.805-5.222-5.156-9.838-11.059-13.888-17.67-32.771 3.506-64.472-14.771-83.784-42.239-22.306-31.717-29.342-72.76-26.58-110.779 2.969-40.903 21.102-78.856 48.834-108.774 13.03-14.057 28.895-24.773 46.168-32.887 9.636-4.524 21.354-9.917 33.055-12.413-37.414-1.657-76.535 16.528-102.629 41.528-30.783 29.497-52.91 69.739-56.463 112.767-3.639 44.026 8.606 92.108 38.371 125.864 23.549 26.705 75.695 61.83 114.807 50.408z" fill="#ee6200"/><path d="m369.802 247.498c18.989 1.721 34.757 8.367 48.854 18.554-.096-3.485-.272-6.969-.633-10.436-15.328-15.101-48.158-15.955-68.188-12.417-11.136 1.967-22.06 5.005-32.418 9.275 16.991-4.688 34.433-6.604 52.385-4.976z" fill="#ee6200"/><path d="m53.321 699.64c.689-36.476 10.07-71.378 29.48-100.885-12.165 12.487-22.125 27.271-29.313 43.988-16.844 39.158-21.674 83.231-10.528 124.662 9.143 33.982 25.36 68.604 57.494 84.559-10.74-16.02-18.951-33.971-24.146-52.682-19.809-27.517-23.62-66.053-22.987-99.642z" fill="#ee6200"/><path d="m490.19 255.171c.332 2.689.734 5.374 1.02 8.068.599 5.578 2.234 3.589 7.748.427 13.109-7.502 27.496-11.461 42.383-12.736-4.619-2.159-9.441-3.863-14.361-5.158-1.631.274-3.264.573-4.902.938-6.285 1.395-23.101 10.89-31.888 8.461z" fill="#ee6200"/><path d="m854.935 780.294c5.878-5.446 11.313-11.641 16.296-18.333-22.188 18.804-62.168 36.565-62.66-2.734-.156-12.616 4.316-25.005 6.584-37.299 2.813-15.228 5.416-30.472 7.213-45.854 3.793-32.484 1.777-64.48-7.635-95.848-6.371-21.229-15.943-47.099-32.498-63.291 13.642 24.751 19.457 54.889 21.728 82.276 3.358 40.512 1.92 83.292-6.216 123.237-5.555 27.299-14.846 61.456-40.891 76.697-.252.146-.512.269-.764.409 32.614 8.797 73.432 4.288 98.843-19.26z" fill="#ee6200"/><path d="m385.764 891.043c1.074-3.786 1.979-7.594 2.788-11.414-17.09 32.331-56.319 39.619-90.443 26.712-36.294-13.729-58.056-47.229-67.65-83.397-10.385-39.151-7.349-81.506 2.303-120.414 5.695-22.952 14.74-44.862 25.719-65.761 6.404-12.191 14.273-26.729 25.438-36.191-.932-.173-1.854-.352-2.768-.542-7.928-1.659-10.312-2.734-19.297 3.611-21.82 15.412-37.912 48.891-46.151 71.277-11.814 32.084-18.326 67.211-17.589 101.473 1.341 62.31 20.477 137.023 90.066 152.023 36.564 7.881 85.577 4.891 97.584-37.377z" fill="#ee6200"/><path d="m133.482 557.665c6.221-2.262 12.646-4.169 19.325-5.595 2.943-.627 5.91-1.148 8.88-1.645-10.548-10.515-15.081-26.579-18.126-40.683-4.182-19.361-2.803-39.702.197-59.117 6.127-39.669 23.686-78.899 50.721-108.667 25.658-28.252 60.545-46.992 97.346-56.023 22.131-5.431 45.181-6.476 67.849-5.117 13.069.782 31.331 3.546 42.597 12.481 1.466-.596 2.813-1.1 3.899-1.509.61-.231 1.178-.396 1.75-.573-27.992-25.117-72.241-25.119-107.271-18.727-36.953 6.746-71.196 22.521-98.594 48.637-63.208 60.245-91.164 151.755-68.573 236.538z" fill="#ee6200"/><path d="m669.868 487.9c-20.799.43-42.961 7.792-59.373 16.767-28.247 15.443-44.317 39.884-56.729 68.82.27.318.559.625.818.945 18.026 22.068 34.981 45.899 44.58 72.77-.104-10.946.219-21.908.346-32.849.242-20.351 2.063-40.667 7.307-60.382 8.224-30.912 31.955-58.411 63.051-66.071z" fill="#ee6200"/><path d="m649.354 396.92c-4.703-12.177-9.879-24.052-17.01-35.03-20.654-31.807-67.334-54.523-105.431-46.916 61.785 14.531 103.57 72.259 116.341 132.75 22.276-11.323 49.217-14.911 71.854-4.368-10.99-8.747-29.266-9.824-41.66-13.097-15.803-4.172-18.926-19.964-24.094-33.339z" fill="#ee6200"/><path d="m602.879 697.094c-1.771-6.173-3.938-12.229-6.154-18.046-11.199-29.397-27.443-56.968-50.162-78.91-22.055-21.299-52.253-36.295-81.919-43.291-9.281-2.188-18.961-3.443-28.455-4.19-6.858-.54-15.93-1.479-22.928 1.221 76.518 1.66 151.914 69.146 175.737 138.752 5.847 17.083 9.306 34.292 10.074 51.313 5.209-13.755 5.501-30.722 3.807-46.849z" fill="#ee6200"/><path d="m762.627 785.747c11.713-12.37 19.039-27.903 23.864-44.37-13.313 21.891-36.18 37.401-62.903 37.658-43.222.416-55.67-51.004-58.611-85.007-3.24-37.494-1.396-78.453 10.465-114.373 10.404-31.509 30.283-57.384 56.021-77.515-3.246.062-6.677.162-10.127.105-11.752-.188-14.445-1.707-26.443 6.118-38.016 24.783-51.643 72.266-58.551 115.985-7.84 49.572-10.457 122.311 32.426 158.098 25.332 21.147 68.611 29.961 93.859 3.301z" fill="#ee6200"/><path d="m405.871 362.794c5.984-12.203 14.459-21.162 23.839-30.182-10.564-1.781-23.744-4.934-32.864-11.894-22.828 14.565-39.298 45.374-51.44 68.974-14.436 28.055-28.014 60.186-32.174 91.736 1.713 3.166 3.364 6.352 4.961 9.561 22.555-11.792 57.655-8.848 77.655 6.896 1.669-.387 3.351-.732 5.055-1.008 5.147-.829 10.766-1.279 16.532-1.29-24.915-17.07-28.164-55.554-25.621-83.262 1.573-17.159 6.482-34.085 14.057-49.531z" fill="#ee6200"/><path d="m742.319 558.43c5.033 93.058-2.426 121.424-7.791 148.571-2.475 12.521-6.521 32.372 5.769 41.065 11.766 8.323 23.11-9.271 27.325-17.537 25.302-49.639 25.312-135.099 3.353-186.99-13.654-32.266-30.885-26.32-28.656 14.891z" fill="#f9cb1c"/><path d="m840.903 551.744c3.468 11.289 6.506 22.334 8.318 34.038 4.563 29.476 3.941 59.136 1.354 88.753-1.136 13.006-3.07 25.972-4.495 38.951-3.517 32.037 16.844 33.776 29.384 7.867 13.803-28.502 14.551-66.444 10.483-95.441-3.885-27.696-13.51-61.577-33.546-84.063-24.438-27.43-15.781-4.036-11.498 9.895z" fill="#f9cb1c"/><path d="m947.595 576.907c-5.521-19.741-15.994-37.168-30.031-51.972-7.637-8.056-16.891-16.094-27.078-22.108-17.953-10.613-27.6-12.871-5.977 7.257 20.215 18.818 47.567 58.717 51.955 145.016.202 3.996-.371 24.426 8.858 19.037 6.689-3.902 7.066-19.802 7.92-26.467 3.041-23.71.775-47.795-5.647-70.763z" fill="#f9cb1c"/><path d="m674.071 498.021c-38.088 6.275-55.524 45.901-57.787 77.5-1.096 15.357.545 20.617 4.82 5.008 9.133-33.301 25.5-66.072 53.443-78.329 8.803-3.863 5.602-5.181-.476-4.179z" fill="#f9cb1c"/><path d="m543.479 340.256c-15.896-10.016-21.463-.578-10.566 11.965 29.269 33.683 29.625 67.5 36.177 83.181 7.901 18.913 33.428 20.415 37.43-1.255 4.787-25.926-16.447-52.668-33.09-69.814-9-9.272-19.043-17.203-29.951-24.077z" fill="#f9cb1c"/><path d="m449.495 449.809c2.675-22.93 5.156-45.392 4.681-68.549-.892-43.567-22.911-45.319-37.325-8.392-10.34 26.485-12.422 54.928-3.191 83.383 12.511 38.582 32.161 25.057 35.835-6.442z" fill="#f9cb1c"/><path d="m625.819 326.143c6.461 4.386 12.746 8.997 18.416 14.781 13.496 13.766 22.693 32.45 31.463 49.43 4.982 9.649 12.763 20.525 24.219 22.222 6.052.895 10.812-2.523 12.445-8.187 5.109-17.704-13.506-38.998-24.299-50.194-14.434-14.97-36.258-34.805-58.881-40.339-19.08-4.668-19.607 1.255-3.363 12.287z" fill="#f9cb1c"/><path d="m314.569 392.686c5.881-13.946 11.601-27.117 19.936-39.793 3.925-5.965 8.398-11.34 13.035-16.55 6.636-7.456 17.328-23.995-6.719-13.879-29.627 12.465-52.762 31.761-57.299 60.46-4.058 25.688 20.056 35.828 31.047 9.762z" fill="#f9cb1c"/><path d="m302.132 658.949c13.92 118.897-4.101 162.057.297 191.465 2.514 16.813 8.819 38.003 28.583 40.494 32.423 4.086 37.863-44.953 39.797-67.161 4.423-50.802-4.398-104.569-18.745-153.099-2.873-9.719-5.74-19.664-9.537-29.17-13.749-34.394-46.194-32.06-40.395 17.471z" fill="#f9cb1c"/><path d="m186.852 620.229c-63.078 31.945-76.399 127.286-54.063 194.332 15.051 45.168 43.649 46.451 34.643-9.101-2.184-13.476-4.951-25.635-5.326-29.358-2.854-28.416-2.461-57.373 2.812-85.484 2.785-14.865 7.492-29.473 14.287-42.987 3.655-7.27 8.184-13.411 13.188-19.139 11.957-13.683 7.249-14.745-5.541-8.263z" fill="#f9cb1c"/><path d="m165.53 568.261c-17.963.751-36.465 5.867-51.125 15.271-13.418 8.607-35.34 29.46-31.19 47.196 2.896 12.38 21.59-10.866 23.584-13.203 8.887-10.404 20.377-19.555 31.467-27.444 8.777-6.245 18.203-10.369 27.885-14.119 14.306-5.542 10.962-8.191-.621-7.701z" fill="#f9cb1c"/><path d="m452.61 638.626c-9.842-13.563-23.31-28.398-38.807-36.653-18.633-9.925-41.842-16.859-16.42 14.985 13.063 16.361 21.558 36.327 29.469 55.778 13.46 33.087 18.594 69.292 19.156 104.813.277 17.659-1.931 35.103 1.585 52.621 2.398 11.958 12.429 25.914 26.329 18.075 15.06-8.494 17.965-29.044 19.702-44.614 3.044-27.254 1.165-55.081-4.372-81.89-6.159-29.797-18.783-58.501-36.642-83.115z" fill="#f9cb1c"/><path d="m490.125 610.904c31.75 30.771 61.717 85.655 61.295 150.674-.259 41.644 16.53 43.377 22.215 6.243 10.395-67.941-20.07-135.752-76.207-166.983-18.637-10.364-20.966-3.171-7.303 10.066z" fill="#f9cb1c"/><path d="m813.559 343.928c-2.564-.331-5.146-1.057-7.174-1.511-1.791-.403-3.617-.819-5.428-1.298 14.565 10.299-19.474 49.92-23.703 57.305-10.244 17.879-12.795 38.973-9.425 59.084 1.796 10.701 8.808 18.196 12.584 28.009 6.529 16.977-15.512 4.612-17.522 3.573-3.096-1.604-5.814-3.303-9.137-4.364-7.257-2.317-15.703-1.718-23.181-1.521-5.475.146-20.926 2.901-19.229-8.106.09-.584.328-1.157.506-1.734-.014.013-.029.021-.043.035-1.81 1.646-3.4 3.561-5.078 5.365-4.775 6.772-6.746 13.601 3.563 15.029 10.966 1.522 22.068 1.053 33.086 1.871 11.062.821 22.546 7.142 33.548 6.494 23.069-1.358 7.657-18.983 4.37-26.916-6.413-15.465-2.819-30.78 2.097-46.361 6.358-20.156 14.994-39.333 24.785-58.049 2.711-5.186 7.379-12.134 9.799-19.149 2.309-6.715 2.6-6.852-4.418-7.756z" fill="#855725"/><path d="m512.006 308.968c-7.506 10.164-24.24 12.516-37 13.458-16.277 1.201-46.187.652-42.8-22.118 1.46-9.828 5.675-18.891 6.685-28.868 1.509-14.917-1.063-30.051-4.861-44.431-7.52-28.466-22.443-55.223-42.507-76.664-10.081-10.771-21.433-20.884-33.024-30.002-9.563-7.526-26.247-18.371-23.247-32.333-4.712 3.346-10.369 5.64-15.972 7.146-5.315 1.425-4.264 1.999.096 4.877 1.402.929 2.802 1.873 4.183 2.84 56.49 40.719 105.277 102.858 101.909 175.27-.198 4.237-.896 21.55-7.209 26.705-.267.217-.616.065-.645-.268-.252-3.128.279-6.284.882-9.422-6.796 1.779-14.14 3.596-19.811 7.471-18.183 12.417 40.548 24.43 45.261 24.758 12.372.868 25.428 2.691 37.827 1.711 8.356-.659 18.659-1.381 25.906-6.251 6.784-4.563 7.062-9.413 4.327-13.879z" fill="#855725"/><path d="m347.942 582.81c.25-.836.318-1.675.289-2.507-9.725 9.451-24.681 12.125-39.765 11.909-4.774-.07-9.493-.675-14.136-1.774-8.931-2.113-7.53-9.524-5.854-17.449 1.375-6.491 2.528-13.392-1.947-18.94-3.222-3.995-6.897-7.526-10.438-11.23-5.574-5.837-7.559-14.382-10.062-21.855-3.943-11.78-7.588-23.538-12.946-34.771-5.611-11.758-9.926-24.015-15.035-35.981-6.56-15.365-21.381-29.997-18.439-47.595-2.319 1.359-4.92 2.359-7.25 3.215-4.194 1.538-9.366 3.518-14.139 3.351 1.687 2.195 3.459 4.317 5.393 6.302 16.812 19.474 30.803 46.072 38.476 70.731 4.637 14.906 6.152 31.054 11.963 45.533 4.754 11.827 10.803 23.03 16.001 34.638 1.718 3.823 6.683 5.57 6.054-1.621-.41-4.751-.647-6.096 2.59-1.291 1.578 2.347 2.023 4.918-.463 7.766-1.93 2.206-4.381 3.623-6.772 5.222-13.563 11.167 3.104 16.805 13.235 18.476 7.96 1.312 16.068 2.258 24.154 2.108 3.914-.071 7.92-.171 11.904-.506 10.789-.909 24.17-3.578 27.187-13.731z" fill="#855725"/><path d="m280.77 444.128c-12.277-17.69-25.319-35.131-40.242-50.709-1.476-1.541-2.905-2.858-4.317-3.97-13.58-10.656-30.957-2.419-37.396 4.531 10.24-4.951 21.525-7.34 32.308-1.727 9.92 5.163 16.146 16.707 22.026 25.745 7.789 11.974 16.595 23.282 25.032 34.798 23.729 32.371 41.577 67.633 55.319 105.19-6.529-41.095-29.439-80.315-52.73-113.858z" fill="#d3b988"/><path d="m472.709 210.755c3.929 12.013 6.867 24.317 9.544 36.658.011.052.02.104.03.157-3.675-25.039-9.845-49.814-20.522-72.454-17.056-36.156-44.808-67.602-76.172-92.14-17.117-12.621-37.377-20.854-58.677-13.098-3.832 1.396-10.557 4.126-15.561 7.67-.262.185-.451.355-.691.535 14.742-7.473 33.445-8.271 47.906-.841 16.534 8.497 31.744 23.19 45.564 35.495 17.578 15.646 32.225 33.795 46.003 52.78 10.062 13.865 17.258 28.971 22.576 45.238z" fill="#d3b988"/><path d="m788.959 322.282c-5.902.989-10.732 9.831-13.861 17.029-11.752 26.988-25.154 53.236-35.728 80.735-2.766 7.196-4.854 15.284-7.586 23.019 7.295-9.701 11.988-21.262 16.854-32.291 6.311-14.307 12.719-28.561 18.611-43.048 4.856-11.947 8.485-24.722 17.018-34.704 5.6-6.55 14.213-7.324 22.646-5.588-5.842-3.284-12.288-6.106-17.954-5.152z" fill="#d3b988"/><g fill="#68182b"><path d="m431.614 279.252c-.031.656.967.773 1.129.152 7.326-27.544-1.844-57.229-13.157-82.456-11.576-25.811-30.089-52.702-54.429-67.971-.237-.15-.521.207-.305.396 42.908 37.264 69.61 92.673 66.762 149.879z"/><path d="m430.948 283.816c-2.478 1.374-2.051 5.89-1.462 8.21.081.306.478.396.693.182 1.825-1.792 4.102-5.99 1.901-8.245-.295-.307-.767-.349-1.132-.147z"/><path d="m272.809 556.741c.404.401 1.125 0 .958-.561-2.359-8.136-6.075-15.831-8.819-23.855-2.752-8.061-5.343-16.553-10.239-23.601-.148-.214-.494-.088-.429.181 2.32 9.137 5.189 18.248 8.118 27.209 2.405 7.351 4.808 15.075 10.411 20.627z"/><path d="m779.155 423.411c4.299-8.648 7.844-17.63 11.908-26.396 4.088-8.814 8.883-17.571 10.979-27.119.065-.314-.355-.508-.527-.223-9.402 15.642-20.826 35.174-23.264 53.491-.063.485.697.661.904.247z"/><path d="m776.973 427.157c-1.129.875-1.691 2.125-1.92 3.482-.746 4.38 1.893 4.854 2.955.552.336-1.371.311-2.763-.527-3.97-.125-.185-.336-.197-.508-.064z"/><path d="m129.704 641.072c-23.65 22.64-34.603 57.656-38.906 89.259-3.633 26.696-3.387 55.421 7.012 80.635.353.859 1.529.542 1.385-.382-3.836-25.277-6.106-50.953-4.096-76.493 2.729-34.701 16.729-63.688 35.623-92.232.417-.63-.501-1.281-1.018-.787z"/><path d="m100.309 817.964c-.135-.054-.27.038-.346.14-1.133 1.563-.004 3.938.513 5.572.909 2.86 2.222 5.063 3.863 7.537.36.549 1.191.202 1.048-.443-.598-2.721-1.146-5.235-2.164-7.852-.651-1.676-1.064-4.23-2.914-4.954z"/><path d="m506.644 814.611c-.014.608.913.734 1.062.144 8.095-32.45 4.228-73.664-15.444-101.576-.145-.203-.525-.086-.427.181 6.201 16.629 11.266 33.146 13.608 50.804 2.199 16.601 1.551 33.744 1.201 50.447z"/><path d="m551.342 659.305c14.387 25.103 25.135 49.914 31.184 78.307.123.572.973.416.99-.136.938-28.127-12.885-58.081-31.805-78.456-.185-.199-.5.055-.369.285z"/><path d="m583.215 741.519c-1.181 1.207-.904 2.909-.793 4.479.176 2.493.297 4.643 1.256 6.964.162.389.674.521.922.119 1.164-1.898 1.363-3.598 1.035-5.819-.279-1.925-.334-4.606-2.115-5.783-.09-.062-.229-.04-.305.04z"/><path d="m137.188 574.789c10.592-3.813 20.633-7.702 31.746-9.824 12.769-2.439 26.185-2.054 39.131-2.04.515 0 .604-.739.122-.884-21.52-6.318-54.054-3.339-71.422 12.026-.315.282.019.869.423.722z"/><path d="m218.158 564.024c.292-.1.404-.459.181-.69-1.49-1.531-4.412-2.006-6.176-.692-.117.089-.189.283-.056.396 1.549 1.254 4.175 1.618 6.051.986z"/><path d="m233.777 869.222c-11.312-17.544-14.706-36.395-20.882-55.821-.08-.258-.438-.2-.458.063-2.384 36.903 27.249 85.171 61.497 99.148.512.211.898-.552.525-.902-14.683-13.871-29.532-25.204-40.682-42.488z"/><path d="m282.991 916.08c-1.795-.647-3.449-1.792-5.353-2.085-.279-.043-.629.18-.508.509 1.336 3.613 7.416 5.854 10.869 4.508.342-.133.41-.539.1-.755-1.587-1.111-3.313-1.528-5.108-2.177z"/><path d="m410.698 546.415c-.419.05-.414.594 0 .646 23.025 3.058 43.472 5.874 65.111 14.729.441.18.851-.521.473-.813-17.391-13.464-44.213-17.051-65.584-14.562z"/><path d="m479.677 563.263c-.278.078-.364.428-.167.632 2.348 2.434 6.409 4.593 9.719 5.239.355.069.837-.248.666-.664-1.453-3.544-6.453-6.274-10.218-5.207z"/><path d="m497.712 481.499c.03.523.832.688.952.128 4.692-21.376 2.366-43.633-.432-65.131-2.762-21.207-6.786-44.382-16.208-63.751-.202-.414-.761-.102-.692.292 3.404 20.173 9.009 39.83 11.959 60.138 3.302 22.717 2.986 45.481 4.421 68.324z"/><path d="m497.698 486.668c-1.446 1.075-1.453 3.016-1.744 4.673-.409 2.321-.455 4.34-.176 6.661.054.449.499.649.859.354 1.981-1.614 2.334-3.323 2.5-5.776.117-1.776.157-4.511-1.156-5.876-.067-.067-.202-.097-.283-.036z"/><path d="m216.665 319.426c9.18-6.562 17.801-13.17 27.834-18.435 9.93-5.207 21.354-7.274 30.981-12.864.449-.259.238-.915-.252-.938-11.233-.504-22.778 5.673-32.592 10.616-9.854 4.958-20.378 11.74-26.391 21.202-.156.251.168.601.42.419z"/><path d="m287.116 283.306c.104-.193.063-.487-.158-.591-2.482-1.16-5.244.686-6.984 2.435-.215.219-.049.569.243.583 2.378.103 5.657-.071 6.899-2.427z"/><path d="m346.471 353.947c-21.093 23.566-40.13 58.443-40.278 90.709-.005.556.886.704.989.135 3.063-16.828 8.226-32.853 15.584-48.299 6.992-14.688 16.465-27.941 24.016-42.306.098-.191-.154-.414-.311-.239z"/><path d="m587.706 334.951c-.383-.145-.563.418-.26.625 32.619 22.529 51.363 55.656 61.406 93.499.166.639 1.115.49 1.129-.152.426-18.892-8.924-37.413-18.16-53.395-9.828-17-25.496-33.579-44.115-40.577z"/><path d="m527.065 288.006c11.41-3.634 32.984-10.982 70.146-7.448.618.059.719-.82.143-1.059-10.816-4.484-24.393-3.337-35.834-2.582-12.135.799-24.609 3.477-34.701 10.497-.289.198-.121.708.246.592z"/><path d="m609.592 282.686c.287-.102.346-.402.166-.632-1.72-2.197-4.713-1.574-7.174-1.388-.584.045-.666.782-.136.989 2.232.866 4.787 1.865 7.144 1.031z"/><path d="m644.649 677.404c-.531-28.994 6.305-56.896 10.689-85.332.03-.231-.261-.31-.353-.096-11.633 27.656-15.434 59.229-14.912 89.043.494 28.265 6.675 58.896 24.879 81.206.611.751 1.654-.204 1.269-.982-13.4-26.928-21.021-53.643-21.572-83.839z"/><path d="m876.341 740.844c11.356-17.347 16.93-37.149 19.551-57.631 2.662-20.78 4.271-43.948-1.346-64.404-.095-.342-.584-.259-.603.081-1.065 21.369.553 42.384-2.356 63.74-2.703 19.822-8.773 39.273-16.329 57.757-.266.652.732.992 1.083.457z"/><path d="m868.365 753.566c3.066-1.469 6.603-5.165 5.509-8.896-.059-.191-.246-.297-.439-.25-3.666.897-5.334 5.453-5.689 8.788-.04.341.367.478.619.358z"/><path d="m613 512.793c-20.337 9.553-45.671 34.153-49.119 57.268-.06.373.399.604.625.264 7.271-11.127 13.52-22.089 22.7-31.904 8.281-8.851 18.212-15.873 26.58-24.606.533-.558-.133-1.326-.786-1.022z"/><path d="m619.704 506.481c-1.645 1.143-2.903 2.818-2.985 4.568-.008.245.213.449.451.449 1.672.003 3.102-.813 4.465-1.709 5.479-3.587 3.352-6.971-1.931-3.308z"/><path d="m306.444 540.982c-.013.263.338.325.469.128 4.39-6.701 4.123-19.232-.895-25.548-.082-.104-.244.01-.212.125 1.169 4.365 2.051 8.592 2.011 13.139-.037 4.107-1.174 8.069-1.373 12.156z"/><path d="m307.159 550.479c2.929-.938 4.471-4.276 5.555-6.938 1.452-3.579 2.924-7.96 1.84-11.818-.049-.187-.307-.173-.359 0-1.115 3.319-1.619 6.715-3.014 9.961-1.241 2.88-3.615 5.406-4.39 8.432-.054.21.143.435.368.363z"/><path d="m313.496 548.167c-1.938 2.291-3.957 4.495-5.827 6.838-.136.174-.015.521.245.421 3.006-1.16 6.056-3.596 5.844-7.149-.01-.124-.167-.22-.262-.11z"/><path d="m486.99 323.287c7.159 1.237 19.182-3.843 19.78-12.184.009-.114-.14-.161-.216-.09-2.842 2.76-5.061 5.562-8.56 7.621-3.311 1.949-7.371 2.892-11.005 4.081-.251.084-.305.518.001.572z"/><path d="m489.615 318.923c.097-.203-.063-.497-.313-.412-2.981 1.023-6.261 1.736-8.877 3.515-.212.142-.117.425.121.452 3.115.348 7.582-.415 9.069-3.555z"/><path d="m479.633 319.305c.076-.178-.005-.434-.238-.42-2.006.123-5.104 1.105-6.431 2.673-.162.191-.173.522.085.65 2.249 1.138 5.648-.692 6.584-2.903z"/><path d="m719.491 487.307c-3.494.198-7.028-.164-10.506-.475-.135-.011-.184.193-.065.252 5.938 2.995 15.178 2.85 21.209.108.26-.117.104-.469-.131-.486-3.498-.28-7.007.4-10.507.601z"/><path d="m730.471 488.805c-.172.11-.107.382.104.386 2.267.028 4.894-.407 6.238-2.397.098-.142-.033-.34-.193-.337-2.17.018-4.354 1.194-6.149 2.348z"/><path d="m740.36 487.013c-1.309-.052-2.396.77-2.986 1.906-.045.081.011.191.109.189 1.271-.043 2.559-.512 3.09-1.731.07-.167-.014-.356-.213-.364z"/><path d="m267.313 768.973c.463.209.994-.349.576-.749-15.889-15.195-20.692-33.674-19.783-55.311.004-.142-.221-.173-.248-.034-3.859 18.372-.014 47.411 19.455 56.094z"/><path d="m263.104 769.775c.877 2.521 5.267 4.358 7.668 3.263.171-.079.193-.347.063-.466-.822-.746-1.668-.894-2.734-1.144-1.672-.394-3.106-1.212-4.654-1.92-.167-.074-.419.055-.343.267z"/><path d="m269.788 775.599c-.227.072-.252.35-.064.479 2.064 1.428 5.011.643 6.842-.808.193-.155.019-.433-.186-.445-2.127-.143-4.565.117-6.592.774z"/><path d="m497.501 618.389c-.132-.079-.279.107-.162.211 11.94 10.816 13.217 24.141 15.083 39.051.041.304.508.554.67.183 5.631-13.085-4.268-32.497-15.591-39.445z"/><path d="m517.073 647.288c.256 2.71.301 5.356.068 8.07-.252 2.969-1.4 5.816-1.908 8.75-.045.245.217.396.404.234 4.768-4.014 4.332-11.979 2.024-17.216-.127-.281-.62-.142-.588.162z"/><path d="m748.717 641.446c16.53-13.413 22.873-35.75 21.758-56.329-.014-.234-.342-.229-.359 0-1.942 22.008-9.094 38.245-22.061 55.815-.312.418.32.793.662.514z"/><path d="m758.668 637.5c-1.744 1.304-3.152 3.08-4.82 4.499-2.119 1.799-4.236 3.308-6.041 5.451-.18.218-.019.641.307.525 3.988-1.424 10.965-5.265 10.894-10.282-.002-.155-.199-.301-.34-.193z"/><path d="m745.518 653.604c-.18.227-.018.563.293.493 2.281-.517 7.178-1.53 7.42-4.506.01-.114-.098-.205-.205-.207-2.701-.079-5.92 2.215-7.508 4.22z"/><path d="m620.497 530.877c-6.606 7.989-5.559 20.984-2.114 30.15.131.351.631.299.651-.088.283-4.84-.705-9.568-1.002-14.391-.338-5.476.988-10.404 2.767-15.497.053-.162-.189-.311-.302-.174z"/><path d="m614.75 557.411c-.101-.247-.455-.281-.541 0-1.007 3.382 1.256 7.569 3.973 9.524.201.148.471-.095.408-.313-.381-1.325-.931-2.444-1.633-3.63-1.039-1.752-1.478-3.708-2.207-5.581z"/><path d="m854.871 611.213c-.03.261.314.276.437.119 6.832-8.97 6.427-23.436 2.703-33.568-.081-.22-.474-.207-.441.062.693 5.719 1.107 11.226.657 16.981-.442 5.646-2.698 10.827-3.356 16.406z"/><path d="m859.161 608.744c-1.438 1.335-2.843 3.91-3.225 5.835-.059.297.216.504.485.375 1.975-.939 3.938-3.862 3.131-6.107-.058-.166-.255-.227-.391-.103z"/><path d="m901.437 526.24c6.449 3.447 10.047 8.236 14.121 14.083.108.162.418.124.399-.107-.922-12.826-18.893-18.882-29.336-20.879-.17-.034-.305.216-.125.295 4.984 2.208 10.123 4.038 14.941 6.608z"/><path d="m920.187 538.576c.166.093.439.021.473-.193.298-1.832-1.069-3.789-2.541-4.813-.116-.081-.227.052-.213.161.234 1.653.709 3.984 2.281 4.845z"/><path d="m560.034 391.077c5.429 10.691 6.267 22.638 10.357 33.717.135.366.674.319.688-.092.729-23.159-12.184-46.01-30.571-59.266-.177-.126-.388.154-.229.297 8.134 7.339 14.792 15.558 19.755 25.344z"/><path d="m573.168 431.226c0 .247.346.35.467.128 2.688-4.794 3.145-14.183-.513-18.64-.071-.087-.217-.011-.217.09-.045 2.841.59 5.644.693 8.484.123 3.319-.43 6.618-.43 9.938z"/><path d="m676.688 365.076c-.141-.045-.234.142-.141.241 3.059 3.168 6.094 5.685 8.164 9.685 1.905 3.684 2.207 8.272 4.758 11.558.197.259.539.012.565-.235.49-4.358-1.983-9.487-4.102-13.223-2.008-3.544-5.322-6.787-9.244-8.026z"/><path d="m691.42 381.719c.071 2.199.237 4.81 1.524 6.645.121.169.381.157.445-.056.656-2.292-.187-4.9-1.633-6.729-.105-.14-.34-.022-.336.14z"/><path d="m329.723 333.451c-19.496.074-40.053 16.235-51.58 30.845-.171.218.086.481.307.306 7.482-6.044 14.306-12.669 22.312-18.081 9.039-6.116 19.026-8.64 29.039-12.487.299-.115.277-.585-.078-.583z"/><path d="m335.541 329.759c.23-.085.234-.382 0-.468-3.215-1.207-7.157-.564-9.799 1.624-.166.137.011.396.197.346 3.15-.85 6.564-.353 9.602-1.502z"/></g></g></g></svg>