<svg id="Start_Up" height="512" viewBox="0 0 1000 1000" width="512" xmlns="http://www.w3.org/2000/svg"><g><path d="m908.3 438.023c13.639-6.047 21.086-17.079 19.438-28.794-.945-6.737-5.555-18.462-25.773-21.264-4.947-.688-9.834-1.036-14.521-1.036-7.994 0-15.586 1-22.695 2.981-15.094-13.688-31.66-26.726-49.498-38.958 3.318-4.478 6.881-8.988 10.727-13.584 10.588-12.663 13.553-24.229 8.809-34.38-3.807-8.149-11.814-13.016-21.416-13.016-5.33 0-11.24 1.464-18.602 4.607-14.295 6.112-27.754 14.088-39.514 23.373-3.148-1.226-6.324-2.393-9.52-3.495-9.67-14.197-23.408-22.448-37.965-22.448-6.66 0-15.953 1.743-25.656 9.056-4.969-.378-9.881-.585-14.682-.621-4.189-11.383-10.814-23.923-22.041-34.073-4.828-4.36-12.357-10.155-21.98-10.155-4.525 0-8.828 1.311-12.463 3.715-29.807-42.043-75.836-74.622-129.625-90.401 1.113-6.104 1.92-12.169 2.713-18.14 1.629-12.282 3.168-23.881 7.184-33.64 3.148-7.661 7.309-22.188-.219-33.42-4.189-6.254-11.225-9.986-18.813-9.986-8.963 0-16.287 5.037-21.016 8.826-18.643 14.934-26.006 36.189-30.754 55.016l-.295 1.167c-1.986 7.902-3.791 15.066-6.545 21.113-6.123.114-12.447.427-19.045.941-.029-.686-.061-1.374-.092-2.06-.672-14.67-1.305-28.526 3.979-38.652 4.705-9.017 8.939-22.039 2.385-32.853-4.037-6.668-11.207-10.647-19.172-10.647-5.902 0-11.955 2.12-19.055 6.676-11.625 7.468-21.158 17.704-29.143 31.3-3.756 6.397-6.037 13.206-7.73 19.813-9.225-8.226-23.314-17.558-39.754-17.558-15.172 0-28.041 8.034-36.24 22.624-6.842 12.181-6.459 27.142.512 40.395-12.279-4.564-25.002-8.516-38.65-8.516-8.297 0-16.246 1.525-23.611 4.527-5.988 2.438-24.209 9.851-23.6 27.296.592 16.928 17.113 22.343 25.057 24.944l1.459.483c4.564 1.534 9.279 4.089 13.98 7.119-3.68 2.964-7.113 5.948-10.285 8.817-3.338.36-6.479.839-9.492 1.443-24.457 4.927-42.027 21.875-48.207 46.512-1.064 4.248-4.301 17.178 3.688 27.416.455.582.934 1.138 1.436 1.666-20.459 53.579-18.988 113.233 4.609 167.02-3.063 2.555-6.031 5.149-8.895 7.773-66.354 60.8-90.91 156.751-61.104 238.765 28.844 79.371 102.525 145.051 197.098 175.691 29.184 9.455 58.424 14.252 86.9 14.252 57.074 0 110.281-19.52 153.871-56.441 26.867-22.76 48.973-51.75 65.865-86.348 30.963 8.578 63.992 13.074 96.529 13.074h.018c79.727 0 147.459-26.383 190.701-74.287 64.098-71.01 95.543-188.107 38.586-282.616.71-.359 1.419-.699 2.124-1.012z" fill="#fff"/><g><path d="m900.365 420.122c6.152-2.728 14.945-10.537-1.092-12.762-13.402-1.859-27.012-.888-39.002 5.168-21.896-21.095-46.678-39.943-72.42-56.154 6.916-11.059 14.729-21.558 23.104-31.568 8.734-10.443 10.76-20.44-8.488-12.22-15.758 6.737-30.953 16.231-43.639 28.079-8.322-3.722-16.805-6.943-25.506-9.685-.203-.063-.367-.022-.561-.059-9.27-18.151-27.018-27.789-43.984-9.553-11.908-1.367-23.793-1.754-35.736-.886-3.68-14.877-9.488-29.374-20.775-39.581-11.803-10.658-13.873-2.824-11.365 7.052 2.961 11.675 2.723 23.915 2.023 36.284-.656.057-1.309.131-1.963.193-21.438-73.437-89.629-125.264-163.455-140.703 8.336-23.377 6.125-50.388 15.604-73.423 3.658-8.9 5.43-23.969-9.697-11.853-13.555 10.858-19.561 26.885-24.006 44.519-3.34 13.247-6.453 26.303-14.863 37.087-16.539-.366-32.918.932-49.293 3.065.232-4.826.125-9.698-.023-14.407-.602-19.358-3.201-39.764 5.834-57.08 4.25-8.143 7.566-21.214-7.9-11.288-9.547 6.132-16.832 14.508-22.838 24.735-8.82 15.029-7.184 36.985-17.094 50.88-3.852-6.449-8.074-12.617-12.631-18.162-13.543-16.489-39.922-32.88-53.814-8.158-5.186 9.229-1.35 20.461 5.02 27.91 10.375 12.139 20.623 21.093 26.699 34.247-34.438 4.821-70.021-30.714-103.162-17.206-22.432 9.127-6.248 13.32 1.779 16.025 11.439 3.848 22.295 11.592 31.361 18.479 3.779 2.872 7.563 5.377 11.41 7.536-13.787 6.8-25.881 16.981-37 27.46-4.629.248-9.266.72-13.945 1.662-18.189 3.663-29.025 15.918-33.078 32.07-2.99 11.942 1.395 15.08 10.047 8.075 2.697-2.182 5.418-4.057 8.166-5.662-34.596 59.688-35.27 133.37-3.014 194.612-7.014 5.182-13.75 10.688-20.125 16.53-59.74 54.74-83.732 141.152-55.933 217.644 29.469 81.09 104.977 137.91 184.73 163.75 78.393 25.398 158.451 15.395 222.082-38.504 30.152-25.541 52.533-58.936 67.801-95.141 90.959 30.418 215.504 24.654 283.432-50.598 67.207-74.455 88.422-190.231 26.338-274.358 6.358-5.544 13.1-10.557 20.972-14.051z" fill="#68182b"/><path d="m852.675 417.234c-.154.117-.314.216-.467.333-8.963 6.881-14.996 14.54-26.529 17.665-14.09 3.818-30.584 2.604-44.537-.858-16.285-4.043-21.16-12.61-16.33-28.504 2.838-9.344 6.654-18.367 10.791-27.195 2.387-5.089 5.021-10.038 7.807-14.897 24.624 15.503 48.197 33.376 69.265 53.456z" fill="#ff5671"/><path d="m752.286 347.223c-3.762 4.067-7.209 8.381-10.313 12.907-1.381-6.402-3.135-12.703-5.113-18.819 5.213 1.776 10.36 3.732 15.426 5.912z" fill="#ff5671"/><path d="m714.351 320.785c6.563 2.932 5.184 8.059-1.154 14.266-3.326 3.263-7.514 4.991-11.932 6.19-.186.052-.213.371 0 .4 7.959 1.119 18.496-5.589 21.463-13.283 7.068 10.499 9.518 27.753 11.412 37.604 2.473 12.883 3.473 25.428 2.68 38.501-.459 7.561-2.365 14.763-4.451 21.977-7.646 26.422-40.377 6.276-33.775-6.19 9.373-13.998 14.059-29.986 7.061-45.887-3.986-9.06-8.887-17.67-12.316-26.973-4.695-12.727 4.502-33.994 21.012-26.605z" fill="#b0cf45"/><path d="m683.796 329.527c-2.455 7.961-.152 17.373 2.953 24.725 3.033 7.18 6.633 14.078 9.973 21.117 3.363 7.092 4.121 13.95 2.996 20.634-28.096-11.685-39.127-38.956-44.775-66.992 9.638-.594 19.244-.369 28.853.516z" fill="#ff5671"/><path d="m630.261 291.008c17.373 19.406 16.314 51.836 26.141 74.986 6.969 16.418 24.314 31.389 40.883 38.338-1.553 3.903-3.604 7.76-6.148 11.56-13.301 25.118 28.65 42.817 44.701 24.11 11.725-13.665 10.697-42.475 9.326-58.962-.225-2.698-.6-5.419-.973-8.141 12.363-22.421 34.271-39.887 57.834-50.714-13.949 17.16-26.096 35.524-35.557 55.711-5.984 12.772-20.16 38.481-9.891 51.609 14.182 18.128 44.871 17.901 65.291 15.176 9.793-1.305 17.348-4.942 25.068-10.924 6.973-5.403 12.066-11.801 20.553-15.237 7.713-3.121 15.803-3.91 23.877-3.382-15.764 8.768-27.42 22.522-41.256 34.81-25.082 22.271-62.396 16.224-93.705 13.42-11.799-1.055-14.271 2.943-14.135 12.307.262 18.282 2.779 41.159 16.926 52.404 9.389 7.461 47.229 4.799 41.904 21.864-6.041-4.062-12.615-5.048-20.689-4.513-18.441 1.228-31.453 6.674-46.746-7.869-17.07-16.228-20.854-42.389-31.748-63.085-4.396-8.358-3.572-9.487-16.613-8.583-22.195 1.538-44.906 3.323-66.949 3.22-18.219-.088-34.715-12.087-40.145-29.165-3.418-10.751-1.33-22.561-1.625-34.092 9.813 13.465 9.197 34.825 26.623 43.426 17.916 8.842 45.723-1.524 63.076-11.623 7.15-4.169 8.982-7.019 1.992-13.056-18.402-15.902-32.674-37.82-37.561-61.632-4.948-24.118 3.415-48.316-.454-71.963z" fill="#b0cf45"/><path d="m374.283 191.866c13.768-1.877 27.555-3.042 41.414-3.195-12.225 8.7-29.348 11.419-44.342 12.969 1.385-3.111 2.321-6.389 2.928-9.774z" fill="#b0cf45"/><path d="m291.013 184.745c-4.725-4.623-9.512-8.923-13.434-14.131.006 0 .01.003.01.003 7.326-.259 15.699-10.641 15.615-17.504-.002-.121-.176-.218-.262-.108-2.545 3.25-4.848 6.91-7.865 9.717-7.561 7.022-14.273 4.043-11.785-6.33 1.432-5.992 6.656-11.041 13.203-11.309 6.67-.27 13.926 5.429 18.793 9.328 13.67 10.957 22.396 29.098 29.965 44.472 4.805 9.755 10.475 19.172-.688 26.051-4.098 2.525-21.084 8.799-23.004.584-2.364-15.758-9.178-29.649-20.548-40.773z" fill="#b0cf45"/><path d="m248.851 241.987c.418-.167.713-.428 1.035-.668 6.803 2.66 13.91 4.36 21.611 5.055-11.375 12.379-23.996 17.191-42.512 17.486-4.402.069-8.746.013-13.07-.007 9.887-8.812 20.702-17.049 32.936-21.866z" fill="#b0cf45"/><path d="m165.584 295.363c9.881-25.69 43.566-22.554 69.018-22.956 18.672-.297 31.996-7.816 43.445-20.49 8.447-9.354 1.992-13.256-6.563-14.243-20.686-2.39-32.646-13.86-50.664-24.825-6.289-3.827-13.758-7.677-21.336-10.261 17.545-6.046 37.533 2.449 54.408 9.29 15.742 6.379 30.807 10.96 47.65 8.112.699 2.451 1.271 5.042 1.691 7.821 4.061 17.364 32.012 9.353 40.938.922 8.119-7.663 6.678-14.428 2.908-24.27-2.598-6.784-5.752-13.699-9.32-20.442 8.238-9.609 9.242-21.617 11.967-33.703 3.301-14.621 10.592-27.861 21.473-37.436-3.934 9.64-5.648 20.211-5.832 30.766-.215 12.273 3.541 29.037 1.676 43.152-.006.067-.027.13-.033.2-.549 4.036-1.561 7.854-3.264 11.281-5.285 10.643-1.979 12.99 6.361 12.077 25.354-2.772 51.453-8.747 66.076-31.568 14.004-21.853 11.041-50.359 27.631-68.778-8.041 21.34-7.91 45.295-13.961 67.579-8.391 30.908-38.5 45.362-68.33 47.858-16.385 1.372-9.795 7.848-2.713 13.868 15.012 12.766 19.027 35.088 32.471 49.628-7.572-.573-14.846-2.908-19.582-9.553-4.213-5.907-7.914-11.003-13.305-15.925-12.059-11.017-27.158-11.516-42.205-13.606-8.102-1.132-11.816.321-17.08 6.278-23.723 26.79-56.738 29.916-91.328 26.212-23.721-2.539-43.893.229-62.197 13.012z" fill="#b0cf45"/><path d="m188.021 294.273c25.137-7.342 52.242 1.112 80.652-2.413 24.523-3.043 45.174-15.433 60.41-34.456 8.727 1.506 17.539 2.118 26.277 3.679 14.33 2.559 22.922 14.308 30.729 25.262 6.537 9.172 19.08 11.437 30.102 11.376 12.156-.057 10.258-6.488 3.119-12.681-15.535-13.479-19.078-36.999-34.045-51.285 25.094-2.703 50.217-13.193 64.67-34.661 1.586-2.354 2.924-4.796 4.154-7.272 70.845 14.464 136.988 63.384 158.173 133.668-79.363 11.647-144.214 76.639-170.708 150.559-2.578 7.2-4.674 6.944-10.627 6.351-11.912-1.185-22.568-3.178-33.979-8.565-7.838-3.701-14.908-8.814-22.729-12.545-.203-.097-.396-.086-.598-.15-.16-.086-.258-.214-.434-.283-60.656-24.297-128.529-11.828-183.217 21.326-9.217-26.08-14.189-53.271-14.967-80.966-.814-28.951 5.582-54.028 15.189-81.004.1-.28-.342-.463-.477-.199-26.053 50.478-21.852 111.758-3.074 164.188-2.869 1.804-5.684 3.682-8.475 5.595-32.346-62.129-29.123-136.917 9.855-195.524z" fill="#ff5671"/><path d="m567.847 740.093c-14.482 41.844-38.934 78.748-72.132 108.07-73.926 65.297-174.5 58.859-258.871 18.193-64.566-31.119-121.266-89.76-139.289-159.252 14.916 35.354 43.182 65.314 78.17 86.492 64.512 39.047 148.824 44.666 218.85 20.025 35.545-12.51 66.941-32.824 96.838-55.428 28.966-21.897 48.988-49.771 67.701-80.506 13.342-21.91 22.15-45.096 23.398-69.928.629-12.453 1.125-13.047 3.311-.846 7.897 44.164-3.699 91.928-17.976 133.18z" fill="#ff5671"/><path d="m907.741 573.17c-3.949 46.368-31.264 94.347-60.793 129.255-62.799 74.24-188.234 77.027-274.076 48.691.451-1.168.971-2.308 1.41-3.479 18.49-49.375 29.322-104.809 16.672-156.875-5.455-22.457-17.385-42.589-33.457-59.002-17.248-17.62-37.035-21.98-60.699-23.928-14.893-1.228-24.758-6.76-36.055-15.066 16.473-45.813 43.054-90.18 85.66-115.799.279-.169.031-.585-.256-.437-44.486 23.013-71.164 68.668-88.048 114.354-3.438-2.493-6.895-4.373-10.551-5.695 24.676-75.985 92.41-144.972 174.851-152.262-.789 12.759-1.404 25.554 1.137 37.921 3.988 19.438 16.994 38.853 31.752 53.48 5.006 4.963 5.625 6.696-1.338 10.036-19.314 9.264-46.047 15.761-57.416-2.962-6.986-11.504-7.904-24.917-16.324-34.44-8.018-9.076-13.1-1.885-12.061 6.667 1.762 14.407-1.338 28.945 3.176 43.149 3.67 11.547 13.736 19.641 23.996 25.084 14.715 7.813 31.375 5.997 47.279 4.378 13.084-1.331 26.305-1.342 39.479-1.778 10.477-.344 10.738.893 14.242 7.718 9.932 19.37 14.881 41.113 28.627 58.6 5.85 7.438 16.133 14.887 25.779 15.951 15.158 1.674 34.693-8.785 47.465 1.797 3.621 3 5.523 5.154 8.986-.98 7.252-12.885 1.49-24.273-12.736-29.127-8.232-2.806-17.324-2.559-25.699-5.01-14.223-4.159-17.234-26.452-17.77-43.274-.295-9.251-.545-8.698 9.158-7.826 26.469 2.382 53.904 5.852 78.758-5.714 13.412-6.242 23.561-16.712 34.092-26.588 26.907 37.463 38.651 87.457 34.76 133.161z" fill="#ff5671"/><path d="m577.771 600.7c-1.236-26.379-6.219-38.052-15.707-51.353-9.561-13.397-21.885-24.54-36.875-28.765-13.002-2.132-26.093-2.869-39.279-3.047-12.84-.171-26.598-.47-37.582-7.854-.154-.104-.061-.378.131-.313 7.508 2.555 15.127 3.686 22.785 4.231 8.916.63 4.285-1.01-.381-3.348-1.936-.967-3.813-2.092-5.623-3.402-11.525-8.343-18.848-14.241-33.766-15.307-8.797-.63-17.656-1.731-25.982-4.826-6.543-2.431-7.258-2.633-2.031 1.646 6.779 5.554 13.893 10.646 21.588 12.181.162.032.166.3 0 .328-12.094 2.105-21.102-8.471-30.195-15.003-6.703-4.818-13.479-9.671-20.791-13.539-5.842-3.09-12.238-5.199-18.08-8.257-113.938-33.962-245.779 54.463-262.582 171.6-4.207 29.35.654 63.565 18.264 91.585 51.492 81.938 186.449 114.826 275.654 83.436 64.361-22.648 121.15-63.91 158.296-121.266 15.248-23.547 29.959-49.418 32.012-77.798.259-3.601.316-7.243.144-10.929zm-359.861 108.815c-14.041 11.215-37.955 17.871-47.188-3.192-8.93-20.373-14.184-49.866-10.443-71.793 4.639-27.19 18.377-53.146 36.793-73.628 15.842-17.616 30.844-42.228 55.121-49.046 22.797-6.401 55.93-4.281 78.078 4.082 17.699 6.681 13.52 24.667 5.986 37.911-8.631 14.652-14.445 31.02-23.803 45.227-8.506 12.916-19.438 23.115-29.936 34.359-23.063 24.694-37.796 54.669-64.608 76.08zm305.406-79.557c-2.887 29.162-28.775 54.817-50.453 71.822-13.811 10.832-28.283 20.611-43.357 29.599-16.908 10.081-31.215 21.324-46.287 33.831-16.455 13.656-40.795 12.215-61.064 15.469-20.805 3.34-14.863-23.325-10.627-34.692 5.869-15.752 16.883-29.905 23.939-45.249 6.547-14.236 12.979-28.759 22.785-41.125 11.412-14.391 23.316-27.593 31.922-43.963 6.496-12.354 13.152-22.791 23.789-31.961.094-.082.201-.104.301-.168.084-.076.125-.168.225-.238 21.133-14.839 48.104-11.92 71.795-6.888 27.303 5.801 39.739 26.196 37.032 53.563z" fill="#ff7cc3"/><path d="m420.972 707.757c-4.08 4.205-9.795 1.025-12.061-3.063-2.088-3.77-2.047-8.729-.939-12.762 2.57-6.86 10.424-1.74 13.365 2.238 2.94 3.974 3.137 9.979-.365 13.587z" fill="#faf098"/><path d="m462.492 673.743c.979 1.039 3.396 3.084 3.104 4.74-.365 2.071-5.684 3.095-7.234 3.545-5.895 1.703-13.211 1.338-16.926-4.191-3.25-4.842 1.996-8.848 6.521-9.387 5.185-.621 10.857 1.737 14.535 5.293z" fill="#faf098"/><path d="m482.427 619.562c8.25-.371 7.785 11.973 6.541 16.751-4.107 15.817-9.85 14.368-13.676 5.648-1.277-2.914-2.215-5.954-2.568-9.17-.67-6.067 3.002-12.931 9.703-13.229z" fill="#faf098"/><path d="m434.074 624.462c5.789-.297 11.238 4.471 13.965 9.129 3.557 7.273-3.076 7.844-8.627 7.486-5.6-.361-11.223-2.691-13.107-8.345-1.747-5.246 3.224-8.039 7.769-8.27z" fill="#faf098"/><path d="m404.713 644.319c6.164 3.155 9.857 10.625 11.637 16.969 1.939 10.166-11.422 5.147-15.979 2.984-5.652-2.681-8.496-7.275-8.672-13.432-.227-7.773 6.918-9.64 13.014-6.521z" fill="#faf098"/><path d="m456.969 593.88c4.236 2.564 3.244 8.838 2.07 12.646-2.777 9.029-6.098 8.891-9.184 1.799-.926-2.123-1.502-4.371-1.535-6.8-.06-4.268 4.014-10.447 8.649-7.645z" fill="#faf098"/><path d="m366.578 691.964c3.979-4.76 10.619-6.736 16.609-6.572 6.672.754 1.691 7.088-.441 9.964-3.719 5.019-7.631 9.31-14.307 9.417-8.103.132-4.914-9.15-1.861-12.809z" fill="#faf098"/><path d="m386.91 738.056c-4.652 3.294-7.887-2.395-7.965-6.359-.09-4.654 2.346-10.029 6.094-12.805 1.26-.803 2.938-2.088 4.537-1.794 1.859.342 2.029 5.247 2.133 6.47.418 4.861-.504 11.447-4.799 14.488z" fill="#faf098"/><path d="m484.908 581.392c-22.727-3.805-47.195-7.9-67.529 6.188-18.439 16.066-25.539 39.966-41.145 58.443-18.16 21.496-28.85 43.377-41.432 68.19-6.299 12.419-16.594 24.675-20.178 38.241-1.068 4.035-6.752 24.035 4.074 23.32 4.02-.268 7.695-1.148 11.592-2.029 19.756-4.465 37.049-.707 52.969-15.825 38.688-36.743 96.246-52.304 124.285-100.875 16.004-27.722 17.078-69.009-22.636-75.653zm-39.115 12.029c3.59-5.244 10.811-8.088 15.686-2.436 6.178 7.165 3.301 15.627.063 23.459-2.574 6.23-8.025 8.193-12.508 2.565-.072-.09-.088-.188-.146-.283-.084-.09-.186-.138-.262-.243-4.784-6.651-7.896-15.666-2.833-23.062zm-14.633 26.17c8.818-1.291 16.971 3.9 21.354 11.383 3.594 7.35.652 15.611-8.51 15.463-8.742-.143-19.26-2.012-22.424-11.518-2.418-7.262 1.914-14.203 9.58-15.328zm-29.84 18.14c10.684 1.973 17.283 12.41 20.027 22.181 2.057 10.792-7.223 14.668-16.451 11.669-9.404-3.055-18.031-8.656-18.344-19.512-.248-8.664 5.346-16.076 14.768-14.338zm-54.135 118.116c-8.027 3.313-10.119-3.566-10.08-10.318.346-8.559 3.152-19.719 12.352-22.824 8.176-2.762 16.941 2.06 16.896 11.394-.051 10.353-10.392 18.128-19.168 21.748zm12.371-62.584c4.711-8.676 13.85-13.322 23.631-13.052 8.104.913 10.99 8.041 6.227 14.773-5.484 7.753-11.691 15.811-22.242 14.854-8.313-.749-11.286-9.821-7.616-16.575zm29.969 49.267c-6.176 3.353-14.09.258-15.375-7.036-1.389-7.88 1.83-16.303 8.271-21.077 5.834-3.71 12.414-3.119 13.867 4.668 1.382 7.385.917 19.276-6.763 23.445zm36.949-33.289c-4.418 5.742-13.584 7.893-19.074 2.113-5.207-5.482-6.381-13.67-4.426-20.797 7.319-19.53 34.432 4.462 23.5 18.684zm44.227-30.006c-.59 3.339-3.766 5.234-6.693 6.363-8.684 3.342-19.713 4.174-26.115-3.846-5.096-6.381-2.029-14.629 5.355-17.427 7.756-2.941 17.133.171 22.91 5.752 2.262 2.412 5.182 5.547 4.543 9.158zm18.949-31.826c-1.721 2.719-5.551 7.619-9.27 7.594-3.566-.021-5.404-2.871-7.129-5.631-4.178-7.34-8.482-17.975-4.027-26.174 3.982-7.319 14.613-12.709 21.215-5.094 7.416 8.557 4.862 20.383-.789 29.305z" fill="#ff9fb8"/><path d="m342.285 745.528c.211-5.166 1.203-10.5 4.457-14.676 4.66-5.977 13.576-4.899 14.43 3.245.682 6.519-6.572 11.45-11.293 14.433-4.387 2.768-7.635 4.812-7.594-3.002z" fill="#faf098"/><path d="m199.603 686.665c-7.125 5.238-11.496 6.621-11.654-1.17.18-5.617 1.861-10.971 5.783-15.106 4.195-4.431 11.078-4.274 12.873 1.995 1.717 5.988-2.541 10.998-7.002 14.281z" fill="#faf098"/><path d="m182.232 631.696c2.605-2.596 6.135-4.607 9.83-5.354 9.428-1.897 12.586 3.202 9.023 10.021-3.828 7.326-15.545 14.48-21.904 9.066-4.476-3.813.079-10.772 3.051-13.733z" fill="#faf098"/><path d="m217.656 586.524c5.041 4.032 5.176 11.246 5.217 17.133.016 2.498.428 6.48-1.305 8.559-.496.594-2.465-.813-3.383-1.498-4.555-3.643-7.824-8.172-9.248-13.883-1.414-5.664 1.76-15.878 8.719-10.311z" fill="#faf098"/><path d="m229.568 659.096c-5.127 3.229-10.252-1.425-10.658-6.525-.453-5.729 1.455-12.006 4.865-16.608 1.254-1.367 2.717-2.57 4.641-2.76 3.275-.321 3.746 4.709 4.201 6.918 1.203 5.858 2.973 15.186-3.049 18.975z" fill="#faf098"/><path d="m252.771 610.104c3.502-1.154 7.289-.98 10.914-.15 9.596 2.196 7.02 6.134.77 10.469-4.832 3.357-12.051 6.438-17.586 3.14-7.299-4.349 1.25-11.925 5.902-13.459z" fill="#faf098"/><path d="m245.699 554.231c3.211 4.707 3.939 11.369 4.576 16.879 1.051 9.025-1.096 9.921-6.572 6.701-5.996-3.758-13.064-9.872-13.688-17.43-.632-7.653 11.223-12.689 15.684-6.15z" fill="#faf098"/><path d="m274.158 578.958c4.928-3.197 11.361-4.104 17.104-4.005 10.863 1.086 2.715 10.546-1.174 14.761-4.529 4.908-12.574 7.928-18.947 4.98-7.682-3.552-1.436-12.849 3.017-15.736z" fill="#faf098"/><path d="m274.621 531.372c6.813-.198 9.584 6.156 10.691 11.828.945 4.861.225 12.992-6.436 11.126-5.35-1.974-9.828-6.306-11.898-11.63-2.316-5.95 1.487-11.142 7.643-11.324z" fill="#faf098"/><path d="m320.047 518.02c-11.297-2.375-22.613-2.833-34.107-3.105-25.557-.603-44.373 3.139-62.309 22.997-28.387 31.432-63.02 70.26-59.107 115.954 1.717 20.076 7.984 77.919 41.773 57.202 21.385-13.115 36.193-32.966 50.455-53.137 12.543-17.739 27.809-31.859 41.588-48.463 14.543-17.521 22.004-38.81 33.443-58.236 8.465-14.879 7.469-29.174-11.736-33.212zm-42.537 8.472c9.57 2.128 14.094 12.482 13.156 21.697-.771 7.575-4.906 13.449-13.166 11.134-7.891-2.91-17.193-11.346-16.391-20.67.717-8.345 7.998-14.025 16.401-12.161zm-52.01 29.585c2.385-8.15 15.836-14.246 22.381-7.342 6.186 6.528 8.176 18.555 7.988 27.285-.215 10-7.418 10.59-14.783 6.266-8.41-5.273-18.807-15.205-15.586-26.209zm-21.414 32.424c2.434-7.592 9.338-11.955 16.365-6.336 6.822 5.457 8.631 15.803 7.75 24.527-1.01 9.793-8.061 13.875-16.697 4.947-5.827-6.028-10.049-14.917-7.418-23.138zm-26.364 62.236c-7.398-4.732-6.213-13.984-1.412-20.217 4.119-5.346 11.021-9.351 17.926-9.688 8.398-.412 16.26 4.283 12.773 14.74-3.566 10.702-19.203 21.616-29.287 15.165zm18.313 44.258c-8.725 4.685-13.088-.717-13.268-9.5.275-8.592 4.037-19.359 12.99-22.451 7.738-2.674 15.24 1.332 16.15 9.762 1.163 10.773-7.2 17.533-15.872 22.189zm38.279-32.955c-5.867 4.557-15.436 4.221-19.063-3.209-3.252-6.664-1.506-16.024 2.217-22.699 7.947-14.273 15.973-9.912 18.814-2.426 2.851 7.5 5.505 22.527-1.968 28.334zm35.75-39.346c-6.055 5.096-18.33 11.108-25.811 5.343-6.787-5.229-6.344-13.423-.195-19.034 6.297-5.75 15.865-5.703 23.723-3.279 10.662 3.285 10.285 10.242 2.283 16.97zm28.192-34.832c-5.818 7.821-14.486 14.982-25.039 12.874-9.201-1.839-14.209-12.267-8.115-20.312 6.078-8.023 16.441-10.821 26.16-10.652 11.251 1.124 13.275 9.649 6.994 18.09zm16.041-30.795c-2.859 3.031-6.219 6.426-10.701 6.249-4.09-.165-5.889-4.478-6.744-7.823-1.479-8.043-.053-18.021 6.537-23.562 5.398-4.536 17.336-3.429 19.898 3.985 2.627 7.597-4.143 16.011-8.99 21.151z" fill="#ff9fb8"/><path d="m304.15 538.94c2.557-4.713 10.506-6.762 14.037-1.744 2.48 3.523-2.438 9.809-4.391 12.471-1.367 1.866-2.975 3.57-4.588 5.221-3.15 3.219-6.012 4.502-7.361-.771-.941-5.12-.183-10.594 2.303-15.177z" fill="#faf098"/><path d="m320.849 219.375c-9.395-1.797-8.514-17.837-12.197-24.142-3.717-6.359-8.514-11.689-12.959-17.554-4.066-5.365-5.145-10.941-5.021-16.874-3.018 5.062-8.252 9.641-13.082 9.812 0 0-.004-.003-.01-.003 3.922 5.208 8.709 9.508 13.434 14.131 11.369 11.124 18.184 25.015 20.549 40.772 1.92 8.215 18.906 1.941 23.004-.584 7.871-4.851 7.361-10.967 4.699-17.571-1.831 8.048-8.415 13.924-18.417 12.013z" fill="#aaaa38"/><path d="m722.728 328.358c-1.99 5.158-7.389 9.813-13.127 12.023 6.533 3.301 11.834 6.901 14.893 15.783 3.162 9.18 3.361 19.933 4.141 29.534.547 6.728.758 13.73-.084 20.537-1.949 15.759-3.773 26.723-19.359 23.694-6.17-1.201-9.518-8.999-6.914-15.774-1.125 2.066-2.35 4.102-3.684 6.094-6.602 12.467 26.129 32.612 33.775 6.19 2.086-7.214 3.992-14.416 4.451-21.977.793-13.073-.207-25.618-2.68-38.501-1.895-9.85-4.344-27.104-11.412-37.603z" fill="#aaaa38"/><path d="m630.917 296.342c2.014 21.944-4.779 44.321-.201 66.63 4.887 23.812 19.158 45.729 37.561 61.632 6.012 5.194 5.469 8.03.656 11.376 4.281-2.235 7.402-6.007 8.303-11.362 2.055-12.242-15.898-26.105-22.355-34.167-14.209-17.734-20.086-34.294-20.428-57.141-.167-11.071 1.009-25.797-3.536-36.968z" fill="#aaaa38"/><path d="m582.972 445.505c-3.811-5.444-5.541-11.687-6.701-18.106.145 4.286.652 8.493 1.939 12.55 5.43 17.078 21.926 29.077 40.145 29.165 22.043.104 44.754-1.682 66.949-3.22 13.041-.904 12.217.225 16.613 8.583 10.895 20.696 14.678 46.857 31.748 63.085 15.213 14.467 28.17 9.157 46.457 7.891-.209-.021-.418-.049-.625-.074-15.02-1.684-28.971-1.301-40.959-12.221-20.51-18.684-13.799-55.301-37.197-71.541-9.463-6.568-23.756-4.126-34.248-2.75-18.725 2.455-36.729 7.641-55.773 5.06-11.934-1.618-21.584-8.762-28.348-18.422z" fill="#aaaa38"/><path d="m381.523 225.45c29.83-2.496 59.939-16.95 68.33-47.858 4.33-15.949 5.531-32.745 8.791-48.836-4.512 11.268-6.186 23.584-9.117 35.405-5.467 22.05-20.953 39.871-42.033 48.342-8.508 3.418-18.002 4.435-26.842 6.739-3.076.803-7.994 2.462-9.33 5.714-1.289 3.144-.705 5.635.877 7.62-2.158-3.456-.844-6.275 9.324-7.126z" fill="#aaaa38"/><path d="m355.027 197.727c-.869 3.603-1.246 10.059 3.93 11.003 1.168.211 2.289.328 3.389.4-1.744-1.66-1.529-4.947 1.4-10.848 1.703-3.427 2.715-7.245 3.264-11.281.006-.07.027-.133.033-.2 1.865-14.115-1.891-30.879-1.676-43.152.154-8.851 1.477-17.679 4.189-25.994-9.357 12.248-6.9 31-6.922 45.45-.01 6.136-.424 12.196-1.43 18.254-.989 5.948-4.825 10.757-6.177 16.368z" fill="#aaaa38"/><path d="m775.529 354.677c-10.1 16.356-19.662 33.096-23.508 52.093-3.393 16.768 5.855 29.057 19.068 33.648-5.676-2.527-10.701-6.04-14.512-10.912-10.27-13.128 3.906-38.837 9.891-51.609 8.691-18.547 19.732-35.504 32.273-51.454-10.089 6.414-17.218 18.524-23.212 28.234z" fill="#aaaa38"/><path d="m282.746 242.131c1.594-12.104-19.957-11.896-27.461-13.325-18.221-3.477-31.309-24.848-50.363-24.142 5.666 2.367 11.121 5.279 15.898 8.185 18.018 10.965 29.979 22.436 50.664 24.825 6.303.729 11.445 3.047 10.346 7.956.41-1.084.748-2.227.916-3.499z" fill="#aaaa38"/><path d="m853.993 437.261c-10.596 7.968-20.148 16.249-33.215 19.805-8.891 2.417-18.793 2.655-28.008 2.581-8.674-.069-27.322-1.462-37.988 3.658.553.027 1.025.01 1.623.063 31.309 2.804 68.623 8.851 93.705-13.42 12.283-10.908 22.865-22.954 36.113-31.661-11.857 3.175-24.355 13.056-32.23 18.974z" fill="#aaaa38"/><path d="m176.726 289.011c15.322-7.216 32.037-8.695 51.055-6.658 34.59 3.704 67.605.578 91.328-26.212 5.264-5.957 8.979-7.41 17.08-6.278 15.047 2.091 30.146 2.59 42.205 13.606 5.391 4.922 9.092 10.018 13.305 15.925 3.563 4.999 8.561 7.556 14.041 8.761-14.709-10.881-22.131-30.058-40.184-37.957-20.309-8.89-39.594-8.966-56.189 6.168-12.447 11.354-23.713 18.821-40.859 21.095-13.24 1.752-26.871.27-40.166.085-18.274-.25-36.395 2.217-51.616 11.465z" fill="#aaaa38"/><path d="m458.361 682.028c1.551-.45 6.869-1.474 7.234-3.545.291-1.641-2.072-3.656-3.066-4.703-2.299 2.289-5.186 3.857-8.828 4.316-4.559.572-10.025-1.742-12.533-5.652-.918 1.533-1.08 3.381.268 5.393 3.714 5.529 11.031 5.894 16.925 4.191z" fill="#f2ae79"/><path d="m417.795 703.7c-4.723 1.451-8.18-3.26-9.707-6.922-.289-.694-.492-1.398-.646-2.104-.469 3.395-.164 7.066 1.471 10.02 2.266 4.088 7.98 7.268 12.061 3.063 2.367-2.438 3.01-5.968 2.291-9.229-1.005 2.334-2.552 4.276-5.47 5.172z" fill="#f2ae79"/><path d="m488.969 636.313c.09-.351.176-.751.256-1.174-2.143 3.107-5.084 5.249-9.451 4.276-3.688-.82-5.789-5.738-6.781-8.882-.1-.315-.107-.639-.182-.958-.141 1.07-.203 2.154-.086 3.216.354 3.216 1.291 6.256 2.568 9.17 3.826 8.72 9.568 10.169 13.676-5.648z" fill="#f2ae79"/><path d="m381.447 732.116c-1.246-1.036-1.838-2.324-2.146-3.715-.23 1.109-.375 2.223-.355 3.295.078 3.965 3.313 9.653 7.965 6.359 3.873-2.742 4.992-8.352 4.871-12.998-1.037 2.018-2.203 3.953-3.613 5.681-1.831 2.241-4.253 3.434-6.722 1.378z" fill="#f2ae79"/><path d="m439.412 641.077c5.348.344 11.607-.236 8.883-6.775-3.432 2.082-7.623 2.278-12.125.953-4.098-1.207-7.957-3.744-9.344-7.416-.877 1.277-1.182 2.908-.521 4.894 1.884 5.653 7.507 7.983 13.107 8.344z" fill="#f2ae79"/><path d="m286.746 587.687c-3.967 2.364-8.766 2.634-13.158 1.615-2.744-.639-4.076-2.312-4.73-4.367-1.922 3.594-2.236 7.668 2.283 9.76 6.373 2.947 14.418-.072 18.947-4.98 2.824-3.061 7.861-8.876 6.262-12.254-2.251 4.118-5.286 7.653-9.604 10.226z" fill="#f2ae79"/><path d="m361.172 734.098c-.174-1.673-.752-2.973-1.502-4.052.02 4.219-2.291 8.477-5.967 11.27-3.133 2.375-8.389 3.065-10.936-.447-.246 1.547-.418 3.105-.482 4.66-.041 7.813 3.207 5.77 7.594 3.002 4.72-2.983 11.974-7.915 11.293-14.433z" fill="#f2ae79"/><path d="m382.746 695.355c1.324-1.786 3.742-4.904 3.791-7.193-2.297 2.831-4.717 5.493-7.969 7.448-2.238 1.346-4.809 2.217-7.295 2.954-2.117.625-4.283.812-6.469.479-.512-.08-.951-.196-1.348-.34-.566 3.22.41 6.143 4.982 6.068 6.677-.106 10.589-4.397 14.308-9.416z" fill="#f2ae79"/><path d="m391.699 650.841c.176 6.156 3.02 10.751 8.672 13.432 4.557 2.163 17.918 7.182 15.979-2.984-.27-.955-.596-1.94-.953-2.93-3.887 3.104-8.67 3.777-14.467.242-4.822-2.941-7.949-7.594-8.029-12.642-.798 1.241-1.261 2.849-1.202 4.882z" fill="#f2ae79"/><path d="m449.855 608.325c3.059 7.034 6.35 7.201 9.111-1.601-.904.198-1.84.274-2.828.022-4.633-1.174-5.365-6.451-5.656-11.16-1.34 1.707-2.189 4.002-2.162 5.938.033 2.43.609 4.678 1.535 6.801z" fill="#f2ae79"/><path d="m206.605 672.384c-.305-1.068-.797-1.896-1.361-2.615-.113 4.234-1.586 8.412-4.672 11.364-3.557 3.404-9.994 3.015-11.623-1.925-.555 2.028-.93 4.124-1 6.287.158 7.791 4.529 6.408 11.654 1.17 4.461-3.283 8.719-8.293 7.002-14.281z" fill="#f2ae79"/><path d="m179.181 645.429c6.359 5.414 18.076-1.74 21.904-9.066 2.604-4.983 1.578-9.018-2.822-10.102-.029 5.383-1.855 10.584-6.783 13.708-3.533 2.237-9.83 2.358-12.553-1.194-.307-.398-.477-.861-.654-1.32-1.248 2.819-1.562 5.87.908 7.974z" fill="#f2ae79"/><path d="m223.531 653.071c-2.902-2.43-2.705-7.283-2.395-10.674.088-.967.24-1.902.443-2.815-1.992 4.003-3.014 8.647-2.67 12.988.406 5.101 5.531 9.755 10.658 6.525 2.715-1.709 3.799-4.56 4.113-7.696-2.833 2.922-6.665 4.584-10.149 1.672z" fill="#f2ae79"/><path d="m243.703 577.812c5.477 3.22 7.623 2.324 6.572-6.701-.029-.259-.07-.545-.102-.811-1.137.689-2.361 1.217-3.758 1.339-3.484.299-6.586-2.175-8.803-4.563-3.377-3.646-5.693-8.99-4.246-13.596-2.137 1.661-3.584 4.102-3.352 6.901.624 7.558 7.693 13.673 13.689 17.431z" fill="#f2ae79"/><path d="m266.172 610.667c-1.195 4.715-4.857 7.943-10.627 9.146-3.039.633-6.424.408-9.242-.92-.887-.418-1.434-.914-1.852-1.447-.859 2.16-.477 4.391 2.418 6.116 5.535 3.299 12.754.218 17.586-3.14 5.625-3.902 8.244-7.478 1.717-9.755z" fill="#f2ae79"/><path d="m218.185 610.718c.918.686 2.887 2.092 3.383 1.498 1.732-2.078 1.32-6.061 1.305-8.559-.002-.261-.006-.539-.012-.805-1.93 1.05-4.162 1.35-6.621.266-5.527-2.432-7.07-9.125-6.447-14.918-1.184 2.545-1.498 6.055-.855 8.635 1.423 5.711 4.693 10.24 9.247 13.883z" fill="#f2ae79"/><path d="m278.877 554.326c4.564 1.279 6.305-2.149 6.664-5.995-.809.513-1.768.814-2.971.742-3.119-.185-6.041-2.492-8.164-4.582-2.355-2.316-4.25-5.27-4.947-8.523-.23-1.066-.18-2.006 0-2.885-2.803 2.028-4.029 5.631-2.48 9.613 2.07 5.325 6.548 9.657 11.898 11.63z" fill="#f2ae79"/><path d="m313.654 549.845c-2.924 1.127-6.051 1.037-7.912-2.232-1.881-3.311-1.074-7.141.158-10.776-.693.625-1.318 1.309-1.75 2.104-2.486 4.583-3.244 10.057-2.303 15.176 1.35 5.273 4.211 3.99 7.361.771 1.563-1.596 3.106-3.248 4.446-5.043z" fill="#f2ae79"/><path d="m775.603 378.675c-4.137 8.828-7.953 17.852-10.791 27.195-4.83 15.894.045 24.461 16.33 28.504 13.5 3.351 29.357 4.551 43.139 1.171-11.703-.751-23.301-3.42-33.799-8.065-24.971-11.05-17.117-32.341-13.006-52.567-.625 1.252-1.278 2.491-1.873 3.762z" fill="#de3f58"/><path d="m594.46 483.529c28.213 18.414 74.844-13.553 94.451 15.296 13.104 19.275 16.004 41.316 34.811 57.217 21.102 17.838 47.012-1.203 70.65.07-12.633-6.238-29.924 2.135-43.645.619-9.646-1.064-19.93-8.513-25.779-15.951-13.746-17.486-18.695-39.229-28.627-58.6-3.504-6.825-3.766-8.062-14.242-7.718-13.174.437-26.395.447-39.479 1.778-15.904 1.619-32.564 3.435-47.279-4.378-9.484-5.032-18.734-12.365-22.988-22.559 2.453 13.642 7.955 24.978 22.127 34.226z" fill="#de3f58"/><path d="m861.886 450.397c-6.957 6.301-14.285 12.146-22.996 16.199-24.854 11.565-52.289 8.096-78.758 5.714-9.703-.872-9.453-1.425-9.158 7.826.141 4.454.467 9.291 1.119 14.076 9.857-14.057 29.885-10.601 45.32-11.036 12.572-.355 24.521-2.55 36.15-7.369 10.923-4.524 20.05-15.198 28.323-25.41z" fill="#de3f58"/><path d="m449.935 199.094c-14.453 21.468-39.576 31.958-64.67 34.661 2.416 2.307 4.514 4.873 6.436 7.58 24.738-.865 58.826-19.852 59.711-44.638-.481.803-.945 1.613-1.477 2.397z" fill="#de3f58"/><path d="m373.01 197.131c-.465 1.533-1.004 3.042-1.654 4.509 13.775-1.424 29.301-3.895 41.221-11.023-12.788 4.629-25.905 7.966-39.567 6.514z" fill="#de3f58"/><path d="m739.208 349.158c1.016 3.618 1.967 7.271 2.766 10.972 1.609-2.346 3.318-4.63 5.109-6.856-1.26-.256-2.486-.69-3.559-1.169-1.695-.761-3.048-1.809-4.316-2.947z" fill="#de3f58"/><path d="m226.65 263.857c.785-.004 1.551.014 2.336.003 18.516-.295 31.137-5.107 42.512-17.486-5.443-.492-10.582-1.511-15.533-2.99-2.314 3.863-5.082 7.481-8.885 10.791-6.047 5.268-13.088 7.792-20.43 9.682z" fill="#de3f58"/><path d="m569.74 734.498c-61.02 143.239-230.726 224.089-406.033 80.915 21.674 20.811 46.717 38.209 73.137 50.943 84.371 40.666 184.945 47.104 258.871-18.193 33.199-29.322 57.65-66.227 72.132-108.07.639-1.846 1.264-3.722 1.893-5.595z" fill="#de3f58"/><path d="m894.128 626.241c-23.463 35.252-58.26 65.723-91.871 84.254-48.041 26.485-138.197 58.707-184.633 13.227-21.266-20.826-6.68-68.876-8.361-95.721-1.277-20.365-6.355-40.179-14.639-58.777-8.457-18.977-22.754-34.78-39.941-46.168-7.938-5.261-16.52-7.764-25.348-9.205 10.146 3.532 19.477 9.037 28.162 17.91 16.072 16.413 28.002 36.545 33.457 59.002 12.65 52.066 1.818 107.5-16.672 156.875-.439 1.171-.959 2.311-1.41 3.479 85.842 28.336 211.277 25.549 274.076-48.691 18.239-21.561 35.612-48.111 47.18-76.185z" fill="#de3f58"/><path d="m617.448 374.235c2.549 18.617 30.113 46.806 23.727 65.314 4.439-1.481 8.77-3.265 12.775-5.185 6.963-3.34 6.344-5.073 1.338-10.036-14.758-14.628-27.764-34.043-31.752-53.48-2.141-10.418-2.037-21.142-1.479-31.891-5.915 10.633-6.355 22.542-4.609 35.278z" fill="#de3f58"/><path d="m414.453 457.461c-12.213 5.075-25.838-4.086-36.955-8.111-11.65-4.221-24.102-6.933-36.176-9.574-21.316-4.664-44.871-7.113-66.518-3.863-23.842 3.58-44.965 12.804-67.445 20.896-9.568 3.445-17.508 4.131-24.18 2.862 1.936 7.583 4.172 15.096 6.793 22.51 54.688-33.154 122.561-45.623 183.217-21.326.176.069.273.197.434.283.201.064.395.054.598.15 7.82 3.73 14.891 8.844 22.729 12.545 11.41 5.388 22.066 7.381 33.979 8.565 5.953.594 8.049.85 10.627-6.351 25.48-71.094 86.451-133.9 161.677-148.965-34.912-6.865-68.164 4.295-96.15 26.86-16.39 13.213-31.171 28.262-43.816 45.129-14.353 19.151-25.609 48.745-48.814 58.39z" fill="#de3f58"/><path d="m699.718 396.003c.854-5.075.605-10.254-1.025-15.557-6.529 2.629-13.119-.124-19.578-4.027-5.637-3.406-9.533-8.039-13.037-13.018 7.089 14.116 17.564 25.916 33.64 32.602z" fill="#de3f58"/><path d="m268.674 291.86c-17.129 2.125-33.777-.093-49.811-.587 12.375 1.821 24.66 5.073 37.094 6.404 15.775 1.688 30.508-2.905 44.664-9.312 28.666-12.973 49.555-24.922 79.814-6.101 1.803 1.119 3.477 2.239 5.104 3.314-7.664-10.731-16.182-21.997-30.178-24.497-8.738-1.561-17.551-2.173-26.277-3.679-15.237 19.026-35.887 31.415-60.41 34.458z" fill="#de3f58"/><path d="m178.17 489.794c2.791-1.913 5.605-3.791 8.475-5.595-2.99-8.352-5.563-16.945-7.75-25.666-8.018-2.817-13.9-8.828-18.164-16.653 3.648 16.451 9.448 32.569 17.439 47.914z" fill="#de3f58"/><path d="m843.335 537.241c-7.184 26.491-18.563 47.35-39.287 66.949-26.852 25.395-62.389 34.182-98.721 36.759-20.299 1.438-44.615-2.358-61.752 11.167-28.346 22.369-8.777 59.313 24.639 63.637 84.33 10.926 204.008-43.197 213.898-171.527 3.184-41.018-25.747-55.032-38.777-6.985z" fill="#ff9680"/><path d="m375.482 367.058c-5.275-21.205-18.66-36.343-38.928-43.774-8.859-3.249-19.084 1.259-27.045 4.587-21.207 8.866-37.445 16.886-58.912 2.831-21.305-13.946-41.488-4.145-49.498 16.344-6.162 15.763-9.736 32.277-8.125 49.609 1.367 14.678 13.619 34.171 30.756 32.696 25.486-2.197 46.732-25.932 70.795-34.659 18.576-6.736 35.656-4.936 52.455 4.983 7.412 4.376 14.1 6.285 22.4 3.796 13.653-4.095 8.383-27.245 6.102-36.413z" fill="#ff9680"/><path d="m453.972 256.141c-.328 12.403 3.564 23.413 5.125 35.69 1.627 12.824-18.438 22.421-23.904 32.127-6.152 10.919-11.697 26.833-4.715 38.751 5.611 9.577 14.785 9.262 23.012 3.647 4.506-3.076 8.037-8.109 11.271-12.408 10.166-13.503 22.975-22.377 37.939-30.146 13.951-7.243 29.488-11.853 34.814-27.936 5.471-16.523-10.715-32.122-28.758-43.75-19.346-12.466-53.938-27.887-54.784 4.025z" fill="#ff9680"/><path d="m507.544 657.045c16.004-27.722 17.078-69.009-22.636-75.653-3.576-.599-7.201-1.197-10.84-1.738 3.984 2.014 7.918 4.142 11.656 6.68 14.355 9.75 22.865 24.102 22.839 41.569-.049 31.09-26.771 55.308-49.732 72.292-22.652 16.756-47.609 30.109-70.721 46.203-15.4 10.727-33.668 22.23-53.238 19.17-13.998-2.189-16.686-12.592-16.012-23.941-1.758 3.533-3.26 7.129-4.236 10.828-1.068 4.035-6.752 24.035 4.074 23.32 4.02-.268 7.695-1.148 11.592-2.029 19.756-4.465 37.049-.707 52.969-15.825 38.688-36.744 96.247-52.305 124.285-100.876z" fill="#ec748f"/><path d="m331.783 551.231c7.398-13.002 7.566-25.556-5.322-31.211 3.811 7.322 5.455 15.264 2.021 25.469-3.076 9.141-9.383 17.498-14.617 25.488-5.555 8.475-9.85 17.57-15.064 26.23-9.098 15.102-22.826 27.168-35.008 39.707-9.867 10.15-18.105 21.307-26.563 32.597-8.828 11.79-18.484 23.767-30.916 31.917-15.23 9.988-26.883 1.123-32.924-13.602-4.461-10.877-6.199-22.836-7.922-34.391-.445-2.994-.836-5.93-1.188-8.845-.078 3.061-.025 6.147.242 9.273 1.717 20.076 7.984 77.919 41.773 57.202 21.385-13.115 36.193-32.966 50.455-53.137 12.543-17.739 27.809-31.859 41.588-48.463 14.545-17.519 22.006-38.807 33.445-58.234z" fill="#ec748f"/><path d="m577.771 600.7c-1.236-26.379-6.219-38.052-15.707-51.353-9.561-13.397-21.885-24.54-36.875-28.765-13.002-2.132-26.093-2.869-39.279-3.047-12.84-.171-26.598-.47-37.582-7.854-.154-.104-.061-.378.131-.313 7.508 2.555 15.127 3.686 22.785 4.231 8.916.63 4.285-1.01-.381-3.348-1.936-.967-3.813-2.092-5.623-3.402-11.525-8.343-18.848-14.241-33.766-15.307-8.797-.63-17.656-1.731-25.982-4.826-6.543-2.431-7.258-2.633-2.031 1.646 6.779 5.554 13.893 10.646 21.588 12.181.162.032.166.3 0 .328-12.094 2.105-21.102-8.471-30.195-15.003-6.703-4.818-13.479-9.671-20.791-13.539-5.842-3.09-12.238-5.199-18.08-8.257-113.938-33.962-245.779 54.463-262.582 171.6-4.207 29.35.654 63.565 18.264 91.585 51.492 81.938 186.449 114.826 275.654 83.436 64.361-22.648 121.15-63.91 158.296-121.266 15.248-23.547 29.959-49.418 32.012-77.798.259-3.601.316-7.243.144-10.929zm-359.861 108.815c-14.041 11.215-37.955 17.871-47.188-3.192-8.93-20.373-14.184-49.866-10.443-71.793 4.639-27.19 18.377-53.146 36.793-73.628 15.842-17.616 30.844-42.228 55.121-49.046 22.797-6.401 55.93-4.281 78.078 4.082 17.699 6.681 13.52 24.667 5.986 37.911-8.631 14.652-14.445 31.02-23.803 45.227-8.506 12.916-19.438 23.115-29.936 34.359-23.063 24.694-37.796 54.669-64.608 76.08zm305.406-79.557c-2.887 29.162-28.775 54.817-50.453 71.822-13.811 10.832-28.283 20.611-43.357 29.599-16.908 10.081-31.215 21.324-46.287 33.831-16.455 13.656-40.795 12.215-61.064 15.469-20.805 3.34-14.863-23.325-10.627-34.692 5.869-15.752 16.883-29.905 23.939-45.249 6.547-14.236 12.979-28.759 22.785-41.125 11.412-14.391 23.316-27.593 31.922-43.963 6.496-12.354 13.152-22.791 23.789-31.961.094-.082.201-.104.301-.168.084-.076.125-.168.225-.238 21.133-14.839 48.104-11.92 71.795-6.888 27.303 5.801 39.739 26.196 37.032 53.563z" fill="#ff7cc3"/><g fill="#68182b"><path d="m274.019 694.927c-5.721 4.182-11.578 8.24-17.57 12.272-16.408 11.044-33.141 23.862-43.02 41.354-.072.129.111.286.213.164 14.316-17.325 30.42-30.595 49.277-42.645 5.793-3.704 3.197-.869-3.057 5.313-5.059 5-10.102 9.967-15.348 14.479-.141.122.041.349.197.255 9.086-5.424 25.299-19.66 37.537-30.916 15.451-14.215 14.303-13.847 11.035 1.296-2.203 10.187-3.813 20.544-8.244 30.087-.166.362.342.68.545.32 6.623-11.752 9.025-25.248 12.547-38.12 2.281-8.329 6.613-14.095 11.635-21.04 7.572-10.473 50.504-56.608 65.189-69.814 4.104-3.69 21.666-17.45 26.164-21.07 6.066-4.882 11.643-10.332 15.91-16.238.068-.092-.078-.195-.154-.119-2.631 2.56-5.432 4.934-8.307 7.219-5.342 4.236-6.295 4.095-1.965-.742 4.949-5.531 9.654-11.302 14.014-17.409.168-.238-.199-.499-.396-.304-15.885 15.743-31.158 31.965-47.545 47.215-4.74 4.412-9.596 8.738-14.471 13.065-8.17 7.247-15.939 14.731-7.365-3.996 11.137-24.333 16.859-50.044 35.166-70.927.18-.205-.086-.457-.293-.293-21.617 17.33-27.875 46.754-38.385 71.029-2.895 6.683-6.49 12.954-10.4 19.041-15.362 23.893-44.251 56.889-62.909 70.524z"/><path d="m278.224 737.39c-.096.2.156.432.326.25 1.834-2.004 4.729-4.586 4.996-7.439.012-.116-.137-.188-.23-.133-2.398 1.495-3.918 4.869-5.092 7.322z"/><path d="m382.91 533.831c2.346-1.929 5.65-2.776 7.756-4.906.174-.176.055-.498-.203-.492-3.15.097-6.184 2.656-7.82 5.192-.116.173.126.321.267.206z"/><path d="m99.496 642.02c3.904-12.617 7.047-25.45 11.262-37.976 5.363-15.93 13.539-29.576 21.531-44.178.063-.114-.088-.238-.186-.141-20.221 20.482-29.676 54.451-33.244 82.209-.047.376.533.42.637.086z"/><path d="m134.642 556.89c1.82-1.65 3.197-3.586 4.299-5.775.121-.235-.123-.506-.369-.368-2.266 1.286-3.631 3.437-4.289 5.933-.059.214.201.354.359.21z"/><path d="m567.917 620.06c-.018.268.393.314.457.063 6.039-23.029 2.166-50.018-13.586-68.445-.074-.088-.209.025-.154.119 12.711 22.169 14.736 43.219 13.283 68.263z"/><path d="m567.378 623.79c-.635 2.091-1.309 4.162-2.156 6.179-.105.252.254.397.422.245 1.857-1.673 2.996-3.872 2.514-6.424-.077-.412-.67-.36-.78 0z"/><path d="m389.314 797.485c-2.303.201-4.371 1.273-6.529 2.037-2.52.893-4.977 1.896-7.396 3.023-.234.111-.059.439.166.396 4.383-.861 10.879-1.352 13.945-5.012.129-.155.064-.467-.186-.444z"/><path d="m391.931 798.271c-1.84.273-3.234 1.598-4.68 2.689-.213.162-.154.508.143.52 2.018.066 3.965-.986 4.822-2.842.1-.211-.06-.403-.285-.367z"/><path d="m328.929 789.372c.053-.16-.09-.336-.252-.33-1.391.031-2.484.746-3.781 1.199-1.355.48-2.729.875-3.971 1.615-.109.068-.094.25.037.279 2.413.573 7.038-.058 7.967-2.763z"/><path d="m333.668 789.05c-1.582.066-2.619.814-3.67 1.955-.189.205-.051.502.215.521 1.678.121 2.945-.568 3.672-2.098.076-.161-.014-.386-.217-.378z"/><path d="m477.517 736.233c-.07.037-.082.143-.025.199 1.793 1.735 4.154 1.049 5.678-.642.176-.193.061-.522-.217-.522-1.904.008-3.692.053-5.436.965z"/><path d="m476.349 720.401c.064-.1.064-.256 0-.355-.898-1.338-3.148-.775-4.273-.047-.166.107-.166.342 0 .449 1.125.729 3.375 1.291 4.273-.047z"/><path d="m479.787 722.396c.082-.216.082-.292 0-.508-.141-.378-.475-.74-.924-.701-.852.068-1.467.265-2.217.668-.217.116-.217.458 0 .574.75.403 1.365.6 2.217.668.449.039.783-.324.924-.701z"/><path d="m161.156 742.931c-1.564-1.189-4.275.402-5.65 1.315-.16.105-.086.313.09.335 1.607.195 4.816.668 5.693-1.145.094-.2.035-.374-.133-.505z"/><path d="m164.885 743.733c-1.395-.197-2.521.494-3.465 1.5-.256.271-.092.789.316.77 1.48-.074 2.84-.422 3.355-1.905.049-.138-.054-.345-.206-.365z"/><path d="m359.277 505.112c1.158.544 2.002 1.439 3.271.939.199-.078.295-.238.256-.454-.244-1.39-1.59-1.709-2.807-2.196-1.98-.797-3.869-1.03-5.992-.974-.227.006-.264.319-.051.389 1.837.605 3.573 1.473 5.323 2.296z"/><path d="m365.894 505.841c.328-.207.561-.639.42-1.032-.387-1.095-1.076-1.93-2.328-1.801-.223.022-.475.233-.373.49.313.784 1.106 3.092 2.281 2.343z"/><path d="m502.909 543.942c1.701-.141 4.121.125 5.135-1.48.178-.281.061-.672-.221-.836-1.738-1.017-4.096.467-5.133 1.938-.105.148.036.394.219.378z"/><path d="m511.241 540.702c.348-.215.348-.719 0-.932-.902-.555-1.502-.475-2.361.178-.211.162-.211.414 0 .576.86.652 1.459.733 2.361.178z"/><path d="m544.601 663.669c-.145.122-.018.324.139.338 1.928.166 4.381-.146 5.082-2.264.191-.578-.311-1.094-.859-1.127-1.958-.119-3.044 1.938-4.362 3.053z"/><path d="m550.652 664.896c-.695.207-1.146.477-1.563 1.068-.084.116-.033.258.047.357.365.475.49.546 1.076.649.33.058.754.031.982-.259.1-.126.199-.25.295-.375.499-.627.069-1.71-.837-1.44z"/><path d="m287.121 756.235c-.078.105.07.232.172.172 1.648-.956 5.086-.482 6.004-2.229.074-.141.064-.324-.057-.437-1.924-1.785-4.979.918-6.119 2.494z"/><path d="m295.174 752.208c.428.086.814-.053 1.053-.427.059-.093.117-.183.174-.272.074-.114.074-.285 0-.4-.057-.09-.115-.18-.174-.271-.238-.373-.625-.513-1.053-.428-.701.14-1.291.376-1.93.682-.166.078-.166.357 0 .436.639.305 1.228.541 1.93.68z"/><path d="m280.031 795.536c.363-.342.191-1.012-.297-1.127-1.41-.336-2.887.174-4.168.777-.193.092-.193.424 0 .514 1.447.67 3.217 1.014 4.465-.164z"/><path d="m279.074 797.968c-.105.078-.135.256 0 .324 1.172.607 3.18.328 3.045-1.313-.01-.111-.072-.227-.191-.252-1.092-.216-1.995.629-2.854 1.241z"/><path d="m212.767 768.3c.033-.189-.027-.324-.178-.436-.764-.576-1.076-.455-1.986-.135-1.6.557-3.213 1.164-4.791 1.785-.203.076-.227.363 0 .432 1.766.539 6.506.801 6.955-1.646z"/><path d="m212.494 770.595c-.271.264-.053.662.285.691 1.305.111 3.229-.297 3.074-1.938-.016-.164-.105-.337-.283-.373-1.252-.257-2.238.796-3.076 1.62z"/><path d="m288.605 649.722c-1.643.955-2.561 3.111-3.332 4.77-.814 1.744-1.48 3.422-.578 5.234.092.189.365.162.463 0 .967-1.547 1.367-3.264 2.109-4.922.678-1.514 1.818-3.105 1.813-4.811 0-.238-.268-.39-.475-.271z"/><path d="m285.81 661.966c.055.166.25.265.41.166 1.416-.877 1.758-2.957 1.533-4.5-.016-.105-.176-.142-.24-.063-.972 1.133-2.211 2.854-1.703 4.397z"/><path d="m371.937 613.473c-1.283 2.192-2.414 4.401-3.893 6.481-1.66 2.328-4.051 3.992-5.49 6.467-.145.249.094.546.365.477 4.918-1.255 9.359-8.449 9.25-13.361-.001-.125-.169-.175-.232-.064z"/><path d="m363.767 629.913c-.145.197.094.402.285.369 2.242-.39 4.369-2.266 5.111-4.412.057-.167-.148-.313-.291-.226-1.808 1.105-3.851 2.544-5.105 4.269z"/><path d="m263.355 497.336c.037-.105-.004-.227-.08-.306-.088-.092-.178-.185-.266-.274-.223-.233-.598-.337-.908-.24-1.764.551-3.037 1.448-4.229 2.849-.154.185-.014.563.264.452 1.477-.591 4.68-.826 5.219-2.481z"/><path d="m266.842 494.762c.072-.099.072-.292 0-.392-.789-1.043-1.629-.881-2.803-.402-.588.238-.588.958 0 1.196 1.174.48 2.013.641 2.803-.402z"/><path d="m133.535 655.702c.598-.742-1.992-3.305-2.699-3.975-.131-.125-.4-.088-.438.114-.271 1.565.629 2.835 1.76 3.86.359.327 1.033.431 1.377.001z"/><path d="m132.369 657.742c-.279-.157-.605.099-.529.405.387 1.556 1.633 1.971 3.102 1.684.197-.038.225-.29.109-.42-.821-.937-1.629-1.07-2.682-1.669z"/><path d="m137.426 712.416c-.949.933-2.33 2.993-1.992 4.372.125.504.67.633 1.094.442 1.402-.636 1.426-3.44 1.213-4.731-.024-.146-.224-.176-.315-.083z"/><path d="m140.5 715.105c1.307-1.038 1.023-2.377-.025-3.553-.201-.228-.531-.032-.553.229-.107 1.398-.521 2.001.014 3.252.099.235.404.2.564.072z"/><path d="m242.902 747.819c-.029-.564-.459-1.242-.4-1.645.031-.199-.207-.313-.328-.137-.475.688-.994.513-1.254 1.512-.334 1.295-.529 2.736-.041 4.002.33.863 1.416.859 1.748 0 .453-1.163.34-2.499.275-3.732z"/><path d="m315.494 701.192c.631-1.625.383-3.696-.711-5.068-.15-.191-.428-.056-.496.131-.527 1.43-.746 3.162-.666 4.684.055 1.12 1.488 1.242 1.873.253z"/><path d="m317.652 698.724c.205.24.703.195.834-.107.461-1.066.129-1.689-.848-2.314-.256-.162-.529.059-.555.32-.089.882-.003 1.429.569 2.101z"/><path d="m174.822 547.437c-.104.166.092.313.246.244 1.914-.843 4.191-.845 6.184-1.48 1.332-.424.787-2.447-.58-2.097-2.432.623-4.496 1.102-5.85 3.333z"/><path d="m184.068 542.921c.131-.1.238-.299.119-.457-.107-.141-.219-.283-.326-.424-.264-.348-.617-.554-1.066-.435-.949.249-1.074.31-1.633 1.062-.184.244-.002.689.303.74 1.043.172 1.754.155 2.603-.486z"/><path d="m315.623 482.281c.75.495 1.541-.601.936-1.214-.941-.96-1.934-2.008-3.061-2.753-.096-.064-.229.021-.229.133.012 1.638 1.03 2.96 2.354 3.834z"/><path d="m314.256 483.815c.533.834 1.037 1.21 2.045 1.198.361-.005.695-.454.449-.785-.602-.818-1.127-1.045-2.176-.969-.264.018-.48.304-.318.556z"/><path d="m216.232 508.786c.553.126 1.219-.508.813-1.057-.814-1.098-2.416-1.849-3.787-1.884-.191-.005-.273.199-.203.351.548 1.152 1.941 2.314 3.177 2.59z"/><path d="m219.65 507.734c.125-.032.18-.157.158-.274-.207-1.06-.963-1.438-1.988-1.25-.088.018-.135.121-.113.2.279 1.041.883 1.606 1.943 1.324z"/><path d="m149.258 596.245c.221.051.389-.064.467-.263.652-1.624-1.334-2.995-2.566-3.726-.184-.108-.35.099-.271.27.594 1.278.815 3.37 2.37 3.719z"/><path d="m152.742 595.854c.186.038.322-.081.342-.262.146-1.299-.738-2.061-1.996-2.212-.1-.011-.211.099-.199.198.126 1.157.681 2.031 1.853 2.276z"/><path d="m119.138 627.65c1.197.014 1.775.266 2.736-.437.16-.117.18-.297.059-.449-.146-.185-.291-.364-.438-.549-.266-.332-.744-.287-1.084-.139-.543.184-1.035.463-1.475.836-.311.22-.212.734.202.738z"/><path d="m148.037 673.905c.289.104.609-.024.822-.216.234-.216.262-.278.246-.599-.018-.391-.244-.691-.617-.813-.74-.238-1.334-.36-2.08-.103-.178.063-.25.242-.168.408.383.784.996 1.034 1.797 1.323z"/><path d="m117.422 693.597c-.215.32-.162.882.146 1.131.133.111.244.189.412.241.389.124.857-.074 1.055-.43.449-.812.676-1.571.842-2.478.023-.121-.076-.25-.209-.209-1.006.303-1.666.881-2.246 1.745z"/><path d="m193.849 743.085c.086-.206-.063-.41-.217-.527-.127-.098-.256-.195-.383-.293-.291-.225-.723-.148-1.021 0-.84.414-1.369.972-1.881 1.75-.078.117.023.311.172.297 1.379-.135 2.719.233 3.33-1.227z"/><path d="m193.756 747.441c-.439 1.007.684 2.087 1.656 2.132.133.006.225-.092.268-.205.4-1.027-1.489-2.931-1.924-1.927z"/><path d="m236.115 797.937c-.213.127-.219.451 0 .576 1.336.76 3.398.916 3.963-.77.045-.143-.029-.328-.162-.398-1.211-.619-2.678-.067-3.801.592z"/><path d="m241.84 795.321c-.123-.217-.404-.402-.662-.379-.582.053-.664.051-1.195.246-.098.039-.15.143-.096.238.465.852 1.037 1.188 1.963.852.225-.082.346-.322.221-.543-.077-.136-.153-.275-.231-.414z"/><path d="m353.242 800.267c-.758.457-1.422.85-1.973 1.555-.094.119-.07.297.09.346.922.277 1.736.191 2.654-.074 1.413-.411.469-2.577-.771-1.827z"/><path d="m356.885 797.739c-.697-.252-1.125-.264-1.791.09-.068.035-.088.145-.023.197.689.594 1.146 1.166 2.102 1.045.133-.02.285-.111.27-.271-.014-.125-.023-.252-.037-.377-.035-.338-.197-.567-.521-.684z"/><path d="m447.32 761.228c-.223-.865-.52-1.576-1.107-2.248-.049-.057-.152-.057-.203 0-.656.762-.895 1.535-.854 2.543.068 1.619 2.563 1.259 2.164-.295z"/><path d="m421.213 757.112c-.936.336-1.385.875-1.633 1.838-.377 1.447 1.883 2.064 2.23.615.176-.726.221-1.338.076-2.07-.054-.277-.406-.478-.673-.383z"/><path d="m511.331 700.53c-.951.063-1.621.209-2.34.832-.082.074-.082.23 0 .305.719.623 1.389.77 2.34.832.443.029.824-.323.951-.724.068-.228.068-.294 0-.521-.126-.4-.507-.753-.951-.724z"/><path d="m542.82 585.692c-.875-.578-1.811-1.07-2.877-1.037-.146.006-.299.129-.287.289.102 1.27 1.014 2.02 2.016 2.705 1.21.825 2.36-1.154 1.148-1.957z"/><path d="m453.943 548.882c.117-.184.043-.447-.145-.555-1.412-.795-2.928.223-3.781 1.43-.07.097.027.207.123.216 1.375.141 3.01.171 3.803-1.091z"/><path d="m455.267 551.907c.379.227.916.094 1.131-.297.141-.257.145-.348.082-.637-.08-.376-.443-.58-.797-.605-.539-.04-.68 0-1.146.254-.236.131-.266.464-.084.65.295.303.449.415.814.635z"/><path d="m402.08 548.183c.063-.166-.07-.321-.213-.375-1.285-.49-2.508.359-3.641.979-.174.096-.102.314.049.379 1.412.591 3.207.605 3.805-.983z"/><path d="m350.205 652.813c.125-.127.125-.334 0-.459-1.031-1.025-1.994-.563-3.23.02-.158.074-.158.345 0 .419 1.236.583 2.199 1.046 3.23.02z"/><path d="m314.754 627.142c-.578 1.27-.65 2.289.365 3.311.172.172.465.172.635 0 1.018-1.021.945-2.041.367-3.311-.236-.517-1.131-.517-1.367 0z"/><path d="m274.273 681.742c1.117-.3 2.375-.591 3.326-1.262.164-.116.201-.328.061-.481-1.121-1.219-2.836-.785-4.143-.051-.414.23-.521.672-.451 1.107.033.201.115.275.25.432.229.262.637.34.957.255z"/><path d="m327.238 682.446c-.264-.023-.463.326-.311.541.559.792 1.021 1.519 1.957 1.84.156.057.332-.061.375-.213.391-1.381-.74-2.062-2.021-2.168z"/><path d="m305.113 726.459c.848-1.149.494-2.083.135-3.404-.049-.187-.283-.155-.346 0-.582 1.405-1.248 2.044-.441 3.404.158.263.488.223.652 0z"/><path d="m239.543 745.603c.141-.043.281-.088.422-.133.248-.079.52-.289.564-.564.053-.445.146-.882.281-1.309.049-.199-.15-.32-.318-.246-.426.14-.811.354-1.152.639-.293.205-.488.551-.373.916.049.15.098.301.145.453.058.175.243.304.431.244z"/><path d="m526.079 686.97c-.186-.125-.424.045-.432.25-.035 1.226.355 2.051 1.215 2.912.805.813 1.889-.369 1.219-1.219-.593-.756-1.205-1.403-2.002-1.943z"/><path d="m529.419 684.254c-.605.059-1.111.031-1.678.257-.191.076-.391.289-.295.52.348.829.822 1.045 1.695 1.266.486.121.896-.086 1.174-.477.072-.102.143-.203.215-.302.082-.116.078-.319 0-.437-.072-.104-.143-.207-.215-.313-.195-.285-.523-.55-.896-.514z"/><path d="m544.767 617.526c-.402.297-.516.954 0 1.229.936.499 1.725.351 2.742.162 1.449-.268.828-2.447-.607-2.199-.805.14-1.471.316-2.135.808z"/><path d="m542.822 624.089c1.359.157 1.85-.902 1.967-2.111.031-.313-.395-.556-.65-.373-.746.537-1.438.755-1.814 1.619-.185.423.036.81.497.865z"/><path d="m527.681 563.981c-.041.138.09.25.221.221 1.455-.328 2.717-.564 3.686-1.814.549-.709.074-1.806-.91-1.563-1.733.424-2.534 1.529-2.997 3.156z"/><path d="m528.769 569.638c.127.127.348.127.473 0 .125-.131.252-.262.377-.392.197-.202.336-.562.221-.843-.215-.535-.377-.911-.631-1.422-.076-.152-.328-.152-.404 0-.256.511-.416.887-.633 1.422-.115.281.025.641.221.843.124.13.251.261.376.392z"/><path d="m480.605 537.126c-.617-.879-1.365-1.644-2.053-2.467-.168-.202-.49-.031-.492.203-.008 1.34.191 2.369 1.232 3.277.677.592 1.889-.193 1.313-1.013z"/><path d="m484.943 533.72c.664-.49.521-1.711-.453-1.676-1.338.049-2.324.52-3.355 1.381-.205.168-.129.51.08.637 1.293.761 2.537.537 3.728-.342z"/><path d="m334.953 496.234c.645-.677 1.65-1.262 2.469-1.704.307-.167.545-.554.52-.906-.014-.221-.02-.347-.141-.528-.324-.481-.914-.671-1.438-.378-1.477.834-1.777 1.776-1.734 3.384.006.16.205.256.324.132z"/><path d="m287.127 482.832c.895-1.276 1.344-3.712.305-4.969-.168-.207-.555-.309-.805-.214-2.156.82-1.697 4.238.057 5.298.161.097.343.028.443-.115z"/><path d="m239.445 492.846c.105.099.295.117.396 0 .682-.787.904-1.326.762-2.406-.234-1.763-2.74-1.419-2.4.324.199 1.027.525 1.396 1.242 2.082z"/><path d="m190.916 516.441c.141-2.231-3.463-2.803-3.813-.481-.025.159.012.323.164.407.555.301 3.561 1.468 3.649.074z"/><path d="m152.89 569.028c-.088.099-.178.199-.268.301-.566.639-.283 1.467.467 1.768.666.268 1.402.445 2.123.471.326.01.652-.295.631-.631-.068-1.01-.49-1.578-1.342-2.115-.48-.307-1.226-.225-1.611.206z"/><path d="m129.574 602.974c-.656.502-.807 1.498 0 1.97.809.472 2.525.526 3.43.331.074-.016.148-.104.139-.183-.182-1.516-2.079-3.256-3.569-2.118z"/><path d="m117.467 651.383c-.766-1.097-1.836-1.561-3.09-.985-.834.383-.539 1.631.24 1.854.988.279 1.883.035 2.746-.473.129-.077.195-.266.104-.396z"/><path d="m144.748 630.409c.188.034.445-.049.477-.27.193-1.376-.43-2.401-1.703-3.006-1.08-.516-1.941.689-1.23 1.596.675.86 1.372 1.476 2.456 1.68z"/><path d="m156.369 712.433c.801-.764.906-1.604.656-2.647-.037-.167-.273-.283-.422-.171-.502.373-.957.868-1.5 1.174-1.31.741.149 2.711 1.266 1.644z"/><path d="m111.881 677.319c-.615-.065-1.268.49-1.402 1.07-.07.292-.07.48 0 .773.135.58.787 1.135 1.402 1.07 1.15-.119 2.061-.182 2.697-1.207.09-.146.09-.354 0-.5-.637-1.024-1.547-1.087-2.697-1.206z"/><path d="m176.136 761.871c-.924.874-1.467 1.767-1.799 3.002-.09.335-.016.806.271 1.034.451.355.467.364 1.035.271.355-.056.645-.413.74-.739.346-1.187.393-2.244.188-3.454-.032-.202-.304-.238-.435-.114z"/><path d="m206.707 785.214c-.766.721-1.014 1.727-1.064 2.752-.07 1.35 1.748 1.381 2.18.297.342-.857.455-1.793.234-2.693-.147-.61-.921-.758-1.35-.356z"/><path d="m255.957 772.224c.496-.277.602-.789.531-1.303-.131-.935-.293-1.482-.996-2.072-.072-.061-.158-.061-.229 0-.705.59-.867 1.138-.996 2.072-.07.514.035 1.025.529 1.303.546.302.618.302 1.161 0z"/><path d="m265.965 802.575c-.838.664-1.039 3.689.541 3.625 1.574-.063.486-3.164-.268-3.658-.092-.061-.197-.027-.273.033z"/><path d="m300.949 796.698c-.768 1.063-1.053 2.508.004 3.443.289.256.666.256.953 0 1.057-.936.771-2.381.006-3.443-.258-.357-.707-.357-.963 0z"/><path d="m372.658 786.604c-.182-.141-.537-.049-.627.164-.467 1.098-.43 1.977.168 3.031.738 1.293 2.693.143 1.99-1.164-.455-.847-.762-1.443-1.531-2.031z"/><path d="m411.779 780.81c-.818-.641-1.889-1.389-2.971-1.004-.168.059-.232.195-.207.365.152 1.084.883 1.877 1.727 2.518 1.08.82 2.519-1.045 1.451-1.879z"/><path d="m452.828 739.851c.232 1.319 1.561 1.674 2.666 2.105.361.143.791-.033 1.053-.275.189-.176.209-.225.279-.479.131-.474-.084-.964-.5-1.222-.348-.215-3.764-1.639-3.498-.129z"/><path d="m497.627 717.8c-.348.162-.369.674-.119.92.773.755 1.236 1.123 2.334 1.027.52-.045.828-.535.582-1.017-.631-1.223-1.567-1.502-2.797-.93z"/><path d="m528.626 669.062c1.057-.17.992-1.842 0-2.064-1.107-.244-2.307-.314-3.324.223-.234.124-.314.457-.178.678.748 1.194 2.19 1.374 3.502 1.163z"/><path d="m553.001 643.04c1.27-.281.691-2.057-.521-1.893-.924.125-1.83.395-2.75.517-.275.036-.357.333-.139.504 1.096.834 2.041 1.179 3.41.872z"/><path d="m538.488 605.636c.068-.157.051-.34-.111-.432-1.828-1.025-2.92.556-4.494 1.23-.184.078-.121.366.055.411 1.684.42 3.725.722 4.55-1.209z"/><path d="m543.079 571.447c.9.765 1.799.917 2.979.794.498-.055.973-.309 1.102-.839.582-2.429-3.166-.999-4.08-.206-.073.058-.073.194-.001.251z"/><path d="m503.857 565.282c-.641.832-.766 1.566-.895 2.586-.029.227.23.363.42.32 1.148-.258 1.803-.762 2.348-1.814.238-.463.162-.924-.172-1.313-.156-.185-.238-.205-.479-.279-.506-.154-.927.115-1.222.5z"/><path d="m526.702 543.942c.879.107 3.986-.385 2.773-2.04-1.115-1.521-2.582.821-2.99 1.661-.091.186.022.354.217.379z"/><path d="m478.17 561.544c.893-1.137 1.26-2.234 1.381-3.684.135-1.603-2.279-1.542-2.465 0-.164 1.381-.152 2.461.631 3.625.093.141.332.217.453.059z"/><path d="m443.644 534.191c.064.088.16.112.262.067 1.547-.722 2.266-2.701 1.316-4.158-.068-.105-.213-.188-.344-.139-1.699.633-2.298 2.753-1.234 4.23z"/><path d="m418.56 523.644c1.068-.376 1.654-1.092 2.318-1.99.697-.951-.91-2.19-1.637-1.264-.725.927-1.162 1.763-1.068 2.959.016.183.188.364.387.295z"/><path d="m388.26 508.346c1.063-.27 1.613-.646 2.219-1.538.768-1.129-1.182-2.282-1.828-1.07-.379.713-.65 1.374-.834 2.168-.063.264.169.509.443.44z"/><path d="m356.802 484.986c1.789-.359 2.301-2.491 1.486-3.948-.549-.976-1.916-.473-1.986.54-.07 1.038-.346 2.12-.01 3.121.077.225.28.335.51.287z"/><path d="m331.418 475.954c1.273-.511 1.439-1.973 1.48-3.202.049-1.484-2.283-1.486-2.303 0-.014 1.086-.068 2.26.629 3.15.039.049.135.075.194.052z"/><path d="m303.222 500.089c1.162-1.64 1.357-4.224-.473-5.426-.158-.104-.361-.025-.457.119-1.035 1.594-.652 3.812.416 5.307.136.191.38.191.514 0z"/><path d="m303.404 472.509c1.346-.321 2.076-1.481 1.424-2.762-.52-1.019-1.885-.427-1.973.533-.063.704.092 1.412.293 2.082.033.114.145.171.256.147z"/><path d="m261.408 483.239c.068.034.156.045.221 0 .729-.521.77-1.214.52-2.048-.201-.671-.977-1.006-1.592-.648-1.221.709-.088 2.218.851 2.696z"/><path d="m213.164 525.827c.408-.027.713-.459.48-.84-.203-.27-.346-.568-.434-.895-.404-1.657-3.041-.566-2.139.902.517.839 1.146.894 2.093.833z"/><path d="m176.927 567.274c.416.152.84.263 1.258.408.1.034.234-.04.254-.144.139-.737.088-1.192-.301-1.839-.982-1.632-3.136.878-1.211 1.575z"/><path d="m166.158 532.075c.316.129.805-.139.852-.482.135-.988-.076-1.593-.879-2.24-1.141-.918-2.777.67-1.629 1.628.556.465.99.823 1.656 1.094z"/><path d="m136.949 578.069c-.504-.211-1.018.153-1.299.529-.055.072-.109.144-.162.215-.385.518.045 1.197.561 1.377.65.225 1.201.438 1.895.496.27.023.57-.262.539-.539-.13-1.099-.516-1.65-1.534-2.078z"/><path d="m118.219 613.466c-.689-.022-.93.057-1.482.477-1.104.844-.174 2.609 1.117 1.912.176-.096 1.01-.504 1.285-.54.121-.017.256-.099.242-.243-.029-.292-.057-.533-.127-.814-.119-.478-.567-.777-1.035-.792z"/><path d="m106.049 661.862c-.17.066-.338.133-.506.197-.486.189-.645.836-.148 1.133.604.365.748.398 1.463.344.393-.028.594-.393.428-.744-.084-.175-.166-.353-.248-.527-.153-.327-.653-.534-.989-.403z"/><path d="m150.015 691.235c.123-.121.084-.391-.109-.42-1.453-.216-3.42-.18-4.197 1.221-.094.166-.039.369.121.469 1.398.863 3.144-.212 4.185-1.27z"/><path d="m120.791 713.854c.09.156.27.176.42.109 1.211-.549 2.053-1.531 3.107-2.375.141-.113.082-.342-.057-.423-1.837-1.128-4.689.502-3.47 2.689z"/><path d="m140.629 745.755c1.773.225 3.012-2.082 3.262-3.603.025-.153-.088-.278-.244-.245-1.363.299-3.365 1.655-3.582 3.107-.061.408.155.689.564.741z"/><path d="m169.586 730.612c-1.699 1.223-2.303 3.701-1.229 5.516.131.225.438.205.574 0 .977-1.459 1.131-3.432 1.277-5.158.026-.299-.374-.535-.622-.358z"/><path d="m203.662 729.649c-.582.975-.566 1.907-.15 2.965.141.354.418.645.832.633.127-.002.25-.004.375-.008.162-.005.289-.105.338-.257.338-1.039-.26-2.435-.818-3.333-.134-.211-.446-.217-.577 0z"/><path d="m218.797 722.144c-.016-.955-.307-1.313-.891-2.06-.1-.126-.289-.038-.33.085-.365 1.068-.08 1.611.828 2.199.168.109.395-.033.393-.224z"/><path d="m273.308 750.378c-.76-1.188-2.223-.725-3.1.107-.463.443-.393 1.137 0 1.586.843.961 3.626-.873 3.1-1.693z"/><path d="m297.383 772.604c-1.127-.037-2.152.586-2.703 1.555-.436.77.285 1.869 1.195 1.557 1.037-.354 1.941-1.064 2.236-2.154.133-.487-.238-.942-.728-.958z"/><path d="m316.955 801.845c-.99 1.354-1.424 3.828-1.377 5.494.021.725.873 1.07 1.398.578 1.521-1.422 1.596-4.414.396-6.072-.111-.157-.306-.155-.417 0z"/><path d="m359.818 787.565c-.164-.064-.275.119-.256.258.197 1.244-.08 3.057 1.133 3.77.121.07.318.09.438 0 .074-.055.148-.111.223-.168.361-.271.514-.598.43-1.057-.243-1.271-.739-2.303-1.968-2.803z"/><path d="m392.9 779.101c-.139-.061-.354-.027-.383.154-.158.955.135 1.754.629 2.578.758 1.264 2.615-.117 1.611-1.244-.55-.619-1.093-1.154-1.857-1.488z"/><path d="m410.635 765.874c.148-.093.26-.297.193-.477-.529-1.406-2.006-1.561-3.354-1.873-.428-.102-.689.316-.527.686.617 1.392 2.236 2.572 3.688 1.664z"/><path d="m430.615 780.55c-.504.943-.633 1.748.01 2.539.236.289.803.289 1.039 0 .643-.791.512-1.596.008-2.539-.213-.397-.842-.397-1.057 0z"/><path d="m436.135 741.272c-.303-.037-.48.309-.426.559.332 1.518 2.158 3.268 3.686 2.129.148-.109.205-.242.174-.427-.263-1.507-2.081-2.087-3.434-2.261z"/><path d="m464.691 736.976c-.336.654-.377.758-.416 1.476-.021.409.289.729.646.853.098.033.197.066.295.102.535.182.967-.377.861-.861-.139-.639-.547-1.047-.936-1.568-.108-.146-.35-.191-.45-.002z"/><path d="m493.283 703.721c.184-1.392-.885-2.099-1.957-2.838-.508-.349-.977.223-.912.699.191 1.386 1.01 2.676 2.52 2.489.208-.025.324-.141.349-.35z"/><path d="m511.136 685.311c-.225.157-.297.472-.088.679.986.97 2.361 1.689 3.594.835.156-.11.256-.292.197-.488-.484-1.638-2.381-1.948-3.703-1.026z"/><path d="m532.843 643.335c-.053-.007-.121.045-.129.1-.236 1.558.961 2.524 2.406 1.87.338-.155.498-.632.395-.972-.279-.906-1.889-.917-2.672-.998z"/><path d="m556.378 606.61c.537-.063.863-.374.918-.92.162-1.607-2.742-.704-3.428-.354-.074.039-.107.15-.059.221.679.969 1.358 1.194 2.569 1.053z"/><path d="m541.566 557.495c1.041.391 1.736-.025 2.555-.678.277-.218.354-.674.264-.994-.514-1.839-2.791.086-3.088 1.194-.059.218.071.404.269.478z"/><path d="m516.384 533.481c1.74-.241 3.537-2.727 2.473-4.34-.17-.26-.473-.41-.781-.32-1.641.477-2.385 3.031-1.891 4.547.029.092.109.127.199.113z"/><path d="m514.818 554.803c.563-.333.713-1.03.416-1.593-.111-.213-.213-.277-.416-.418-.434-.289-1.057-.166-1.412.183-.701.692-.986 1.269-1.109 2.226-.014.111.105.209.207.207.911-.009 1.523-.137 2.314-.605z"/><path d="m487.705 552.662c.973-1.169 1.15-2.38.738-3.845-.246-.875-1.523-.875-1.768 0-.414 1.465-.236 2.676.736 3.845.069.081.225.081.294 0z"/><path d="m458.873 537.903c1.35-.344 1.996-1.166 2.436-2.439.471-1.375-1.688-1.949-2.166-.598-.305.863-.584 1.678-.723 2.586-.043.27.158.528.453.451z"/><path d="m441.121 522.118c.967-.006 1.736-.285 2.52-.86 1.361-1.003-.418-2.795-1.434-1.435-.453.609-.936 1.198-1.352 1.835-.125.197.041.462.266.46z"/><path d="m410.963 513.816c.041.133.215.232.342.14.969-.708 1.18-1.236 1.25-2.415.029-.495-.371-.994-.846-1.108-.635-.155-.635-.144-1.119.295-.309.278-.389.732-.297 1.122.185.777.435 1.189.67 1.966z"/><path d="m383.556 497.066c1.064.093 1.795-1.027 1.668-2.017-.105-.801-.672-1.298-1.5-1.143-.043.009-.086.016-.129.024-.336.063-.689.416-.756.756-.095.521-.038 2.315.717 2.38z"/><path d="m360.836 527.491c.553-.68.061-1.984-.947-1.624-1.697.603-2.643 1.83-3.117 3.539-.064.231.156.45.387.388 1.46-.4 2.704-1.123 3.677-2.303z"/><path d="m367.685 530.504c.189-.183.098-.52-.154-.585-1.877-.49-2.715-.002-4.115 1.305-.182.17-.023.422.186.445 1.87.202 2.73.135 4.083-1.165z"/><path d="m431.865 557.913c-.791 1.471.494 2.346 1.049 3.514.072.148.266.084.313-.04.443-1.173 1.414-2.546.209-3.677-.458-.425-1.255-.382-1.571.203z"/><path d="m437.105 563.083c1.057-.945 1.652-1.471 1.973-2.98.137-.649-.188-1.148-.785-1.383-.234-.09-.346-.054-.598 0-.357.076-.711.428-.785.785-.246 1.201-.215 2.208-.297 3.373-.019.268.318.357.492.205z"/><path d="m245.73 775.616c-.432.707-2.014 1.08-2.68 1.744-1.084 1.078.49 2.508 1.627 1.627 1.152-.893 1.93-1.646 1.992-3.117.024-.516-.685-.664-.939-.254z"/><path d="m381.9 607.633c-.822-.054-1.635-.153-2.449-.278-.428-.068-.736.387-.428.737.824.931 1.652 1.25 2.877 1.356 1.162.098 1.168-1.741 0-1.815z"/><path d="m389.672 603.94c-.012-1.592-.42-3.397-2.166-3.861-.186-.051-.375.031-.477.193-1.094 1.762.564 3.304 2.102 3.979.24.105.543-.014.541-.311z"/><path d="m395.851 593.304c.229-1.34.09-2.348-.93-3.415-.164-.169-.396-.097-.523.067-.969 1.262-.75 3.283.945 3.637.202.043.469-.057.508-.289z"/><path d="m421.459 568.343c-.17-.141-.418-.178-.584 0-1.199 1.261-.445 2.652.535 3.885.08.104.252.061.311-.038.761-1.28.968-2.857-.262-3.847z"/><path d="m457.334 567.437c1.473-.563 2.461-1.953 1.814-3.511-.1-.245-.32-.345-.568-.231-1.379.625-2.01 2.03-1.678 3.498.039.173.256.31.432.244z"/><path d="m532.536 619.187c-.229-.281-.654-.332-.979-.261-.742.167-1.361.368-2.008.753-.281.166-.291.596 0 .76.773.441 1.387.551 2.273.464.541-.054 1.012-.416 1.008-1.005-.005-.36-.065-.428-.294-.711z"/><path d="m518.351 583.046c-.43.328-.627.531-.809 1.043-.193.549.438 1.246 1.008 1.008.541-.225.879-.117 1.42-.553.432-.35.209-.975-.16-1.244-.115-.083-.232-.168-.348-.254-.281-.205-.83-.213-1.111 0z"/><path d="m333.576 671.929c.549.129.84.15 1.385.065.215-.032.406-.297.389-.511-.057-.695-.203-.926-.666-1.457-1.223-1.412-2.997 1.453-1.108 1.903z"/><path d="m327.076 696.604c.064-.021.133-.042.199-.063.281-.049.424-.379.361-.629-.113-.455-.207-.63-.561-.936-2.364-2.034-2.364 3.66.001 1.628z"/><path d="m313.092 719.435c.906.125 1.617.168 2.436-.266.287-.152.32-.497.199-.762-.508-1.113-1.533-1.336-2.635-.896-.79.316-1.098 1.767 0 1.924z"/><path d="m302.334 739.933c-.145.146-.121.35 0 .495 1.014 1.237 2.365 1.345 3.857 1.084.363-.065.545-.564.348-.858-.961-1.461-2.875-2.063-4.205-.721z"/><path d="m254.834 737.108c-.02-.168-.248-.332-.385-.16-.646.819-1.129 1.617-1.311 2.654-.141.803.865 1.281 1.332.563.647-.994.497-1.887.364-3.057z"/><path d="m239.574 701.56c.078-1.143-2.227-1.086-2.906-1.255-.326-.081-.539.247-.406.528.516 1.091 1.277 1.594 2.496 1.541.466-.019.785-.355.816-.814z"/><path d="m248.761 691.254c-.453-1.11-.885-1.192-2.072-1.468-.465-.108-.793.355-.59.766.457.928.789 1.404 1.799 1.566.459.074 1.088-.313.863-.864z"/><path d="m327.283 594.091c.322-.066.502-.508.316-.779-.719-1.06-1.648-1.277-2.648-.389-.158.137-.146.404 0 .543.723.702 1.357.826 2.332.625z"/><path d="m329.605 586.95c-.311.069-.617.139-.928.209-.209.011-.35.227-.24.42.32.566.402.596.957.998.328.238.805.113 1.076-.139.129-.119.258-.238.385-.355.148-.137.139-.385 0-.521-.127-.129-.256-.256-.385-.383-.212-.215-.568-.33-.865-.229z"/><path d="m348.457 545.911c1.236.896 2.992.664 4.289-.026.979-.522.535-2.12-.564-2.085-1.424.047-2.758.611-3.795 1.561-.18.163-.104.425.07.55z"/><path d="m350.838 550.114c.115-.092.133-.261.104-.394-.029-.153-.061-.304-.092-.456-.092-.459-.602-.834-1.064-.811-.256.012-.512.025-.77.039-1.092.054-1.309 1.561-.256 1.898.96.306 1.31.354 2.078-.276z"/><path d="m286.967 500.57c-.355.161-.574.62-.57.993.008.738.219 1.491.225 2.213.002.202.24.288.385.16.906-.819 1.059-.742 1.537-1.79.27-.594.152-1.208-.414-1.576-.531-.344-.579-.267-1.163 0z"/><path d="m198.4 548.169c.262.098.635-.059.752-.306 1.074-2.235-1.5-3.306-3.262-3.321-.215-.002-.381.256-.256.447.78 1.16 1.366 2.653 2.766 3.18z"/><path d="m196.916 498.114c.176.221.311.747.42 1.003.148.344.625.537.975.479.047-.007.096-.017.145-.025.342-.056.59-.385.693-.69.313-.938.295-1.842-.426-2.574-.371-.376-1.094-.533-1.547-.198-.576.423-.662.725-.844 1.435-.049.193.061.355.238.423-.049-.019.055-.222.346.147z"/><path d="m153.976 549.208c.072.047.195.022.234-.061.943-2.063-1.512-4.257-3.104-2.273-.107.135-.15.299-.059.459.716 1.24 1.802 1.174 2.929 1.875z"/><path d="m148.959 642.224c.609 1.287 2.17 1.5 3.291.664.117-.086.143-.225.045-.34-.816-.934-1.781-1.535-2.99-1.17-.379.115-.504.506-.346.846z"/><path d="m153.529 650.142c-.826-.863-1.662-.932-2.801-.68-1.438.322-.783 2.34.594 2.152.99-.135 1.545-.289 2.207-1 .123-.135.127-.338 0-.472z"/><path d="m164.502 712.188c-.631-.154-1.301.305-1.287.982.002.176.004.352.008.529.004.254.193.406.432.432.193.02.385.038.576.057.352.035.711-.219.879-.504.086-.143.172-.283.256-.428.209-.351.02-.85-.389-.951-.157-.037-.317-.076-.475-.117z"/><path d="m162.595 765.983c-.49.554-1.029.992-1.666 1.377-1.27.769-.098 2.779 1.164 1.987 1.24-.778 1.908-1.896 1.152-3.28-.124-.224-.474-.281-.65-.084z"/><path d="m227.304 790.247c-.377.127-.764.213-1.158.256-.352.059-.738.449-.797.799-.297 1.756.549 2.248 1.908 1.113.322-.271.369-.734.295-1.113.004-.264.012-.527.018-.789.024-.159-.094-.317-.266-.266z"/><path d="m342.377 783.862c-.885 1.236-1.029 2.084-.771 3.609.246 1.461 2.463.84 2.221-.613-.219-1.293-.473-1.965-1.217-2.996-.063-.088-.171-.088-.233 0z"/><path d="m405.51 755.979c-.502-.219-1.008-.418-1.523-.603-.121-.056-.268.011-.27.155-.01.951.141 1.45.83 2.1 1.123 1.063 2.504-1.001.963-1.652z"/><path d="m408.377 753.247c-.309-.051-.574-.187-.799-.406-.268-.188-.709.059-.676.389.057.637.168 1.1.557 1.614 1.363 1.805 3.035-1.47.918-1.597z"/><path d="m500.222 685.459c-.111-.013-.238.112-.225.226.164 1.359.74 2.154 1.72 3.109 1.053 1.032 2.646-.561 1.615-1.615-.958-.978-1.749-1.558-3.11-1.72z"/><path d="m505.462 684.267c-.113-.469-.559-.758-1.02-.777-.904-.035-1.039-.041-1.693.5-.074.063-.084.195-.033.273.357.542.418.587.98 1.029.41.324.803.388 1.281.167.145-.067.289-.132.436-.2.16-.074.219-.285.182-.447-.045-.182-.088-.365-.133-.545z"/><path d="m303.701 647.196c.406 1.176 1.189 2.21 2.445 2.516.172.043.316-.054.375-.213.451-1.229-.113-2.488-1.018-3.354-.738-.712-2.171-.013-1.802 1.051z"/><path d="m319.717 616.462c-1.02-2.182-3.256-2.504-5.387-2.899-.184-.036-.303.207-.129.313 1.805 1.083 3.01 2.934 5.266 3.018.236.007.334-.248.25-.432z"/><path d="m345.301 665.241c-.256-.338-.158-.744-.475-1.059-.715-.72-1.27-.83-2.15-1.26-.242-.117-.541.023-.543.311-.004 1.016.033 1.412.711 2.168.539.604 1.123.334 1.658.639.47.27 1.17-.309.799-.799z"/><path d="m294.513 639.187c.266-.333.371-.73.143-1.125-.842-1.463-1.744-2.494-3.229-3.323-.309-.171-.596.161-.457.456.633 1.324 1.322 2.551 2.086 3.803.158.264.48.49.801.461.322-.03.453-.019.656-.272z"/><path d="m271.289 667.638c.166-.137.203-.232.258-.442.088-.328.008-.741-.258-.976-.768-.675-1.512-1.361-2.25-2.064-.184-.174-.592-.07-.555.229.174 1.313.387 2.296 1.389 3.253.42.403.99.358 1.416 0z"/><path d="m359.763 643.896c.662-.041 1.125-.875.572-1.381-.576-.529-1.395-.898-1.795-1.561-.908-1.512-3.316-.1-2.357 1.378.793 1.222 2.162 1.65 3.58 1.564z"/><path d="m330.775 611.626c.963 1.219 2.559 1.734 3.836.848.258-.18.412-.631.109-.865-1.193-.929-2.322-.684-3.816-.463-.242.035-.244.334-.129.48z"/><path d="m345.595 567.958c-1.424.33-2.529.453-3.754 1.311-.1.07-.1.195 0 .266 1.422.982 2.725 1.025 4.365.645 1.448-.338.833-2.558-.611-2.222z"/><path d="m346.933 574.028c.52.212 1.125.297 1.629.535 1.135.535 2.109-1.188.979-1.675-.941-.405-1.645-.435-2.607-.056-.596.231-.583.96-.001 1.196z"/><path d="m362.449 548.624c-.063.365-.008.523.133.883.16.405.43.623.871.662.111.008.225.02.34.029.174.016.297-.127.355-.271.059-.142.113-.281.172-.421.145-.348-.086-.856-.414-1.018-.133-.066-.264-.131-.396-.196-.291-.142-.654-.14-.889.114-.031.038-.158.144-.172.218z"/><path d="m404.943 584.204c-.047-.1-.174-.16-.279-.16-1.34.01-2.354 1.438-3.107 2.397-.16.207-.082.562.229.554 1.45-.043 4.05-.877 3.157-2.791z"/><path d="m425.613 538.262c.881-.654.402-2.213-.787-1.868-1.211.348-2.584.951-3.613 1.675-.17.116-.203.382 0 .495 1.257.701 3.252.55 4.4-.302z"/><path d="m426.703 531.574c.906-.903 2.791-4.569.604-5.172-2.168-.597-1.195 4.223-.992 5.068.04.174.267.223.388.104z"/><path d="m401.523 513.21c-1.902-1.113-2.176 3.519-2.293 4.313-.033.243.236.456.438.254.785-.79 3.802-3.425 1.855-4.567z"/><path d="m370.629 513.958c.197-.451.232-1.014-.178-1.376-.26-.229-.406-.333-.721-.481-.182-.085-.381-.047-.492.129-.596.948-1.469 1.977-2.285 2.768-.262.254-.063.702.293.706 1.471.015 2.742-.286 3.383-1.746z"/><path d="m334.476 508.539c2.523-.616 5.459-3.548 3.178-6.089-.23-.255-.592-.307-.908-.241-.529.112-.648.632-.723 1.1-.289 1.792-.939 3.357-1.729 4.992-.06.126.038.272.182.238z"/><path d="m266.381 471.423c.26.038.504-.059.586-.333.338-1.122.248-2.12.09-3.274-.191-1.383-2.189-.908-2.289.311-.104 1.278.04 3.073 1.613 3.296z"/><path d="m223.215 489.077c.889-1.376.383-3.05-1.023-3.853-.412-.235-1.041-.209-1.367.176-.982 1.167.773 2.959 1.557 3.784.243.257.651.174.833-.107z"/><path d="m172.097 520.21c1.629.13 2.814-.468 4.072-1.476 1.025-.818-.316-2.536-1.393-1.81-1.24.838-2.189 1.513-2.951 2.811-.128.218.042.456.272.475z"/><path d="m162.312 561.675c.184.014.328-.162.332-.333.035-1.304-.83-2.482-1.842-3.251-.281-.212-.633.082-.648.373-.084 1.529.475 3.1 2.158 3.211z"/><path d="m163.955 589.853c.279.047.568-.299.307-.525-1.248-1.082-2.527-2.66-4.252-2.773-.477-.031-.752.463-.668.877.418 2.083 2.882 2.124 4.613 2.421z"/><path d="m156.019 613.3c.115-.041.145-.166.068-.256-1.393-1.643-3.867-2.252-5.582-.761-.164.142-.16.442 0 .585 1.528 1.344 3.7 1.036 5.514.432z"/><path d="m112.693 642.154c.689-.956.449-2.071.852-3.054.059-.142-.133-.266-.25-.193-1.094.684-2.008 1.119-2.479 2.455-.416 1.179 1.24 1.674 1.877.792z"/><path d="m131.172 732.312c-.006.252.197.572.461.607 1.387.189 2.531-1.016 3.334-2.049.201-.258.104-.699-.285-.689-1.407.027-3.465.441-3.51 2.131z"/><path d="m187.845 779.396c-.697 1.168-.324 2.047.77 2.727.156.098.393.039.48-.125.529-1.006.842-1.996 1.615-2.865.117-.133.098-.42-.119-.453-.937-.128-2.167-.261-2.746.716z"/><path d="m311.631 785.052c-.264-.666-1.094-.832-1.514-.197-.738 1.119-1.355 2.154-1.146 3.492.078.516.697.615 1.08.441 1.376-.623 2.14-2.312 1.58-3.736z"/><path d="m430.377 772.138c-.705-.889-1.447-1.211-2.438-1.684-.459-.219-.895.221-.676.676.471.99.795 1.732 1.684 2.438 1.025.816 2.248-.405 1.43-1.43z"/><path d="m461.832 757.464c-.127-.137-.379-.072-.42.109-.316 1.32-.396 3.029 1.014 3.74.334.168.771.227 1.102 0 .529-.362.719-.733.744-1.369.004-.127-.1-.283-.232-.305-.911-.129-1.607-1.535-2.208-2.175z"/><path d="m461.877 723.899c.109-.141.141-.402-.063-.494-1.344-.594-2.742-.668-4.098-1.217-.311-.125-.518.27-.396.516.955 1.902 2.943 3.268 4.557 1.195z"/><path d="m505.98 709.269c-.436.04-.76.477-.514.893.738 1.243 2.471 2.968 3.967 2.992.188.005.346-.131.398-.303.598-2.008-2.015-3.756-3.851-3.582z"/><path d="m495.181 738.077c-1.586-.432-2.451.271-3.375 1.51-.197.266.074.615.357.623 1.266.033 2.693.154 3.689-.754.09-.083.111-.211.086-.324-.029-.127-.059-.256-.088-.384-.073-.319-.356-.585-.669-.671z"/><path d="m454.006 767.724c-3.291 1.842-7.34 3.477-9.934 6.301-.234.256-.098.795.313.752 4.135-.424 7.939-3.139 10.064-6.609.174-.284-.164-.599-.443-.444z"/><path d="m443.062 777.618c-.148.15-.043.414.17.414 1.438.006 2.984.318 4.199-.531.211-.148.213-.428 0-.576-1.369-.946-3.24-.467-4.369.693z"/><path d="m188.504 555.97c.045 1.383.488 2.174 1.658 2.916.486.311 1.027-.105 1.068-.613.104-1.305-.248-2.107-1.254-2.912-.543-.439-1.498-.214-1.472.609z"/><path d="m206.836 499.369c1.176-.976 1.877-2.527.912-3.852-.137-.189-.328-.238-.541-.142-1.582.715-1.396 2.396-.836 3.869.076.206.293.265.465.125z"/><path d="m244.478 503.759c.348 1.155.318 2.325 1.113 3.278.076.092.229.099.328.04 1.447-.845 1.209-2.505.777-3.931-.427-1.416-2.649-.811-2.218.613z"/><path d="m242.844 509.758c.096-.047.191-.095.287-.142.293-.146.477-.508.473-.827-.01-.654-.041-.882-.266-1.505-.17-.472-.572-.868-1.111-.846-.422.019-.482.063-.813.338-.422.346-.383.953-.18 1.394.184.4.822 1.983 1.61 1.588z"/><path d="m289.761 504.451c-.07.095.004.24.107.266 1.361.328 2.393-.067 3.309-1.134.119-.14.096-.414-.119-.452-1.412-.242-2.429.184-3.297 1.32z"/><path d="m345.871 517.075c-.088.063-.113.209 0 .266 1.709.865 3.947.231 5.158-1.19.354-.413.156-1.185-.477-1.15-1.707.091-3.312 1.089-4.681 2.074z"/><path d="m348.623 519.278c-.172.236.002.614.273.675 1.186.264 2.182.283 3.068-.564.141-.135.146-.387 0-.521-1.083-1.006-2.49-.767-3.341.41z"/><path d="m348.799 471.713c.303-.292.303-.823 0-1.115-1.141-1.096-2.957-.45-4.162.285-.203.126-.203.419 0 .544 1.205.735 3.021 1.381 4.162.286z"/><path d="m348.25 475.138c1.123.049 1.256.92 2.436.081.129-.095.182-.286.051-.409-.893-.846-1.791-.899-2.588.083-.079.096-.032.238.101.245z"/><path d="m371.439 491.278c1.25-1.062 2.24-2.729 2.289-4.387.021-.695-.795-1.145-1.381-.792-1.709 1.032-1.98 3.311-1.297 5.075.067.17.251.223.389.104z"/><path d="m373.619 493.563c.748-.113 1.18-.29 1.797-.718.365-.254.557-.643.445-1.091-.133-.526-.152-.49-.676-.675-.318-.114-.709.019-.939.248-.658.652-1.031 1.189-.814 2.127.019.089.109.12.187.109z"/><path d="m428.459 510.644c1.525-.146 2.908-1.43 3.791-2.605.447-.597-.287-1.444-.943-1.23-1.531.504-3.025 1.819-3.189 3.494-.017.173.169.356.341.341z"/><path d="m430.922 514.251c-.242-.11-.543.069-.463.355.178.656.287 1.313.49 1.965.129.414.461.637.881.67.18.014.299-.052.461-.126.479-.211.525-.841.328-1.248-.402-.822-.869-1.236-1.697-1.616z"/><path d="m410.804 534.479c1.48-.049 1.486-2.354 0-2.303-1.531.052-2.295.839-3.535 1.395-.164.072-.061.287.082.301 1.145.115 2.19.65 3.453.607z"/><path d="m402.066 503.716c.246-.097.318-.354.148-.558-1.045-1.262-2.928-1.961-4.311-.77-.139.122-.115.347 0 .473 1.099 1.172 2.72 1.419 4.163.855z"/><path d="m517.499 569.975c-.891-.894-2.574-1.909-3.639-.751-.076.083-.1.205-.041.303.482.832 1.393 1.381 2.072 2.059 1.04 1.035 2.647-.57 1.608-1.611z"/><path d="m540.107 544.954c1.41.159 1.422-2.092 0-2.218-.707-.063-1.314.014-1.994.196-.25.066-.344.348-.232.568.532 1.02 1.126 1.333 2.226 1.454z"/><path d="m500.476 531.251c.185.116.367-.043.392-.226.246-1.892-1.201-3.126-3.074-2.379-.389.153-.477.625-.115.87.924.63 1.87 1.149 2.797 1.735z"/><path d="m494.338 563.899c1.395-1.395-2.059-2.732-2.832-2.949-.279-.076-.607.203-.5.5.338.912 2.019 3.764 3.332 2.449z"/><path d="m530.722 653.245c-.957 1.131-1.746 2.473-.838 3.816.076.109.219.193.355.143 1.709-.613 1.813-2.473.936-3.9-.092-.149-.33-.207-.453-.059z"/><path d="m481.177 708.604c.508-.117.787-.596.822-1.082.063-.881.023-1.529-.25-2.355-.086-.257-.373-.32-.57-.153-.77.647-1.041 1.279-1.381 2.212-.133.365.021.828.287 1.092.446.437.477.426 1.092.286z"/><path d="m429.066 742.483c.012-.189-.258-.307-.385-.16-.865 1.017-1.824 1.923-2.607 3.009-.205.281-.135.663 0 .951.039.081.076.162.117.243.063.133.213.191.348.199.117.01.234.016.348.023.338.024.643-.198.816-.466.764-1.17 1.279-2.394 1.363-3.799z"/><path d="m383.365 774.39c.033-.133-.098-.307-.246-.246-1.387.586-3.365 2.318-2.086 3.867.074.092.201.1.305.082 1.617-.285 1.703-2.418 2.027-3.703z"/><path d="m338.064 804.735c-.289-.191-.674.191-.48.48.713 1.064 1.297 2 2.309 2.807 1.104.875 2.336-.771 1.168-1.514-.981-.62-2.024-1.134-2.997-1.773z"/><path d="m289.006 809.122c-.475.076-.506.775-.127.986.676.383 1.25.854 1.982 1.17 1.34.58 2.139-1.373.771-1.828-.892-.297-1.693-.474-2.626-.328z"/><path d="m280.972 776.792c.076-.172.021-.396-.186-.449-2.029-.504-3.654.996-4.818 2.521-.09.117.059.244.174.225 1.85-.336 3.957-.387 4.83-2.297z"/><path d="m255.521 787.913c-.494.434-.234 1.326.389 1.473 1.359.32 2.48.023 3.789-.486.271-.105.361-.402.166-.631-1.238-1.452-2.936-1.598-4.344-.356z"/><path d="m226.349 761.226c-.934-.518-1.9.326-1.705 1.311.34 1.695 2.518 3.678 4.34 2.91.145-.061.238-.157.246-.322.057-1.543-1.642-3.209-2.881-3.899z"/><path d="m190.621 759.11c.342 1.504 1.307 2.925 2.873 3.285.18.04.391-.055.432-.248.338-1.549-.318-3.066-1.486-4.098-.821-.72-2.067-.028-1.819 1.061z"/><path d="m152.076 730.257c-.732.553-.635 2.084.533 1.968 1.645-.164 4.211-1.192 5.109-2.674.063-.105.027-.259-.086-.319-1.503-.805-4.285.072-5.556 1.025z"/><path d="m182.437 729.321c-.488 1.236-.596 2.848-.219 4.125.186.615 1.066.615 1.252 0 .377-1.277.27-2.889-.219-4.125-.157-.4-.656-.4-.814 0z"/><path d="m131.299 681.014c-1.377-.899-2.918-.552-4.186.416-.701.537-.525 1.7.469 1.728 1.439.035 2.748-.36 3.822-1.325.262-.234.162-.646-.105-.819z"/><path d="m136.103 618.769c-1.385-1.008-4.322 1.012-4.74 2.395-.246.816.533 1.385 1.268 1.266 1.25-.202 3.354-2.203 3.549-3.479.011-.079-.01-.136-.077-.182z"/><path d="m165.082 569.616c-.252 1.529.264 3.055 1.277 4.222.207.238.67.382.969.257.029.016.059.029.088.045.117.076.252-.051.223-.174.016.059.418-.692.424-.832.014-.477-.039-.861-.105-1.336-.145-1.008-.506-1.863-1.141-2.64-.472-.575-1.614-.283-1.735.458z"/><path d="m198.025 522.679c-1.783 1.232-.893 3.848.035 5.352.063.1.205.1.266 0 .93-1.504 1.82-4.119.037-5.352-.094-.063-.246-.063-.338 0z"/><path d="m229.664 501.318c.42-.038.664-.357.59-.773-.213-1.181-.971-2.26-1.998-2.88-.496-.3-1.148-.014-1.307.53-.479 1.694 1.01 3.284 2.715 3.123z"/><path d="m244.802 478.236c1.52-1.718 3.131-3.11 3.268-5.545.012-.234-.248-.428-.469-.355-2.652.85-3.08 3.251-3.213 5.729-.011.207.276.329.414.171z"/><path d="m290.029 468.664c1.197-.92 3.207-1.606 3.344-3.264.014-.166-.129-.335-.283-.373-1.922-.475-2.877 1.892-3.389 3.382-.061.176.17.376.328.255z"/><path d="m320.521 498.958c.834-1.455.445-3.47.158-5.049-.072-.394-.479-.782-.861-.863-.271-.054-.395-.065-.658 0-.541.14-.891.647-.906 1.191-.045 1.687.305 3.848 1.811 4.84.15.099.368.031.456-.119z"/><path d="m342.541 486.68c1.186-.402 2.383-.285 2.99-1.502.088-.18.064-.461-.146-.556-1.516-.665-2.436.471-3.047 1.795-.061.13.041.319.203.263z"/><path d="m257.482 748.239c.086-.779.041-1.518.031-2.303-.004-.482-.682-.852-1.029-.424-.725.893-.994 1.547-.908 2.727.09 1.244 1.775 1.213 1.906 0z"/><path d="m398.728 541.737c1.008-.66 1.547-1.436 2.041-2.54.197-.44.238-1.028-.178-1.376-.313-.264-.396-.313-.803-.333-.373-.021-.816.225-.982.562-.576 1.166-1.002 2.146-.676 3.445.065.245.38.383.598.242z"/><path d="m353.162 562.429c.189.346.621.339.893.113.783-.643 1.555-1.801 1.133-2.838-.244-.586-.801-.863-1.395-.566-1.205.598-1.201 2.242-.631 3.291z"/><path d="m340.662 583.956c-.176 1.375.068 3.336 1.25 4.199.152.109.346.043.471-.059 1.188-.963.98-3.15.463-4.435-.481-1.199-2.022-.966-2.184.295z"/><path d="m304.47 623.575c-1.488 1.039-1.672 2.504-1.391 4.234.035.219.326.254.467.125 1.125-1.063 1.953-2.102 2.156-3.652.079-.605-.757-1.037-1.232-.707z"/><path d="m256.857 679.455c-.053-.135-.166-.265-.328-.251-1.439.119-2.344 1.231-2.299 2.644.008.21.166.374.379.378 1.488.031 2.869-1.229 2.248-2.771z"/><path d="m228.189 714.368c.803-.998 1.297-2.129.881-3.402-.033-.105-.164-.178-.264-.107-.818.557-1.332 1.4-2.012 2.115-.328.344-.346.778-.156 1.194.082.175.199.235.355.353.325.243.944.162 1.196-.153z"/><path d="m213.049 728.208c-.059-.207-.314-.266-.469-.123-1.17 1.102-2.756 2.743-2.83 4.42-.01.205.164.32.342.342 2.334.31 3.474-2.735 2.957-4.639z"/><path d="m192.004 730.937c-1.217.506-.781 2.215.547 1.984 1.332-.23 2.52-.874 3.543-1.746.164-.14.076-.439-.125-.481-1.333-.293-2.696-.285-3.965.243z"/><path d="m181.308 748.885c.25-.028.367-.337.133-.485-1.367-.875-3.031-1.813-4.402-.592-.24.214-.238.65 0 .863 1.224 1.101 2.758.394 4.269.214z"/><path d="m149.457 757.647c-.996-.127-1.225 1.322-.482 1.777 1.271.777 2.377.931 3.68.162.131-.08.178-.291.049-.396-1.048-.875-1.896-1.369-3.247-1.543z"/><path d="m322.246 712.642c.941-1.053.889-1.683.164-2.928-.115-.199-.396-.189-.512 0-.6.945-.859 1.349-.803 2.451.028.548.735.941 1.151.477z"/><path d="m329.76 811.694c-.723.234-1.107.742-1.49 1.377-.527.869.652 1.709 1.363 1.055.723-.664 1.205-1.6.381-2.363-.069-.065-.165-.098-.254-.069z"/><path d="m310.123 817.86c-.176.125-.168.412.063.477 2.041.576 3.723.578 5.598-.369.197-.102.201-.43 0-.531-1.987-.997-3.79-.918-5.661.423z"/><path d="m406.191 790.64c-1.441.193-2.316.453-3.324 1.473-.24.246-.049.604.262.631 1.25.113 2.051.484 3.354.074 1.138-.36.991-2.35-.292-2.178z"/><path d="m412.644 789.017c-1.139.367-1.438 1.07-1.391 2.205.035.813 1.117.932 1.379.188.252-.715.371-1.355.387-2.107.002-.187-.193-.347-.375-.286z"/><path d="m473.695 749.007c-.014.139.09.313.215.373 1.596.764 4.729-.107 5.516-1.725.066-.14.072-.326-.057-.437-1.545-1.36-5.471-.479-5.674 1.789z"/><path d="m520.698 701.173c-.83.941-.791 2.012-.299 3.131.504 1.137 2.381.32 2-.844-.289-.877-.541-1.648-1.207-2.287-.128-.126-.365-.147-.494 0z"/><path d="m543.626 675.012c-.938.364-1.813.994-2.773 1.28-.127.037-.195.217-.084.316 1.148.989 2.371 1.236 3.691.383.985-.635.36-2.445-.834-1.979z"/><path d="m554.866 647.69c.244 2.168 3.059 1.021 3.582-.387.111-.295-.01-.719-.242-.924-.713-.622-3.443.399-3.34 1.311z"/><path d="m554.939 628.024c-.063.109-.004.238.113.275 1.537.52 2.748-.092 3.574-1.432.189-.311.174-.707 0-1.017-1.006-1.792-3.224 1.327-3.687 2.174z"/><path d="m559.195 584.218c-1.486-.277-2.268.154-3.463 1.061-.16.119-.203.371 0 .482 1.168.645 2.193.734 3.463.297.814-.284.998-1.654 0-1.84z"/><path d="m526.575 596.394c.834.816 1.25 1.172 2.43 1.094 1.092-.072 1.064-1.563 0-1.674-1.307-.135-.727.121-2.303.272-.148.014-.246.188-.127.308z"/><path d="m530.513 594.589c.605.843 1.115 1.004 2.105.721.594-.168.559-.975 0-1.16-.703-.233-.846-.085-1.568-.26-.371-.093-.797.339-.537.699z"/><path d="m185.066 616.017c1.184-2.758 1.695-5.694 3.182-8.334 1.449-2.572 4.098-3.859 5.746-6.191.225-.314-.084-.676-.402-.703-3.363-.293-6.086 2.955-7.803 5.457-1.914 2.787-2.906 6.647-1.33 9.771.111.216.504.238.607 0z"/><path d="m196.851 597.993c.105-.086.105-.297 0-.383-1.615-1.283-3.875-1.25-5.32.434-.078.09-.084.252.039.311 1.85.895 3.715.895 5.281-.362z"/><path d="m250.326 535.077c2.303-1.092 4.121-2.139 6.041-3.829.203-.178.045-.556-.223-.538-2.977.189-5.205.77-7.688 2.502-1.805 1.256-3.711 2.795-3.979 5.104-.016.129.137.171.229.133 2.003-.871 3.638-2.427 5.62-3.372z"/><path d="m300.355 527.851c.199-.07.289-.324.125-.481-2.541-2.487-7.154-1.799-9.916 0-.199.13-.111.419.119.437 3.092.232 6.696 1.051 9.672.044z"/><path d="m341.726 764.356c-1.561.107-2.811 1.107-4.287 1.568-1.316.414-2.455.877-3.529 1.748-.15.121-.01.321.139.337 2.357.259 8.588.71 8.064-3.267-.027-.198-.158-.402-.387-.386z"/><path d="m478.021 662.45c-.229-.076-.332.207-.211.36 1.656 2.112 2.855 4.573 4.646 6.582.781.882 2.549-.048 2.064-1.2-1.218-2.888-3.571-4.777-6.499-5.742z"/><path d="m440.267 698.646c-1.115 1.432-1.695 3.144-2.928 4.556-1.363 1.563-3.387 2.586-4.219 4.552-.094.225-.031.48.225.555 3.885 1.139 10.221-6.294 7.098-9.662-.041-.048-.137-.056-.176-.001z"/><path d="m416.006 601.539c-.107.169.104.368.273.271 6.838-4.068 13.307-8.334 20.695-11.415.266-.112.268-.569-.074-.548-8.291.494-16.338 4.496-20.894 11.692z"/><path d="m505.638 615.454c.035.371.559.48.672.09 2.389-8.388-3.24-19.467-11.796-22.139-.174-.054-.301.178-.176.299 6.123 5.948 10.458 13.09 11.3 21.75z"/><path d="m504.954 620.635c.01 1.847-.59 4.573.803 5.979.119.121.326.121.445 0 1.531-1.557.631-4.557-.41-6.207-.234-.371-.84-.231-.838.228z"/><path d="m537.394 685.198c-.57-.112-.916-.18-1.48-.171-.422.007-.754.416-.633.832.238.835.479.996 1.201 1.497.488.338 1.373.135 1.617-.422.098-.219.191-.362.162-.599-.061-.498-.313-1.024-.867-1.137z"/><path d="m152.797 534.304c.973-.711 1.357-1.938 1.025-3.156-.35-1.285-2.242-1.285-2.592 0-.332 1.219.053 2.445 1.025 3.156.141.103.401.103.542 0z"/><path d="m135.357 571.392c.146-.068.449-.145.531-.309.031-.063.063-.123.094-.184.283-.567.078-1.431-.637-1.563-.088-.016-.176-.034-.262-.05-2.075-.387-1.663 3.002.274 2.106z"/><path d="m103.59 647.2c-.52-1.183-1.715-1.102-2.809-.934-1.033.16-1.033 1.924 0 2.083.469.072 3.381.146 2.809-1.149z"/><path d="m101.816 677.82c.135-.212.004-.506-.229-.569-1.381-.365-2.295-.424-3.305.628-.371.387-.223 1.079.322 1.216 1.37.349 2.45-.063 3.212-1.275z"/><path d="m106.09 696.491c-.648.027-1.217.178-1.84.364-1.822.546-.234 3.243 1.119 1.925.627-.611.971-1.096 1.043-1.965.014-.171-.156-.331-.322-.324z"/><path d="m108.404 699.671c-1.465 0-1.465 2.275 0 2.275 1.469 0 1.469-2.275 0-2.275z"/><path d="m180.301 777.378c-.209.119-.697.023-.91.027-1.844.023-1.164 3.012.58 2.145.777-.385 1.051-.893 1.049-1.76-.001-.365-.407-.592-.719-.412z"/><path d="m180.773 776.278c.869.867 2.652-.393 1.846-1.336-1.102-1.291-3.024.159-1.846 1.336z"/><path d="m274.785 808.597c-1.072.764-1.783 1.533-1.814 2.977-.02 1.029 1.248 1.186 1.777.48.781-1.049.641-2.012.525-3.18-.021-.221-.267-.436-.488-.277z"/><path d="m277.763 808.726c-.447.6-.436.582-.605 1.301-.082.336-.014.744.26.984.137.121.271.24.406.359.652.576 1.492.006 1.369-.795-.121-.793-.471-1.295-.965-1.91-.131-.164-.365-.078-.465.061z"/><path d="m311.021 683.13c-.01-.104-.02-.201-.039-.299-.113-.502-.598-.799-1.082-.821-1.238-.063-2.387-.133-3.568.283-.242.085-.322.364-.148.558 1.012 1.122 2.207 1.583 3.717 1.398.562-.069 1.179-.459 1.12-1.119z"/><path d="m316.586 677.964c-.818-.33-1.605-.6-2.492-.6-.129 0-.273.119-.26.26.119 1.172.787 1.973 1.865 2.445 1.529.67 2.432-1.482.887-2.105z"/><path d="m330.015 657.376c-.627-.24-1.037.537-.791 1.031.508 1.03 1.242 1.68 2.209 2.285 1.264.787 2.42-1.205 1.162-1.988-.837-.523-1.658-.973-2.58-1.328z"/><path d="m429.564 558.944c-.555-1.563-2.965.898-3.328 1.453-.127.195.004.452.211.518 1.266.391 3.76-.16 3.117-1.971z"/><path d="m438.9 545.894c.9-.375 1.732-.767 2.621-1.183 1.168-.549.33-2.351-.855-2.032-1.609.426-2.055 1.371-2.141 2.93-.012.177.199.359.375.285z"/><path d="m461.078 525.379c1.064-.114 4.043-1.68 2.615-3.11-1.43-1.427-2.992 1.553-3.109 2.615-.028.25.248.521.494.495z"/><path d="m315.703 470.649c.941-.333 1.373-.859 1.729-1.779.529-1.367-1.83-2.066-2.221-.611-.23.85-.24 1.498.188 2.265.054.1.193.164.304.125z"/><path d="m300.031 486.358c1.215-.877 1.717-2.375 1.131-3.803-.475-1.158-2.518-1.162-2.387.324.107 1.232.174 2.341.887 3.38.076.113.244.189.369.099z"/><path d="m278.224 489.3c.049.09.195.14.283.071 1.326-1.012 1.465-2.441.631-3.862-.893-1.519-2.98-.189-2.305 1.347.387.878.936 1.61 1.391 2.444z"/><path d="m225.144 516.972c1.092-.823 1.582-2.53.346-3.454-.219-.162-.645-.162-.863 0-1.236.924-.746 2.631.346 3.454.042.033.128.033.171 0z"/><path d="m175.451 530.396c-.168.471.043.987.355 1.338.711.797 1.314 1.388 2.242 1.921.215.124.484.009.555-.226.391-1.301.082-2.241-.639-3.361-.338-.531-.936-.791-1.551-.635-.611.158-.753.38-.962.963z"/><path d="m128.013 672.8c.414-.49.572-.617.656-1.229.027-.197-.047-.33-.234-.409-.301-.142-.615-.252-.939-.328-.754-.226-1.463.39-1.488 1.134-.014.439.041.508.344.832.411.435 1.257.478 1.661 0z"/><path d="m355.287 223.276c.037-.16-.156-.221-.246-.104-2.688 3.479-5.021 6.838-8.561 9.541-3.191 2.436-7.213 3.939-10.965 5.241-.275.097-.234.506.07.513 8.489.213 17.749-6.81 19.702-15.191z"/><path d="m352.592 233.42c2.488-1.313 4.482-3.407 4.684-6.342.012-.161-.23-.276-.338-.139-1.568 2.019-3.064 4.095-4.629 6.111-.161.206.033.5.283.37z"/><path d="m729.089 451.057c.238-.178.113-.607-.213-.511-12.111 3.67-23.852 2.186-34.398-4.834-.109-.074-.258.074-.184.184 6.75 10.167 25.358 12.204 34.795 5.161z"/><path d="m723.534 456.802c-.123.05-.17.219-.037.295 3.762 2.161 8.871-1.084 10.311-4.675.092-.232-.203-.387-.383-.295-1.615.827-3.082 1.885-4.658 2.774-1.643.929-3.508 1.197-5.233 1.901z"/><path d="m739.173 449.215c-.053-.164-.295-.266-.422-.11-1.404 1.721-2.439 3.694-3.793 5.474-.045.061-.014.178.057.209 3.055 1.349 4.891-3.25 4.158-5.573z"/><path d="m702.47 755.931c-.463.047-.486.732 0 .736 94.43.803 183-86.858 195.48-178.402.021-.177-.24-.262-.279-.076-9.049 43.764-32.471 82.545-63.326 114.395-35.379 36.517-81.451 58.063-131.875 63.347z"/><path d="m899.101 574.087c1.152-2.6 1.672-5.424.846-8.198-.066-.22-.363-.212-.436 0-.863 2.612-1.074 5.397-.711 8.118.018.137.227.249.301.08z"/><path d="m588.027 306.485c.172.299.715.093.574-.242-9.154-22.073-25.17-40.382-42.584-56.433-21.357-19.683-48.544-36.265-78.031-38.63-.182-.014-.219.276-.043.319 50.806 11.762 94.304 50.311 120.084 94.986z"/><path d="m593.138 315.472c-.396-2.458-1.596-4.795-3.561-6.394-.135-.11-.35-.014-.301.173.625 2.402 1.734 4.683 3.455 6.456.184.189.442-.011.407-.235z"/><path d="m542.099 766.767c-31.053 62.92-101.265 113.939-171.974 120.029-.467.039-.482.746 0 .736 37.959-.777 73.643-17.203 104.502-38.447 28.589-19.682 56.519-48.85 67.783-82.188.062-.183-.225-.306-.311-.13z"/><path d="m370.912 847.083c-3.367-.35-6.742.467-10.117.627-3.398.158-6.732-.396-10.117-.455-.205-.004-.309.311-.109.402 5.563 2.574 15.174 3.494 20.539.146.345-.216.175-.681-.196-.72z"/><path d="m375.181 850.12c.188-.236.023-.611-.305-.527-2.244.584-4.432 1.516-6.514 2.531-.201.098-.109.359.057.426 2.651 1.068 5.143-.385 6.762-2.43z"/><path d="m715.605 690.187c-20.566 3.957-39.881 3.579-60.623 2.506-.227-.01-.266.332-.053.39 19.264 5.356 42.463 6.009 60.898-2.37.315-.146.077-.585-.222-.526z"/><path d="m727.398 689.653c-.01-.264-.238-.424-.49-.373-1.523.305-2.639 1.709-3.881 2.567-1.797 1.243-3.818 1.638-5.783 2.453-.197.081-.213.337 0 .413 3.162 1.146 10.32-.835 10.154-5.06z"/><path d="m735.45 687.321c.061-.277-.166-.502-.443-.443-2.143.455-4.061 2.775-5.766 4.059-.273.207-.23.754.197.723 2.413-.183 5.466-1.806 6.012-4.339z"/><path d="m406.318 380.293c6.25 10.729 8.564 22.064 12.771 33.487.156.425.738.347.777-.105 1.922-22.529-17.518-49.403-35.092-61.688-.199-.138-.412.162-.252.326 8.388 8.561 15.753 17.603 21.796 27.98z"/><path d="m425.408 420.311c2.973-4.706 1.992-11.906-.895-16.456-.141-.22-.432-.069-.396.167.828 5.448.381 10.69.703 16.13.02.312.416.428.588.159z"/><path d="m429.347 424.476c1.84-1.192 1.451-4.212.877-6.009-.074-.231-.393-.229-.467 0-.543 1.685-1.164 4.057-.887 5.815.032.204.315.299.477.194z"/></g></g></g></svg>